version 1
nodes
  0 "Base"  -1
  1 "Pump"   0
  2 "Bolt"   0
  3 "Cover"   0
  4 "Shell"   0
  5 "Stock"   0
  6 "Stock_flip"   5
  7 "Trigger"   0
  8 "Holder"   0
  9 "Pin"   8
 10 "Hand_Mesh"  -1
 11 "Left_Hand_C"  -1
 12 "IK Chain02"  11
 13 "Dummy01"  -1
 14 "Right_U_Arm"  13
 15 "Right_L_Arm"  14
 16 "Right_L_Arm_End"  15
 17 "Right_Hand"  15
 18 "Bone22"  17
 19 "Bone23"  18
 20 "Bone24"  19
 21 "Bone25"  20
 22 "Right_Hand_End"  17
 23 "Bone06"  17
 24 "Bone07"  23
 25 "Bone08"  24
 26 "Bone09"  25
 27 "Bone10"  17
 28 "Bone11"  27
 29 "Bone12"  28
 30 "Bone13"  29
 31 "Bone14"  17
 32 "Bone15"  31
 33 "Bone16"  32
 34 "Bone17"  33
 35 "Bone18"  17
 36 "Bone19"  35
 37 "Bone20"  36
 38 "Bone21"  37
 39 "Dummy02"  -1
 40 "Left_U_Arm"  39
 41 "Left_L_Arm"  40
 42 "Left_Hand"  41
 43 "Left_thumb_1"  42
 44 "Left_thumb_2"  43
 45 "Left_thumb_3"  44
 46 "Left_ring_1"  42
 47 "Left_ring_2"  46
 48 "Left_ring_3"  47
 49 "Left_pingky_1"  42
 50 "Left_pingky_2"  49
 51 "Left_pingky_3"  50
 52 "Left_middle_1"  42
 53 "Left_middle_2"  52
 54 "Left_middle_3"  53
 55 "Left_Hand_End"  42
 56 "Left_point_1"  42
 57 "Left_point_2"  56
 58 "Left_point_3"  57
 59 "Left_L_Arm_End"  41
 60 "Right_Hand_C"  -1
 61 "IK Chain01"  60
end
skeleton
time 0
  0 14.251181 -10.066580 2.769889 -0.522872 0.200820 0.563541
  1 0.250197 -3.917488 -0.099873 -0.000000 0.000000 -0.000000
  2 0.337617 4.930949 0.877138 0.000000 0.000000 0.000000
  3 0.249742 5.375675 -0.431248 -0.000000 0.000000 -0.000000
  4 -2.477793 12.401384 4.136673 -0.000000 0.000000 -0.000000
  5 0.241867 9.046291 0.896507 -0.000000 0.000000 -0.000000
  6 0.000303 8.159075 -1.557893 0.000000 0.000000 0.000000
  7 0.246662 8.082764 -0.926848 -0.000000 0.000000 -0.000000
  8 -2.477793 12.401384 4.136673 -0.000000 0.000000 -0.000000
  9 -0.000000 -0.000000 -0.000000 0.000000 0.000000 0.000000
 10 0.000000 -15.653315 -6.600977 0.000000 0.000000 0.000000
 11 9.181081 -2.102246 -5.571384 -0.609393 0.079216 0.380444
 12 0.000000 0.000000 -0.000000 0.000000 0.000000 0.000000
 13 -2.636130 0.805164 -5.542013 0.000000 -1.226559 0.000000
 14 -0.000000 0.000000 0.000000 -1.431839 -2.906794 0.652941
 15 8.403361 -0.000000 -0.000001 0.000000 1.068804 -0.000000
 16 8.136638 -0.000000 0.000001 -1.570796 -0.032553 0.000000
 17 8.136636 0.000008 0.000005 -2.512731 -0.078881 -0.520258
 18 1.369794 0.361443 1.237272 1.175075 -0.347333 0.479992
 19 1.320667 -0.000000 -0.000000 0.201328 -0.139079 -0.045485
 20 1.066025 0.000001 -0.000001 -0.014471 -0.113783 0.196807
 21 1.039343 -0.000001 0.000000 1.325744 0.991426 2.013611
 22 2.457049 -0.024848 0.014095 -0.000072 -0.005736 -0.010113
 23 3.525410 -0.419243 0.945131 1.648473 0.052800 0.007770
 24 1.209882 -0.000000 -0.000000 0.003943 0.285298 -0.018611
 25 0.743918 -0.000000 -0.000000 -0.001656 1.148181 -0.092843
 26 0.794889 0.000000 0.000001 -0.000005 0.704556 -0.000608
 27 3.414728 -0.449902 0.223652 1.693617 0.046763 0.558369
 28 1.390921 -0.000001 -0.000000 -0.004769 1.284870 -0.018048
 29 0.906346 -0.000000 -0.000000 0.006062 -0.433839 0.045570
 30 0.776325 -0.000000 0.000000 0.001079 0.866577 0.033798
 31 3.289557 -0.311001 -0.505976 1.762164 0.112217 0.757107
 32 1.262953 -0.000001 0.000001 0.410301 1.354679 0.453063
 33 0.919429 -0.000000 -0.000000 -0.052499 -0.297525 0.013980
 34 0.803003 -0.000001 -0.000001 -0.163064 1.145489 -1.117549
 35 3.167419 -0.097637 -1.197365 1.832995 -0.038354 1.129403
 36 0.817884 -0.000001 0.000000 0.142196 1.147469 0.122418
 37 0.708995 -0.000000 -0.000000 -0.039911 -0.253101 0.086949
 38 0.794784 -0.000001 -0.000001 -1.042950 1.141227 -1.966856
 39 5.566999 5.667288 -3.006967 0.000000 0.000000 0.000000
 40 0.000000 0.000000 0.000000 -1.328086 0.161754 -0.141313
 41 8.403363 0.000000 -0.000001 0.000000 1.998803 0.000000
 42 8.136635 -0.000008 0.000003 2.361241 -0.532759 -1.133849
 43 1.369793 -0.361442 1.237272 -1.127491 0.097656 -0.579344
 44 1.320668 0.000001 -0.000000 -0.218662 -0.109509 0.185068
 45 1.066023 -0.000000 0.000001 -0.025949 -0.111735 0.158666
 46 3.289558 0.311002 -0.505976 -1.569928 0.064069 -0.677339
 47 1.262952 -0.000000 -0.000001 -0.592079 1.417311 -0.637209
 48 0.919429 0.000002 -0.000001 0.132824 1.180916 0.124669
 49 3.167420 0.097638 -1.197363 -1.577201 0.079890 -0.593938
 50 0.817882 -0.000000 -0.000001 -0.164298 1.212571 -0.146163
 51 0.708995 0.000002 -0.000000 0.062061 0.898421 -0.028374
 52 3.414728 0.449902 0.223654 -1.580784 0.013019 -0.654459
 53 1.390922 0.000002 -0.000001 0.005510 1.543565 0.018246
 54 0.906347 0.000000 0.000001 -0.006062 0.824979 -0.045570
 55 2.457048 0.024849 0.014096 0.000073 -0.005736 0.010114
 56 3.525410 0.419243 0.945133 -1.582286 -0.026814 -0.287264
 57 1.209882 -0.000002 -0.000000 -0.003943 1.026206 0.018610
 58 0.743920 -0.000000 -0.000000 0.001656 1.150047 0.092843
 59 8.136637 0.000000 -0.000001 1.570797 -0.032533 -0.000000
 60 -7.965591 -11.905531 -8.925855 0.064385 -0.118339 0.209227
 61 0.008386 -0.048311 -0.069476 0.000000 0.000000 -0.000000
time 1
  0 14.016392 -10.140312 2.686087 -0.521045 0.197768 0.563044
  1 0.250197 -3.917488 -0.099874 -0.000000 0.000000 -0.000000
  2 0.337618 4.930948 0.877138 0.000000 0.000000 0.000000
  3 0.249743 5.375675 -0.431249 -0.000000 0.000000 -0.000000
  4 -2.477793 12.401383 4.136672 -0.000000 0.000000 -0.000000
  5 0.241868 9.046291 0.896506 -0.000000 0.000000 -0.000000
  6 0.000303 8.159075 -1.557893 0.000000 0.000000 0.000000
  7 0.246663 8.082764 -0.926848 -0.000000 0.000000 -0.000000
  8 -2.477793 12.401383 4.136672 -0.000000 0.000000 -0.000000
  9 0.000000 -0.000000 -0.000000 0.000000 0.000000 0.000000
 10 0.000000 -15.653315 -6.600977 0.000000 0.000000 0.000000
 11 8.966682 -2.145440 -5.638322 -0.607070 0.076541 0.379766
 12 0.000000 -0.000000 0.000000 0.000000 0.000000 0.000000
 13 -2.636130 0.805164 -5.542013 0.000000 -1.160907 0.000000
 14 0.000000 0.000000 0.000000 -1.453221 -2.944506 0.657060
 15 8.403363 -0.000001 -0.000001 -0.000000 1.081681 -0.000000
 16 8.136638 -0.000000 0.000000 -1.570796 -0.032553 0.000000
 17 8.136637 0.000008 0.000005 -2.471789 -0.042783 -0.491324
 18 1.369795 0.361443 1.237272 1.178684 -0.358495 0.482934
 19 1.320667 -0.000000 -0.000000 0.200923 -0.139620 -0.042721
 20 1.066025 0.000000 0.000000 -0.014675 -0.113752 0.198610
 21 1.039343 -0.000001 0.000000 1.325744 0.991426 2.013611
 22 2.457050 -0.024848 0.014095 -0.000072 -0.005736 -0.010113
 23 3.525410 -0.419243 0.945132 1.648473 0.052800 0.007770
 24 1.209884 -0.000000 0.000001 0.003943 0.270203 -0.018611
 25 0.743918 -0.000000 0.000001 -0.001656 1.111842 -0.092843
 26 0.794890 -0.000001 -0.000001 -0.000005 0.704556 -0.000608
 27 3.414728 -0.449902 0.223653 1.690442 0.048814 0.539564
 28 1.390921 -0.000001 -0.000001 -0.004769 1.239132 -0.018048
 29 0.906346 0.000001 0.000000 0.006062 -0.417029 0.045570
 30 0.776325 0.000000 0.000000 0.001079 0.866577 0.033798
 31 3.289558 -0.311001 -0.505976 1.760158 0.113696 0.741186
 32 1.262953 -0.000001 0.000001 0.399192 1.303869 0.438910
 33 0.919430 0.000000 0.000000 -0.052421 -0.288486 0.013511
 34 0.803003 -0.000000 -0.000001 -0.163064 1.145489 -1.117549
 35 3.167419 -0.097637 -1.197365 1.827277 -0.032124 1.100305
 36 0.817884 -0.000000 0.000001 0.139318 1.107325 0.117921
 37 0.708995 0.000000 0.000000 -0.039911 -0.253101 0.086949
 38 0.794784 -0.000000 -0.000001 -1.042950 1.141227 -1.966856
 39 5.566999 5.667288 -3.006967 0.000000 0.000000 0.000000
 40 0.000000 0.000000 0.000000 -1.320341 0.166059 -0.163213
 41 8.403363 -0.000000 -0.000001 0.000000 2.002768 0.000000
 42 8.136637 -0.000008 0.000003 2.390348 -0.540439 -1.155855
 43 1.369793 -0.361442 1.237272 -1.127491 0.097656 -0.579344
 44 1.320668 0.000002 -0.000001 -0.218662 -0.109509 0.185068
 45 1.066023 -0.000000 -0.000000 -0.025949 -0.111735 0.158666
 46 3.289559 0.311002 -0.505976 -1.569928 0.064069 -0.677339
 47 1.262953 -0.000000 -0.000001 -0.592079 1.417311 -0.637209
 48 0.919429 0.000002 -0.000001 0.132824 1.180916 0.124669
 49 3.167420 0.097637 -1.197364 -1.577201 0.079890 -0.593938
 50 0.817882 -0.000000 -0.000002 -0.164298 1.212571 -0.146163
 51 0.708995 0.000002 0.000000 0.062060 0.898421 -0.028374
 52 3.414728 0.449902 0.223654 -1.580784 0.013019 -0.654459
 53 1.390922 0.000002 -0.000001 0.005510 1.543565 0.018246
 54 0.906348 -0.000000 0.000001 -0.006062 0.824979 -0.045570
 55 2.457048 0.024849 0.014095 0.000073 -0.005736 0.010114
 56 3.525410 0.419243 0.945132 -1.582286 -0.026814 -0.287264
 57 1.209882 -0.000002 -0.000001 -0.003943 1.026206 0.018610
 58 0.743920 -0.000000 -0.000000 0.001656 1.150047 0.092843
 59 8.136639 -0.000000 -0.000002 1.570797 -0.032533 -0.000000
 60 -7.611637 -12.024704 -8.780141 0.036098 -0.113799 0.246015
 61 0.008386 -0.048311 -0.069476 0.000000 -0.000000 -0.000000
time 2
  0 13.361931 -10.345566 2.448469 -0.514963 0.189432 0.560048
  1 0.250197 -3.917488 -0.099873 0.000000 -0.000000 -0.000000
  2 0.337618 4.930948 0.877138 0.000000 0.000000 0.000000
  3 0.249743 5.375675 -0.431248 0.000000 -0.000000 -0.000000
  4 -2.477793 12.401382 4.136672 0.000000 -0.000000 -0.000000
  5 0.241868 9.046290 0.896506 0.000000 -0.000000 -0.000000
  6 0.000303 8.159075 -1.557894 0.000000 0.000000 0.000000
  7 0.246663 8.082764 -0.926848 0.000000 -0.000000 -0.000000
  8 -2.477793 12.401382 4.136672 0.000000 -0.000000 -0.000000
  9 0.000000 -0.000000 -0.000000 0.000000 0.000000 0.000000
 10 0.000000 -15.653315 -6.600977 0.000000 0.000000 0.000000
 11 8.377906 -2.251062 -5.819047 -0.599661 0.069434 0.376141
 12 -0.000000 0.000000 -0.000000 0.000000 0.000000 0.000000
 13 -2.636130 0.805164 -5.542013 0.000000 -0.996776 0.000000
 14 -0.000000 0.000000 0.000000 -1.504191 -3.032418 0.683874
 15 8.403362 0.000000 -0.000002 0.000000 1.111429 0.000000
 16 8.136637 -0.000001 -0.000000 -1.570796 -0.032553 -0.000000
 17 8.136637 0.000008 0.000006 -2.363099 0.044839 -0.409788
 18 1.369794 0.361443 1.237272 1.188359 -0.388409 0.490818
 19 1.320668 -0.000001 -0.000000 0.199838 -0.141071 -0.035316
 20 1.066025 0.000000 -0.000000 -0.015222 -0.113668 0.203443
 21 1.039343 -0.000001 -0.000000 1.325744 0.991426 2.013611
 22 2.457050 -0.024849 0.014095 -0.000072 -0.005736 -0.010113
 23 3.525410 -0.419243 0.945132 1.648473 0.052800 0.007770
 24 1.209884 -0.000000 -0.000000 0.003943 0.229748 -0.018611
 25 0.743917 0.000000 0.000000 -0.001656 1.014453 -0.092843
 26 0.794889 0.000000 0.000001 -0.000005 0.704556 -0.000608
 27 3.414728 -0.449902 0.223653 1.681933 0.054310 0.489166
 28 1.390922 -0.000000 0.000001 -0.004769 1.116552 -0.018048
 29 0.906345 0.000000 0.000001 0.006062 -0.371979 0.045570
 30 0.776325 -0.000000 0.000001 0.001079 0.866577 0.033798
 31 3.289557 -0.311001 -0.505976 1.754781 0.117659 0.698518
 32 1.262953 -0.000001 -0.000001 0.369417 1.167697 0.400978
 33 0.919429 0.000000 -0.000000 -0.052211 -0.264261 0.012252
 34 0.803004 -0.000001 -0.000001 -0.163064 1.145489 -1.117549
 35 3.167419 -0.097637 -1.197365 1.811955 -0.015428 1.022322
 36 0.817884 0.000000 0.000001 0.131604 0.999739 0.105869
 37 0.708996 0.000000 -0.000000 -0.039911 -0.253101 0.086949
 38 0.794784 -0.000001 -0.000000 -1.042950 1.141227 -1.966856
 39 5.566999 5.667288 -3.006967 0.000000 0.000000 0.000000
 40 0.000000 0.000000 0.000000 -1.299674 0.177685 -0.225270
 41 8.403363 -0.000000 -0.000001 0.000000 2.011071 0.000000
 42 8.136636 -0.000008 0.000003 2.467956 -0.559804 -1.216018
 43 1.369794 -0.361443 1.237273 -1.127491 0.097656 -0.579344
 44 1.320668 0.000002 -0.000000 -0.218662 -0.109509 0.185068
 45 1.066023 -0.000000 0.000000 -0.025949 -0.111735 0.158666
 46 3.289559 0.311002 -0.505976 -1.569928 0.064069 -0.677339
 47 1.262953 -0.000000 -0.000001 -0.592079 1.417310 -0.637208
 48 0.919430 0.000002 -0.000000 0.132824 1.180916 0.124669
 49 3.167420 0.097637 -1.197364 -1.577201 0.079890 -0.593938
 50 0.817882 0.000001 -0.000001 -0.164298 1.212571 -0.146163
 51 0.708995 0.000002 -0.000000 0.062060 0.898421 -0.028374
 52 3.414728 0.449902 0.223654 -1.580784 0.013019 -0.654459
 53 1.390923 0.000002 -0.000001 0.005510 1.543565 0.018247
 54 0.906348 -0.000000 0.000000 -0.006062 0.824979 -0.045570
 55 2.457049 0.024849 0.014095 0.000073 -0.005736 0.010114
 56 3.525410 0.419244 0.945132 -1.582286 -0.026814 -0.287264
 57 1.209882 -0.000002 -0.000001 -0.003943 1.026206 0.018610
 58 0.743920 -0.000000 -0.000000 0.001656 1.150047 0.092843
 59 8.136638 -0.000000 -0.000002 1.570797 -0.032533 -0.000000
 60 -6.679420 -12.305948 -8.379873 -0.036864 -0.102952 0.345462
 61 0.008385 -0.048311 -0.069476 -0.000000 0.000000 -0.000000
time 3
  0 12.362659 -10.658428 2.077719 -0.503724 0.177043 0.552297
  1 0.250197 -3.917488 -0.099873 0.000000 0.000000 -0.000000
  2 0.337618 4.930949 0.877138 0.000000 0.000000 0.000000
  3 0.249743 5.375675 -0.431249 0.000000 0.000000 -0.000000
  4 -2.477793 12.401383 4.136672 0.000000 0.000000 -0.000000
  5 0.241868 9.046291 0.896506 0.000000 0.000000 -0.000000
  6 0.000303 8.159075 -1.557892 0.000000 0.000000 0.000000
  7 0.246664 8.082764 -0.926848 0.000000 0.000000 -0.000000
  8 -2.477793 12.401383 4.136672 0.000000 0.000000 -0.000000
  9 -0.000000 -0.000000 -0.000000 0.000000 0.000000 0.000000
 10 0.000000 -15.653315 -6.600977 0.000000 0.000000 0.000000
 11 7.497332 -2.384843 -6.082532 -0.586496 0.059283 0.367188
 12 0.000000 0.000000 0.000000 0.000000 0.000000 0.000000
 13 -2.636130 0.805164 -5.542013 0.000000 -0.783406 0.000000
 14 -0.000000 0.000000 0.000000 -1.560723 -3.125334 0.760606
 15 8.403362 -0.000001 -0.000001 -0.000000 1.129840 0.000000
 16 8.136638 -0.000000 -0.000001 -1.570796 -0.032553 0.000000
 17 8.136637 0.000008 0.000005 -2.199024 0.157934 -0.278531
 18 1.369794 0.361443 1.237272 1.202364 -0.431717 0.502233
 19 1.320668 -0.000001 0.000000 0.198267 -0.143171 -0.024595
 20 1.066025 0.000000 0.000000 -0.016013 -0.113547 0.210439
 21 1.039344 -0.000001 0.000000 1.325745 0.991426 2.013611
 22 2.457049 -0.024849 0.014095 -0.000072 -0.005736 -0.010113
 23 3.525410 -0.419243 0.945132 1.648473 0.052800 0.007770
 24 1.209882 -0.000000 -0.000000 0.003943 0.171178 -0.018611
 25 0.743918 0.000000 0.000000 -0.001656 0.873457 -0.092843
 26 0.794889 -0.000000 -0.000001 -0.000005 0.704556 -0.000608
 27 3.414728 -0.449902 0.223652 1.669614 0.062267 0.416202
 28 1.390921 -0.000000 0.000000 -0.004769 0.939087 -0.018048
 29 0.906346 0.000000 0.000001 0.006062 -0.306758 0.045570
 30 0.776325 0.000000 0.000000 0.001079 0.866577 0.033798
 31 3.289557 -0.311001 -0.505976 1.746996 0.123397 0.636745
 32 1.262953 -0.000000 0.000000 0.326311 0.970554 0.346062
 33 0.919429 0.000000 0.000001 -0.051908 -0.229189 0.010429
 34 0.803003 -0.000001 -0.000001 -0.163064 1.145489 -1.117549
 35 3.167419 -0.097637 -1.197365 1.789772 0.008745 0.909421
 36 0.817884 -0.000001 -0.000000 0.120436 0.843979 0.088419
 37 0.708994 -0.000001 0.000000 -0.039911 -0.253101 0.086949
 38 0.794784 -0.000001 -0.000001 -1.042950 1.141227 -1.966856
 39 5.566999 5.667288 -3.006967 0.000000 0.000000 0.000000
 40 0.000000 0.000000 0.000000 -1.271205 0.194595 -0.324041
 41 8.403363 0.000000 -0.000001 0.000000 2.015071 0.000000
 42 8.136636 -0.000008 0.000002 2.577808 -0.585186 -1.305329
 43 1.369794 -0.361443 1.237272 -1.127491 0.097656 -0.579344
 44 1.320668 0.000001 -0.000001 -0.218662 -0.109509 0.185068
 45 1.066022 -0.000000 0.000000 -0.025949 -0.111735 0.158666
 46 3.289559 0.311001 -0.505976 -1.569928 0.064069 -0.677339
 47 1.262953 -0.000001 -0.000001 -0.592078 1.417310 -0.637208
 48 0.919429 0.000002 -0.000000 0.132824 1.180916 0.124669
 49 3.167420 0.097637 -1.197363 -1.577201 0.079890 -0.593938
 50 0.817882 -0.000000 -0.000001 -0.164298 1.212571 -0.146163
 51 0.708995 0.000001 0.000000 0.062061 0.898421 -0.028374
 52 3.414728 0.449902 0.223654 -1.580784 0.013019 -0.654458
 53 1.390922 0.000002 -0.000001 0.005510 1.543565 0.018246
 54 0.906347 -0.000000 0.000001 -0.006062 0.824979 -0.045570
 55 2.457049 0.024849 0.014096 0.000073 -0.005736 0.010114
 56 3.525410 0.419243 0.945133 -1.582286 -0.026814 -0.287264
 57 1.209881 -0.000002 -0.000000 -0.003943 1.026206 0.018610
 58 0.743920 -0.000000 -0.000000 0.001656 1.150047 0.092843
 59 8.136638 0.000000 -0.000003 1.570797 -0.032533 -0.000000
 60 -5.364747 -12.667829 -7.782043 -0.134782 -0.092307 0.491036
 61 0.008386 -0.048311 -0.069476 -0.000000 0.000000 -0.000000
time 4
  0 11.093438 -11.054986 1.594519 -0.486423 0.161832 0.537534
  1 0.250197 -3.917488 -0.099873 -0.000000 0.000000 -0.000000
  2 0.337617 4.930950 0.877138 -0.000000 0.000000 -0.000000
  3 0.249742 5.375676 -0.431249 -0.000000 0.000000 -0.000000
  4 -2.477794 12.401384 4.136672 -0.000000 0.000000 -0.000000
  5 0.241867 9.046292 0.896506 -0.000000 0.000000 -0.000000
  6 0.000302 8.159075 -1.557893 0.000000 0.000000 0.000000
  7 0.246663 8.082764 -0.926848 -0.000000 0.000000 -0.000000
  8 -2.477794 12.401384 4.136672 -0.000000 0.000000 -0.000000
  9 -0.000000 -0.000000 0.000000 0.000000 0.000000 0.000000
 10 0.000000 -15.653315 -6.600977 0.000000 0.000000 0.000000
 11 6.410412 -2.515524 -6.396739 -0.566896 0.047489 0.350554
 12 -0.000000 -0.000000 -0.000000 0.000000 0.000000 0.000000
 13 -2.636130 0.805164 -5.542013 0.000000 -0.570036 0.000000
 14 -0.000001 0.000000 0.000000 1.545371 0.041860 -2.247953
 15 8.403362 -0.000000 -0.000001 0.000000 1.111182 -0.000000
 16 8.136639 0.000000 -0.000000 -1.570796 -0.032553 0.000000
 17 8.136637 0.000008 0.000005 -1.987308 0.273935 -0.109560
 18 1.369794 0.361444 1.237272 1.218969 -0.483062 0.515767
 19 1.320668 -0.000000 -0.000001 0.196405 -0.145662 -0.011884
 20 1.066025 0.000001 -0.000001 -0.016951 -0.113403 0.218734
 21 1.039343 -0.000001 -0.000001 1.325744 0.991426 2.013611
 22 2.457049 -0.024848 0.014094 -0.000072 -0.005736 -0.010113
 23 3.525410 -0.419243 0.945131 1.648473 0.052800 0.007770
 24 1.209883 -0.000000 -0.000000 0.003943 0.101740 -0.018611
 25 0.743917 0.000000 0.000000 -0.001656 0.706297 -0.092843
 26 0.794889 -0.000000 0.000001 -0.000005 0.704556 -0.000608
 27 3.414728 -0.449902 0.223652 1.655010 0.071700 0.329698
 28 1.390921 -0.000001 -0.000000 -0.004769 0.728690 -0.018048
 29 0.906346 0.000000 0.000001 0.006062 -0.229433 0.045570
 30 0.776325 0.000000 -0.000001 0.001079 0.866577 0.033798
 31 3.289557 -0.311001 -0.505976 1.737767 0.130200 0.563509
 32 1.262953 -0.000000 -0.000001 0.275205 0.736826 0.280955
 33 0.919429 0.000000 0.000000 -0.051548 -0.187609 0.008268
 34 0.803004 -0.000000 -0.000001 -0.163064 1.145489 -1.117549
 35 3.167419 -0.097637 -1.197365 1.763473 0.037403 0.775570
 36 0.817884 -0.000000 0.000000 0.107196 0.659316 0.067732
 37 0.708995 -0.000000 0.000000 -0.039911 -0.253101 0.086949
 38 0.794783 -0.000001 -0.000001 -1.042950 1.141227 -1.966856
 39 5.566999 5.667288 -3.006967 0.000000 0.000000 0.000000
 40 0.000000 0.000000 0.000000 -1.241560 0.214626 -0.454705
 41 8.403362 -0.000000 -0.000001 0.000000 2.005726 0.000000
 42 8.136636 -0.000008 0.000003 2.700496 -0.613207 -1.411311
 43 1.369793 -0.361442 1.237272 -1.127491 0.097656 -0.579344
 44 1.320668 0.000002 -0.000001 -0.218662 -0.109509 0.185068
 45 1.066023 -0.000000 -0.000000 -0.025949 -0.111735 0.158666
 46 3.289559 0.311001 -0.505976 -1.569928 0.064069 -0.677339
 47 1.262953 -0.000000 -0.000001 -0.592079 1.417310 -0.637208
 48 0.919429 0.000002 -0.000000 0.132824 1.180916 0.124669
 49 3.167420 0.097638 -1.197364 -1.577201 0.079890 -0.593938
 50 0.817882 0.000000 -0.000001 -0.164298 1.212571 -0.146163
 51 0.708995 0.000002 0.000000 0.062061 0.898421 -0.028374
 52 3.414728 0.449902 0.223654 -1.580784 0.013019 -0.654459
 53 1.390922 0.000002 -0.000001 0.005510 1.543565 0.018247
 54 0.906348 -0.000000 0.000001 -0.006062 0.824979 -0.045570
 55 2.457049 0.024849 0.014095 0.000073 -0.005736 0.010114
 56 3.525410 0.419243 0.945132 -1.582286 -0.026814 -0.287264
 57 1.209881 -0.000002 -0.000001 -0.003943 1.026206 0.018610
 58 0.743920 -0.000000 0.000000 0.001656 1.150047 0.092843
 59 8.136638 -0.000000 -0.000001 1.570797 -0.032533 -0.000000
 60 -3.859007 -13.072437 -7.056295 -0.239170 -0.091708 0.665652
 61 0.008385 -0.048311 -0.069476 0.000000 0.000000 -0.000000
time 5
  0 9.629128 -11.511327 1.019552 -0.462157 0.145029 0.513502
  1 0.250197 -3.917488 -0.099873 0.000000 0.000000 0.000000
  2 0.337618 4.930949 0.877138 0.000000 0.000000 0.000000
  3 0.249743 5.375676 -0.431248 0.000000 0.000000 0.000000
  4 -2.477793 12.401384 4.136672 0.000000 0.000000 0.000000
  5 0.241867 9.046292 0.896506 0.000000 0.000000 0.000000
  6 0.000303 8.159075 -1.557892 0.000000 0.000000 0.000000
  7 0.246663 8.082764 -0.926848 0.000000 0.000000 0.000000
  8 -2.477793 12.401384 4.136672 0.000000 0.000000 0.000000
  9 -0.000000 -0.000000 -0.000000 0.000000 0.000000 0.000000
 10 0.000000 -15.653315 -6.600977 0.000000 0.000000 0.000000
 11 5.207656 -2.615944 -6.728745 -0.540171 0.035472 0.323921
 12 0.000000 -0.000000 0.000000 0.000000 0.000000 0.000000
 13 -2.636130 0.805164 -5.542013 0.000000 -0.405906 0.000000
 14 0.000000 0.000000 0.000001 1.541240 0.053025 -2.078935
 15 8.403362 -0.000001 -0.000001 -0.000000 1.034331 0.000000
 16 8.136638 -0.000000 -0.000001 -1.570796 -0.032553 -0.000000
 17 8.136636 0.000008 0.000005 -1.753531 0.382643 0.059522
 18 1.369795 0.361443 1.237272 1.236441 -0.537086 0.530006
 19 1.320668 -0.000001 0.000001 0.194445 -0.148282 0.001489
 20 1.066025 0.000000 0.000000 -0.017938 -0.113252 0.227461
 21 1.039344 -0.000002 0.000000 1.325744 0.991426 2.013611
 22 2.457049 -0.024849 0.014094 -0.000072 -0.005736 -0.010113
 23 3.525410 -0.419243 0.945132 1.648473 0.052800 0.007770
 24 1.209884 -0.000001 0.000001 0.003943 0.028678 -0.018611
 25 0.743918 0.000000 -0.000000 -0.001656 0.530415 -0.092843
 26 0.794890 0.000000 -0.000000 -0.000005 0.704556 -0.000608
 27 3.414728 -0.449902 0.223652 1.639643 0.081626 0.238681
 28 1.390921 -0.000001 0.000000 -0.004769 0.507316 -0.018048
 29 0.906346 0.000000 -0.000000 0.006062 -0.148074 0.045570
 30 0.776325 0.000000 0.000001 0.001079 0.866577 0.033798
 31 3.289557 -0.311001 -0.505976 1.728057 0.137358 0.486452
 32 1.262953 -0.000000 -0.000001 0.221434 0.490904 0.212452
 33 0.919429 0.000000 0.000000 -0.051170 -0.143860 0.005995
 34 0.803003 -0.000000 -0.000000 -0.163064 1.145489 -1.117549
 35 3.167419 -0.097637 -1.197366 1.735801 0.067557 0.634734
 36 0.817884 -0.000000 -0.000001 0.093265 0.465018 0.045965
 37 0.708995 0.000000 -0.000000 -0.039911 -0.253101 0.086949
 38 0.794783 -0.000001 -0.000000 -1.042950 1.141227 -1.966856
 39 5.566999 5.667288 -3.006967 0.000000 0.000000 0.000000
 40 0.000000 0.000000 0.000000 -1.217343 0.235444 -0.607164
 41 8.403363 0.000000 -0.000001 0.000000 1.978555 -0.000000
 42 8.136637 -0.000007 0.000003 2.815365 -0.644479 -1.517201
 43 1.369793 -0.361443 1.237272 -1.127491 0.097656 -0.579344
 44 1.320668 0.000002 -0.000001 -0.218662 -0.109509 0.185068
 45 1.066023 -0.000000 0.000000 -0.025949 -0.111735 0.158666
 46 3.289559 0.311001 -0.505976 -1.569928 0.064069 -0.677339
 47 1.262953 -0.000000 -0.000001 -0.592079 1.417311 -0.637209
 48 0.919429 0.000002 -0.000001 0.132824 1.180916 0.124669
 49 3.167421 0.097638 -1.197364 -1.577201 0.079890 -0.593938
 50 0.817882 -0.000000 -0.000001 -0.164298 1.212571 -0.146163
 51 0.708995 0.000002 -0.000000 0.062061 0.898421 -0.028374
 52 3.414729 0.449902 0.223654 -1.580784 0.013019 -0.654459
 53 1.390922 0.000002 -0.000001 0.005511 1.543565 0.018247
 54 0.906348 -0.000000 0.000001 -0.006062 0.824979 -0.045570
 55 2.457049 0.024849 0.014095 0.000073 -0.005736 0.010114
 56 3.525410 0.419243 0.945132 -1.582286 -0.026814 -0.287264
 57 1.209882 -0.000002 -0.000000 -0.003943 1.026206 0.018610
 58 0.743920 -0.000000 0.000000 0.001656 1.150047 0.092843
 59 8.136639 0.000000 -0.000002 1.570797 -0.032533 -0.000000
 60 -2.343988 -13.513907 -6.291487 -0.336583 -0.112806 0.850929
 61 0.008385 -0.048311 -0.069476 0.000000 -0.000000 -0.000000
time 6
  0 8.044591 -12.003537 0.373500 -0.430023 0.127866 0.477945
  1 0.250197 -3.917488 -0.099874 -0.000000 0.000000 -0.000000
  2 0.337617 4.930949 0.877138 0.000000 -0.000000 -0.000000
  3 0.249743 5.375676 -0.431248 -0.000000 0.000000 -0.000000
  4 -2.477793 12.401384 4.136672 -0.000000 0.000000 -0.000000
  5 0.241868 9.046291 0.896506 -0.000000 0.000000 -0.000000
  6 0.000303 8.159074 -1.557892 0.000000 0.000000 0.000000
  7 0.246663 8.082764 -0.926848 -0.000000 0.000000 -0.000000
  8 -2.477793 12.401384 4.136672 -0.000000 0.000000 -0.000000
  9 0.000000 0.000000 -0.000000 0.000000 0.000000 0.000000
 10 0.000000 -15.653315 -6.600977 0.000000 0.000000 0.000000
 11 3.986849 -2.664504 -7.044758 -0.505638 0.024673 0.285031
 12 -0.000000 0.000000 0.000000 0.000000 0.000000 0.000000
 13 -2.636130 0.805164 -5.542013 0.000000 -0.340253 0.000000
 14 -0.000000 0.000000 -0.000000 1.551986 0.040130 -1.902713
 15 8.403362 -0.000000 -0.000002 -0.000000 0.891707 -0.000000
 16 8.136637 -0.000000 -0.000000 -1.570796 -0.032553 -0.000000
 17 8.136636 0.000007 0.000005 -1.547379 0.493374 0.169842
 18 1.369794 0.361443 1.237272 1.253045 -0.588430 0.543539
 19 1.320667 -0.000001 0.000000 0.192583 -0.150772 0.014200
 20 1.066025 0.000000 0.000000 -0.018877 -0.113108 0.235756
 21 1.039343 -0.000002 0.000000 1.325744 0.991426 2.013611
 22 2.457048 -0.024848 0.014094 -0.000072 -0.005736 -0.010113
 23 3.525409 -0.419243 0.945132 1.648473 0.052800 0.007770
 24 1.209883 -0.000001 0.000000 0.003943 -0.040760 -0.018611
 25 0.743917 0.000000 -0.000000 -0.001656 0.363255 -0.092843
 26 0.794890 -0.000000 0.000000 -0.000005 0.704556 -0.000608
 27 3.414728 -0.449902 0.223652 1.625038 0.091059 0.152178
 28 1.390921 -0.000001 -0.000000 -0.004769 0.296919 -0.018048
 29 0.906346 0.000000 0.000001 0.006062 -0.070750 0.045570
 30 0.776325 0.000000 -0.000001 0.001079 0.866577 0.033798
 31 3.289557 -0.311001 -0.505976 1.718828 0.144160 0.413216
 32 1.262953 -0.000000 -0.000001 0.170328 0.257177 0.147345
 33 0.919429 0.000000 0.000000 -0.050810 -0.102280 0.003834
 34 0.803004 -0.000000 0.000000 -0.163064 1.145489 -1.117549
 35 3.167419 -0.097637 -1.197365 1.709502 0.096215 0.500883
 36 0.817884 0.000000 0.000000 0.080025 0.280354 0.025277
 37 0.708995 0.000000 0.000000 -0.039911 -0.253101 0.086949
 38 0.794784 -0.000000 -0.000000 -1.042950 1.141227 -1.966856
 39 5.566999 5.667288 -3.006967 0.000000 0.000000 0.000000
 40 0.000000 0.000000 0.000000 -1.202826 0.255034 -0.766864
 41 8.403362 -0.000000 -0.000001 -0.000000 1.934054 -0.000000
 42 8.136636 -0.000008 0.000004 -0.238701 -2.459401 1.537684
 43 1.369793 -0.361443 1.237272 -1.127491 0.097656 -0.579344
 44 1.320668 0.000002 -0.000001 -0.218662 -0.109509 0.185068
 45 1.066023 -0.000000 0.000000 -0.025949 -0.111735 0.158666
 46 3.289559 0.311001 -0.505977 -1.569928 0.064069 -0.677339
 47 1.262953 0.000000 -0.000001 -0.592079 1.417311 -0.637209
 48 0.919429 0.000001 -0.000000 0.132824 1.180916 0.124669
 49 3.167420 0.097637 -1.197364 -1.577201 0.079890 -0.593938
 50 0.817882 -0.000000 -0.000001 -0.164298 1.212571 -0.146163
 51 0.708995 0.000002 -0.000000 0.062061 0.898421 -0.028374
 52 3.414728 0.449902 0.223654 -1.580784 0.013019 -0.654459
 53 1.390922 0.000002 -0.000001 0.005510 1.543565 0.018246
 54 0.906348 -0.000000 0.000001 -0.006062 0.824979 -0.045570
 55 2.457049 0.024849 0.014095 0.000073 -0.005736 0.010114
 56 3.525410 0.419243 0.945132 -1.582286 -0.026814 -0.287264
 57 1.209882 -0.000002 -0.000001 -0.003943 1.026206 0.018610
 58 0.743920 0.000000 0.000000 0.001656 1.150047 0.092843
 59 8.136638 -0.000000 -0.000001 1.570797 -0.032533 -0.000000
 60 -0.989995 -13.995241 -5.594091 -0.419924 -0.165475 1.026957
 61 0.008386 -0.048312 -0.069476 0.000000 -0.000000 -0.000000
time 7
  0 6.414687 -12.507704 -0.322954 -0.389119 0.111573 0.428605
  1 0.250197 -3.917488 -0.099873 -0.000000 -0.000000 0.000000
  2 0.337617 4.930949 0.877138 0.000000 -0.000000 -0.000000
  3 0.249743 5.375676 -0.431248 -0.000000 -0.000000 0.000000
  4 -2.477794 12.401384 4.136672 -0.000000 -0.000000 0.000000
  5 0.241867 9.046292 0.896506 -0.000000 -0.000000 0.000000
  6 0.000302 8.159075 -1.557894 0.000000 0.000000 0.000000
  7 0.246663 8.082765 -0.926848 -0.000000 -0.000000 0.000000
  8 -2.477794 12.401384 4.136672 -0.000000 -0.000000 0.000000
  9 -0.000000 -0.000000 -0.000000 0.000000 0.000000 0.000000
 10 0.000000 -15.653315 -6.600977 0.000000 0.000000 0.000000
 11 2.854996 -2.647564 -7.310057 -0.462631 0.016556 0.231692
 12 0.000000 -0.000000 -0.000000 0.000000 0.000000 0.000000
 13 -2.636130 0.805164 -5.542013 0.000000 -0.389349 0.000000
 14 -0.000000 0.000000 0.000000 1.556860 0.039393 -1.735404
 15 8.403362 -0.000000 -0.000001 -0.000000 0.691081 0.000000
 16 8.136637 -0.000000 0.000001 -1.570796 -0.032553 0.000000
 17 8.136638 0.000008 0.000006 -1.413949 0.618030 0.182520
 18 1.369795 0.361443 1.237272 1.267051 -0.631739 0.554954
 19 1.320667 -0.000000 -0.000001 0.191012 -0.152873 0.024921
 20 1.066025 0.000000 0.000000 -0.019668 -0.112987 0.242752
 21 1.039343 -0.000001 0.000000 1.325745 0.991426 2.013611
 22 2.457049 -0.024848 0.014094 -0.000072 -0.005736 -0.010113
 23 3.525409 -0.419242 0.945131 1.648473 0.052800 0.007770
 24 1.209883 -0.000000 0.000000 0.003943 -0.099330 -0.018611
 25 0.743917 0.000000 -0.000001 -0.001656 0.222259 -0.092843
 26 0.794889 0.000000 0.000001 -0.000005 0.704556 -0.000608
 27 3.414728 -0.449902 0.223652 1.612720 0.099016 0.079213
 28 1.390921 -0.000001 -0.000001 -0.004769 0.119454 -0.018048
 29 0.906346 0.000000 -0.000000 0.006062 -0.005528 0.045570
 30 0.776325 0.000000 0.000001 0.001079 0.866577 0.033798
 31 3.289557 -0.311001 -0.505976 1.711043 0.149898 0.351443
 32 1.262953 -0.000000 0.000000 0.127222 0.060033 0.092430
 33 0.919429 0.000000 0.000000 -0.050507 -0.067208 0.002011
 34 0.803004 -0.000000 -0.000000 -0.163064 1.145489 -1.117549
 35 3.167419 -0.097637 -1.197365 1.687319 0.120388 0.387982
 36 0.817884 -0.000000 -0.000001 0.068858 0.124595 0.007828
 37 0.708995 0.000000 -0.000000 -0.039911 -0.253101 0.086949
 38 0.794783 -0.000001 -0.000000 -1.042950 1.141227 -1.966856
 39 5.566999 5.667288 -3.006967 0.000000 0.000000 0.000000
 40 0.000000 0.000000 0.000000 -1.198037 0.271236 -0.915974
 41 8.403364 -0.000000 -0.000002 0.000000 1.881535 0.000000
 42 8.136636 -0.000008 0.000003 -0.192086 -2.412700 1.486537
 43 1.369794 -0.361443 1.237272 -1.127491 0.097656 -0.579344
 44 1.320668 0.000002 -0.000000 -0.218662 -0.109509 0.185068
 45 1.066023 0.000000 0.000000 -0.025948 -0.111735 0.158666
 46 3.289559 0.311001 -0.505977 -1.569928 0.064069 -0.677339
 47 1.262953 -0.000001 -0.000001 -0.592079 1.417311 -0.637209
 48 0.919429 0.000002 -0.000001 0.132824 1.180916 0.124669
 49 3.167421 0.097637 -1.197365 -1.577201 0.079890 -0.593938
 50 0.817882 -0.000000 -0.000001 -0.164298 1.212571 -0.146163
 51 0.708995 0.000002 0.000000 0.062061 0.898421 -0.028374
 52 3.414729 0.449901 0.223653 -1.580784 0.013019 -0.654459
 53 1.390923 0.000002 -0.000000 0.005511 1.543565 0.018247
 54 0.906348 0.000000 0.000001 -0.006062 0.824979 -0.045570
 55 2.457049 0.024849 0.014095 0.000073 -0.005736 0.010114
 56 3.525410 0.419243 0.945131 -1.582286 -0.026814 -0.287264
 57 1.209882 -0.000002 -0.000000 -0.003943 1.026206 0.018610
 58 0.743920 -0.000000 -0.000000 0.001656 1.150047 0.092843
 59 8.136639 -0.000000 -0.000002 1.570797 -0.032533 -0.000000
 60 0.045222 -14.495690 -5.077905 -0.486248 -0.254005 1.173761
 61 0.008386 -0.048311 -0.069476 -0.000000 0.000000 -0.000000
time 8
  0 4.814277 -12.999914 -1.049127 -0.332204 0.094382 0.339832
  1 0.250196 -3.917489 -0.099874 -0.000000 -0.000000 0.000000
  2 0.337618 4.930949 0.877138 -0.000000 0.000000 -0.000000
  3 0.249742 5.375675 -0.431249 -0.000000 -0.000000 0.000000
  4 -2.477793 12.401384 4.136672 -0.000000 -0.000000 0.000000
  5 0.241868 9.046291 0.896506 -0.000000 -0.000000 0.000000
  6 0.000303 8.159075 -1.557893 0.000000 0.000000 0.000000
  7 0.246663 8.082764 -0.926848 -0.000000 -0.000000 0.000000
  8 -2.477793 12.401384 4.136672 -0.000000 -0.000000 0.000000
  9 0.000000 -0.000000 0.000000 0.000000 0.000000 0.000000
 10 0.000000 -15.653315 -6.600977 0.000000 0.000000 0.000000
 11 2.185474 -2.452695 -7.417717 -0.403730 0.010925 0.137876
 12 -0.000000 -0.000000 0.000000 0.000000 0.000000 0.000000
 13 -2.636130 0.805164 -5.542013 0.000000 -0.515964 0.000000
 14 -0.000000 0.000000 0.000000 1.553695 0.064132 -1.629104
 15 8.403361 -0.000000 -0.000001 0.000000 0.527157 0.000000
 16 8.136636 -0.000000 -0.000000 -1.570796 -0.032553 0.000000
 17 8.136637 0.000008 0.000006 -1.383863 0.680675 0.097728
 18 1.369795 0.361443 1.237272 1.276725 -0.661653 0.562838
 19 1.320668 -0.000000 -0.000000 0.189927 -0.154324 0.032326
 20 1.066025 0.000000 -0.000000 -0.020215 -0.112903 0.247585
 21 1.039343 -0.000001 0.000000 1.325745 0.991426 2.013611
 22 2.457049 -0.024849 0.014095 -0.000072 -0.005736 -0.010113
 23 3.525409 -0.419242 0.945132 1.648473 0.052800 0.007770
 24 1.209883 -0.000001 -0.000001 0.003943 -0.139785 -0.018611
 25 0.743918 0.000000 0.000001 -0.001656 0.124870 -0.092843
 26 0.794889 -0.000000 -0.000001 -0.000005 0.704556 -0.000608
 27 3.414728 -0.449902 0.223653 1.604211 0.104511 0.028816
 28 1.390921 -0.000001 0.000000 -0.004769 -0.003125 -0.018048
 29 0.906347 0.000000 0.000001 0.006062 0.039522 0.045570
 30 0.776325 -0.000000 -0.000000 0.001079 0.866577 0.033798
 31 3.289557 -0.311001 -0.505976 1.705666 0.153861 0.308775
 32 1.262953 -0.000000 -0.000000 0.097448 -0.076139 0.054498
 33 0.919430 0.000001 0.000001 -0.050297 -0.042983 0.000753
 34 0.803003 -0.000001 -0.000002 -0.163064 1.145489 -1.117549
 35 3.167419 -0.097638 -1.197365 1.671997 0.137085 0.309999
 36 0.817884 -0.000000 -0.000001 0.061144 0.017009 -0.004225
 37 0.708995 0.000000 0.000000 -0.039911 -0.253101 0.086949
 38 0.794783 -0.000000 -0.000001 -1.042950 1.141227 -1.966856
 39 5.566999 5.667288 -3.006967 0.000000 0.000000 0.000000
 40 0.000000 0.000000 0.000000 -1.193206 0.277839 -0.999624
 41 8.403363 0.000000 -0.000001 -0.000000 1.868328 -0.000000
 42 8.136636 -0.000007 0.000003 -0.231658 -2.364034 1.526850
 43 1.369793 -0.361443 1.237272 -1.127491 0.097656 -0.579344
 44 1.320668 0.000001 -0.000000 -0.218662 -0.109509 0.185068
 45 1.066023 -0.000000 0.000000 -0.025949 -0.111735 0.158666
 46 3.289559 0.311001 -0.505976 -1.569928 0.064069 -0.677339
 47 1.262953 0.000000 -0.000001 -0.592079 1.417311 -0.637209
 48 0.919429 0.000002 -0.000001 0.132824 1.180916 0.124669
 49 3.167420 0.097637 -1.197364 -1.577201 0.079890 -0.593938
 50 0.817882 -0.000001 -0.000001 -0.164298 1.212571 -0.146163
 51 0.708995 0.000001 0.000000 0.062061 0.898421 -0.028374
 52 3.414729 0.449902 0.223654 -1.580784 0.013019 -0.654459
 53 1.390922 0.000002 -0.000000 0.005510 1.543565 0.018246
 54 0.906347 -0.000000 0.000000 -0.006062 0.824979 -0.045570
 55 2.457049 0.024849 0.014095 0.000073 -0.005736 0.010114
 56 3.525410 0.419243 0.945132 -1.582286 -0.026814 -0.287264
 57 1.209882 -0.000002 -0.000000 -0.003943 1.026206 0.018610
 58 0.743920 -0.000000 -0.000000 0.001656 1.150047 0.092843
 59 8.136638 0.000001 -0.000002 1.570797 -0.032533 -0.000000
 60 0.580597 -14.803825 -4.860294 -0.530822 -0.382496 1.249132
 61 0.008386 -0.048311 -0.069476 0.000000 -0.000000 -0.000000
time 9
  0 3.318221 -13.456255 -1.784336 -0.257583 0.074681 0.205748
  1 0.250197 -3.917489 -0.099874 0.000000 0.000000 -0.000000
  2 0.337618 4.930949 0.877138 0.000000 0.000000 0.000000
  3 0.249743 5.375676 -0.431249 0.000000 0.000000 -0.000000
  4 -2.477793 12.401384 4.136672 0.000000 0.000000 -0.000000
  5 0.241868 9.046292 0.896506 0.000000 0.000000 -0.000000
  6 0.000303 8.159075 -1.557893 0.000000 0.000000 0.000000
  7 0.246663 8.082764 -0.926848 0.000000 0.000000 -0.000000
  8 -2.477793 12.401384 4.136672 0.000000 0.000000 -0.000000
  9 0.000000 -0.000000 0.000000 0.000000 0.000000 0.000000
 10 0.000000 -15.653315 -6.600977 0.000000 0.000000 0.000000
 11 2.216879 -2.188028 -7.309503 -0.326919 0.006761 -0.001833
 12 -0.000000 0.000000 -0.000000 0.000000 0.000000 0.000000
 13 -2.636130 0.805164 -5.542013 0.000000 -0.689091 0.000000
 14 -0.000000 0.000000 0.000000 1.544176 0.102172 -1.645911
 15 8.403363 -0.000000 -0.000001 0.000000 0.516317 0.000000
 16 8.136638 -0.000000 0.000001 -1.570796 -0.032553 -0.000000
 17 8.136637 0.000008 0.000006 -1.445299 0.600588 -0.043481
 18 1.369795 0.361443 1.237273 1.280335 -0.672814 0.565781
 19 1.320667 -0.000000 -0.000000 0.189522 -0.154865 0.035089
 20 1.066025 0.000000 0.000000 -0.020419 -0.112872 0.249388
 21 1.039344 -0.000001 0.000000 1.325744 0.991426 2.013611
 22 2.457049 -0.024848 0.014095 -0.000072 -0.005736 -0.010113
 23 3.525409 -0.419243 0.945132 1.648473 0.052800 0.007770
 24 1.209883 -0.000000 0.000001 0.003943 -0.154880 -0.018611
 25 0.743917 0.000000 -0.000001 -0.001656 0.088531 -0.092843
 26 0.794890 0.000000 0.000000 -0.000005 0.704556 -0.000608
 27 3.414728 -0.449902 0.223653 1.601036 0.106562 0.010010
 28 1.390921 -0.000001 -0.000001 -0.004769 -0.048864 -0.018048
 29 0.906346 0.000000 -0.000001 0.006062 0.056331 0.045570
 30 0.776324 -0.000000 -0.000000 0.001079 0.866577 0.033798
 31 3.289558 -0.311001 -0.505976 1.703660 0.155340 0.292854
 32 1.262953 0.000000 0.000001 0.086338 -0.126949 0.040344
 33 0.919430 0.000000 0.000000 -0.050219 -0.033944 0.000283
 34 0.803003 -0.000001 -0.000001 -0.163064 1.145489 -1.117549
 35 3.167419 -0.097638 -1.197365 1.666280 0.143315 0.280901
 36 0.817884 -0.000000 0.000000 0.058265 -0.023136 -0.008722
 37 0.708995 0.000001 0.000001 -0.039911 -0.253101 0.086949
 38 0.794783 -0.000000 -0.000000 -1.042950 1.141227 -1.966856
 39 5.566999 5.667288 -3.006967 0.000000 0.000000 0.000000
 40 0.000000 0.000000 0.000000 -1.186553 0.271757 -0.989176
 41 8.403363 0.000000 -0.000002 0.000000 1.908636 0.000000
 42 8.136636 -0.000008 0.000003 2.749795 -0.811053 -1.435309
 43 1.369793 -0.361443 1.237272 -1.127491 0.097656 -0.579344
 44 1.320668 0.000002 -0.000000 -0.218662 -0.109509 0.185068
 45 1.066023 0.000000 0.000000 -0.025949 -0.111735 0.158666
 46 3.289559 0.311001 -0.505976 -1.569928 0.064069 -0.677339
 47 1.262953 0.000000 -0.000001 -0.592079 1.417311 -0.637209
 48 0.919429 0.000002 -0.000000 0.132824 1.180916 0.124669
 49 3.167420 0.097638 -1.197364 -1.577201 0.079890 -0.593938
 50 0.817882 -0.000001 -0.000001 -0.164298 1.212571 -0.146163
 51 0.708995 0.000002 0.000000 0.062061 0.898421 -0.028374
 52 3.414729 0.449902 0.223654 -1.580784 0.013019 -0.654459
 53 1.390922 0.000002 -0.000000 0.005510 1.543565 0.018246
 54 0.906347 -0.000000 0.000001 -0.006062 0.824979 -0.045570
 55 2.457049 0.024849 0.014095 0.000073 -0.005736 0.010114
 56 3.525410 0.419243 0.945132 -1.582286 -0.026814 -0.287264
 57 1.209882 -0.000002 -0.000001 -0.003943 1.026206 0.018610
 58 0.743920 -0.000000 0.000000 0.001656 1.150047 0.092843
 59 8.136638 0.000000 -0.000002 1.570797 -0.032533 -0.000000
 60 0.553208 -14.838457 -5.006318 -0.551625 -0.545432 1.237063
 61 0.008386 -0.048311 -0.069476 0.000000 0.000000 -0.000000
time 10
  0 2.001381 -13.852813 -2.507899 -0.172662 0.053930 0.053756
  1 0.250197 -3.917489 -0.099873 -0.000000 0.000000 0.000000
  2 0.337618 4.930949 0.877138 -0.000000 0.000000 0.000000
  3 0.249743 5.375675 -0.431248 -0.000000 0.000000 0.000000
  4 -2.477793 12.401383 4.136672 -0.000000 0.000000 0.000000
  5 0.241868 9.046291 0.896506 -0.000000 0.000000 0.000000
  6 0.000303 8.159075 -1.557893 0.000000 0.000000 0.000000
  7 0.246663 8.082764 -0.926848 -0.000000 0.000000 0.000000
  8 -2.477793 12.401383 4.136672 -0.000000 0.000000 0.000000
  9 0.000000 0.000000 -0.000000 0.000000 0.000000 0.000000
 10 0.000000 -15.653315 -6.600977 0.000000 0.000000 0.000000
 11 2.762965 -2.120354 -7.033686 -0.239710 0.004149 -0.158809
 12 -0.000000 0.000000 -0.000000 0.000000 0.000000 0.000000
 13 -2.636130 0.805164 -5.542013 0.000000 -0.877722 0.000000
 14 -0.000000 0.000000 0.000000 1.534731 0.118959 -1.736179
 15 8.403362 -0.000000 -0.000001 -0.000000 0.595799 -0.000000
 16 8.136638 0.000000 -0.000000 -1.570796 -0.032553 -0.000000
 17 8.136637 0.000008 0.000005 -1.436244 0.376638 -0.160667
 18 1.369795 0.361444 1.237272 1.263888 -0.621958 0.552376
 19 1.320667 -0.000000 -0.000000 0.191367 -0.152399 0.022500
 20 1.066025 0.000000 -0.000000 -0.019489 -0.113014 0.241172
 21 1.039343 -0.000001 -0.000001 1.325745 0.991426 2.013612
 22 2.457048 -0.024848 0.014094 -0.000072 -0.005736 -0.010113
 23 3.525409 -0.419242 0.945132 1.648473 0.052800 0.007770
 24 1.209884 0.000000 0.000001 0.003943 -0.086103 -0.018611
 25 0.743917 -0.000000 -0.000001 -0.001656 0.254101 -0.092843
 26 0.794889 -0.000000 -0.000000 -0.000005 0.704556 -0.000608
 27 3.414727 -0.449901 0.223652 1.615502 0.097219 0.095692
 28 1.390921 -0.000001 -0.000000 -0.004769 0.159532 -0.018048
 29 0.906346 0.000000 -0.000001 0.006062 -0.020258 0.045570
 30 0.776324 -0.000000 0.000000 0.001079 0.866577 0.033798
 31 3.289557 -0.311001 -0.505976 1.712801 0.148602 0.365393
 32 1.262953 0.000000 -0.000000 0.136957 0.104556 0.104832
 33 0.919429 0.000001 0.000000 -0.050575 -0.075128 0.002423
 34 0.803004 -0.000000 -0.000001 -0.163064 1.145489 -1.117549
 35 3.167419 -0.097637 -1.197365 1.692329 0.114929 0.413479
 36 0.817883 -0.000000 0.000001 0.071380 0.159771 0.011769
 37 0.708995 0.000000 0.000001 -0.039911 -0.253101 0.086949
 38 0.794784 0.000000 -0.000000 -1.042950 1.141227 -1.966856
 39 5.566999 5.667288 -3.006967 0.000000 0.000000 0.000000
 40 0.000000 0.000000 0.000000 -1.192347 0.254814 -0.910614
 41 8.403363 -0.000000 -0.000002 0.000000 1.961635 0.000000
 42 8.136636 -0.000008 0.000003 2.490526 -0.800834 -1.131016
 43 1.369793 -0.361443 1.237272 -1.127491 0.097656 -0.579344
 44 1.320668 0.000002 -0.000001 -0.218662 -0.109509 0.185068
 45 1.066023 -0.000001 0.000000 -0.025949 -0.111735 0.158666
 46 3.289559 0.311001 -0.505976 -1.569928 0.064069 -0.677339
 47 1.262953 0.000000 -0.000001 -0.592079 1.417311 -0.637209
 48 0.919429 0.000002 -0.000001 0.132824 1.180916 0.124669
 49 3.167421 0.097638 -1.197364 -1.577201 0.079890 -0.593938
 50 0.817882 -0.000000 -0.000001 -0.164298 1.212571 -0.146163
 51 0.708995 0.000002 -0.000000 0.062061 0.898421 -0.028374
 52 3.414729 0.449902 0.223654 -1.580784 0.013019 -0.654459
 53 1.390922 0.000002 -0.000000 0.005510 1.543565 0.018247
 54 0.906347 -0.000000 0.000001 -0.006062 0.824979 -0.045570
 55 2.457049 0.024849 0.014095 0.000073 -0.005736 0.010114
 56 3.525410 0.419243 0.945132 -1.582286 -0.026814 -0.287264
 57 1.209882 -0.000002 -0.000000 -0.003943 1.026206 0.018610
 58 0.743920 -0.000000 0.000000 0.001656 1.150047 0.092843
 59 8.136638 -0.000000 -0.000001 1.570797 -0.032533 -0.000000
 60 0.085080 -14.749447 -5.216049 -0.557054 -0.809034 1.162835
 61 0.008386 -0.048312 -0.069476 0.000000 -0.000000 -0.000000
time 11
  0 0.938618 -14.165675 -3.199133 -0.084850 0.033591 -0.088739
  1 0.250197 -3.917488 -0.099873 -0.000000 0.000000 0.000000
  2 0.337618 4.930948 0.877138 -0.000000 0.000000 0.000000
  3 0.249743 5.375674 -0.431249 -0.000000 0.000000 0.000000
  4 -2.477793 12.401382 4.136672 -0.000000 0.000000 0.000000
  5 0.241868 9.046290 0.896506 -0.000000 0.000000 0.000000
  6 0.000303 8.159074 -1.557893 0.000000 0.000000 0.000000
  7 0.246663 8.082763 -0.926848 -0.000000 0.000000 0.000000
  8 -2.477793 12.401382 4.136672 -0.000000 0.000000 0.000000
  9 -0.000000 0.000000 -0.000000 0.000000 0.000000 0.000000
 10 0.000000 -15.653315 -6.600977 0.000000 0.000000 0.000000
 11 3.515414 -2.328096 -6.655312 -0.149665 0.002947 -0.304828
 12 0.000000 0.000000 -0.000000 0.000000 0.000000 0.000000
 13 -2.636130 0.805164 -5.542013 0.000000 -1.050848 0.000000
 14 0.000000 0.000000 0.000000 1.535032 0.108243 -1.814633
 15 8.403362 -0.000000 -0.000001 -0.000000 0.646598 -0.000000
 16 8.136638 -0.000000 0.000000 -1.570796 -0.032553 0.000000
 17 8.136637 0.000008 0.000005 -1.350263 0.115070 -0.224363
 18 1.369794 0.361444 1.237272 1.227705 -0.510074 0.522886
 19 1.320668 -0.000001 -0.000000 0.195425 -0.146972 -0.005198
 20 1.066025 0.000000 0.000000 -0.017445 -0.113327 0.223097
 21 1.039343 -0.000001 0.000001 1.325744 0.991426 2.013611
 22 2.457048 -0.024848 0.014095 -0.000073 -0.005736 -0.010113
 23 3.525409 -0.419243 0.945132 1.648473 0.052800 0.007770
 24 1.209882 -0.000001 -0.000000 0.003943 0.065209 -0.018611
 25 0.743917 0.000000 0.000000 -0.001656 0.618356 -0.092843
 26 0.794889 -0.000000 0.000000 -0.000005 0.704556 -0.000608
 27 3.414728 -0.449902 0.223653 1.647326 0.076663 0.284190
 28 1.390921 -0.000000 0.000000 -0.004769 0.618003 -0.018048
 29 0.906346 0.000000 0.000001 0.006062 -0.188754 0.045570
 30 0.776324 -0.000000 -0.000000 0.001079 0.866577 0.033798
 31 3.289556 -0.311001 -0.505976 1.732912 0.133779 0.524980
 32 1.262952 -0.000000 0.000000 0.248320 0.613865 0.246704
 33 0.919429 0.000001 0.000001 -0.051359 -0.165734 0.007132
 34 0.803003 -0.000001 -0.000001 -0.163064 1.145489 -1.117549
 35 3.167418 -0.097637 -1.197365 1.749637 0.052480 0.705152
 36 0.817884 -0.000000 -0.000001 0.100231 0.562167 0.056848
 37 0.708995 0.000000 0.000001 -0.039911 -0.253101 0.086949
 38 0.794783 -0.000000 -0.000001 -1.042950 1.141227 -1.966856
 39 5.566999 5.667288 -3.006967 0.000000 0.000000 0.000000
 40 0.000000 0.000000 0.000000 -1.221466 0.231002 -0.812305
 41 8.403363 0.000000 -0.000001 0.000000 1.986962 0.000000
 42 8.136636 -0.000008 0.000003 2.211269 -0.727128 -0.787160
 43 1.369793 -0.361442 1.237272 -1.127491 0.097656 -0.579344
 44 1.320668 0.000002 -0.000001 -0.218662 -0.109509 0.185068
 45 1.066023 -0.000000 0.000000 -0.025949 -0.111735 0.158666
 46 3.289559 0.311001 -0.505976 -1.569928 0.064069 -0.677339
 47 1.262953 -0.000000 -0.000001 -0.592079 1.417311 -0.637209
 48 0.919429 0.000002 -0.000000 0.132824 1.180916 0.124669
 49 3.167420 0.097637 -1.197364 -1.577201 0.079890 -0.593938
 50 0.817882 -0.000000 -0.000002 -0.164298 1.212571 -0.146163
 51 0.708995 0.000002 0.000000 0.062061 0.898421 -0.028374
 52 3.414729 0.449902 0.223654 -1.580784 0.013019 -0.654459
 53 1.390922 0.000002 -0.000001 0.005510 1.543565 0.018246
 54 0.906348 -0.000000 0.000001 -0.006062 0.824979 -0.045570
 55 2.457049 0.024849 0.014095 0.000073 -0.005736 0.010114
 56 3.525410 0.419243 0.945132 -1.582286 -0.026814 -0.287264
 57 1.209882 -0.000002 -0.000000 -0.003943 1.026206 0.018610
 58 0.743920 -0.000000 0.000000 0.001656 1.150047 0.092843
 59 8.136638 -0.000001 -0.000001 1.570797 -0.032533 -0.000000
 60 -0.584706 -14.722530 -5.394457 -0.545067 -1.130161 1.044394
 61 0.008386 -0.048311 -0.069476 -0.000000 0.000000 -0.000000
time 12
  0 0.204792 -14.370929 -3.837355 -0.001556 0.015128 -0.194332
  1 0.250197 -3.917488 -0.099873 0.000000 0.000000 -0.000000
  2 0.337618 4.930949 0.877138 0.000000 0.000000 0.000000
  3 0.249742 5.375676 -0.431248 0.000000 0.000000 -0.000000
  4 -2.477793 12.401384 4.136672 0.000000 0.000000 -0.000000
  5 0.241867 9.046291 0.896506 0.000000 0.000000 -0.000000
  6 0.000303 8.159075 -1.557893 0.000000 0.000000 0.000000
  7 0.246663 8.082764 -0.926848 0.000000 0.000000 -0.000000
  8 -2.477793 12.401384 4.136672 0.000000 0.000000 -0.000000
  9 0.000000 0.000000 -0.000000 0.000000 0.000000 0.000000
 10 0.000000 -15.653315 -6.600977 0.000000 0.000000 0.000000
 11 4.138888 -2.649168 -6.253253 -0.064373 0.002854 -0.412204
 12 0.000000 -0.000000 0.000000 0.000000 0.000000 0.000000
 13 -2.636130 0.805164 -5.542013 0.000000 -1.177463 0.000000
 14 0.000000 0.000000 0.000000 1.538063 0.091833 -1.893717
 15 8.403362 -0.000000 -0.000001 -0.000000 0.694577 -0.000000
 16 8.136639 -0.000000 0.000000 -1.570796 -0.032553 0.000000
 17 8.136638 0.000008 0.000006 -1.323542 -0.054901 -0.235740
 18 1.369796 0.361444 1.237273 1.191522 -0.398189 0.493396
 19 1.320668 -0.000000 -0.000000 0.199483 -0.141545 -0.032895
 20 1.066025 0.000000 -0.000000 -0.015400 -0.113641 0.205023
 21 1.039343 -0.000001 -0.000000 1.325744 0.991426 2.013611
 22 2.457050 -0.024848 0.014095 -0.000072 -0.005736 -0.010113
 23 3.525411 -0.419243 0.945132 1.648473 0.052800 0.007770
 24 1.209884 0.000000 0.000000 0.003943 0.216520 -0.018611
 25 0.743917 -0.000000 0.000001 -0.001656 0.982611 -0.092843
 26 0.794889 0.000000 0.000000 -0.000005 0.704556 -0.000608
 27 3.414728 -0.449901 0.223653 1.679151 0.056107 0.472688
 28 1.390921 -0.000001 -0.000000 -0.004769 1.076474 -0.018048
 29 0.906346 -0.000000 -0.000000 0.006062 -0.357249 0.045570
 30 0.776325 -0.000000 -0.000001 0.001079 0.866577 0.033798
 31 3.289557 -0.311000 -0.505976 1.753023 0.118955 0.684568
 32 1.262953 -0.000000 0.000000 0.359682 1.123175 0.388576
 33 0.919429 0.000000 0.000000 -0.052143 -0.256341 0.011840
 34 0.803003 -0.000000 0.000001 -0.163064 1.145489 -1.117549
 35 3.167419 -0.097637 -1.197365 1.806945 -0.009969 0.996825
 36 0.817884 0.000000 -0.000001 0.129082 0.964562 0.101928
 37 0.708995 0.000000 -0.000000 -0.039911 -0.253101 0.086949
 38 0.794783 0.000000 -0.000000 -1.042950 1.141227 -1.966856
 39 5.566999 5.667288 -3.006967 0.000000 0.000000 0.000000
 40 0.000000 0.000000 0.000000 -1.263907 0.205012 -0.741079
 41 8.403364 0.000000 -0.000001 -0.000000 1.985347 -0.000000
 42 8.136636 -0.000007 0.000003 2.007411 -0.633455 -0.516855
 43 1.369793 -0.361442 1.237272 -1.127491 0.097656 -0.579344
 44 1.320668 0.000002 -0.000001 -0.218662 -0.109509 0.185068
 45 1.066023 -0.000000 0.000000 -0.025949 -0.111735 0.158666
 46 3.289558 0.311002 -0.505976 -1.569928 0.064069 -0.677339
 47 1.262953 -0.000000 -0.000001 -0.592079 1.417311 -0.637209
 48 0.919429 0.000002 -0.000000 0.132824 1.180916 0.124669
 49 3.167420 0.097638 -1.197364 -1.577201 0.079890 -0.593938
 50 0.817882 -0.000000 -0.000001 -0.164298 1.212571 -0.146163
 51 0.708995 0.000002 0.000000 0.062061 0.898421 -0.028374
 52 3.414728 0.449902 0.223654 -1.580784 0.013019 -0.654459
 53 1.390922 0.000002 -0.000001 0.005510 1.543565 0.018246
 54 0.906348 -0.000000 0.000001 -0.006062 0.824979 -0.045570
 55 2.457048 0.024849 0.014095 0.000073 -0.005736 0.010114
 56 3.525410 0.419243 0.945132 -1.582286 -0.026814 -0.287264
 57 1.209882 -0.000002 -0.000001 -0.003943 1.026206 0.018610
 58 0.743920 -0.000000 -0.000000 0.001656 1.150047 0.092843
 59 8.136639 0.000000 -0.000002 1.570797 -0.032533 -0.000000
 60 -1.202394 -14.656827 -5.834484 -0.480308 -1.328505 0.884584
 61 0.008386 -0.048311 -0.069476 0.000000 0.000000 -0.000000
time 13
  0 -0.125234 -14.444661 -4.401883 0.069813 -0.000000 -0.235619
  1 0.250197 -3.917488 -0.099874 -0.000000 -0.000000 0.000000
  2 0.337617 4.930949 0.877138 0.000000 -0.000000 0.000000
  3 0.249743 5.375675 -0.431248 -0.000000 -0.000000 0.000000
  4 -2.477793 12.401384 4.136672 -0.000000 -0.000000 0.000000
  5 0.241867 9.046291 0.896506 -0.000000 -0.000000 0.000000
  6 0.000303 8.159075 -1.557893 0.000000 0.000000 0.000000
  7 0.246663 8.082764 -0.926848 -0.000000 -0.000000 0.000000
  8 -2.477793 12.401384 4.136672 -0.000000 -0.000000 0.000000
  9 0.000000 0.000000 0.000000 0.000000 0.000000 0.000000
 10 0.000000 -15.653315 -6.600977 0.000000 0.000000 0.000000
 11 4.357215 -2.768291 -5.912967 0.008576 0.003528 -0.453799
 12 0.000000 -0.000000 0.000000 0.000000 0.000000 0.000000
 13 -2.636130 0.805164 -5.542013 0.000000 -1.226559 0.000000
 14 -0.000000 0.000000 0.000000 1.536962 0.089442 -1.961639
 15 8.403362 -0.000000 -0.000001 -0.000000 0.733864 -0.000000
 16 8.136638 -0.000000 0.000000 -1.570796 -0.032553 0.000000
 17 8.136638 0.000008 0.000005 -1.331313 -0.108294 -0.228475
 18 1.369794 0.361443 1.237272 1.175075 -0.347333 0.479992
 19 1.320668 -0.000001 0.000001 0.201328 -0.139079 -0.045485
 20 1.066025 0.000000 0.000000 -0.014471 -0.113783 0.196807
 21 1.039344 -0.000002 0.000000 1.325744 0.991426 2.013611
 22 2.457050 -0.024849 0.014095 -0.000072 -0.005736 -0.010113
 23 3.525411 -0.419243 0.945132 1.648473 0.052800 0.007770
 24 1.209883 -0.000000 -0.000001 0.003943 0.285298 -0.018611
 25 0.743918 0.000001 0.000001 -0.001656 1.148181 -0.092843
 26 0.794889 0.000000 -0.000000 -0.000005 0.704556 -0.000608
 27 3.414729 -0.449902 0.223653 1.693617 0.046763 0.558369
 28 1.390921 -0.000000 0.000001 -0.004769 1.284870 -0.018048
 29 0.906346 0.000001 0.000001 0.006062 -0.433839 0.045570
 30 0.776325 -0.000000 0.000000 0.001079 0.866577 0.033798
 31 3.289557 -0.311001 -0.505976 1.762164 0.112217 0.757107
 32 1.262953 -0.000001 0.000001 0.410301 1.354679 0.453063
 33 0.919429 -0.000000 -0.000000 -0.052499 -0.297525 0.013980
 34 0.803003 -0.000001 -0.000001 -0.163064 1.145489 -1.117549
 35 3.167419 -0.097637 -1.197365 1.832995 -0.038354 1.129404
 36 0.817884 -0.000000 -0.000001 0.142196 1.147469 0.122418
 37 0.708995 0.000000 0.000000 -0.039911 -0.253101 0.086949
 38 0.794784 -0.000001 -0.000001 -1.042950 1.141227 -1.966856
 39 5.566999 5.667288 -3.006967 0.000000 0.000000 0.000000
 40 0.000000 0.000000 0.000000 -1.296557 0.183428 -0.717663
 41 8.403363 0.000000 -0.000001 0.000000 1.990067 0.000000
 42 8.136636 -0.000008 0.000003 1.899051 -0.612653 -0.360759
 43 1.369793 -0.361443 1.237273 -1.127491 0.097656 -0.579344
 44 1.320668 0.000002 -0.000001 -0.218662 -0.109509 0.185068
 45 1.066023 -0.000000 0.000000 -0.025948 -0.111735 0.158666
 46 3.289558 0.311001 -0.505976 -1.569928 0.064069 -0.677339
 47 1.262953 -0.000000 -0.000002 -0.592079 1.417311 -0.637209
 48 0.919429 0.000002 -0.000000 0.132824 1.180916 0.124669
 49 3.167420 0.097637 -1.197363 -1.577201 0.079890 -0.593938
 50 0.817882 0.000000 -0.000001 -0.164298 1.212571 -0.146163
 51 0.708995 0.000002 0.000000 0.062061 0.898421 -0.028374
 52 3.414728 0.449902 0.223654 -1.580784 0.013019 -0.654459
 53 1.390922 0.000002 -0.000000 0.005510 1.543565 0.018246
 54 0.906347 0.000000 0.000001 -0.006062 0.824979 -0.045570
 55 2.457049 0.024849 0.014096 0.000073 -0.005736 0.010114
 56 3.525409 0.419243 0.945133 -1.582286 -0.026814 -0.287264
 57 1.209881 -0.000002 -0.000001 -0.003943 1.026206 0.018610
 58 0.743920 0.000000 -0.000000 0.001656 1.150047 0.092843
 59 8.136638 -0.000000 -0.000002 1.570797 -0.032533 -0.000000
 60 -1.479595 -14.538103 -6.453080 -0.361940 -1.397368 0.726861
 61 0.008386 -0.048312 -0.069476 0.000000 0.000000 -0.000000
time 14
  0 -0.210333 -14.381251 -4.934293 0.125655 -0.009265 -0.235354
  1 0.250197 -3.917490 -0.099873 -0.000000 0.000000 0.000000
  2 0.337618 4.930949 0.877138 0.000000 -0.000000 -0.000000
  3 0.249742 5.375675 -0.431249 -0.000000 0.000000 0.000000
  4 -2.477793 12.401384 4.136672 -0.000000 0.000000 0.000000
  5 0.241867 9.046291 0.896506 -0.000000 0.000000 0.000000
  6 0.000303 8.159076 -1.557893 0.000000 0.000000 0.000000
  7 0.246663 8.082764 -0.926848 -0.000000 0.000000 0.000000
  8 -2.477793 12.401384 4.136672 -0.000000 0.000000 0.000000
  9 0.000000 0.000000 -0.000000 0.000000 0.000000 0.000000
 10 0.000000 -15.653315 -6.600977 0.000000 0.000000 0.000000
 11 4.291471 -2.642224 -5.735770 0.065100 0.006557 -0.452990
 12 -0.000000 -0.000000 0.000000 0.000000 0.000000 0.000000
 13 -2.636130 0.805164 -5.542013 0.000000 -1.226559 0.000000
 14 -0.000000 0.000000 0.000000 1.530998 0.098758 -2.019222
 15 8.403362 -0.000000 -0.000000 0.000000 0.776922 0.000000
 16 8.136638 -0.000000 -0.000000 -1.570796 -0.032553 -0.000000
 17 8.136638 0.000008 0.000005 -1.300447 -0.134636 -0.231488
 18 1.369795 0.361443 1.237272 1.175074 -0.347333 0.479992
 19 1.320667 -0.000000 0.000000 0.201328 -0.139079 -0.045485
 20 1.066025 0.000000 -0.000000 -0.014471 -0.113783 0.196807
 21 1.039343 -0.000001 0.000000 1.325744 0.991426 2.013611
 22 2.457050 -0.024848 0.014095 -0.000072 -0.005736 -0.010113
 23 3.525409 -0.419242 0.945131 1.648473 0.052800 0.007770
 24 1.209882 -0.000000 0.000000 0.003943 0.285298 -0.018611
 25 0.743917 0.000000 -0.000000 -0.001656 1.148181 -0.092843
 26 0.794889 -0.000000 0.000001 -0.000005 0.704556 -0.000608
 27 3.414729 -0.449901 0.223653 1.693617 0.046763 0.558369
 28 1.390921 -0.000001 0.000000 -0.004769 1.284870 -0.018048
 29 0.906345 0.000001 -0.000000 0.006062 -0.433839 0.045570
 30 0.776325 -0.000001 0.000000 0.001079 0.866577 0.033798
 31 3.289558 -0.311000 -0.505976 1.762164 0.112217 0.757107
 32 1.262953 0.000000 0.000000 0.410301 1.354679 0.453063
 33 0.919430 0.000000 -0.000000 -0.052499 -0.297525 0.013980
 34 0.803003 -0.000000 -0.000001 -0.163064 1.145489 -1.117549
 35 3.167419 -0.097637 -1.197365 1.832995 -0.038354 1.129403
 36 0.817884 0.000000 0.000000 0.142196 1.147469 0.122418
 37 0.708995 0.000000 0.000000 -0.039911 -0.253101 0.086949
 38 0.794783 0.000000 0.000000 -1.042950 1.141227 -1.966856
 39 5.566999 5.667288 -3.006967 0.000000 0.000000 0.000000
 40 0.000000 0.000000 0.000000 -1.307209 0.172411 -0.718578
 41 8.403362 0.000000 -0.000001 -0.000000 2.014256 -0.000000
 42 8.136637 -0.000008 0.000003 1.845827 -0.655556 -0.284482
 43 1.369793 -0.361443 1.237272 -1.127491 0.097656 -0.579344
 44 1.320668 0.000002 -0.000001 -0.218662 -0.109509 0.185068
 45 1.066023 -0.000000 -0.000000 -0.025949 -0.111735 0.158666
 46 3.289559 0.311001 -0.505976 -1.569928 0.064069 -0.677339
 47 1.262953 -0.000000 -0.000002 -0.592079 1.417310 -0.637208
 48 0.919429 0.000002 -0.000000 0.132824 1.180916 0.124669
 49 3.167420 0.097637 -1.197363 -1.577201 0.079890 -0.593938
 50 0.817882 0.000000 -0.000001 -0.164298 1.212571 -0.146163
 51 0.708995 0.000002 -0.000000 0.062061 0.898421 -0.028374
 52 3.414728 0.449902 0.223654 -1.580784 0.013019 -0.654459
 53 1.390922 0.000002 -0.000001 0.005510 1.543565 0.018246
 54 0.906347 0.000000 0.000001 -0.006062 0.824979 -0.045570
 55 2.457048 0.024849 0.014095 0.000073 -0.005736 0.010114
 56 3.525410 0.419243 0.945133 -1.582286 -0.026814 -0.287264
 57 1.209882 -0.000002 -0.000000 -0.003943 1.026206 0.018610
 58 0.743920 0.000000 -0.000000 0.001656 1.150047 0.092843
 59 8.136639 0.000000 -0.000001 1.570797 -0.032533 -0.000000
 60 -1.519115 -14.367596 -7.016920 -0.165326 -1.446121 0.532880
 61 0.008385 -0.048311 -0.069476 -0.000000 -0.000000 -0.000000
time 15
  0 -0.260285 -14.229442 -5.377468 0.163428 -0.012881 -0.234381
  1 0.250197 -3.917489 -0.099873 -0.000000 -0.000000 0.000000
  2 0.337618 4.930949 0.877138 -0.000000 -0.000000 0.000000
  3 0.249743 5.375675 -0.431248 -0.000000 -0.000000 0.000000
  4 -2.477793 12.401383 4.136672 -0.000000 -0.000000 0.000000
  5 0.241868 9.046291 0.896506 -0.000000 -0.000000 0.000000
  6 0.000303 8.159075 -1.557893 0.000000 0.000000 0.000000
  7 0.246663 8.082763 -0.926848 -0.000000 -0.000000 0.000000
  8 -2.477793 12.401383 4.136672 -0.000000 -0.000000 0.000000
  9 -0.000000 0.000000 -0.000000 0.000000 0.000000 0.000000
 10 0.000000 -15.653315 -6.600977 0.000000 0.000000 0.000000
 11 4.232094 -2.463953 -5.701734 0.102763 0.011169 -0.451264
 12 0.000000 0.000000 -0.000000 0.000000 0.000000 0.000000
 13 -2.636130 0.805164 -5.542013 0.000000 -1.226559 0.000000
 14 -0.000000 0.000000 0.000000 1.524455 0.106829 -2.075712
 15 8.403362 -0.000000 -0.000001 -0.000000 0.829748 -0.000000
 16 8.136637 -0.000001 -0.000000 -1.570796 -0.032553 -0.000000
 17 8.136637 0.000007 0.000005 -1.281621 -0.159924 -0.233722
 18 1.369794 0.361444 1.237272 1.175074 -0.347333 0.479992
 19 1.320668 -0.000000 0.000000 0.201328 -0.139079 -0.045485
 20 1.066024 0.000000 -0.000001 -0.014471 -0.113783 0.196807
 21 1.039344 -0.000002 -0.000000 1.325745 0.991426 2.013611
 22 2.457048 -0.024848 0.014094 -0.000072 -0.005736 -0.010113
 23 3.525409 -0.419243 0.945131 1.648473 0.052800 0.007770
 24 1.209883 -0.000000 0.000001 0.003943 0.285298 -0.018611
 25 0.743917 0.000000 -0.000000 -0.001656 1.148181 -0.092843
 26 0.794889 0.000000 -0.000000 -0.000005 0.704556 -0.000608
 27 3.414726 -0.449902 0.223652 1.693617 0.046763 0.558369
 28 1.390921 -0.000001 -0.000001 -0.004769 1.284870 -0.018048
 29 0.906346 0.000001 0.000001 0.006062 -0.433839 0.045570
 30 0.776325 -0.000000 0.000001 0.001079 0.866577 0.033798
 31 3.289557 -0.311001 -0.505977 1.762164 0.112217 0.757107
 32 1.262953 -0.000000 0.000000 0.410301 1.354679 0.453063
 33 0.919430 -0.000000 -0.000000 -0.052499 -0.297525 0.013980
 34 0.803004 -0.000001 -0.000001 -0.163064 1.145489 -1.117549
 35 3.167418 -0.097637 -1.197366 1.832995 -0.038354 1.129403
 36 0.817884 -0.000000 0.000001 0.142196 1.147469 0.122418
 37 0.708994 0.000001 0.000001 -0.039911 -0.253101 0.086949
 38 0.794784 -0.000000 -0.000000 -1.042950 1.141227 -1.966856
 39 5.566999 5.667288 -3.006967 0.000000 0.000000 0.000000
 40 0.000000 0.000000 0.000000 -1.303401 0.170577 -0.717442
 41 8.403363 -0.000000 -0.000001 -0.000000 2.038564 -0.000000
 42 8.136636 -0.000008 0.000003 1.818808 -0.688359 -0.247625
 43 1.369793 -0.361442 1.237272 -1.127491 0.097656 -0.579344
 44 1.320668 0.000002 -0.000001 -0.218662 -0.109509 0.185068
 45 1.066023 0.000000 0.000000 -0.025949 -0.111735 0.158666
 46 3.289559 0.311001 -0.505976 -1.569928 0.064069 -0.677339
 47 1.262953 -0.000000 -0.000001 -0.592079 1.417311 -0.637209
 48 0.919429 0.000002 -0.000000 0.132824 1.180916 0.124669
 49 3.167420 0.097638 -1.197364 -1.577201 0.079890 -0.593938
 50 0.817882 -0.000000 -0.000001 -0.164298 1.212571 -0.146164
 51 0.708995 0.000002 0.000000 0.062061 0.898421 -0.028374
 52 3.414729 0.449902 0.223654 -1.580784 0.013019 -0.654459
 53 1.390922 0.000002 -0.000000 0.005510 1.543565 0.018246
 54 0.906347 -0.000000 0.000001 -0.006062 0.824979 -0.045570
 55 2.457049 0.024850 0.014095 0.000073 -0.005736 0.010114
 56 3.525410 0.419243 0.945132 -1.582286 -0.026814 -0.287264
 57 1.209882 -0.000002 -0.000000 -0.003943 1.026206 0.018610
 58 0.743920 0.000000 -0.000000 0.001656 1.150047 0.092843
 59 8.136638 -0.000000 -0.000002 1.570797 -0.032533 -0.000000
 60 -1.543418 -14.142575 -7.474241 0.086793 -1.471869 0.283690
 61 0.008386 -0.048312 -0.069476 -0.000000 -0.000000 -0.000000
time 16
  0 -0.276601 -14.046860 -5.562687 0.177312 -0.013498 -0.232434
  1 0.250197 -3.917488 -0.099873 0.000000 -0.000000 -0.000000
  2 0.337618 4.930948 0.877138 0.000000 0.000000 0.000000
  3 0.249743 5.375675 -0.431249 0.000000 -0.000000 -0.000000
  4 -2.477793 12.401383 4.136672 0.000000 -0.000000 -0.000000
  5 0.241868 9.046290 0.896506 0.000000 -0.000000 -0.000000
  6 0.000303 8.159074 -1.557892 0.000000 0.000000 0.000000
  7 0.246663 8.082763 -0.926848 0.000000 -0.000000 -0.000000
  8 -2.477793 12.401383 4.136672 0.000000 -0.000000 -0.000000
  9 -0.000000 0.000000 0.000000 0.000000 0.000000 0.000000
 10 0.000000 -15.653315 -6.600977 0.000000 0.000000 0.000000
 11 4.191597 -2.268656 -5.712559 0.116455 0.013551 -0.448964
 12 -0.000000 0.000000 0.000000 0.000000 0.000000 0.000000
 13 -2.636130 0.805164 -5.542013 0.000000 -1.226559 0.000000
 14 -0.000000 0.000000 0.000000 1.519494 0.110270 -2.115451
 15 8.403362 -0.000000 -0.000001 0.000000 0.882691 0.000000
 16 8.136638 -0.000000 0.000000 -1.570796 -0.032553 0.000000
 17 8.136637 0.000008 0.000005 -1.272380 -0.183512 -0.235613
 18 1.369795 0.361443 1.237272 1.175075 -0.347333 0.479992
 19 1.320668 -0.000001 0.000000 0.201328 -0.139079 -0.045485
 20 1.066026 0.000000 0.000000 -0.014471 -0.113783 0.196807
 21 1.039344 -0.000001 0.000000 1.325744 0.991426 2.013611
 22 2.457049 -0.024849 0.014095 -0.000072 -0.005736 -0.010113
 23 3.525410 -0.419243 0.945132 1.648473 0.052800 0.007770
 24 1.209882 -0.000000 0.000000 0.003943 0.285298 -0.018611
 25 0.743917 0.000000 0.000000 -0.001656 1.148181 -0.092843
 26 0.794889 -0.000001 -0.000000 -0.000005 0.704556 -0.000608
 27 3.414727 -0.449902 0.223652 1.693617 0.046763 0.558369
 28 1.390921 -0.000001 0.000001 -0.004769 1.284870 -0.018048
 29 0.906345 0.000000 0.000000 0.006062 -0.433839 0.045570
 30 0.776324 -0.000001 -0.000000 0.001079 0.866577 0.033798
 31 3.289557 -0.311002 -0.505976 1.762164 0.112217 0.757107
 32 1.262952 -0.000001 -0.000000 0.410302 1.354679 0.453063
 33 0.919428 0.000000 0.000000 -0.052499 -0.297525 0.013980
 34 0.803004 -0.000001 -0.000001 -0.163064 1.145489 -1.117549
 35 3.167418 -0.097638 -1.197366 1.832995 -0.038354 1.129403
 36 0.817884 0.000000 0.000001 0.142196 1.147469 0.122418
 37 0.708995 -0.000000 0.000000 -0.039911 -0.253101 0.086949
 38 0.794783 -0.000001 -0.000000 -1.042950 1.141227 -1.966856
 39 5.566999 5.667288 -3.006967 0.000000 0.000000 0.000000
 40 0.000000 0.000000 0.000000 -1.294548 0.171663 -0.713899
 41 8.403363 -0.000000 -0.000001 -0.000000 2.063051 -0.000000
 42 8.136637 -0.000008 0.000003 1.818805 -0.713029 -0.246492
 43 1.369793 -0.361443 1.237272 -1.127491 0.097656 -0.579344
 44 1.320668 0.000002 -0.000000 -0.218662 -0.109509 0.185068
 45 1.066023 -0.000000 0.000000 -0.025949 -0.111735 0.158666
 46 3.289559 0.311001 -0.505976 -1.569928 0.064069 -0.677339
 47 1.262953 0.000000 -0.000001 -0.592079 1.417311 -0.637209
 48 0.919429 0.000002 -0.000000 0.132824 1.180916 0.124669
 49 3.167420 0.097637 -1.197364 -1.577201 0.079890 -0.593938
 50 0.817882 0.000000 -0.000002 -0.164298 1.212571 -0.146163
 51 0.708995 0.000002 -0.000000 0.062061 0.898421 -0.028374
 52 3.414728 0.449902 0.223654 -1.580784 0.013019 -0.654459
 53 1.390922 0.000002 -0.000001 0.005510 1.543565 0.018246
 54 0.906348 0.000000 0.000001 -0.006062 0.824979 -0.045570
 55 2.457049 0.024849 0.014095 0.000073 -0.005736 0.010114
 56 3.525410 0.419243 0.945132 -1.582286 -0.026814 -0.287264
 57 1.209881 -0.000002 -0.000001 -0.003943 1.026206 0.018610
 58 0.743920 0.000000 -0.000000 0.001656 1.150047 0.092843
 59 8.136639 0.000000 -0.000002 1.570797 -0.032533 -0.000000
 60 -1.551948 -13.934675 -7.663006 0.214724 -1.478532 0.158471
 61 0.008386 -0.048311 -0.069476 0.000000 0.000000 -0.000000
time 17
  0 -0.182957 -13.845698 -5.479048 0.171231 -0.013035 -0.222468
  1 0.250197 -3.917489 -0.099873 -0.000000 0.000000 0.000000
  2 0.337618 4.930949 0.877138 0.000000 0.000000 0.000000
  3 0.249743 5.375675 -0.431248 -0.000000 0.000000 0.000000
  4 -2.477793 12.401383 4.136673 -0.000000 0.000000 0.000000
  5 0.241867 9.046291 0.896506 -0.000000 0.000000 0.000000
  6 0.000303 8.159075 -1.557893 0.000000 0.000000 0.000000
  7 0.246663 8.082763 -0.926848 -0.000000 0.000000 0.000000
  8 -2.477793 12.401383 4.136673 -0.000000 0.000000 0.000000
  9 0.000000 0.000000 0.000000 0.000000 0.000000 0.000000
 10 0.000000 -15.653315 -6.600977 0.000000 0.000000 0.000000
 11 4.168262 -2.025000 -5.705618 0.110417 0.012697 -0.439159
 12 0.000000 0.000000 0.000000 0.000000 0.000000 0.000000
 13 -2.636130 0.805164 -5.542013 0.000000 -1.226559 0.000000
 14 -0.000000 0.000000 0.000000 1.514499 0.113689 -2.133787
 15 8.403362 0.000000 -0.000001 0.000000 0.931967 0.000000
 16 8.136638 -0.000000 0.000001 -1.570796 -0.032553 0.000000
 17 8.136637 0.000008 0.000006 -1.268641 -0.206122 -0.239302
 18 1.369795 0.361443 1.237272 1.175074 -0.347333 0.479992
 19 1.320667 -0.000000 -0.000000 0.201328 -0.139079 -0.045485
 20 1.066024 0.000000 -0.000001 -0.014471 -0.113783 0.196807
 21 1.039344 -0.000001 -0.000000 1.325744 0.991426 2.013611
 22 2.457048 -0.024848 0.014094 -0.000072 -0.005736 -0.010113
 23 3.525410 -0.419243 0.945132 1.648473 0.052800 0.007770
 24 1.209882 -0.000001 -0.000000 0.003943 0.285298 -0.018611
 25 0.743917 -0.000000 -0.000000 -0.001656 1.148181 -0.092843
 26 0.794889 -0.000000 -0.000001 -0.000005 0.704556 -0.000608
 27 3.414728 -0.449902 0.223652 1.693617 0.046763 0.558369
 28 1.390921 -0.000001 0.000000 -0.004769 1.284870 -0.018048
 29 0.906346 0.000001 0.000001 0.006062 -0.433839 0.045570
 30 0.776325 0.000000 0.000001 0.001079 0.866577 0.033798
 31 3.289557 -0.311001 -0.505977 1.762164 0.112217 0.757107
 32 1.262952 -0.000001 0.000000 0.410301 1.354679 0.453063
 33 0.919429 0.000000 -0.000000 -0.052499 -0.297525 0.013980
 34 0.803004 -0.000000 -0.000001 -0.163064 1.145489 -1.117549
 35 3.167420 -0.097637 -1.197365 1.832995 -0.038354 1.129404
 36 0.817884 -0.000000 0.000000 0.142196 1.147469 0.122418
 37 0.708996 -0.000001 -0.000000 -0.039911 -0.253101 0.086949
 38 0.794783 -0.000000 -0.000001 -1.042950 1.141227 -1.966856
 39 5.566999 5.667288 -3.006967 0.000000 0.000000 0.000000
 40 0.000000 0.000000 0.000000 -1.284872 0.171819 -0.706640
 41 8.403363 0.000000 -0.000001 -0.000000 2.094312 -0.000000
 42 8.136636 -0.000007 0.000003 1.842513 -0.743021 -0.274959
 43 1.369793 -0.361443 1.237273 -1.127491 0.097656 -0.579344
 44 1.320668 0.000002 -0.000001 -0.218662 -0.109509 0.185068
 45 1.066023 0.000000 0.000000 -0.025949 -0.111735 0.158666
 46 3.289558 0.311001 -0.505976 -1.569928 0.064069 -0.677339
 47 1.262953 0.000000 -0.000001 -0.592079 1.417311 -0.637209
 48 0.919429 0.000002 -0.000000 0.132824 1.180916 0.124669
 49 3.167420 0.097637 -1.197364 -1.577201 0.079890 -0.593938
 50 0.817882 0.000000 -0.000001 -0.164298 1.212571 -0.146163
 51 0.708995 0.000002 0.000000 0.062061 0.898421 -0.028374
 52 3.414728 0.449902 0.223654 -1.580784 0.013019 -0.654459
 53 1.390922 0.000002 -0.000001 0.005510 1.543565 0.018246
 54 0.906347 -0.000000 0.000001 -0.006062 0.824979 -0.045570
 55 2.457049 0.024849 0.014096 0.000073 -0.005736 0.010114
 56 3.525410 0.419243 0.945133 -1.582286 -0.026814 -0.287264
 57 1.209881 -0.000002 -0.000001 -0.003943 1.026206 0.018610
 58 0.743920 0.000000 -0.000000 0.001656 1.150047 0.092843
 59 8.136638 0.000000 -0.000002 1.570797 -0.032533 -0.000000
 60 -1.463116 -13.758361 -7.577620 0.157388 -1.475632 0.225441
 61 0.008386 -0.048311 -0.069476 0.000000 -0.000000 -0.000000
time 18
  0 0.068008 -13.610077 -5.254895 0.154935 -0.011794 -0.200046
  1 0.250197 -3.917489 -0.099874 -0.000000 0.000000 0.000000
  2 0.337618 4.930949 0.877138 0.000000 0.000000 0.000000
  3 0.249743 5.375675 -0.431248 -0.000000 0.000000 0.000000
  4 -2.477793 12.401383 4.136672 -0.000000 0.000000 0.000000
  5 0.241867 9.046291 0.896506 -0.000000 0.000000 0.000000
  6 0.000303 8.159076 -1.557893 0.000000 0.000000 0.000000
  7 0.246663 8.082764 -0.926848 -0.000000 0.000000 0.000000
  8 -2.477793 12.401383 4.136672 -0.000000 0.000000 0.000000
  9 0.000000 0.000000 0.000000 0.000000 0.000000 0.000000
 10 0.000000 -15.653315 -6.600977 0.000000 0.000000 0.000000
 11 4.154059 -1.700801 -5.686968 0.094236 0.010402 -0.417126
 12 0.000000 -0.000000 0.000000 0.000000 0.000000 0.000000
 13 -2.636130 0.805164 -5.542013 0.000000 -1.226559 0.000000
 14 -0.000000 0.000000 0.000000 1.506271 0.122854 -2.138744
 15 8.403362 -0.000000 -0.000002 -0.000000 0.979703 0.000000
 16 8.136638 -0.000000 -0.000000 -1.570796 -0.032553 -0.000000
 17 8.136637 0.000008 0.000005 -1.267319 -0.228588 -0.245453
 18 1.369794 0.361443 1.237272 1.175075 -0.347333 0.479992
 19 1.320668 -0.000000 -0.000000 0.201328 -0.139079 -0.045485
 20 1.066025 0.000000 -0.000000 -0.014471 -0.113783 0.196807
 21 1.039343 -0.000001 -0.000000 1.325745 0.991426 2.013611
 22 2.457048 -0.024848 0.014094 -0.000072 -0.005736 -0.010113
 23 3.525409 -0.419243 0.945132 1.648473 0.052800 0.007770
 24 1.209884 -0.000000 0.000000 0.003943 0.285298 -0.018611
 25 0.743918 0.000000 0.000000 -0.001656 1.148181 -0.092843
 26 0.794890 -0.000000 0.000000 -0.000005 0.704556 -0.000608
 27 3.414727 -0.449902 0.223652 1.693617 0.046763 0.558369
 28 1.390922 0.000000 0.000001 -0.004769 1.284870 -0.018048
 29 0.906346 0.000001 0.000000 0.006062 -0.433839 0.045570
 30 0.776325 -0.000001 -0.000000 0.001079 0.866577 0.033798
 31 3.289557 -0.311001 -0.505976 1.762164 0.112217 0.757107
 32 1.262952 -0.000001 -0.000001 0.410302 1.354679 0.453063
 33 0.919430 -0.000000 -0.000000 -0.052499 -0.297525 0.013980
 34 0.803004 -0.000001 -0.000001 -0.163064 1.145489 -1.117549
 35 3.167419 -0.097637 -1.197365 1.832995 -0.038354 1.129403
 36 0.817884 0.000000 0.000000 0.142196 1.147469 0.122418
 37 0.708995 0.000000 -0.000000 -0.039911 -0.253101 0.086949
 38 0.794783 -0.000000 -0.000000 -1.042950 1.141227 -1.966856
 39 5.566999 5.667288 -3.006967 0.000000 0.000000 0.000000
 40 0.000000 0.000000 0.000000 -1.272096 0.171382 -0.695275
 41 8.403363 -0.000000 -0.000001 -0.000000 2.136969 0.000000
 42 8.136637 -0.000008 0.000002 1.888220 -0.787441 -0.329931
 43 1.369793 -0.361443 1.237272 -1.127491 0.097656 -0.579344
 44 1.320668 0.000002 -0.000001 -0.218662 -0.109509 0.185068
 45 1.066023 -0.000000 0.000000 -0.025949 -0.111735 0.158666
 46 3.289559 0.311001 -0.505976 -1.569928 0.064069 -0.677339
 47 1.262953 -0.000000 -0.000001 -0.592079 1.417311 -0.637209
 48 0.919429 0.000002 -0.000000 0.132824 1.180917 0.124669
 49 3.167420 0.097637 -1.197364 -1.577201 0.079890 -0.593938
 50 0.817882 -0.000000 -0.000001 -0.164298 1.212571 -0.146163
 51 0.708995 0.000002 0.000000 0.062061 0.898421 -0.028374
 52 3.414729 0.449902 0.223654 -1.580784 0.013019 -0.654459
 53 1.390922 0.000002 -0.000001 0.005510 1.543565 0.018246
 54 0.906348 -0.000000 0.000001 -0.006062 0.824979 -0.045570
 55 2.457049 0.024849 0.014095 0.000073 -0.005736 0.010114
 56 3.525410 0.419243 0.945132 -1.582286 -0.026814 -0.287264
 57 1.209882 -0.000002 -0.000001 -0.003943 1.026206 0.018610
 58 0.743920 0.000000 -0.000000 0.001656 1.150047 0.092843
 59 8.136638 -0.000000 -0.000002 1.570797 -0.032533 -0.000000
 60 -1.223114 -13.584160 -7.348401 0.021048 -1.466497 0.383326
 61 0.008386 -0.048312 -0.069475 -0.000000 -0.000000 -0.000000
time 19
  0 0.431346 -13.355515 -4.930374 0.131342 -0.009998 -0.168807
  1 0.250197 -3.917488 -0.099874 0.000000 -0.000000 0.000000
  2 0.337618 4.930950 0.877138 0.000000 0.000000 0.000000
  3 0.249743 5.375676 -0.431249 0.000000 -0.000000 0.000000
  4 -2.477793 12.401384 4.136672 0.000000 -0.000000 0.000000
  5 0.241868 9.046292 0.896506 0.000000 -0.000000 0.000000
  6 0.000303 8.159075 -1.557892 0.000000 0.000000 0.000000
  7 0.246663 8.082764 -0.926848 0.000000 -0.000000 0.000000
  8 -2.477793 12.401384 4.136672 0.000000 -0.000000 0.000000
  9 -0.000000 -0.000000 0.000000 0.000000 0.000000 0.000000
 10 0.000000 -15.653315 -6.600977 0.000000 0.000000 0.000000
 11 4.143190 -1.338711 -5.659748 0.070811 0.007069 -0.386349
 12 -0.000000 -0.000000 0.000000 0.000000 0.000000 0.000000
 13 -2.636130 0.805164 -5.542013 0.000000 -1.226559 0.000000
 14 -0.000000 0.000000 0.000000 1.495528 0.136318 -2.130917
 15 8.403362 -0.000000 -0.000002 -0.000000 1.020989 -0.000000
 16 8.136638 -0.000000 0.000000 -1.570796 -0.032553 -0.000000
 17 8.136637 0.000008 0.000005 -1.267255 -0.248633 -0.252854
 18 1.369795 0.361443 1.237272 1.175075 -0.347333 0.479992
 19 1.320668 -0.000000 0.000000 0.201328 -0.139079 -0.045485
 20 1.066026 0.000000 -0.000001 -0.014471 -0.113783 0.196807
 21 1.039343 -0.000001 -0.000000 1.325744 0.991426 2.013611
 22 2.457049 -0.024848 0.014094 -0.000072 -0.005736 -0.010113
 23 3.525411 -0.419243 0.945132 1.648473 0.052800 0.007770
 24 1.209883 -0.000000 0.000000 0.003943 0.285298 -0.018611
 25 0.743918 0.000001 0.000000 -0.001656 1.148181 -0.092843
 26 0.794890 0.000001 -0.000000 -0.000005 0.704556 -0.000608
 27 3.414728 -0.449901 0.223652 1.693617 0.046763 0.558369
 28 1.390921 -0.000001 0.000001 -0.004769 1.284870 -0.018048
 29 0.906345 0.000001 0.000001 0.006062 -0.433839 0.045570
 30 0.776325 0.000000 0.000001 0.001079 0.866577 0.033798
 31 3.289558 -0.311001 -0.505976 1.762164 0.112217 0.757107
 32 1.262953 0.000000 0.000000 0.410302 1.354679 0.453063
 33 0.919430 0.000000 0.000000 -0.052499 -0.297525 0.013980
 34 0.803003 -0.000001 -0.000001 -0.163064 1.145489 -1.117549
 35 3.167419 -0.097637 -1.197366 1.832995 -0.038354 1.129403
 36 0.817884 0.000001 0.000000 0.142196 1.147469 0.122418
 37 0.708995 -0.000000 0.000000 -0.039911 -0.253101 0.086949
 38 0.794784 -0.000001 -0.000000 -1.042950 1.141227 -1.966856
 39 5.566999 5.667288 -3.006967 0.000000 0.000000 0.000000
 40 0.000000 0.000000 0.000000 -1.257639 0.170703 -0.683636
 41 8.403363 0.000000 -0.000002 -0.000000 2.183351 -0.000000
 42 8.136637 -0.000007 0.000003 1.955732 -0.837924 -0.409095
 43 1.369793 -0.361443 1.237273 -1.127491 0.097656 -0.579344
 44 1.320668 0.000002 -0.000001 -0.218662 -0.109509 0.185068
 45 1.066023 -0.000000 -0.000000 -0.025949 -0.111735 0.158666
 46 3.289559 0.311001 -0.505976 -1.569928 0.064069 -0.677339
 47 1.262953 -0.000000 -0.000001 -0.592079 1.417311 -0.637209
 48 0.919429 0.000002 -0.000000 0.132824 1.180916 0.124669
 49 3.167420 0.097637 -1.197363 -1.577201 0.079890 -0.593938
 50 0.817882 -0.000000 -0.000001 -0.164298 1.212571 -0.146164
 51 0.708995 0.000002 -0.000000 0.062061 0.898421 -0.028374
 52 3.414728 0.449902 0.223654 -1.580784 0.013019 -0.654458
 53 1.390922 0.000002 -0.000000 0.005510 1.543565 0.018246
 54 0.906347 0.000000 0.000001 -0.006062 0.824979 -0.045570
 55 2.457049 0.024849 0.014096 0.000073 -0.005736 0.010114
 56 3.525410 0.419243 0.945133 -1.582286 -0.026814 -0.287264
 57 1.209882 -0.000002 -0.000001 -0.003943 1.026206 0.018610
 58 0.743920 0.000000 -0.000000 0.001656 1.150047 0.092843
 59 8.136639 0.000000 -0.000002 1.570797 -0.032533 -0.000000
 60 -0.871946 -13.417565 -7.015563 -0.135481 -1.450547 0.569860
 61 0.008386 -0.048311 -0.069476 0.000000 0.000000 -0.000000
time 20
  0 0.862107 -13.097534 -4.545633 0.103371 -0.007869 -0.132390
  1 0.250197 -3.917489 -0.099873 -0.000000 -0.000000 0.000000
  2 0.337618 4.930949 0.877138 -0.000000 -0.000000 0.000000
  3 0.249742 5.375676 -0.431248 -0.000000 -0.000000 0.000000
  4 -2.477793 12.401384 4.136672 -0.000000 -0.000000 0.000000
  5 0.241867 9.046292 0.896506 -0.000000 -0.000000 0.000000
  6 0.000303 8.159075 -1.557893 0.000000 0.000000 0.000000
  7 0.246663 8.082765 -0.926848 -0.000000 -0.000000 0.000000
  8 -2.477793 12.401384 4.136672 -0.000000 -0.000000 0.000000
  9 0.000000 -0.000000 0.000000 0.000000 0.000000 0.000000
 10 0.000000 -15.653315 -6.600977 0.000000 0.000000 0.000000
 11 4.131747 -0.979218 -5.626938 0.043041 0.003105 -0.350323
 12 -0.000000 -0.000000 -0.000000 0.000000 0.000000 0.000000
 13 -2.636130 0.805164 -5.542013 0.000000 -1.226559 0.000000
 14 -0.000000 0.000000 0.000000 1.483254 0.152566 -2.112085
 15 8.403362 -0.000000 -0.000001 -0.000000 1.052783 -0.000000
 16 8.136638 -0.000000 -0.000001 -1.570796 -0.032553 0.000000
 17 8.136637 0.000008 0.000005 -1.267361 -0.264636 -0.260405
 18 1.369794 0.361444 1.237272 1.175075 -0.347333 0.479992
 19 1.320667 -0.000000 -0.000000 0.201328 -0.139079 -0.045485
 20 1.066025 0.000000 -0.000000 -0.014471 -0.113783 0.196807
 21 1.039343 -0.000001 -0.000000 1.325744 0.991426 2.013611
 22 2.457049 -0.024848 0.014095 -0.000072 -0.005736 -0.010113
 23 3.525410 -0.419242 0.945132 1.648473 0.052800 0.007770
 24 1.209884 0.000000 -0.000001 0.003943 0.285298 -0.018611
 25 0.743917 -0.000000 -0.000000 -0.001656 1.148181 -0.092843
 26 0.794889 -0.000001 -0.000000 -0.000005 0.704556 -0.000608
 27 3.414728 -0.449901 0.223653 1.693617 0.046763 0.558369
 28 1.390922 0.000000 -0.000000 -0.004769 1.284870 -0.018048
 29 0.906346 0.000001 -0.000000 0.006062 -0.433839 0.045570
 30 0.776325 0.000000 0.000001 0.001079 0.866577 0.033798
 31 3.289557 -0.311001 -0.505976 1.762164 0.112217 0.757107
 32 1.262952 -0.000000 -0.000000 0.410302 1.354679 0.453063
 33 0.919429 0.000001 0.000000 -0.052499 -0.297525 0.013980
 34 0.803004 -0.000001 -0.000001 -0.163064 1.145489 -1.117549
 35 3.167419 -0.097637 -1.197365 1.832995 -0.038354 1.129403
 36 0.817884 -0.000000 0.000000 0.142196 1.147469 0.122418
 37 0.708995 -0.000000 0.000000 -0.039911 -0.253101 0.086949
 38 0.794783 -0.000001 -0.000000 -1.042950 1.141227 -1.966856
 39 5.566999 5.667288 -3.006967 0.000000 0.000000 0.000000
 40 0.000000 0.000000 0.000000 -1.242898 0.169653 -0.673379
 41 8.403364 0.000000 -0.000001 0.000000 2.229658 0.000000
 42 8.136637 -0.000008 0.000003 2.043827 -0.887739 -0.509150
 43 1.369793 -0.361442 1.237272 -1.127491 0.097656 -0.579344
 44 1.320668 0.000002 -0.000000 -0.218662 -0.109509 0.185068
 45 1.066023 0.000000 0.000000 -0.025949 -0.111735 0.158666
 46 3.289559 0.311001 -0.505976 -1.569928 0.064069 -0.677339
 47 1.262953 0.000000 -0.000001 -0.592079 1.417311 -0.637209
 48 0.919429 0.000002 -0.000000 0.132824 1.180916 0.124669
 49 3.167420 0.097638 -1.197364 -1.577201 0.079890 -0.593938
 50 0.817882 0.000000 -0.000001 -0.164298 1.212571 -0.146163
 51 0.708995 0.000002 0.000000 0.062061 0.898421 -0.028374
 52 3.414729 0.449902 0.223654 -1.580784 0.013019 -0.654459
 53 1.390922 0.000002 -0.000001 0.005510 1.543565 0.018246
 54 0.906348 0.000000 0.000001 -0.006062 0.824979 -0.045570
 55 2.457049 0.024849 0.014095 0.000073 -0.005736 0.010114
 56 3.525410 0.419244 0.945132 -1.582286 -0.026814 -0.287264
 57 1.209881 -0.000002 -0.000001 -0.003943 1.026206 0.018610
 58 0.743920 -0.000000 -0.000001 0.001656 1.150047 0.092843
 59 8.136639 0.000000 -0.000002 1.570797 -0.032533 -0.000000
 60 -0.450164 -13.263743 -6.619459 -0.271939 -1.428838 0.741326
 61 0.008386 -0.048311 -0.069476 -0.000000 0.000000 -0.000000
time 21
  0 1.315342 -12.851655 -4.140818 0.073941 -0.005629 -0.094434
  1 0.250197 -3.917488 -0.099874 0.000000 -0.000000 0.000000
  2 0.337618 4.930949 0.877138 0.000000 0.000000 0.000000
  3 0.249743 5.375675 -0.431248 0.000000 -0.000000 0.000000
  4 -2.477793 12.401383 4.136672 0.000000 -0.000000 0.000000
  5 0.241868 9.046291 0.896506 0.000000 -0.000000 0.000000
  6 0.000303 8.159075 -1.557892 0.000000 0.000000 0.000000
  7 0.246663 8.082763 -0.926848 0.000000 -0.000000 0.000000
  8 -2.477793 12.401383 4.136672 0.000000 -0.000000 0.000000
  9 0.000000 -0.000000 0.000000 0.000000 0.000000 0.000000
 10 0.000000 -15.653315 -6.600977 0.000000 0.000000 0.000000
 11 4.118862 -0.655378 -5.591493 0.013824 -0.001074 -0.312595
 12 -0.000000 0.000000 0.000000 0.000000 0.000000 0.000000
 13 -2.636130 0.805164 -5.542013 0.000000 -1.226559 0.000000
 14 -0.000000 0.000000 0.000000 1.470792 0.170037 -2.084617
 15 8.403362 -0.000000 -0.000001 0.000000 1.072550 0.000000
 16 8.136638 -0.000000 0.000001 -1.570796 -0.032553 -0.000000
 17 8.136637 0.000008 0.000006 -1.267142 -0.275017 -0.267187
 18 1.369794 0.361443 1.237272 1.175075 -0.347333 0.479992
 19 1.320667 -0.000000 -0.000000 0.201328 -0.139079 -0.045485
 20 1.066025 0.000000 -0.000000 -0.014471 -0.113783 0.196807
 21 1.039343 -0.000001 -0.000000 1.325745 0.991426 2.013611
 22 2.457048 -0.024848 0.014095 -0.000072 -0.005736 -0.010113
 23 3.525409 -0.419243 0.945132 1.648473 0.052800 0.007770
 24 1.209883 -0.000001 -0.000001 0.003943 0.285298 -0.018611
 25 0.743918 0.000001 0.000000 -0.001656 1.148181 -0.092843
 26 0.794890 0.000000 -0.000000 -0.000005 0.704556 -0.000608
 27 3.414726 -0.449902 0.223652 1.693617 0.046763 0.558369
 28 1.390922 -0.000001 0.000001 -0.004769 1.284870 -0.018048
 29 0.906346 -0.000000 -0.000001 0.006062 -0.433839 0.045570
 30 0.776325 0.000000 -0.000000 0.001079 0.866577 0.033798
 31 3.289557 -0.311001 -0.505976 1.762164 0.112217 0.757107
 32 1.262953 -0.000000 0.000000 0.410302 1.354679 0.453063
 33 0.919429 0.000000 0.000000 -0.052499 -0.297525 0.013980
 34 0.803003 -0.000000 -0.000000 -0.163064 1.145489 -1.117549
 35 3.167419 -0.097637 -1.197365 1.832995 -0.038354 1.129403
 36 0.817884 -0.000000 -0.000000 0.142196 1.147469 0.122418
 37 0.708995 0.000000 -0.000000 -0.039911 -0.253101 0.086949
 38 0.794783 -0.000000 -0.000001 -1.042950 1.141227 -1.966856
 39 5.566999 5.667288 -3.006967 0.000000 0.000000 0.000000
 40 0.000000 0.000000 0.000000 -1.229519 0.168570 -0.666452
 41 8.403363 -0.000000 -0.000001 0.000000 2.270005 0.000000
 42 8.136637 -0.000008 0.000003 2.145839 -0.929720 -0.622106
 43 1.369793 -0.361443 1.237272 -1.127491 0.097656 -0.579344
 44 1.320668 0.000002 -0.000001 -0.218662 -0.109509 0.185068
 45 1.066023 -0.000000 0.000000 -0.025949 -0.111735 0.158666
 46 3.289559 0.311001 -0.505976 -1.569928 0.064069 -0.677339
 47 1.262953 0.000000 -0.000001 -0.592079 1.417311 -0.637209
 48 0.919429 0.000002 -0.000000 0.132824 1.180916 0.124669
 49 3.167420 0.097637 -1.197363 -1.577201 0.079890 -0.593938
 50 0.817882 -0.000000 -0.000001 -0.164298 1.212571 -0.146164
 51 0.708995 0.000002 0.000000 0.062061 0.898421 -0.028374
 52 3.414728 0.449902 0.223654 -1.580784 0.013019 -0.654459
 53 1.390922 0.000002 -0.000001 0.005510 1.543565 0.018246
 54 0.906347 -0.000000 0.000001 -0.006062 0.824979 -0.045570
 55 2.457049 0.024849 0.014095 0.000073 -0.005736 0.010114
 56 3.525410 0.419243 0.945133 -1.582286 -0.026814 -0.287264
 57 1.209882 -0.000002 -0.000000 -0.003943 1.026206 0.018610
 58 0.743920 -0.000000 -0.000000 0.001656 1.150047 0.092843
 59 8.136639 -0.000000 -0.000002 1.570797 -0.032533 -0.000000
 60 -0.000071 -13.127407 -6.200935 -0.375550 -1.403957 0.881472
 61 0.008386 -0.048311 -0.069476 -0.000000 -0.000000 -0.000000
time 22
  0 1.746104 -12.633399 -3.756077 0.045970 -0.003499 -0.058578
  1 0.250197 -3.917488 -0.099874 -0.000000 -0.000000 0.000000
  2 0.337618 4.930948 0.877138 0.000000 -0.000000 0.000000
  3 0.249743 5.375675 -0.431249 -0.000000 -0.000000 0.000000
  4 -2.477793 12.401382 4.136672 -0.000000 -0.000000 0.000000
  5 0.241868 9.046290 0.896506 -0.000000 -0.000000 0.000000
  6 0.000303 8.159075 -1.557893 0.000000 0.000000 0.000000
  7 0.246663 8.082763 -0.926848 -0.000000 -0.000000 0.000000
  8 -2.477793 12.401382 4.136672 -0.000000 -0.000000 0.000000
  9 0.000000 0.000000 0.000000 0.000000 0.000000 0.000000
 10 0.000000 -15.653315 -6.600977 0.000000 0.000000 0.000000
 11 4.106050 -0.389953 -5.556641 -0.013945 -0.005050 -0.276781
 12 -0.000000 -0.000000 0.000000 0.000000 0.000000 0.000000
 13 -2.636130 0.805164 -5.542013 0.000000 -1.226559 0.000000
 14 -0.000000 0.000000 0.000000 1.459454 0.186973 -2.052998
 15 8.403362 -0.000000 -0.000001 0.000000 1.081463 0.000000
 16 8.136639 -0.000000 0.000001 -1.570796 -0.032553 0.000000
 17 8.136638 0.000008 0.000006 -1.266381 -0.279973 -0.272647
 18 1.369795 0.361444 1.237273 1.175074 -0.347333 0.479992
 19 1.320668 -0.000000 -0.000000 0.201328 -0.139079 -0.045485
 20 1.066026 0.000000 0.000000 -0.014471 -0.113783 0.196807
 21 1.039343 -0.000001 -0.000000 1.325744 0.991426 2.013611
 22 2.457049 -0.024848 0.014095 -0.000072 -0.005736 -0.010113
 23 3.525411 -0.419243 0.945132 1.648473 0.052800 0.007770
 24 1.209883 -0.000001 -0.000001 0.003943 0.285298 -0.018611
 25 0.743917 0.000000 0.000000 -0.001656 1.148181 -0.092843
 26 0.794890 -0.000001 -0.000000 -0.000005 0.704556 -0.000608
 27 3.414727 -0.449901 0.223652 1.693617 0.046763 0.558369
 28 1.390921 -0.000001 0.000000 -0.004769 1.284870 -0.018048
 29 0.906346 0.000000 0.000000 0.006062 -0.433839 0.045570
 30 0.776325 -0.000001 -0.000001 0.001079 0.866577 0.033798
 31 3.289558 -0.311001 -0.505976 1.762164 0.112217 0.757107
 32 1.262952 -0.000001 -0.000000 0.410301 1.354679 0.453063
 33 0.919429 0.000000 0.000000 -0.052499 -0.297525 0.013980
 34 0.803004 -0.000001 -0.000001 -0.163064 1.145489 -1.117549
 35 3.167419 -0.097637 -1.197365 1.832995 -0.038354 1.129403
 36 0.817884 -0.000000 0.000000 0.142196 1.147469 0.122418
 37 0.708995 0.000001 0.000000 -0.039911 -0.253101 0.086949
 38 0.794784 -0.000000 -0.000001 -1.042950 1.141227 -1.966856
 39 5.566999 5.667288 -3.006967 0.000000 0.000000 0.000000
 40 0.000000 0.000000 0.000000 -1.218514 0.167110 -0.661570
 41 8.403363 0.000000 -0.000001 -0.000000 2.304660 0.000000
 42 8.136637 -0.000008 0.000003 2.251883 -0.961364 -0.736809
 43 1.369793 -0.361443 1.237273 -1.127491 0.097656 -0.579344
 44 1.320668 0.000001 -0.000001 -0.218662 -0.109509 0.185068
 45 1.066023 0.000000 0.000000 -0.025949 -0.111735 0.158666
 46 3.289559 0.311001 -0.505976 -1.569928 0.064069 -0.677339
 47 1.262953 -0.000000 -0.000001 -0.592079 1.417311 -0.637209
 48 0.919429 0.000002 -0.000000 0.132824 1.180916 0.124669
 49 3.167420 0.097638 -1.197364 -1.577201 0.079890 -0.593938
 50 0.817882 -0.000000 -0.000001 -0.164298 1.212571 -0.146163
 51 0.708995 0.000002 -0.000000 0.062061 0.898421 -0.028374
 52 3.414729 0.449902 0.223654 -1.580784 0.013019 -0.654459
 53 1.390922 0.000002 -0.000001 0.005510 1.543565 0.018246
 54 0.906348 0.000000 0.000001 -0.006062 0.824979 -0.045570
 55 2.457049 0.024849 0.014096 0.000073 -0.005736 0.010114
 56 3.525410 0.419243 0.945132 -1.582286 -0.026814 -0.287264
 57 1.209882 -0.000002 -0.000001 -0.003943 1.026206 0.018610
 58 0.743920 -0.000000 -0.000000 0.001656 1.150047 0.092843
 59 8.136639 -0.000000 -0.000002 1.570797 -0.032533 -0.000000
 60 0.433651 -13.013030 -5.801507 -0.448632 -1.379098 0.989118
 61 0.008386 -0.048311 -0.069476 0.000000 0.000000 -0.000000
time 23
  0 2.109441 -12.458285 -3.431557 0.022377 -0.001703 -0.028461
  1 0.250197 -3.917488 -0.099873 -0.000000 -0.000000 0.000000
  2 0.337618 4.930949 0.877138 0.000000 -0.000000 0.000000
  3 0.249743 5.375676 -0.431249 -0.000000 -0.000000 0.000000
  4 -2.477793 12.401384 4.136672 -0.000000 -0.000000 0.000000
  5 0.241867 9.046291 0.896506 -0.000000 -0.000000 0.000000
  6 0.000303 8.159075 -1.557892 0.000000 0.000000 0.000000
  7 0.246663 8.082764 -0.926848 -0.000000 -0.000000 0.000000
  8 -2.477793 12.401384 4.136672 -0.000000 -0.000000 0.000000
  9 -0.000000 -0.000000 -0.000000 0.000000 0.000000 0.000000
 10 0.000000 -15.653315 -6.600977 0.000000 0.000000 0.000000
 11 4.095586 -0.195282 -5.526155 -0.037367 -0.008403 -0.246568
 12 0.000000 0.000000 -0.000000 0.000000 0.000000 0.000000
 13 -2.636130 0.805164 -5.542013 0.000000 -1.226559 0.000000
 14 -0.000000 0.000000 0.000000 1.450354 0.201467 -2.022980
 15 8.403362 -0.000000 -0.000001 0.000000 1.082930 0.000000
 16 8.136638 -0.000000 -0.000000 -1.570796 -0.032553 0.000000
 17 8.136637 0.000008 0.000004 -1.265218 -0.280952 -0.276572
 18 1.369795 0.361444 1.237272 1.175075 -0.347333 0.479992
 19 1.320667 -0.000000 -0.000001 0.201328 -0.139079 -0.045485
 20 1.066025 0.000000 0.000001 -0.014471 -0.113783 0.196807
 21 1.039343 -0.000001 -0.000000 1.325744 0.991426 2.013611
 22 2.457048 -0.024848 0.014094 -0.000072 -0.005736 -0.010113
 23 3.525410 -0.419243 0.945132 1.648473 0.052800 0.007770
 24 1.209882 -0.000000 -0.000000 0.003943 0.285298 -0.018611
 25 0.743917 0.000000 0.000000 -0.001656 1.148181 -0.092843
 26 0.794889 -0.000000 0.000000 -0.000005 0.704556 -0.000608
 27 3.414727 -0.449902 0.223652 1.693617 0.046763 0.558369
 28 1.390921 -0.000000 0.000000 -0.004769 1.284870 -0.018048
 29 0.906346 0.000000 -0.000000 0.006062 -0.433839 0.045570
 30 0.776325 -0.000000 -0.000000 0.001079 0.866577 0.033798
 31 3.289557 -0.311001 -0.505976 1.762164 0.112217 0.757107
 32 1.262953 0.000000 0.000000 0.410302 1.354679 0.453063
 33 0.919429 0.000000 0.000000 -0.052499 -0.297525 0.013980
 34 0.803003 -0.000000 -0.000001 -0.163064 1.145489 -1.117549
 35 3.167419 -0.097637 -1.197365 1.832995 -0.038354 1.129404
 36 0.817884 0.000000 -0.000000 0.142196 1.147469 0.122418
 37 0.708995 -0.000000 0.000000 -0.039911 -0.253101 0.086949
 38 0.794783 0.000000 -0.000000 -1.042950 1.141227 -1.966856
 39 5.566999 5.667288 -3.006967 0.000000 0.000000 0.000000
 40 0.000000 0.000000 0.000000 -1.210853 0.166076 -0.659797
 41 8.403363 -0.000000 -0.000001 -0.000000 2.328075 -0.000000
 42 8.136636 -0.000008 0.000003 2.344156 -0.980395 -0.835473
 43 1.369793 -0.361443 1.237272 -1.127491 0.097656 -0.579344
 44 1.320668 0.000002 -0.000001 -0.218662 -0.109509 0.185068
 45 1.066023 -0.000000 0.000000 -0.025949 -0.111735 0.158666
 46 3.289559 0.311001 -0.505976 -1.569928 0.064069 -0.677339
 47 1.262953 -0.000000 -0.000001 -0.592079 1.417311 -0.637209
 48 0.919429 0.000002 -0.000001 0.132824 1.180917 0.124669
 49 3.167420 0.097638 -1.197364 -1.577201 0.079890 -0.593938
 50 0.817882 0.000000 -0.000001 -0.164298 1.212571 -0.146163
 51 0.708995 0.000002 -0.000000 0.062061 0.898421 -0.028374
 52 3.414729 0.449902 0.223654 -1.580784 0.013019 -0.654459
 53 1.390922 0.000001 -0.000000 0.005510 1.543565 0.018246
 54 0.906348 0.000000 0.000001 -0.006062 0.824979 -0.045570
 55 2.457049 0.024849 0.014095 0.000073 -0.005736 0.010114
 56 3.525410 0.419243 0.945132 -1.582286 -0.026814 -0.287264
 57 1.209882 -0.000002 -0.000001 -0.003943 1.026206 0.018610
 58 0.743920 0.000000 -0.000001 0.001656 1.150047 0.092843
 59 8.136638 -0.000000 -0.000002 1.570797 -0.032533 -0.000000
 60 0.803959 -12.925160 -5.463349 -0.496983 -1.357520 1.066540
 61 0.008386 -0.048311 -0.069476 -0.000000 -0.000000 -0.000000
time 24
  0 2.360406 -12.341835 -3.207403 0.006081 -0.000463 -0.007722
  1 0.250197 -3.917489 -0.099874 0.000000 0.000000 0.000000
  2 0.337618 4.930948 0.877138 0.000000 -0.000000 0.000000
  3 0.249743 5.375675 -0.431249 0.000000 0.000000 0.000000
  4 -2.477793 12.401383 4.136672 0.000000 0.000000 0.000000
  5 0.241868 9.046291 0.896506 0.000000 0.000000 0.000000
  6 0.000303 8.159075 -1.557893 0.000000 0.000000 0.000000
  7 0.246663 8.082763 -0.926848 0.000000 0.000000 0.000000
  8 -2.477793 12.401383 4.136672 0.000000 0.000000 0.000000
  9 0.000000 0.000000 -0.000000 0.000000 0.000000 0.000000
 10 0.000000 -15.653315 -6.600977 0.000000 0.000000 0.000000
 11 4.089037 -0.076074 -5.504422 -0.053547 -0.010717 -0.225692
 12 -0.000000 -0.000000 -0.000000 0.000000 0.000000 0.000000
 13 -2.636130 0.805164 -5.542013 0.000000 -1.226559 0.000000
 14 -0.000000 0.000000 0.000000 1.444591 0.211696 -1.999633
 15 8.403362 -0.000000 -0.000001 0.000000 1.078950 0.000000
 16 8.136639 -0.000000 0.000001 -1.570796 -0.032553 0.000000
 17 8.136637 0.000007 0.000006 -1.264437 -0.278976 -0.278858
 18 1.369795 0.361443 1.237272 1.175075 -0.347333 0.479992
 19 1.320667 -0.000001 0.000000 0.201328 -0.139079 -0.045485
 20 1.066024 0.000000 -0.000001 -0.014471 -0.113783 0.196807
 21 1.039343 -0.000002 -0.000000 1.325745 0.991426 2.013611
 22 2.457049 -0.024848 0.014094 -0.000072 -0.005736 -0.010113
 23 3.525409 -0.419243 0.945131 1.648473 0.052800 0.007770
 24 1.209882 -0.000001 -0.000000 0.003943 0.285298 -0.018611
 25 0.743917 -0.000000 -0.000000 -0.001656 1.148181 -0.092843
 26 0.794889 0.000000 0.000000 -0.000005 0.704556 -0.000608
 27 3.414727 -0.449901 0.223652 1.693617 0.046763 0.558369
 28 1.390921 -0.000001 -0.000000 -0.004769 1.284870 -0.018048
 29 0.906345 0.000000 -0.000000 0.006062 -0.433839 0.045570
 30 0.776325 -0.000000 -0.000000 0.001079 0.866577 0.033798
 31 3.289557 -0.311001 -0.505976 1.762164 0.112217 0.757107
 32 1.262952 -0.000000 0.000000 0.410301 1.354679 0.453063
 33 0.919429 -0.000000 -0.000000 -0.052499 -0.297525 0.013980
 34 0.803004 -0.000000 -0.000001 -0.163064 1.145489 -1.117549
 35 3.167419 -0.097637 -1.197366 1.832995 -0.038354 1.129403
 36 0.817884 0.000000 0.000000 0.142196 1.147469 0.122418
 37 0.708995 0.000000 -0.000000 -0.039911 -0.253101 0.086949
 38 0.794784 -0.000001 -0.000001 -1.042950 1.141227 -1.966856
 39 5.566999 5.667288 -3.006967 0.000000 0.000000 0.000000
 40 0.000000 0.000000 0.000000 -1.206375 0.165181 -0.658858
 41 8.403364 -0.000000 -0.000000 0.000000 2.343007 0.000000
 42 8.136637 -0.000008 0.000003 2.409256 -0.990236 -0.904285
 43 1.369793 -0.361443 1.237272 -1.127491 0.097656 -0.579344
 44 1.320668 0.000002 -0.000001 -0.218662 -0.109509 0.185068
 45 1.066023 0.000000 0.000000 -0.025949 -0.111735 0.158666
 46 3.289559 0.311001 -0.505976 -1.569928 0.064069 -0.677339
 47 1.262953 -0.000000 -0.000001 -0.592079 1.417310 -0.637208
 48 0.919429 0.000002 -0.000000 0.132824 1.180916 0.124669
 49 3.167420 0.097638 -1.197363 -1.577201 0.079890 -0.593938
 50 0.817882 0.000000 -0.000001 -0.164298 1.212571 -0.146163
 51 0.708995 0.000002 0.000000 0.062061 0.898421 -0.028374
 52 3.414729 0.449902 0.223654 -1.580784 0.013019 -0.654459
 53 1.390922 0.000002 -0.000001 0.005510 1.543565 0.018246
 54 0.906348 -0.000000 0.000001 -0.006062 0.824979 -0.045570
 55 2.457049 0.024849 0.014095 0.000073 -0.005736 0.010114
 56 3.525410 0.419243 0.945132 -1.582286 -0.026814 -0.287264
 57 1.209882 -0.000002 -0.000000 -0.003943 1.026206 0.018610
 58 0.743920 -0.000000 -0.000000 0.001656 1.150047 0.092843
 59 8.136639 0.000000 -0.000002 1.570797 -0.032533 -0.000000
 60 1.062109 -12.868670 -5.229111 -0.525081 -1.342379 1.114678
 61 0.008386 -0.048311 -0.069476 -0.000000 0.000000 -0.000000
time 25
  0 2.454050 -12.299569 -3.123764 0.000000 0.000000 0.000000
  1 0.250197 -3.917489 -0.099874 -0.000000 -0.000000 0.000000
  2 0.337618 4.930949 0.877138 0.000000 0.000000 0.000000
  3 0.249743 5.375675 -0.431248 -0.000000 -0.000000 0.000000
  4 -2.477793 12.401383 4.136672 -0.000000 -0.000000 0.000000
  5 0.241868 9.046291 0.896506 -0.000000 -0.000000 0.000000
  6 0.000303 8.159075 -1.557893 0.000000 0.000000 0.000000
  7 0.246663 8.082764 -0.926848 -0.000000 -0.000000 0.000000
  8 -2.477793 12.401383 4.136672 -0.000000 -0.000000 0.000000
  9 -0.000000 0.000000 -0.000000 0.000000 0.000000 0.000000
 10 0.000000 -15.653315 -6.600977 0.000000 0.000000 0.000000
 11 4.086855 -0.035025 -5.496159 -0.059584 -0.011580 -0.217905
 12 -0.000000 -0.000000 -0.000000 0.000000 0.000000 0.000000
 13 -2.636130 0.805164 -5.542013 0.000000 -1.226559 0.000000
 14 -0.000000 0.000000 0.000000 1.442514 0.215524 -1.990652
 15 8.403362 -0.000000 -0.000001 0.000000 1.076959 0.000000
 16 8.136638 -0.000000 0.000001 -1.570796 -0.032553 -0.000000
 17 8.136637 0.000008 0.000005 -1.264079 -0.277936 -0.279646
 18 1.369794 0.361444 1.237272 1.175075 -0.347333 0.479992
 19 1.320667 -0.000000 0.000000 0.201328 -0.139079 -0.045485
 20 1.066025 0.000000 -0.000001 -0.014471 -0.113783 0.196807
 21 1.039343 -0.000001 0.000000 1.325744 0.991426 2.013611
 22 2.457048 -0.024848 0.014094 -0.000072 -0.005736 -0.010113
 23 3.525410 -0.419242 0.945132 1.648473 0.052800 0.007770
 24 1.209883 0.000000 -0.000000 0.003943 0.285298 -0.018611
 25 0.743917 0.000001 0.000000 -0.001656 1.148181 -0.092843
 26 0.794889 0.000000 0.000000 -0.000005 0.704556 -0.000608
 27 3.414727 -0.449901 0.223652 1.693617 0.046763 0.558369
 28 1.390921 -0.000001 0.000000 -0.004769 1.284870 -0.018048
 29 0.906346 0.000000 0.000000 0.006062 -0.433839 0.045570
 30 0.776325 0.000000 -0.000000 0.001079 0.866577 0.033798
 31 3.289557 -0.311000 -0.505976 1.762164 0.112217 0.757107
 32 1.262953 -0.000000 0.000000 0.410302 1.354679 0.453063
 33 0.919429 0.000001 0.000000 -0.052499 -0.297525 0.013980
 34 0.803004 -0.000001 -0.000001 -0.163064 1.145489 -1.117549
 35 3.167418 -0.097636 -1.197365 1.832995 -0.038354 1.129404
 36 0.817884 0.000000 0.000000 0.142196 1.147469 0.122418
 37 0.708995 -0.000000 0.000000 -0.039911 -0.253101 0.086949
 38 0.794783 -0.000001 -0.000000 -1.042950 1.141227 -1.966856
 39 5.566999 5.667288 -3.006967 0.000000 0.000000 0.000000
 40 0.000000 0.000000 0.000000 -1.204980 0.164989 -0.659017
 41 8.403363 0.000000 -0.000001 0.000000 2.347157 0.000000
 42 8.136636 -0.000008 0.000003 2.432659 -0.992837 -0.929069
 43 1.369793 -0.361443 1.237272 -1.127491 0.097656 -0.579344
 44 1.320668 0.000001 -0.000001 -0.218662 -0.109509 0.185068
 45 1.066023 0.000000 0.000000 -0.025948 -0.111735 0.158666
 46 3.289559 0.311001 -0.505976 -1.569928 0.064069 -0.677339
 47 1.262953 0.000000 -0.000001 -0.592079 1.417311 -0.637209
 48 0.919429 0.000002 -0.000000 0.132824 1.180916 0.124669
 49 3.167420 0.097638 -1.197364 -1.577201 0.079890 -0.593938
 50 0.817882 -0.000000 -0.000001 -0.164298 1.212571 -0.146163
 51 0.708995 0.000002 -0.000000 0.062061 0.898421 -0.028374
 52 3.414728 0.449902 0.223654 -1.580784 0.013019 -0.654459
 53 1.390922 0.000002 -0.000001 0.005510 1.543565 0.018246
 54 0.906347 0.000000 0.000001 -0.006062 0.824979 -0.045570
 55 2.457049 0.024849 0.014095 0.000073 -0.005736 0.010114
 56 3.525410 0.419243 0.945132 -1.582286 -0.026814 -0.287264
 57 1.209881 -0.000002 -0.000000 -0.003943 1.026206 0.018610
 58 0.743920 0.000000 -0.000000 0.001656 1.150047 0.092843
 59 8.136639 -0.000000 -0.000002 1.570797 -0.032533 -0.000000
 60 1.158924 -12.848692 -5.141571 -0.534647 -1.336689 1.131709
 61 0.008386 -0.048311 -0.069476 -0.000000 -0.000000 -0.000000
end
