version 1
nodes
  0 "Base"  -1
  1 "Pump"   0
  2 "Bolt"   0
  3 "Cover"   0
  4 "Shell"   0
  5 "Stock"   0
  6 "Stock_flip"   5
  7 "Trigger"   0
  8 "Holder"   0
  9 "Pin"   8
 10 "Hand_Mesh"  -1
 11 "Left_Hand_C"  -1
 12 "IK Chain02"  11
 13 "Dummy01"  -1
 14 "Right_U_Arm"  13
 15 "Right_L_Arm"  14
 16 "Right_L_Arm_End"  15
 17 "Right_Hand"  15
 18 "Bone22"  17
 19 "Bone23"  18
 20 "Bone24"  19
 21 "Bone25"  20
 22 "Right_Hand_End"  17
 23 "Bone06"  17
 24 "Bone07"  23
 25 "Bone08"  24
 26 "Bone09"  25
 27 "Bone10"  17
 28 "Bone11"  27
 29 "Bone12"  28
 30 "Bone13"  29
 31 "Bone14"  17
 32 "Bone15"  31
 33 "Bone16"  32
 34 "Bone17"  33
 35 "Bone18"  17
 36 "Bone19"  35
 37 "Bone20"  36
 38 "Bone21"  37
 39 "Dummy02"  -1
 40 "Left_U_Arm"  39
 41 "Left_L_Arm"  40
 42 "Left_Hand"  41
 43 "Left_thumb_1"  42
 44 "Left_thumb_2"  43
 45 "Left_thumb_3"  44
 46 "Left_ring_1"  42
 47 "Left_ring_2"  46
 48 "Left_ring_3"  47
 49 "Left_pingky_1"  42
 50 "Left_pingky_2"  49
 51 "Left_pingky_3"  50
 52 "Left_middle_1"  42
 53 "Left_middle_2"  52
 54 "Left_middle_3"  53
 55 "Left_Hand_End"  42
 56 "Left_point_1"  42
 57 "Left_point_2"  56
 58 "Left_point_3"  57
 59 "Left_L_Arm_End"  41
 60 "Right_Hand_C"  -1
 61 "IK Chain01"  60
end
skeleton
time 0
  0 2.454050 -12.299569 -3.123764 0.000000 0.000000 0.000000
  1 0.250197 -3.917489 -0.099874 0.000000 0.000000 0.000000
  2 0.337618 4.930951 0.877138 0.000000 0.000000 0.000000
  3 0.249743 5.375676 -0.431249 0.000000 0.000000 0.000000
  4 -2.477793 12.401384 4.136672 0.000000 0.000000 0.000000
  5 0.241868 9.046293 0.896507 0.000000 0.000000 0.000000
  6 0.000303 8.159075 -1.557892 0.000000 0.000000 0.000000
  7 0.246664 8.082764 -0.926848 0.000000 0.000000 0.000000
  8 -2.477793 12.401384 4.136672 0.000000 0.000000 0.000000
  9 0.000000 0.000000 0.000000 0.000000 0.000000 0.000000
 10 0.000000 -15.653315 -6.600977 0.000000 0.000000 0.000000
 11 4.086855 -0.035025 -5.496159 -0.059584 -0.011580 -0.217905
 12 -0.000000 -0.000000 -0.000000 0.000000 0.000000 0.000000
 13 -2.636130 0.330815 -2.304476 0.000000 -1.226559 0.000000
 14 -0.000000 0.000000 -0.000000 1.391307 0.284196 -2.248058
 15 8.403362 0.000000 -0.000001 -0.000000 1.117358 -0.000000
 16 8.136638 -0.000000 -0.000000 -1.570796 -0.032553 0.000000
 17 8.136637 0.000008 0.000005 -1.411284 -0.112305 -0.213957
 18 1.369795 0.361443 1.237272 1.175075 -0.347333 0.479992
 19 1.320667 -0.000000 -0.000000 0.201328 -0.139079 -0.045485
 20 1.066026 0.000000 0.000000 -0.014471 -0.113783 0.196807
 21 1.039343 -0.000001 0.000000 1.325745 0.991426 2.013611
 22 2.457048 -0.024848 0.014094 -0.000072 -0.005736 -0.010113
 23 3.525409 -0.419242 0.945131 1.648473 0.052800 0.007770
 24 1.209883 0.000000 -0.000000 0.003943 0.285298 -0.018611
 25 0.743918 0.000001 0.000000 -0.001656 1.148181 -0.092843
 26 0.794889 -0.000000 -0.000000 -0.000005 0.704556 -0.000608
 27 3.414727 -0.449902 0.223652 1.693617 0.046763 0.558369
 28 1.390921 -0.000000 -0.000000 -0.004769 1.284870 -0.018048
 29 0.906346 0.000000 0.000000 0.006062 -0.433839 0.045570
 30 0.776324 -0.000000 0.000000 0.001079 0.866577 0.033798
 31 3.289557 -0.311001 -0.505976 1.762164 0.112217 0.757107
 32 1.262952 -0.000001 0.000000 0.410302 1.354679 0.453063
 33 0.919429 -0.000000 0.000000 -0.052499 -0.297525 0.013980
 34 0.803004 -0.000000 -0.000001 -0.163064 1.145489 -1.117549
 35 3.167418 -0.097637 -1.197365 1.832995 -0.038354 1.129404
 36 0.817884 -0.000001 -0.000001 0.142196 1.147469 0.122418
 37 0.708994 0.000000 0.000000 -0.039911 -0.253101 0.086949
 38 0.794783 -0.000001 -0.000000 -1.042950 1.141227 -1.966856
 39 5.566999 5.667288 -3.006967 0.000000 0.000000 0.000000
 40 0.000000 0.000000 0.000000 -1.204980 0.164989 -0.659017
 41 8.403363 0.000000 -0.000001 0.000000 2.347157 0.000000
 42 8.136636 -0.000008 0.000003 2.432659 -0.992837 -0.929069
 43 1.369793 -0.361443 1.237272 -1.127491 0.097656 -0.579344
 44 1.320668 0.000001 -0.000001 -0.218662 -0.109509 0.185068
 45 1.066023 0.000000 0.000000 -0.025948 -0.111735 0.158666
 46 3.289559 0.311001 -0.505976 -1.569928 0.064069 -0.677339
 47 1.262953 0.000000 -0.000001 -0.592079 1.417311 -0.637209
 48 0.919429 0.000002 -0.000000 0.132824 1.180916 0.124669
 49 3.167420 0.097638 -1.197364 -1.577201 0.079890 -0.593938
 50 0.817882 -0.000000 -0.000001 -0.164298 1.212571 -0.146163
 51 0.708995 0.000002 -0.000000 0.062061 0.898421 -0.028374
 52 3.414728 0.449902 0.223654 -1.580784 0.013019 -0.654459
 53 1.390922 0.000002 -0.000001 0.005510 1.543565 0.018246
 54 0.906347 0.000000 0.000001 -0.006062 0.824979 -0.045570
 55 2.457049 0.024849 0.014095 0.000073 -0.005736 0.010114
 56 3.525410 0.419243 0.945132 -1.582286 -0.026814 -0.287264
 57 1.209881 -0.000002 -0.000000 -0.003943 1.026206 0.018610
 58 0.743920 0.000000 -0.000000 0.001656 1.150047 0.092843
 59 8.136639 -0.000000 -0.000002 1.570797 -0.032533 -0.000000
 60 1.158924 -12.848692 -5.141571 -0.534646 -1.336689 1.131709
 61 0.008386 -0.048311 -0.069476 -0.000000 -0.000000 -0.000000
time 1
  0 2.454050 -12.299569 -3.123764 0.000000 0.000000 0.000000
  1 0.250197 -3.917489 -0.099874 0.000000 0.000000 0.000000
  2 0.337618 4.930951 0.877138 0.000000 0.000000 0.000000
  3 0.249743 5.375676 -0.431249 0.000000 0.000000 0.000000
  4 -2.477793 12.401384 4.136672 0.000000 0.000000 0.000000
  5 0.241868 9.046293 0.896507 0.000000 0.000000 0.000000
  6 0.000303 8.159075 -1.557892 0.000000 0.000000 0.000000
  7 0.246664 8.082764 -0.926848 0.000000 0.000000 0.000000
  8 -2.477793 12.401384 4.136672 0.000000 0.000000 0.000000
  9 0.000000 0.000000 0.000000 0.000000 0.000000 0.000000
 10 0.000000 -15.653315 -6.600977 0.000000 0.000000 0.000000
 11 4.086855 -0.035025 -5.496159 -0.059584 -0.011580 -0.217905
 12 -0.000000 -0.000000 -0.000000 0.000000 0.000000 0.000000
 13 -2.636130 0.330815 -2.304476 0.000000 -1.226559 0.000000
 14 -0.000000 0.000000 -0.000000 1.391307 0.284196 -2.248058
 15 8.403362 0.000000 -0.000001 -0.000000 1.117358 -0.000000
 16 8.136638 -0.000000 -0.000000 -1.570796 -0.032553 0.000000
 17 8.136637 0.000008 0.000005 -1.411284 -0.112305 -0.213957
 18 1.369795 0.361443 1.237272 1.175075 -0.347333 0.479992
 19 1.320667 -0.000000 -0.000000 0.201328 -0.139079 -0.045485
 20 1.066026 0.000000 0.000000 -0.014471 -0.113783 0.196807
 21 1.039343 -0.000001 0.000000 1.325745 0.991426 2.013611
 22 2.457048 -0.024848 0.014094 -0.000072 -0.005736 -0.010113
 23 3.525409 -0.419242 0.945131 1.648473 0.052800 0.007770
 24 1.209883 0.000000 -0.000000 0.003943 0.285298 -0.018611
 25 0.743918 0.000001 0.000000 -0.001656 1.148181 -0.092843
 26 0.794889 -0.000000 -0.000000 -0.000005 0.704556 -0.000608
 27 3.414727 -0.449902 0.223652 1.693617 0.046763 0.558369
 28 1.390921 -0.000000 -0.000000 -0.004769 1.284870 -0.018048
 29 0.906346 0.000000 0.000000 0.006062 -0.433839 0.045570
 30 0.776324 -0.000000 0.000000 0.001079 0.866577 0.033798
 31 3.289557 -0.311001 -0.505976 1.762164 0.112217 0.757107
 32 1.262952 -0.000001 0.000000 0.410302 1.354679 0.453063
 33 0.919429 -0.000000 0.000000 -0.052499 -0.297525 0.013980
 34 0.803004 -0.000000 -0.000001 -0.163064 1.145489 -1.117549
 35 3.167418 -0.097637 -1.197365 1.832995 -0.038354 1.129404
 36 0.817884 -0.000001 -0.000001 0.142196 1.147469 0.122418
 37 0.708994 0.000000 0.000000 -0.039911 -0.253101 0.086949
 38 0.794783 -0.000001 -0.000000 -1.042950 1.141227 -1.966856
 39 5.566999 5.667288 -3.006967 0.000000 0.000000 0.000000
 40 0.000000 0.000000 0.000000 -1.204980 0.164989 -0.659017
 41 8.403363 0.000000 -0.000001 0.000000 2.347157 0.000000
 42 8.136636 -0.000008 0.000003 2.432659 -0.992837 -0.929069
 43 1.369793 -0.361443 1.237272 -1.127491 0.097656 -0.579344
 44 1.320668 0.000001 -0.000001 -0.218662 -0.109509 0.185068
 45 1.066023 0.000000 0.000000 -0.025948 -0.111735 0.158666
 46 3.289559 0.311001 -0.505976 -1.569928 0.064069 -0.677339
 47 1.262953 0.000000 -0.000001 -0.592079 1.417311 -0.637209
 48 0.919429 0.000002 -0.000000 0.132824 1.180916 0.124669
 49 3.167420 0.097638 -1.197364 -1.577201 0.079890 -0.593938
 50 0.817882 -0.000000 -0.000001 -0.164298 1.212571 -0.146163
 51 0.708995 0.000002 -0.000000 0.062061 0.898421 -0.028374
 52 3.414728 0.449902 0.223654 -1.580784 0.013019 -0.654459
 53 1.390922 0.000002 -0.000001 0.005510 1.543565 0.018246
 54 0.906347 0.000000 0.000001 -0.006062 0.824979 -0.045570
 55 2.457049 0.024849 0.014095 0.000073 -0.005736 0.010114
 56 3.525410 0.419243 0.945132 -1.582286 -0.026814 -0.287264
 57 1.209881 -0.000002 -0.000000 -0.003943 1.026206 0.018610
 58 0.743920 0.000000 -0.000000 0.001656 1.150047 0.092843
 59 8.136639 -0.000000 -0.000002 1.570797 -0.032533 -0.000000
 60 1.158924 -12.848692 -5.141571 -0.534646 -1.336689 1.131709
 61 0.008386 -0.048311 -0.069476 -0.000000 -0.000000 -0.000000
time 2
  0 2.454050 -12.299569 -3.123764 0.000000 0.000000 0.000000
  1 0.250197 -3.917489 -0.099874 0.000000 0.000000 0.000000
  2 0.337618 4.930951 0.877138 0.000000 0.000000 0.000000
  3 0.249743 5.375676 -0.431249 0.000000 0.000000 0.000000
  4 -2.477793 12.401384 4.136672 0.000000 0.000000 0.000000
  5 0.241868 9.046293 0.896507 0.000000 0.000000 0.000000
  6 0.000303 8.159075 -1.557892 0.000000 0.000000 0.000000
  7 0.246664 8.082764 -0.926848 0.000000 0.000000 0.000000
  8 -2.477793 12.401384 4.136672 0.000000 0.000000 0.000000
  9 0.000000 0.000000 0.000000 0.000000 0.000000 0.000000
 10 0.000000 -15.653315 -6.600977 0.000000 0.000000 0.000000
 11 4.086855 -0.035025 -5.496159 -0.059584 -0.011580 -0.217905
 12 -0.000000 -0.000000 -0.000000 0.000000 0.000000 0.000000
 13 -2.636130 0.330815 -2.304476 0.000000 -1.226559 0.000000
 14 -0.000000 0.000000 -0.000000 1.391307 0.284196 -2.248058
 15 8.403362 0.000000 -0.000001 -0.000000 1.117358 -0.000000
 16 8.136638 -0.000000 -0.000000 -1.570796 -0.032553 0.000000
 17 8.136637 0.000008 0.000005 -1.411284 -0.112305 -0.213957
 18 1.369795 0.361443 1.237272 1.175075 -0.347333 0.479992
 19 1.320667 -0.000000 -0.000000 0.201328 -0.139079 -0.045485
 20 1.066026 0.000000 0.000000 -0.014471 -0.113783 0.196807
 21 1.039343 -0.000001 0.000000 1.325745 0.991426 2.013611
 22 2.457048 -0.024848 0.014094 -0.000072 -0.005736 -0.010113
 23 3.525409 -0.419242 0.945131 1.648473 0.052800 0.007770
 24 1.209883 0.000000 -0.000000 0.003943 0.285298 -0.018611
 25 0.743918 0.000001 0.000000 -0.001656 1.148181 -0.092843
 26 0.794889 -0.000000 -0.000000 -0.000005 0.704556 -0.000608
 27 3.414727 -0.449902 0.223652 1.693617 0.046763 0.558369
 28 1.390921 -0.000000 -0.000000 -0.004769 1.284870 -0.018048
 29 0.906346 0.000000 0.000000 0.006062 -0.433839 0.045570
 30 0.776324 -0.000000 0.000000 0.001079 0.866577 0.033798
 31 3.289557 -0.311001 -0.505976 1.762164 0.112217 0.757107
 32 1.262952 -0.000001 0.000000 0.410302 1.354679 0.453063
 33 0.919429 -0.000000 0.000000 -0.052499 -0.297525 0.013980
 34 0.803004 -0.000000 -0.000001 -0.163064 1.145489 -1.117549
 35 3.167418 -0.097637 -1.197365 1.832995 -0.038354 1.129404
 36 0.817884 -0.000001 -0.000001 0.142196 1.147469 0.122418
 37 0.708994 0.000000 0.000000 -0.039911 -0.253101 0.086949
 38 0.794783 -0.000001 -0.000000 -1.042950 1.141227 -1.966856
 39 5.566999 5.667288 -3.006967 0.000000 0.000000 0.000000
 40 0.000000 0.000000 0.000000 -1.204980 0.164989 -0.659017
 41 8.403363 0.000000 -0.000001 0.000000 2.347157 0.000000
 42 8.136636 -0.000008 0.000003 2.432659 -0.992837 -0.929069
 43 1.369793 -0.361443 1.237272 -1.127491 0.097656 -0.579344
 44 1.320668 0.000001 -0.000001 -0.218662 -0.109509 0.185068
 45 1.066023 0.000000 0.000000 -0.025948 -0.111735 0.158666
 46 3.289559 0.311001 -0.505976 -1.569928 0.064069 -0.677339
 47 1.262953 0.000000 -0.000001 -0.592079 1.417311 -0.637209
 48 0.919429 0.000002 -0.000000 0.132824 1.180916 0.124669
 49 3.167420 0.097638 -1.197364 -1.577201 0.079890 -0.593938
 50 0.817882 -0.000000 -0.000001 -0.164298 1.212571 -0.146163
 51 0.708995 0.000002 -0.000000 0.062061 0.898421 -0.028374
 52 3.414728 0.449902 0.223654 -1.580784 0.013019 -0.654459
 53 1.390922 0.000002 -0.000001 0.005510 1.543565 0.018246
 54 0.906347 0.000000 0.000001 -0.006062 0.824979 -0.045570
 55 2.457049 0.024849 0.014095 0.000073 -0.005736 0.010114
 56 3.525410 0.419243 0.945132 -1.582286 -0.026814 -0.287264
 57 1.209881 -0.000002 -0.000000 -0.003943 1.026206 0.018610
 58 0.743920 0.000000 -0.000000 0.001656 1.150047 0.092843
 59 8.136639 -0.000000 -0.000002 1.570797 -0.032533 -0.000000
 60 1.158924 -12.848692 -5.141571 -0.534646 -1.336689 1.131709
 61 0.008386 -0.048311 -0.069476 -0.000000 -0.000000 -0.000000
time 3
  0 2.454050 -12.299569 -3.123764 0.000000 0.000000 0.000000
  1 0.250197 -3.917489 -0.099874 0.000000 0.000000 0.000000
  2 0.337618 4.930951 0.877138 0.000000 0.000000 0.000000
  3 0.249743 5.375676 -0.431249 0.000000 0.000000 0.000000
  4 -2.477793 12.401384 4.136672 0.000000 0.000000 0.000000
  5 0.241868 9.046293 0.896507 0.000000 0.000000 0.000000
  6 0.000303 8.159075 -1.557892 0.000000 0.000000 0.000000
  7 0.246664 8.082764 -0.926848 0.000000 0.000000 0.000000
  8 -2.477793 12.401384 4.136672 0.000000 0.000000 0.000000
  9 0.000000 0.000000 0.000000 0.000000 0.000000 0.000000
 10 0.000000 -15.653315 -6.600977 0.000000 0.000000 0.000000
 11 4.086855 -0.035025 -5.496159 -0.059584 -0.011580 -0.217905
 12 -0.000000 -0.000000 -0.000000 0.000000 0.000000 0.000000
 13 -2.636130 0.330815 -2.304476 0.000000 -1.226559 0.000000
 14 -0.000000 0.000000 -0.000000 1.391307 0.284196 -2.248058
 15 8.403362 0.000000 -0.000001 -0.000000 1.117358 -0.000000
 16 8.136638 -0.000000 -0.000000 -1.570796 -0.032553 0.000000
 17 8.136637 0.000008 0.000005 -1.411284 -0.112305 -0.213957
 18 1.369795 0.361443 1.237272 1.175075 -0.347333 0.479992
 19 1.320667 -0.000000 -0.000000 0.201328 -0.139079 -0.045485
 20 1.066026 0.000000 0.000000 -0.014471 -0.113783 0.196807
 21 1.039343 -0.000001 0.000000 1.325745 0.991426 2.013611
 22 2.457048 -0.024848 0.014094 -0.000072 -0.005736 -0.010113
 23 3.525409 -0.419242 0.945131 1.648473 0.052800 0.007770
 24 1.209883 0.000000 -0.000000 0.003943 0.285298 -0.018611
 25 0.743918 0.000001 0.000000 -0.001656 1.148181 -0.092843
 26 0.794889 -0.000000 -0.000000 -0.000005 0.704556 -0.000608
 27 3.414727 -0.449902 0.223652 1.693617 0.046763 0.558369
 28 1.390921 -0.000000 -0.000000 -0.004769 1.284870 -0.018048
 29 0.906346 0.000000 0.000000 0.006062 -0.433839 0.045570
 30 0.776324 -0.000000 0.000000 0.001079 0.866577 0.033798
 31 3.289557 -0.311001 -0.505976 1.762164 0.112217 0.757107
 32 1.262952 -0.000001 0.000000 0.410302 1.354679 0.453063
 33 0.919429 -0.000000 0.000000 -0.052499 -0.297525 0.013980
 34 0.803004 -0.000000 -0.000001 -0.163064 1.145489 -1.117549
 35 3.167418 -0.097637 -1.197365 1.832995 -0.038354 1.129404
 36 0.817884 -0.000001 -0.000001 0.142196 1.147469 0.122418
 37 0.708994 0.000000 0.000000 -0.039911 -0.253101 0.086949
 38 0.794783 -0.000001 -0.000000 -1.042950 1.141227 -1.966856
 39 5.566999 5.667288 -3.006967 0.000000 0.000000 0.000000
 40 0.000000 0.000000 0.000000 -1.204980 0.164989 -0.659017
 41 8.403363 0.000000 -0.000001 0.000000 2.347157 0.000000
 42 8.136636 -0.000008 0.000003 2.432659 -0.992837 -0.929069
 43 1.369793 -0.361443 1.237272 -1.127491 0.097656 -0.579344
 44 1.320668 0.000001 -0.000001 -0.218662 -0.109509 0.185068
 45 1.066023 0.000000 0.000000 -0.025948 -0.111735 0.158666
 46 3.289559 0.311001 -0.505976 -1.569928 0.064069 -0.677339
 47 1.262953 0.000000 -0.000001 -0.592079 1.417311 -0.637209
 48 0.919429 0.000002 -0.000000 0.132824 1.180916 0.124669
 49 3.167420 0.097638 -1.197364 -1.577201 0.079890 -0.593938
 50 0.817882 -0.000000 -0.000001 -0.164298 1.212571 -0.146163
 51 0.708995 0.000002 -0.000000 0.062061 0.898421 -0.028374
 52 3.414728 0.449902 0.223654 -1.580784 0.013019 -0.654459
 53 1.390922 0.000002 -0.000001 0.005510 1.543565 0.018246
 54 0.906347 0.000000 0.000001 -0.006062 0.824979 -0.045570
 55 2.457049 0.024849 0.014095 0.000073 -0.005736 0.010114
 56 3.525410 0.419243 0.945132 -1.581516 -0.026447 -0.271793
 57 1.209881 -0.000002 -0.000001 -0.003943 0.988686 0.018610
 58 0.743920 -0.000000 -0.000000 0.001656 1.104707 0.092843
 59 8.136639 -0.000000 -0.000002 1.570797 -0.032533 -0.000000
 60 1.158924 -12.848692 -5.141571 -0.534646 -1.336689 1.131709
 61 0.008386 -0.048311 -0.069476 -0.000000 -0.000000 -0.000000
time 4
  0 2.454050 -12.299569 -3.123764 0.000000 0.000000 0.000000
  1 0.250197 -3.917489 -0.099874 0.000000 0.000000 0.000000
  2 0.337618 4.930951 0.877138 0.000000 0.000000 0.000000
  3 0.249743 5.375676 -0.431249 0.000000 0.000000 0.000000
  4 -2.477793 12.401384 4.136672 0.000000 0.000000 0.000000
  5 0.241868 9.046293 0.896507 0.000000 0.000000 0.000000
  6 0.000303 8.159075 -1.557892 0.000000 0.000000 0.000000
  7 0.246664 8.082764 -0.926848 0.000000 0.000000 0.000000
  8 -2.477793 12.401384 4.136672 0.000000 0.000000 0.000000
  9 0.000000 0.000000 0.000000 0.000000 0.000000 0.000000
 10 0.000000 -15.653315 -6.600977 0.000000 0.000000 0.000000
 11 4.086855 -0.035025 -5.496159 -0.059584 -0.011580 -0.217905
 12 -0.000000 -0.000000 -0.000000 0.000000 0.000000 0.000000
 13 -2.636130 0.330815 -2.304476 0.000000 -1.226559 0.000000
 14 -0.000000 0.000000 -0.000000 1.391307 0.284196 -2.248058
 15 8.403362 0.000000 -0.000001 -0.000000 1.117358 -0.000000
 16 8.136638 -0.000000 -0.000000 -1.570796 -0.032553 0.000000
 17 8.136637 0.000008 0.000005 -1.411284 -0.112305 -0.213957
 18 1.369795 0.361443 1.237272 1.175075 -0.347333 0.479992
 19 1.320667 -0.000000 -0.000000 0.201328 -0.139079 -0.045485
 20 1.066026 0.000000 0.000000 -0.014471 -0.113783 0.196807
 21 1.039343 -0.000001 0.000000 1.325745 0.991426 2.013611
 22 2.457048 -0.024848 0.014094 -0.000072 -0.005736 -0.010113
 23 3.525409 -0.419242 0.945131 1.648473 0.052800 0.007770
 24 1.209883 0.000000 -0.000000 0.003943 0.285298 -0.018611
 25 0.743918 0.000001 0.000000 -0.001656 1.148181 -0.092843
 26 0.794889 -0.000000 -0.000000 -0.000005 0.704556 -0.000608
 27 3.414727 -0.449902 0.223652 1.693617 0.046763 0.558369
 28 1.390921 -0.000000 -0.000000 -0.004769 1.284870 -0.018048
 29 0.906346 0.000000 0.000000 0.006062 -0.433839 0.045570
 30 0.776324 -0.000000 0.000000 0.001079 0.866577 0.033798
 31 3.289557 -0.311001 -0.505976 1.762164 0.112217 0.757107
 32 1.262952 -0.000001 0.000000 0.410302 1.354679 0.453063
 33 0.919429 -0.000000 0.000000 -0.052499 -0.297525 0.013980
 34 0.803004 -0.000000 -0.000001 -0.163064 1.145489 -1.117549
 35 3.167418 -0.097637 -1.197365 1.832995 -0.038354 1.129404
 36 0.817884 -0.000001 -0.000001 0.142196 1.147469 0.122418
 37 0.708994 0.000000 0.000000 -0.039911 -0.253101 0.086949
 38 0.794783 -0.000001 -0.000000 -1.042950 1.141227 -1.966856
 39 5.566999 5.667288 -3.006967 0.000000 0.000000 0.000000
 40 0.000000 0.000000 0.000000 -1.204980 0.164989 -0.659017
 41 8.403363 0.000000 -0.000001 0.000000 2.347157 0.000000
 42 8.136636 -0.000008 0.000003 2.432659 -0.992837 -0.929069
 43 1.369793 -0.361443 1.237272 -1.127491 0.097656 -0.579344
 44 1.320668 0.000001 -0.000001 -0.218662 -0.109509 0.185068
 45 1.066023 0.000000 0.000000 -0.025948 -0.111735 0.158666
 46 3.289559 0.311001 -0.505976 -1.569928 0.064069 -0.677339
 47 1.262953 0.000000 -0.000001 -0.592079 1.417311 -0.637209
 48 0.919429 0.000002 -0.000000 0.132824 1.180916 0.124669
 49 3.167420 0.097638 -1.197364 -1.577201 0.079890 -0.593938
 50 0.817882 -0.000000 -0.000001 -0.164298 1.212571 -0.146163
 51 0.708995 0.000002 -0.000000 0.062061 0.898421 -0.028374
 52 3.414728 0.449902 0.223654 -1.580784 0.013019 -0.654459
 53 1.390922 0.000002 -0.000001 0.005510 1.543565 0.018246
 54 0.906347 0.000000 0.000001 -0.006062 0.824979 -0.045570
 55 2.457049 0.024849 0.014095 0.000073 -0.005736 0.010114
 56 3.525410 0.419243 0.945132 -1.579591 -0.025530 -0.233114
 57 1.209881 -0.000002 -0.000001 -0.003943 0.894886 0.018610
 58 0.743920 -0.000000 -0.000000 0.001656 0.991358 0.092843
 59 8.136639 -0.000000 -0.000002 1.570797 -0.032533 -0.000000
 60 1.158924 -12.848692 -5.141571 -0.534646 -1.336689 1.131709
 61 0.008386 -0.048311 -0.069476 -0.000000 -0.000000 -0.000000
time 5
  0 2.454050 -12.299569 -3.123764 0.000000 0.000000 0.000000
  1 0.250197 -3.917489 -0.099874 0.000000 0.000000 0.000000
  2 0.337618 4.930951 0.877138 0.000000 0.000000 0.000000
  3 0.249743 5.375676 -0.431249 0.000000 0.000000 0.000000
  4 -2.477793 12.401384 4.136672 0.000000 0.000000 0.000000
  5 0.241868 9.046293 0.896507 0.000000 0.000000 0.000000
  6 0.000303 8.159075 -1.557892 0.000000 0.000000 0.000000
  7 0.246664 8.082764 -0.926848 0.000000 0.000000 0.000000
  8 -2.477793 12.401384 4.136672 0.000000 0.000000 0.000000
  9 0.000000 0.000000 0.000000 0.000000 0.000000 0.000000
 10 0.000000 -15.653315 -6.600977 0.000000 0.000000 0.000000
 11 4.086855 -0.035025 -5.496159 -0.059584 -0.011580 -0.217905
 12 -0.000000 -0.000000 -0.000000 0.000000 0.000000 0.000000
 13 -2.636130 0.330815 -2.304476 0.000000 -1.226559 0.000000
 14 -0.000000 0.000000 -0.000000 1.391307 0.284196 -2.248058
 15 8.403362 0.000000 -0.000001 -0.000000 1.117358 -0.000000
 16 8.136638 -0.000000 -0.000000 -1.570796 -0.032553 0.000000
 17 8.136637 0.000008 0.000005 -1.411284 -0.112305 -0.213957
 18 1.369795 0.361443 1.237272 1.175075 -0.347333 0.479992
 19 1.320667 -0.000000 -0.000000 0.201328 -0.139079 -0.045485
 20 1.066026 0.000000 0.000000 -0.014471 -0.113783 0.196807
 21 1.039343 -0.000001 0.000000 1.325745 0.991426 2.013611
 22 2.457048 -0.024848 0.014094 -0.000072 -0.005736 -0.010113
 23 3.525409 -0.419242 0.945131 1.648473 0.052800 0.007770
 24 1.209883 0.000000 -0.000000 0.003943 0.285298 -0.018611
 25 0.743918 0.000001 0.000000 -0.001656 1.148181 -0.092843
 26 0.794889 -0.000000 -0.000000 -0.000005 0.704556 -0.000608
 27 3.414727 -0.449902 0.223652 1.693617 0.046763 0.558369
 28 1.390921 -0.000000 -0.000000 -0.004769 1.284870 -0.018048
 29 0.906346 0.000000 0.000000 0.006062 -0.433839 0.045570
 30 0.776324 -0.000000 0.000000 0.001079 0.866577 0.033798
 31 3.289557 -0.311001 -0.505976 1.762164 0.112217 0.757107
 32 1.262952 -0.000001 0.000000 0.410302 1.354679 0.453063
 33 0.919429 -0.000000 0.000000 -0.052499 -0.297525 0.013980
 34 0.803004 -0.000000 -0.000001 -0.163064 1.145489 -1.117549
 35 3.167418 -0.097637 -1.197365 1.832995 -0.038354 1.129404
 36 0.817884 -0.000001 -0.000001 0.142196 1.147469 0.122418
 37 0.708994 0.000000 0.000000 -0.039911 -0.253101 0.086949
 38 0.794783 -0.000001 -0.000000 -1.042950 1.141227 -1.966856
 39 5.566999 5.667288 -3.006967 0.000000 0.000000 0.000000
 40 0.000000 0.000000 0.000000 -1.204980 0.164989 -0.659017
 41 8.403363 0.000000 -0.000001 0.000000 2.347157 0.000000
 42 8.136636 -0.000008 0.000003 2.432659 -0.992837 -0.929069
 43 1.369793 -0.361443 1.237272 -1.127491 0.097656 -0.579344
 44 1.320668 0.000001 -0.000001 -0.218662 -0.109509 0.185068
 45 1.066023 0.000000 0.000000 -0.025948 -0.111735 0.158666
 46 3.289559 0.311001 -0.505976 -1.569928 0.064069 -0.677339
 47 1.262953 0.000000 -0.000001 -0.592079 1.417311 -0.637209
 48 0.919429 0.000002 -0.000000 0.132824 1.180916 0.124669
 49 3.167420 0.097638 -1.197364 -1.577201 0.079890 -0.593938
 50 0.817882 -0.000000 -0.000001 -0.164298 1.212571 -0.146163
 51 0.708995 0.000002 -0.000000 0.062061 0.898421 -0.028374
 52 3.414728 0.449902 0.223654 -1.580784 0.013019 -0.654459
 53 1.390922 0.000002 -0.000001 0.005510 1.543565 0.018246
 54 0.906347 0.000000 0.000001 -0.006062 0.824979 -0.045570
 55 2.457049 0.024849 0.014095 0.000073 -0.005736 0.010114
 56 3.525410 0.419243 0.945132 -1.577087 -0.024337 -0.182832
 57 1.209882 -0.000002 -0.000001 -0.003943 0.772947 0.018610
 58 0.743920 -0.000000 -0.000000 0.001656 0.844003 0.092843
 59 8.136639 -0.000000 -0.000002 1.570797 -0.032533 -0.000000
 60 1.158924 -12.848692 -5.141571 -0.534646 -1.336689 1.131709
 61 0.008386 -0.048311 -0.069476 -0.000000 -0.000000 -0.000000
time 6
  0 2.454050 -12.299569 -3.123764 0.000000 0.000000 0.000000
  1 0.250197 -3.917489 -0.099874 0.000000 0.000000 0.000000
  2 0.337618 4.930951 0.877138 0.000000 0.000000 0.000000
  3 0.249743 5.375676 -0.431249 0.000000 0.000000 0.000000
  4 -2.477793 12.401384 4.136672 0.000000 0.000000 0.000000
  5 0.241868 9.046293 0.896507 0.000000 0.000000 0.000000
  6 0.000303 8.159075 -1.557892 0.000000 0.000000 0.000000
  7 0.246664 8.082764 -0.926848 0.000000 0.000000 0.000000
  8 -2.477793 12.401384 4.136672 0.000000 0.000000 0.000000
  9 0.000000 0.000000 0.000000 0.000000 0.000000 0.000000
 10 0.000000 -15.653315 -6.600977 0.000000 0.000000 0.000000
 11 4.086855 -0.035025 -5.496159 -0.059584 -0.011580 -0.217905
 12 -0.000000 -0.000000 -0.000000 0.000000 0.000000 0.000000
 13 -2.636130 0.330815 -2.304476 0.000000 -1.226559 0.000000
 14 -0.000000 0.000000 -0.000000 1.391307 0.284196 -2.248058
 15 8.403362 0.000000 -0.000001 -0.000000 1.117358 -0.000000
 16 8.136638 -0.000000 -0.000000 -1.570796 -0.032553 0.000000
 17 8.136637 0.000008 0.000005 -1.411284 -0.112305 -0.213957
 18 1.369795 0.361443 1.237272 1.175075 -0.347333 0.479992
 19 1.320667 -0.000000 -0.000000 0.201328 -0.139079 -0.045485
 20 1.066026 0.000000 0.000000 -0.014471 -0.113783 0.196807
 21 1.039343 -0.000001 0.000000 1.325745 0.991426 2.013611
 22 2.457048 -0.024848 0.014094 -0.000072 -0.005736 -0.010113
 23 3.525409 -0.419242 0.945131 1.648473 0.052800 0.007770
 24 1.209883 0.000000 -0.000000 0.003943 0.285298 -0.018611
 25 0.743918 0.000001 0.000000 -0.001656 1.148181 -0.092843
 26 0.794889 -0.000000 -0.000000 -0.000005 0.704556 -0.000608
 27 3.414727 -0.449902 0.223652 1.693617 0.046763 0.558369
 28 1.390921 -0.000000 -0.000000 -0.004769 1.284870 -0.018048
 29 0.906346 0.000000 0.000000 0.006062 -0.433839 0.045570
 30 0.776324 -0.000000 0.000000 0.001079 0.866577 0.033798
 31 3.289557 -0.311001 -0.505976 1.762164 0.112217 0.757107
 32 1.262952 -0.000001 0.000000 0.410302 1.354679 0.453063
 33 0.919429 -0.000000 0.000000 -0.052499 -0.297525 0.013980
 34 0.803004 -0.000000 -0.000001 -0.163064 1.145489 -1.117549
 35 3.167418 -0.097637 -1.197365 1.832995 -0.038354 1.129404
 36 0.817884 -0.000001 -0.000001 0.142196 1.147469 0.122418
 37 0.708994 0.000000 0.000000 -0.039911 -0.253101 0.086949
 38 0.794783 -0.000001 -0.000000 -1.042950 1.141227 -1.966856
 39 5.566999 5.667288 -3.006967 0.000000 0.000000 0.000000
 40 0.000000 0.000000 0.000000 -1.204980 0.164989 -0.659017
 41 8.403363 0.000000 -0.000001 0.000000 2.347157 0.000000
 42 8.136636 -0.000008 0.000003 2.432659 -0.992837 -0.929069
 43 1.369793 -0.361443 1.237272 -1.127491 0.097656 -0.579344
 44 1.320668 0.000001 -0.000001 -0.218662 -0.109509 0.185068
 45 1.066023 0.000000 0.000000 -0.025948 -0.111735 0.158666
 46 3.289559 0.311001 -0.505976 -1.569928 0.064069 -0.677339
 47 1.262953 0.000000 -0.000001 -0.592079 1.417311 -0.637209
 48 0.919429 0.000002 -0.000000 0.132824 1.180916 0.124669
 49 3.167420 0.097638 -1.197364 -1.577201 0.079890 -0.593938
 50 0.817882 -0.000000 -0.000001 -0.164298 1.212571 -0.146163
 51 0.708995 0.000002 -0.000000 0.062061 0.898421 -0.028374
 52 3.414728 0.449902 0.223654 -1.580784 0.013019 -0.654459
 53 1.390922 0.000002 -0.000001 0.005510 1.543565 0.018246
 54 0.906347 0.000000 0.000001 -0.006062 0.824979 -0.045570
 55 2.457049 0.024849 0.014095 0.000073 -0.005736 0.010114
 56 3.525410 0.419243 0.945132 -1.574584 -0.023144 -0.132550
 57 1.209882 -0.000002 -0.000000 -0.003943 0.651007 0.018610
 58 0.743920 0.000000 -0.000000 0.001656 0.696649 0.092843
 59 8.136639 -0.000000 -0.000002 1.570797 -0.032533 -0.000000
 60 1.158924 -12.848692 -5.141571 -0.534646 -1.336689 1.131709
 61 0.008386 -0.048311 -0.069476 -0.000000 -0.000000 -0.000000
time 7
  0 2.454050 -12.299569 -3.123764 0.000000 0.000000 0.000000
  1 0.250197 -3.917489 -0.099874 0.000000 0.000000 0.000000
  2 0.337618 4.930951 0.877138 0.000000 0.000000 0.000000
  3 0.249743 5.375676 -0.431249 0.000000 0.000000 0.000000
  4 -2.477793 12.401384 4.136672 0.000000 0.000000 0.000000
  5 0.241868 9.046293 0.896507 0.000000 0.000000 0.000000
  6 0.000303 8.159075 -1.557892 0.000000 0.000000 0.000000
  7 0.246664 8.082764 -0.926848 0.000000 0.000000 0.000000
  8 -2.477793 12.401384 4.136672 0.000000 0.000000 0.000000
  9 0.000000 0.000000 0.000000 0.000000 0.000000 0.000000
 10 0.000000 -15.653315 -6.600977 0.000000 0.000000 0.000000
 11 4.086855 -0.035025 -5.496159 -0.059584 -0.011580 -0.217905
 12 -0.000000 -0.000000 -0.000000 0.000000 0.000000 0.000000
 13 -2.636130 0.330815 -2.304476 0.000000 -1.226559 0.000000
 14 -0.000000 0.000000 -0.000000 1.391307 0.284196 -2.248058
 15 8.403362 0.000000 -0.000001 -0.000000 1.117358 -0.000000
 16 8.136638 -0.000000 -0.000000 -1.570796 -0.032553 0.000000
 17 8.136637 0.000008 0.000005 -1.411284 -0.112305 -0.213957
 18 1.369795 0.361443 1.237272 1.175075 -0.347333 0.479992
 19 1.320667 -0.000000 -0.000000 0.201328 -0.139079 -0.045485
 20 1.066026 0.000000 0.000000 -0.014471 -0.113783 0.196807
 21 1.039343 -0.000001 0.000000 1.325745 0.991426 2.013611
 22 2.457048 -0.024848 0.014094 -0.000072 -0.005736 -0.010113
 23 3.525409 -0.419242 0.945131 1.648473 0.052800 0.007770
 24 1.209883 0.000000 -0.000000 0.003943 0.285298 -0.018611
 25 0.743918 0.000001 0.000000 -0.001656 1.148181 -0.092843
 26 0.794889 -0.000000 -0.000000 -0.000005 0.704556 -0.000608
 27 3.414727 -0.449902 0.223652 1.693617 0.046763 0.558369
 28 1.390921 -0.000000 -0.000000 -0.004769 1.284870 -0.018048
 29 0.906346 0.000000 0.000000 0.006062 -0.433839 0.045570
 30 0.776324 -0.000000 0.000000 0.001079 0.866577 0.033798
 31 3.289557 -0.311001 -0.505976 1.762164 0.112217 0.757107
 32 1.262952 -0.000001 0.000000 0.410302 1.354679 0.453063
 33 0.919429 -0.000000 0.000000 -0.052499 -0.297525 0.013980
 34 0.803004 -0.000000 -0.000001 -0.163064 1.145489 -1.117549
 35 3.167418 -0.097637 -1.197365 1.832995 -0.038354 1.129404
 36 0.817884 -0.000001 -0.000001 0.142196 1.147469 0.122418
 37 0.708994 0.000000 0.000000 -0.039911 -0.253101 0.086949
 38 0.794783 -0.000001 -0.000000 -1.042950 1.141227 -1.966856
 39 5.566999 5.667288 -3.006967 0.000000 0.000000 0.000000
 40 0.000000 0.000000 0.000000 -1.204980 0.164989 -0.659017
 41 8.403363 0.000000 -0.000001 0.000000 2.347157 0.000000
 42 8.136636 -0.000008 0.000003 2.432659 -0.992837 -0.929069
 43 1.369793 -0.361443 1.237272 -1.127491 0.097656 -0.579344
 44 1.320668 0.000001 -0.000001 -0.218662 -0.109509 0.185068
 45 1.066023 0.000000 0.000000 -0.025948 -0.111735 0.158666
 46 3.289559 0.311001 -0.505976 -1.569928 0.064069 -0.677339
 47 1.262953 0.000000 -0.000001 -0.592079 1.417311 -0.637209
 48 0.919429 0.000002 -0.000000 0.132824 1.180916 0.124669
 49 3.167420 0.097638 -1.197364 -1.577201 0.079890 -0.593938
 50 0.817882 -0.000000 -0.000001 -0.164298 1.212571 -0.146163
 51 0.708995 0.000002 -0.000000 0.062061 0.898421 -0.028374
 52 3.414728 0.449902 0.223654 -1.580784 0.013019 -0.654459
 53 1.390922 0.000002 -0.000001 0.005510 1.543565 0.018246
 54 0.906347 0.000000 0.000001 -0.006062 0.824979 -0.045570
 55 2.457049 0.024849 0.014095 0.000073 -0.005736 0.010114
 56 3.525410 0.419243 0.945132 -1.572659 -0.022227 -0.093872
 57 1.209882 -0.000002 -0.000000 -0.003943 0.557207 0.018610
 58 0.743920 0.000000 -0.000000 0.001656 0.583299 0.092843
 59 8.136639 -0.000000 -0.000002 1.570797 -0.032533 -0.000000
 60 1.158924 -12.848692 -5.141571 -0.534646 -1.336689 1.131709
 61 0.008386 -0.048311 -0.069476 -0.000000 -0.000000 -0.000000
time 8
  0 2.454050 -12.299569 -3.123764 0.000000 0.000000 0.000000
  1 0.250197 -3.917489 -0.099874 0.000000 0.000000 0.000000
  2 0.337618 4.930951 0.877138 0.000000 0.000000 0.000000
  3 0.249743 5.375676 -0.431249 0.000000 0.000000 0.000000
  4 -2.477793 12.401384 4.136672 0.000000 0.000000 0.000000
  5 0.241868 9.046293 0.896507 0.000000 0.000000 0.000000
  6 0.000303 8.159075 -1.557892 0.000000 0.000000 0.000000
  7 0.246664 8.082764 -0.926848 0.000000 0.000000 0.000000
  8 -2.477793 12.401384 4.136672 0.000000 0.000000 0.000000
  9 0.000000 0.000000 0.000000 0.000000 0.000000 0.000000
 10 0.000000 -15.653315 -6.600977 0.000000 0.000000 0.000000
 11 4.086855 -0.035025 -5.496159 -0.059584 -0.011580 -0.217905
 12 -0.000000 -0.000000 -0.000000 0.000000 0.000000 0.000000
 13 -2.636130 0.330815 -2.304476 0.000000 -1.226559 0.000000
 14 -0.000000 0.000000 -0.000000 1.391307 0.284196 -2.248058
 15 8.403362 0.000000 -0.000001 -0.000000 1.117358 -0.000000
 16 8.136638 -0.000000 -0.000000 -1.570796 -0.032553 0.000000
 17 8.136637 0.000008 0.000005 -1.411284 -0.112305 -0.213957
 18 1.369795 0.361443 1.237272 1.175075 -0.347333 0.479992
 19 1.320667 -0.000000 -0.000000 0.201328 -0.139079 -0.045485
 20 1.066026 0.000000 0.000000 -0.014471 -0.113783 0.196807
 21 1.039343 -0.000001 0.000000 1.325745 0.991426 2.013611
 22 2.457048 -0.024848 0.014094 -0.000072 -0.005736 -0.010113
 23 3.525409 -0.419242 0.945131 1.648473 0.052800 0.007770
 24 1.209883 0.000000 -0.000000 0.003943 0.285298 -0.018611
 25 0.743918 0.000001 0.000000 -0.001656 1.148181 -0.092843
 26 0.794889 -0.000000 -0.000000 -0.000005 0.704556 -0.000608
 27 3.414727 -0.449902 0.223652 1.693617 0.046763 0.558369
 28 1.390921 -0.000000 -0.000000 -0.004769 1.284870 -0.018048
 29 0.906346 0.000000 0.000000 0.006062 -0.433839 0.045570
 30 0.776324 -0.000000 0.000000 0.001079 0.866577 0.033798
 31 3.289557 -0.311001 -0.505976 1.762164 0.112217 0.757107
 32 1.262952 -0.000001 0.000000 0.410302 1.354679 0.453063
 33 0.919429 -0.000000 0.000000 -0.052499 -0.297525 0.013980
 34 0.803004 -0.000000 -0.000001 -0.163064 1.145489 -1.117549
 35 3.167418 -0.097637 -1.197365 1.832995 -0.038354 1.129404
 36 0.817884 -0.000001 -0.000001 0.142196 1.147469 0.122418
 37 0.708994 0.000000 0.000000 -0.039911 -0.253101 0.086949
 38 0.794783 -0.000001 -0.000000 -1.042950 1.141227 -1.966856
 39 5.566999 5.667288 -3.006967 0.000000 0.000000 0.000000
 40 0.000000 0.000000 0.000000 -1.204980 0.164989 -0.659017
 41 8.403363 0.000000 -0.000001 0.000000 2.347157 0.000000
 42 8.136636 -0.000008 0.000003 2.432659 -0.992837 -0.929069
 43 1.369793 -0.361443 1.237272 -1.127491 0.097656 -0.579344
 44 1.320668 0.000001 -0.000001 -0.218662 -0.109509 0.185068
 45 1.066023 0.000000 0.000000 -0.025948 -0.111735 0.158666
 46 3.289559 0.311001 -0.505976 -1.569928 0.064069 -0.677339
 47 1.262953 0.000000 -0.000001 -0.592079 1.417311 -0.637209
 48 0.919429 0.000002 -0.000000 0.132824 1.180916 0.124669
 49 3.167420 0.097638 -1.197364 -1.577201 0.079890 -0.593938
 50 0.817882 -0.000000 -0.000001 -0.164298 1.212571 -0.146163
 51 0.708995 0.000002 -0.000000 0.062061 0.898421 -0.028374
 52 3.414728 0.449902 0.223654 -1.580784 0.013019 -0.654459
 53 1.390922 0.000002 -0.000001 0.005510 1.543565 0.018246
 54 0.906347 0.000000 0.000001 -0.006062 0.824979 -0.045570
 55 2.457049 0.024849 0.014095 0.000073 -0.005736 0.010114
 56 3.525410 0.419243 0.945132 -1.571888 -0.021860 -0.078400
 57 1.209882 -0.000002 -0.000000 -0.003943 0.519687 0.018610
 58 0.743920 0.000000 -0.000000 0.001656 0.537959 0.092843
 59 8.136639 -0.000000 -0.000002 1.570797 -0.032533 -0.000000
 60 1.158924 -12.848692 -5.141571 -0.534646 -1.336689 1.131709
 61 0.008386 -0.048311 -0.069476 -0.000000 -0.000000 -0.000000
time 9
  0 2.454050 -12.299569 -3.123764 0.000000 0.000000 0.000000
  1 0.250197 -3.917489 -0.099874 0.000000 0.000000 0.000000
  2 0.337618 4.930951 0.877138 0.000000 0.000000 0.000000
  3 0.249743 5.375676 -0.431249 0.000000 0.000000 0.000000
  4 -2.477793 12.401384 4.136672 0.000000 0.000000 0.000000
  5 0.241868 9.046293 0.896507 0.000000 0.000000 0.000000
  6 0.000303 8.159075 -1.557892 0.000000 0.000000 0.000000
  7 0.246664 8.082764 -0.926848 0.000000 0.000000 0.000000
  8 -2.477793 12.401384 4.136672 0.000000 0.000000 0.000000
  9 0.000000 0.000000 0.000000 0.000000 0.000000 0.000000
 10 0.000000 -15.653315 -6.600977 0.000000 0.000000 0.000000
 11 4.086855 -0.035025 -5.496159 -0.059584 -0.011580 -0.217905
 12 -0.000000 -0.000000 -0.000000 0.000000 0.000000 0.000000
 13 -2.636130 0.330815 -2.304476 0.000000 -1.226559 0.000000
 14 -0.000000 0.000000 -0.000000 1.391307 0.284196 -2.248058
 15 8.403362 0.000000 -0.000001 -0.000000 1.117358 -0.000000
 16 8.136638 -0.000000 -0.000000 -1.570796 -0.032553 0.000000
 17 8.136637 0.000008 0.000005 -1.411284 -0.112305 -0.213957
 18 1.369795 0.361443 1.237272 1.175075 -0.347333 0.479992
 19 1.320667 -0.000000 -0.000000 0.201328 -0.139079 -0.045485
 20 1.066026 0.000000 0.000000 -0.014471 -0.113783 0.196807
 21 1.039343 -0.000001 0.000000 1.325745 0.991426 2.013611
 22 2.457048 -0.024848 0.014094 -0.000072 -0.005736 -0.010113
 23 3.525409 -0.419242 0.945131 1.648473 0.052800 0.007770
 24 1.209883 0.000000 -0.000000 0.003943 0.285298 -0.018611
 25 0.743918 0.000001 0.000000 -0.001656 1.148181 -0.092843
 26 0.794889 -0.000000 -0.000000 -0.000005 0.704556 -0.000608
 27 3.414727 -0.449902 0.223652 1.693617 0.046763 0.558369
 28 1.390921 -0.000000 -0.000000 -0.004769 1.284870 -0.018048
 29 0.906346 0.000000 0.000000 0.006062 -0.433839 0.045570
 30 0.776324 -0.000000 0.000000 0.001079 0.866577 0.033798
 31 3.289557 -0.311001 -0.505976 1.762164 0.112217 0.757107
 32 1.262952 -0.000001 0.000000 0.410302 1.354679 0.453063
 33 0.919429 -0.000000 0.000000 -0.052499 -0.297525 0.013980
 34 0.803004 -0.000000 -0.000001 -0.163064 1.145489 -1.117549
 35 3.167418 -0.097637 -1.197365 1.832995 -0.038354 1.129404
 36 0.817884 -0.000001 -0.000001 0.142196 1.147469 0.122418
 37 0.708994 0.000000 0.000000 -0.039911 -0.253101 0.086949
 38 0.794783 -0.000001 -0.000000 -1.042950 1.141227 -1.966856
 39 5.566999 5.667288 -3.006967 0.000000 0.000000 0.000000
 40 0.000000 0.000000 0.000000 -1.204980 0.164989 -0.659017
 41 8.403363 0.000000 -0.000001 0.000000 2.347157 0.000000
 42 8.136636 -0.000008 0.000003 2.432659 -0.992837 -0.929069
 43 1.369793 -0.361443 1.237272 -1.127491 0.097656 -0.579344
 44 1.320668 0.000001 -0.000001 -0.218662 -0.109509 0.185068
 45 1.066023 0.000000 0.000000 -0.025948 -0.111735 0.158666
 46 3.289559 0.311001 -0.505976 -1.569928 0.064069 -0.677339
 47 1.262953 0.000000 -0.000001 -0.592079 1.417311 -0.637209
 48 0.919429 0.000002 -0.000000 0.132824 1.180916 0.124669
 49 3.167420 0.097638 -1.197364 -1.577201 0.079890 -0.593938
 50 0.817882 -0.000000 -0.000001 -0.164298 1.212571 -0.146163
 51 0.708995 0.000002 -0.000000 0.062061 0.898421 -0.028374
 52 3.414728 0.449902 0.223654 -1.580784 0.013019 -0.654459
 53 1.390922 0.000002 -0.000001 0.005510 1.543565 0.018246
 54 0.906347 0.000000 0.000001 -0.006062 0.824979 -0.045570
 55 2.457049 0.024849 0.014095 0.000073 -0.005736 0.010114
 56 3.525410 0.419243 0.945132 -1.571888 -0.021860 -0.078400
 57 1.209882 -0.000002 -0.000000 -0.003943 0.519687 0.018610
 58 0.743920 0.000000 -0.000000 0.001656 0.537959 0.092843
 59 8.136639 -0.000000 -0.000002 1.570797 -0.032533 -0.000000
 60 1.158924 -12.848692 -5.141571 -0.534646 -1.336689 1.131709
 61 0.008386 -0.048311 -0.069476 -0.000000 -0.000000 -0.000000
time 10
  0 2.454050 -12.299569 -3.123764 0.000000 0.000000 0.000000
  1 0.250197 -3.917489 -0.099874 0.000000 0.000000 0.000000
  2 0.337618 4.930951 0.877138 0.000000 0.000000 0.000000
  3 0.249743 5.375676 -0.431249 0.000000 0.000000 0.000000
  4 -2.477793 12.401384 4.136672 0.000000 0.000000 0.000000
  5 0.241868 9.046293 0.896507 0.000000 0.000000 0.000000
  6 0.000303 8.159075 -1.557892 0.000000 0.000000 0.000000
  7 0.246664 8.082764 -0.926848 0.000000 0.000000 0.000000
  8 -2.477793 12.401384 4.136672 0.000000 0.000000 0.000000
  9 0.000000 0.000000 0.000000 0.000000 0.000000 0.000000
 10 0.000000 -15.653315 -6.600977 0.000000 0.000000 0.000000
 11 4.086855 -0.035025 -5.496159 -0.059584 -0.011580 -0.217905
 12 -0.000000 -0.000000 -0.000000 0.000000 0.000000 0.000000
 13 -2.636130 0.330815 -2.304476 0.000000 -1.226559 0.000000
 14 -0.000000 0.000000 -0.000000 1.391307 0.284196 -2.248058
 15 8.403362 0.000000 -0.000001 -0.000000 1.117358 -0.000000
 16 8.136638 -0.000000 -0.000000 -1.570796 -0.032553 0.000000
 17 8.136637 0.000008 0.000005 -1.411284 -0.112305 -0.213957
 18 1.369795 0.361443 1.237272 1.175075 -0.347333 0.479992
 19 1.320667 -0.000000 -0.000000 0.201328 -0.139079 -0.045485
 20 1.066026 0.000000 0.000000 -0.014471 -0.113783 0.196807
 21 1.039343 -0.000001 0.000000 1.325745 0.991426 2.013611
 22 2.457048 -0.024848 0.014094 -0.000072 -0.005736 -0.010113
 23 3.525409 -0.419242 0.945131 1.648473 0.052800 0.007770
 24 1.209883 0.000000 -0.000000 0.003943 0.285298 -0.018611
 25 0.743918 0.000001 0.000000 -0.001656 1.148181 -0.092843
 26 0.794889 -0.000000 -0.000000 -0.000005 0.704556 -0.000608
 27 3.414727 -0.449902 0.223652 1.693617 0.046763 0.558369
 28 1.390921 -0.000000 -0.000000 -0.004769 1.284870 -0.018048
 29 0.906346 0.000000 0.000000 0.006062 -0.433839 0.045570
 30 0.776324 -0.000000 0.000000 0.001079 0.866577 0.033798
 31 3.289557 -0.311001 -0.505976 1.762164 0.112217 0.757107
 32 1.262952 -0.000001 0.000000 0.410302 1.354679 0.453063
 33 0.919429 -0.000000 0.000000 -0.052499 -0.297525 0.013980
 34 0.803004 -0.000000 -0.000001 -0.163064 1.145489 -1.117549
 35 3.167418 -0.097637 -1.197365 1.832995 -0.038354 1.129404
 36 0.817884 -0.000001 -0.000001 0.142196 1.147469 0.122418
 37 0.708994 0.000000 0.000000 -0.039911 -0.253101 0.086949
 38 0.794783 -0.000001 -0.000000 -1.042950 1.141227 -1.966856
 39 5.566999 5.667288 -3.006967 0.000000 0.000000 0.000000
 40 0.000000 0.000000 0.000000 -1.204980 0.164989 -0.659017
 41 8.403363 0.000000 -0.000001 0.000000 2.347157 0.000000
 42 8.136636 -0.000008 0.000003 2.432659 -0.992837 -0.929069
 43 1.369793 -0.361443 1.237272 -1.127491 0.097656 -0.579344
 44 1.320668 0.000001 -0.000001 -0.218662 -0.109509 0.185068
 45 1.066023 0.000000 0.000000 -0.025948 -0.111735 0.158666
 46 3.289559 0.311001 -0.505976 -1.569928 0.064069 -0.677339
 47 1.262953 0.000000 -0.000001 -0.592079 1.417311 -0.637209
 48 0.919429 0.000002 -0.000000 0.132824 1.180916 0.124669
 49 3.167420 0.097638 -1.197364 -1.577201 0.079890 -0.593938
 50 0.817882 -0.000000 -0.000001 -0.164298 1.212571 -0.146163
 51 0.708995 0.000002 -0.000000 0.062061 0.898421 -0.028374
 52 3.414728 0.449902 0.223654 -1.580784 0.013019 -0.654459
 53 1.390922 0.000002 -0.000001 0.005510 1.543565 0.018246
 54 0.906347 0.000000 0.000001 -0.006062 0.824979 -0.045570
 55 2.457049 0.024849 0.014095 0.000073 -0.005736 0.010114
 56 3.525410 0.419243 0.945132 -1.571888 -0.021860 -0.078400
 57 1.209882 -0.000002 -0.000000 -0.003943 0.519687 0.018610
 58 0.743920 0.000000 -0.000000 0.001656 0.537959 0.092843
 59 8.136639 -0.000000 -0.000002 1.570797 -0.032533 -0.000000
 60 1.158924 -12.848692 -5.141571 -0.534646 -1.336689 1.131709
 61 0.008386 -0.048311 -0.069476 -0.000000 -0.000000 -0.000000
end
