version 1
nodes
  0 "Base"  -1
  1 "Pump"   0
  2 "Bolt"   0
  3 "Cover"   0
  4 "Shell"   0
  5 "Stock"   0
  6 "Stock_flip"   5
  7 "Trigger"   0
  8 "Holder"   0
  9 "Pin"   8
 10 "Hand_Mesh"  -1
 11 "Left_Hand_C"  -1
 12 "IK Chain02"  11
 13 "Dummy01"  -1
 14 "Right_U_Arm"  13
 15 "Right_L_Arm"  14
 16 "Right_L_Arm_End"  15
 17 "Right_Hand"  15
 18 "Bone22"  17
 19 "Bone23"  18
 20 "Bone24"  19
 21 "Bone25"  20
 22 "Right_Hand_End"  17
 23 "Bone06"  17
 24 "Bone07"  23
 25 "Bone08"  24
 26 "Bone09"  25
 27 "Bone10"  17
 28 "Bone11"  27
 29 "Bone12"  28
 30 "Bone13"  29
 31 "Bone14"  17
 32 "Bone15"  31
 33 "Bone16"  32
 34 "Bone17"  33
 35 "Bone18"  17
 36 "Bone19"  35
 37 "Bone20"  36
 38 "Bone21"  37
 39 "Dummy02"  -1
 40 "Left_U_Arm"  39
 41 "Left_L_Arm"  40
 42 "Left_Hand"  41
 43 "Left_thumb_1"  42
 44 "Left_thumb_2"  43
 45 "Left_thumb_3"  44
 46 "Left_ring_1"  42
 47 "Left_ring_2"  46
 48 "Left_ring_3"  47
 49 "Left_pingky_1"  42
 50 "Left_pingky_2"  49
 51 "Left_pingky_3"  50
 52 "Left_middle_1"  42
 53 "Left_middle_2"  52
 54 "Left_middle_3"  53
 55 "Left_Hand_End"  42
 56 "Left_point_1"  42
 57 "Left_point_2"  56
 58 "Left_point_3"  57
 59 "Left_L_Arm_End"  41
 60 "Right_Hand_C"  -1
 61 "IK Chain01"  60
end
skeleton
time 0
  0 -6.013859 -10.217499 -0.139997 -1.010440 -0.606320 0.003472
  1 0.250197 -3.917488 -0.099873 0.000000 -0.000000 0.000000
  2 0.337618 4.930948 0.877138 0.000000 -0.000000 0.000000
  3 0.249743 5.375675 -0.431248 0.000000 -0.000000 0.000000
  4 2.970673 10.789099 -3.999044 0.920316 0.589149 0.030765
  5 0.241868 9.046291 0.896507 0.000000 -0.000000 0.000000
  6 0.000303 8.159075 -1.557893 0.000000 0.000000 0.000000
  7 0.246663 7.851890 -0.926848 0.000000 -0.000000 0.000000
  8 -2.477793 12.401383 4.136672 0.000000 -0.000000 0.000000
  9 0.000000 0.000000 0.000000 0.000000 0.000000 0.000000
 10 0.000000 -15.653315 -6.600977 0.000000 0.000000 0.000000
 11 6.163350 -3.943090 -8.087608 0.271153 0.075824 -0.612735
 12 -0.000000 0.000000 -0.000000 0.000000 0.000000 0.000000
 13 -9.259155 0.805164 -5.542013 0.000000 -1.547455 0.000000
 14 -0.000000 0.000000 -0.000000 1.296971 0.280080 -2.225587
 15 8.403363 0.000001 -0.000001 -0.000000 1.540369 -0.000000
 16 8.136638 -0.000001 -0.000001 -1.570796 -0.032553 -0.000000
 17 8.136636 0.000008 0.000006 -1.745846 0.373772 0.153611
 18 1.369794 0.361443 1.237272 1.175074 -0.347333 0.479992
 19 1.320667 -0.000001 0.000000 0.201328 -0.139079 -0.045485
 20 1.066025 0.000000 -0.000000 -0.014471 -0.113783 0.196807
 21 1.039344 -0.000001 0.000000 1.325744 0.991426 2.013611
 22 2.457049 -0.024848 0.014095 -0.000072 -0.005736 -0.010113
 23 3.525410 -0.419243 0.945132 1.631625 0.008362 0.158532
 24 1.209883 -0.000000 0.000000 0.003943 0.285298 -0.018611
 25 0.743917 0.000000 0.000000 -0.001656 0.963273 -0.092843
 26 0.794889 0.000000 0.000000 -0.000005 0.704556 -0.000608
 27 3.414728 -0.449902 0.223652 1.656016 0.086751 0.789677
 28 1.390921 -0.000001 -0.000000 -0.004769 1.284870 -0.018048
 29 0.906346 0.000000 0.000000 0.006062 -0.433839 0.045570
 30 0.776324 -0.000000 -0.000000 0.001079 0.866577 0.033798
 31 3.289557 -0.311001 -0.505976 1.664984 0.015731 0.920761
 32 1.262952 -0.000000 0.000000 0.410302 1.354679 0.453063
 33 0.919429 -0.000000 0.000000 -0.052499 -0.297525 0.013980
 34 0.803004 -0.000001 -0.000001 -0.163064 1.145489 -1.117549
 35 3.167419 -0.097637 -1.197365 1.820246 -0.117708 1.277628
 36 0.817883 -0.000000 0.000000 0.142196 1.147469 0.122418
 37 0.708995 -0.000000 0.000000 -0.039911 -0.253101 0.086949
 38 0.794783 -0.000000 -0.000000 -1.042950 1.141227 -1.966856
 39 0.831773 4.498170 -6.998626 -0.335450 0.000000 0.000000
 40 0.000000 0.000000 0.000000 -1.260927 0.238711 -0.025102
 41 8.403363 -0.000000 -0.000001 -0.000000 1.836701 -0.000000
 42 8.136636 -0.000008 0.000004 1.761951 0.235411 0.427367
 43 1.369793 -0.361443 1.237272 -1.192696 -0.390060 -0.215290
 44 1.320668 0.000002 -0.000001 -0.218662 -0.109509 0.185068
 45 1.066023 -0.000000 0.000001 -0.025949 -0.111735 0.158666
 46 3.289558 0.311000 -0.505976 -1.655749 -0.038571 -1.117383
 47 1.262953 -0.000001 -0.000001 0.275331 1.890033 0.211471
 48 0.919429 0.000002 -0.000001 -0.178915 1.857550 -0.170047
 49 3.167420 0.097637 -1.197364 -1.542174 -0.127050 -0.960505
 50 0.817882 0.000000 -0.000002 0.244589 1.809881 0.245770
 51 0.708994 0.000001 -0.000000 0.181067 1.354603 0.099989
 52 3.414728 0.449901 0.223654 -1.704884 -0.041925 -1.025114
 53 1.390923 0.000002 -0.000001 0.005510 2.077791 0.018246
 54 0.906347 -0.000001 0.000000 -0.006062 1.435263 -0.045570
 55 2.457048 0.024849 0.014095 0.000073 -0.005736 0.010114
 56 3.525409 0.419242 0.945132 -1.452791 -0.127226 -0.781254
 57 1.209882 -0.000002 -0.000001 -0.003943 1.344267 0.018610
 58 0.743920 -0.000000 0.000000 0.001656 1.082738 0.092843
 59 8.136639 0.000000 -0.000001 1.570797 -0.032533 -0.000000
 60 -4.789951 -10.075361 -4.178403 1.568846 -2.800117 -1.447949
 61 0.008385 -0.048311 -0.069476 0.000000 0.000000 -0.000000
time 1
  0 -6.011603 -10.217499 -0.139997 -1.010440 -0.605424 0.003208
  1 0.250197 -3.917488 -0.099874 0.000000 0.000000 0.000000
  2 0.337617 4.930949 0.877138 0.000000 0.000000 0.000000
  3 0.249743 5.375675 -0.431248 0.000000 0.000000 0.000000
  4 2.423689 8.552613 -4.155679 0.868716 0.564458 -0.006488
  5 0.241867 9.046291 0.896506 0.000000 0.000000 0.000000
  6 0.000302 8.159075 -1.557893 0.000000 0.000000 0.000000
  7 0.246663 7.851890 -0.926848 0.000000 0.000000 0.000000
  8 -2.477793 12.401383 4.136672 0.000000 0.000000 0.000000
  9 0.000000 0.000000 0.000000 0.000000 0.000000 0.000000
 10 0.000000 -15.653315 -6.600977 0.000000 0.000000 0.000000
 11 4.735186 -5.328381 -7.022018 0.246575 0.033335 -0.625227
 12 0.000000 0.000000 0.000000 0.000000 0.000000 0.000000
 13 -9.259155 0.805164 -5.542013 0.000000 -1.547455 0.000000
 14 -0.000000 0.000000 -0.000000 1.297041 0.280001 -2.225703
 15 8.403364 0.000000 0.000000 -0.000000 1.540419 -0.000000
 16 8.136638 -0.000002 0.000001 -1.570796 -0.032553 -0.000000
 17 8.136636 0.000007 0.000006 -1.746590 0.373598 0.152730
 18 1.369794 0.361444 1.237272 1.175075 -0.347333 0.479992
 19 1.320667 -0.000001 0.000000 0.201328 -0.139079 -0.045485
 20 1.066025 -0.000000 -0.000000 -0.014471 -0.113783 0.196807
 21 1.039343 -0.000002 0.000000 1.325744 0.991426 2.013611
 22 2.457049 -0.024848 0.014094 -0.000072 -0.005736 -0.010113
 23 3.525409 -0.419242 0.945132 1.631625 0.008362 0.158532
 24 1.209883 -0.000000 0.000000 0.003943 0.285298 -0.018611
 25 0.743918 0.000000 0.000000 -0.001656 0.963273 -0.092843
 26 0.794890 -0.000000 -0.000000 -0.000005 0.704556 -0.000608
 27 3.414727 -0.449901 0.223652 1.656016 0.086751 0.789677
 28 1.390921 -0.000001 0.000000 -0.004769 1.284870 -0.018048
 29 0.906346 0.000000 0.000000 0.006062 -0.433839 0.045570
 30 0.776325 -0.000000 -0.000000 0.001079 0.866577 0.033798
 31 3.289557 -0.311001 -0.505976 1.664984 0.015731 0.920761
 32 1.262952 -0.000000 0.000000 0.410302 1.354679 0.453063
 33 0.919429 0.000000 -0.000000 -0.052499 -0.297525 0.013980
 34 0.803004 -0.000001 -0.000001 -0.163064 1.145489 -1.117549
 35 3.167419 -0.097637 -1.197365 1.820246 -0.117708 1.277629
 36 0.817884 -0.000000 0.000000 0.142196 1.147469 0.122418
 37 0.708995 -0.000000 0.000000 -0.039911 -0.253101 0.086949
 38 0.794783 -0.000000 -0.000000 -1.042950 1.141227 -1.966856
 39 -0.529605 3.529356 -6.998626 -0.481209 0.000000 0.000000
 40 0.000000 0.000000 0.000000 -1.246960 0.258329 -0.059265
 41 8.403363 0.000000 -0.000001 -0.000000 1.796075 -0.000000
 42 8.136636 -0.000007 0.000003 1.754597 0.231267 0.507672
 43 1.369793 -0.361443 1.237271 -1.192696 -0.390060 -0.215290
 44 1.320668 0.000001 -0.000001 -0.218662 -0.109509 0.185068
 45 1.066022 -0.000000 0.000000 -0.025949 -0.111735 0.158666
 46 3.289558 0.311000 -0.505976 -1.655749 -0.038571 -1.117383
 47 1.262953 -0.000000 -0.000001 0.275332 1.890033 0.211471
 48 0.919429 0.000002 -0.000001 -0.178916 1.857550 -0.170047
 49 3.167420 0.097637 -1.197364 -1.542174 -0.127050 -0.960505
 50 0.817882 -0.000000 -0.000001 0.244589 1.809881 0.245770
 51 0.708994 0.000001 0.000000 0.181067 1.354603 0.099989
 52 3.414728 0.449900 0.223653 -1.704884 -0.041925 -1.025114
 53 1.390922 0.000002 -0.000000 0.005510 2.077791 0.018246
 54 0.906347 -0.000000 0.000000 -0.006062 1.435263 -0.045570
 55 2.457049 0.024848 0.014095 0.000073 -0.005736 0.010114
 56 3.525410 0.419242 0.945132 -1.452791 -0.127226 -0.781254
 57 1.209882 -0.000002 -0.000001 -0.003943 1.344267 0.018610
 58 0.743920 0.000000 0.000000 0.001656 1.082738 0.092843
 59 8.136639 -0.000000 -0.000001 1.570797 -0.032533 -0.000000
 60 -4.791274 -10.075697 -4.179498 1.569789 -2.800011 -1.448529
 61 0.008386 -0.048311 -0.069475 0.000000 0.000000 -0.000000
time 2
  0 -6.005416 -10.217499 -0.139997 -1.010440 -0.602922 0.002433
  1 0.250197 -3.917488 -0.099874 -0.000000 -0.000000 -0.000000
  2 0.337618 4.930949 0.877138 -0.000000 -0.000000 -0.000000
  3 0.249742 5.375675 -0.431249 -0.000000 -0.000000 -0.000000
  4 1.220325 7.298852 -4.500278 0.727372 0.500492 -0.088446
  5 0.241867 9.046291 0.896506 -0.000000 -0.000000 -0.000000
  6 0.000303 8.159075 -1.557893 0.000000 0.000000 0.000000
  7 0.246663 7.851890 -0.926849 -0.000000 -0.000000 -0.000000
  8 -2.477793 12.401383 4.136672 -0.000000 -0.000000 -0.000000
  9 -0.000000 0.000000 -0.000000 0.000000 0.000000 0.000000
 10 0.000000 -15.653315 -6.600977 0.000000 0.000000 0.000000
 11 3.396694 -6.503572 -7.346710 0.166905 -0.072796 -0.659266
 12 -0.000000 -0.000000 -0.000000 0.000000 0.000000 0.000000
 13 -9.259155 0.805164 -5.542013 0.000000 -1.547455 0.000000
 14 -0.000000 0.000000 -0.000000 1.297243 0.279771 -2.226024
 15 8.403362 0.000000 -0.000001 -0.000000 1.540569 -0.000000
 16 8.136638 -0.000001 -0.000000 -1.570796 -0.032553 0.000000
 17 8.136637 0.000008 0.000006 -1.748688 0.373107 0.150278
 18 1.369795 0.361443 1.237273 1.175074 -0.347333 0.479992
 19 1.320668 -0.000000 0.000000 0.201328 -0.139079 -0.045485
 20 1.066025 -0.000000 0.000001 -0.014471 -0.113783 0.196807
 21 1.039343 -0.000002 0.000000 1.325744 0.991426 2.013611
 22 2.457049 -0.024848 0.014095 -0.000072 -0.005736 -0.010113
 23 3.525410 -0.419242 0.945132 1.631625 0.008362 0.158532
 24 1.209883 -0.000001 -0.000000 0.003943 0.285298 -0.018611
 25 0.743917 -0.000000 -0.000000 -0.001656 0.963273 -0.092843
 26 0.794890 -0.000000 -0.000001 -0.000005 0.704556 -0.000608
 27 3.414728 -0.449902 0.223652 1.656016 0.086751 0.789677
 28 1.390922 -0.000001 0.000000 -0.004769 1.284870 -0.018048
 29 0.906346 0.000000 -0.000000 0.006062 -0.433839 0.045570
 30 0.776325 0.000000 -0.000000 0.001079 0.866577 0.033798
 31 3.289557 -0.311001 -0.505976 1.664984 0.015731 0.920761
 32 1.262953 -0.000001 -0.000000 0.410301 1.354679 0.453063
 33 0.919429 0.000000 0.000000 -0.052499 -0.297525 0.013980
 34 0.803003 -0.000000 -0.000001 -0.163064 1.145489 -1.117549
 35 3.167419 -0.097637 -1.197365 1.820246 -0.117708 1.277629
 36 0.817884 -0.000000 -0.000000 0.142196 1.147469 0.122418
 37 0.708995 -0.000000 0.000000 -0.039911 -0.253101 0.086949
 38 0.794784 -0.000001 -0.000000 -1.042950 1.141227 -1.966856
 39 -0.825557 1.780199 -6.998626 -0.632611 0.000000 0.000000
 40 0.000000 -0.000000 -0.000000 -1.071905 0.329772 0.041606
 41 8.403363 0.000000 -0.000001 -0.000000 1.947072 -0.000000
 42 8.136636 -0.000008 0.000003 1.868518 0.105946 0.462722
 43 1.369793 -0.361443 1.237272 -1.192696 -0.390060 -0.215290
 44 1.320668 0.000001 -0.000001 -0.218662 -0.109509 0.185068
 45 1.066023 -0.000000 0.000000 -0.025949 -0.111735 0.158666
 46 3.289559 0.311001 -0.505976 -1.655749 -0.038571 -1.117383
 47 1.262953 -0.000000 -0.000001 0.275331 1.890033 0.211471
 48 0.919429 0.000001 -0.000000 -0.178915 1.857550 -0.170047
 49 3.167420 0.097637 -1.197364 -1.542174 -0.127050 -0.960505
 50 0.817882 0.000000 -0.000002 0.244589 1.809881 0.245770
 51 0.708994 0.000002 -0.000000 0.181067 1.354604 0.099989
 52 3.414728 0.449901 0.223654 -1.704884 -0.041925 -1.025114
 53 1.390922 0.000002 0.000000 0.005510 2.077791 0.018246
 54 0.906348 -0.000000 0.000001 -0.006062 1.435263 -0.045570
 55 2.457049 0.024849 0.014095 0.000073 -0.005736 0.010114
 56 3.525409 0.419242 0.945132 -1.452791 -0.127226 -0.781254
 57 1.209882 -0.000002 -0.000000 -0.003943 1.344267 0.018610
 58 0.743920 -0.000000 0.000000 0.001656 1.082738 0.092843
 59 8.136639 -0.000000 -0.000001 1.570797 -0.032533 -0.000000
 60 -4.795091 -10.076667 -4.182540 -1.569166 -0.341878 1.691405
 61 0.008386 -0.048311 -0.069476 0.000000 -0.000000 -0.000000
time 3
  0 -5.996173 -10.217499 -0.139997 -1.010440 -0.599086 0.001178
  1 0.250197 -3.917488 -0.099874 0.000000 0.000000 0.000000
  2 0.337618 4.930949 0.877138 0.000000 0.000000 0.000000
  3 0.249743 5.375676 -0.431248 0.000000 0.000000 0.000000
  4 0.016962 6.590828 -4.844875 0.516468 0.412413 -0.170403
  5 0.241867 9.046291 0.896506 0.000000 0.000000 0.000000
  6 0.000303 8.159074 -1.557892 0.000000 0.000000 0.000000
  7 0.246663 7.851890 -0.926848 0.000000 0.000000 0.000000
  8 -2.477793 12.401384 4.136672 0.000000 0.000000 0.000000
  9 -0.000000 -0.000000 -0.000000 0.000000 0.000000 0.000000
 10 0.000000 -15.653315 -6.600977 0.000000 0.000000 0.000000
 11 2.398937 -7.644907 -8.303583 0.024969 -0.213142 -0.704309
 12 -0.000000 0.000000 -0.000000 0.000000 0.000000 0.000000
 13 -9.259155 0.805164 -5.542013 0.000000 -1.547455 0.000000
 14 -0.000000 0.000000 -0.000000 1.297569 0.279403 -2.226511
 15 8.403362 0.000000 -0.000001 -0.000000 1.540803 -0.000000
 16 8.136639 -0.000001 -0.000001 -1.570796 -0.032553 0.000000
 17 8.136638 0.000008 0.000006 -1.751942 0.372339 0.146538
 18 1.369794 0.361444 1.237272 1.175075 -0.347333 0.479992
 19 1.320668 -0.000000 0.000000 0.201328 -0.139079 -0.045485
 20 1.066025 0.000000 0.000000 -0.014471 -0.113783 0.196807
 21 1.039344 -0.000001 0.000001 1.325744 0.991426 2.013611
 22 2.457049 -0.024848 0.014095 -0.000072 -0.005736 -0.010113
 23 3.525410 -0.419243 0.945132 1.631625 0.008362 0.158532
 24 1.209883 -0.000000 0.000000 0.003943 0.285298 -0.018611
 25 0.743917 0.000000 0.000001 -0.001656 0.963273 -0.092843
 26 0.794889 0.000000 0.000000 -0.000005 0.704556 -0.000608
 27 3.414728 -0.449902 0.223653 1.656016 0.086751 0.789677
 28 1.390921 -0.000001 0.000000 -0.004769 1.284870 -0.018048
 29 0.906346 0.000000 0.000000 0.006062 -0.433839 0.045570
 30 0.776325 -0.000000 -0.000000 0.001079 0.866577 0.033798
 31 3.289557 -0.311001 -0.505976 1.664984 0.015731 0.920761
 32 1.262952 -0.000000 0.000000 0.410302 1.354679 0.453063
 33 0.919429 -0.000000 0.000000 -0.052499 -0.297525 0.013980
 34 0.803003 -0.000000 -0.000001 -0.163064 1.145489 -1.117549
 35 3.167419 -0.097637 -1.197365 1.820246 -0.117708 1.277629
 36 0.817884 0.000000 0.000000 0.142196 1.147469 0.122418
 37 0.708995 -0.000000 0.000001 -0.039911 -0.253101 0.086949
 38 0.794783 -0.000000 -0.000001 -1.042950 1.141227 -1.966856
 39 -0.803455 -1.844667 -7.962052 -0.779426 0.000000 0.000000
 40 0.000000 -0.000000 -0.000000 -0.912889 0.286700 0.338475
 41 8.403363 -0.000000 -0.000001 -0.000000 2.316726 -0.000000
 42 8.136637 -0.000007 0.000003 1.996685 0.011240 0.461679
 43 1.369793 -0.361443 1.237273 -1.192696 -0.390060 -0.215290
 44 1.320668 0.000001 -0.000001 -0.218662 -0.109509 0.185068
 45 1.066023 -0.000000 0.000000 -0.025949 -0.111735 0.158666
 46 3.289558 0.311000 -0.505976 -1.655749 -0.038571 -1.117383
 47 1.262953 -0.000000 -0.000001 0.275332 1.890033 0.211471
 48 0.919429 0.000001 -0.000001 -0.178916 1.857550 -0.170047
 49 3.167420 0.097637 -1.197364 -1.542174 -0.127050 -0.960505
 50 0.817882 0.000000 -0.000001 0.244589 1.809881 0.245770
 51 0.708994 0.000003 -0.000000 0.181067 1.354604 0.099989
 52 3.414728 0.449901 0.223654 -1.704884 -0.041925 -1.025114
 53 1.390922 0.000002 -0.000001 0.005510 2.077791 0.018246
 54 0.906347 -0.000000 0.000001 -0.006062 1.435263 -0.045570
 55 2.457049 0.024849 0.014096 0.000073 -0.005736 0.010114
 56 3.525410 0.419242 0.945133 -1.452791 -0.127226 -0.781254
 57 1.209882 -0.000001 -0.000001 -0.003943 1.344267 0.018610
 58 0.743920 -0.000000 0.000000 0.001656 1.082738 0.092843
 59 8.136639 0.000001 -0.000001 1.570797 -0.032533 -0.000000
 60 -4.801185 -10.078205 -4.187153 -1.565123 -0.342328 1.688793
 61 0.008386 -0.048311 -0.069476 -0.000000 -0.000000 -0.000000
time 4
  0 -5.984746 -10.217499 -0.139997 -1.010440 -0.594193 -0.000529
  1 0.250197 -3.917488 -0.099873 -0.000000 0.000000 -0.000000
  2 0.337618 4.930949 0.877138 -0.000000 0.000000 -0.000000
  3 0.249743 5.375676 -0.431249 -0.000000 0.000000 -0.000000
  4 -0.530021 5.991549 -5.001511 0.256188 0.315382 -0.207656
  5 0.241867 9.046291 0.896506 -0.000000 0.000000 -0.000000
  6 0.000303 8.159075 -1.557893 0.000000 0.000000 0.000000
  7 0.246663 7.851890 -0.926848 -0.000000 0.000000 -0.000000
  8 -2.477793 12.401384 4.136672 -0.000000 0.000000 -0.000000
  9 -0.000000 0.000000 0.000000 0.000000 0.000000 0.000000
 10 0.000000 -15.653315 -6.600977 0.000000 0.000000 0.000000
 11 1.880362 -8.911285 -9.084039 -0.190959 -0.360305 -0.730650
 12 -0.000000 0.000000 0.000000 0.000000 0.000000 0.000000
 13 -9.259155 0.805164 -5.542013 0.000000 -1.547455 0.000000
 14 -0.000000 0.000000 -0.000000 1.298007 0.278909 -2.227126
 15 8.403363 0.000001 -0.000000 -0.000000 1.541110 -0.000000
 16 8.136638 -0.000001 -0.000001 -1.570796 -0.032553 -0.000000
 17 8.136637 0.000007 0.000005 -1.756153 0.371329 0.141795
 18 1.369795 0.361443 1.237272 1.175075 -0.347333 0.479992
 19 1.320667 -0.000001 0.000000 0.201328 -0.139079 -0.045485
 20 1.066025 -0.000000 0.000000 -0.014471 -0.113783 0.196807
 21 1.039343 -0.000002 -0.000000 1.325745 0.991426 2.013612
 22 2.457049 -0.024848 0.014095 -0.000072 -0.005736 -0.010113
 23 3.525410 -0.419243 0.945132 1.631625 0.008362 0.158532
 24 1.209883 -0.000001 -0.000000 0.003943 0.285298 -0.018611
 25 0.743917 0.000000 -0.000000 -0.001656 0.963273 -0.092843
 26 0.794889 -0.000000 -0.000000 -0.000005 0.704556 -0.000608
 27 3.414727 -0.449901 0.223652 1.656016 0.086751 0.789677
 28 1.390921 -0.000001 0.000000 -0.004769 1.284870 -0.018048
 29 0.906346 0.000000 0.000000 0.006062 -0.433839 0.045570
 30 0.776324 -0.000001 -0.000000 0.001079 0.866577 0.033798
 31 3.289557 -0.311000 -0.505976 1.664984 0.015731 0.920761
 32 1.262952 -0.000000 0.000000 0.410301 1.354679 0.453063
 33 0.919429 -0.000000 0.000000 -0.052499 -0.297525 0.013980
 34 0.803004 -0.000001 -0.000001 -0.163064 1.145489 -1.117549
 35 3.167419 -0.097637 -1.197365 1.820246 -0.117708 1.277629
 36 0.817884 -0.000000 -0.000000 0.142196 1.147469 0.122418
 37 0.708995 -0.000000 0.000000 -0.039911 -0.253101 0.086949
 38 0.794784 -0.000000 -0.000000 -1.042950 1.141227 -1.966856
 39 -0.750750 -6.357806 -10.259454 -0.911424 0.000000 0.000000
 40 0.000000 0.000000 0.000001 -1.241329 0.100396 0.527143
 41 8.403363 0.000000 -0.000001 0.000000 2.672770 0.000000
 42 8.136637 -0.000007 0.000003 1.704255 0.167528 0.483565
 43 1.369793 -0.361443 1.237272 -1.192696 -0.390060 -0.215290
 44 1.320668 0.000001 -0.000001 -0.218662 -0.109509 0.185068
 45 1.066023 -0.000001 0.000000 -0.025949 -0.111735 0.158666
 46 3.289558 0.311000 -0.505977 -1.655749 -0.038571 -1.117383
 47 1.262953 0.000000 -0.000002 0.275331 1.890033 0.211471
 48 0.919429 0.000001 -0.000001 -0.178916 1.857550 -0.170047
 49 3.167421 0.097637 -1.197365 -1.542174 -0.127050 -0.960505
 50 0.817882 -0.000000 -0.000001 0.244589 1.809881 0.245770
 51 0.708994 0.000002 -0.000000 0.181067 1.354604 0.099989
 52 3.414728 0.449901 0.223653 -1.704884 -0.041925 -1.025114
 53 1.390922 0.000002 -0.000000 0.005510 2.077791 0.018246
 54 0.906348 0.000000 0.000001 -0.006062 1.435263 -0.045570
 55 2.457049 0.024849 0.014094 0.000073 -0.005736 0.010114
 56 3.525410 0.419242 0.945132 -1.452791 -0.127226 -0.781254
 57 1.209882 -0.000002 -0.000001 -0.003943 1.344267 0.018610
 58 0.743919 0.000000 0.000000 0.001656 1.082738 0.092843
 59 8.136639 -0.000000 -0.000002 1.570797 -0.032533 -0.000001
 60 -4.809339 -10.080235 -4.192953 -1.559963 -0.342894 1.685353
 61 0.008386 -0.048311 -0.069476 0.000000 -0.000000 -0.000000
time 5
  0 -5.972009 -10.217499 -0.139997 -1.010440 -0.588518 -0.002659
  1 0.250197 -3.917488 -0.099873 0.000000 0.000000 0.000000
  2 0.337618 4.930949 0.877139 0.000000 0.000000 0.000000
  3 0.249743 5.375676 -0.431248 0.000000 0.000000 0.000000
  4 -0.501675 5.358536 -4.726418 -0.200248 0.187020 -0.084478
  5 0.241867 9.046291 0.896506 0.000000 0.000000 0.000000
  6 0.000303 8.159075 -1.557893 0.000000 0.000000 0.000000
  7 0.246663 7.851890 -0.926848 0.000000 0.000000 0.000000
  8 -2.477793 12.401383 4.136673 0.000000 0.000000 0.000000
  9 0.000000 -0.000000 0.000000 0.000000 0.000000 0.000000
 10 0.000000 -15.653315 -6.600977 0.000000 0.000000 0.000000
 11 1.142310 -10.879938 -9.892978 -0.723912 -0.525524 -0.610153
 12 0.000000 -0.000000 0.000000 0.000000 0.000000 0.000000
 13 -9.259155 0.805164 -5.542013 0.000000 -1.547455 0.000000
 14 -0.000000 0.000000 -0.000000 1.298547 0.278302 -2.227829
 15 8.403361 0.000000 -0.000000 0.000000 1.541482 0.000000
 16 8.136638 -0.000001 -0.000001 -1.570796 -0.032553 -0.000000
 17 8.136637 0.000008 0.000006 -1.761121 0.370113 0.136334
 18 1.369794 0.361443 1.237272 1.175075 -0.347333 0.479992
 19 1.320668 -0.000000 0.000000 0.201328 -0.139079 -0.045485
 20 1.066025 -0.000000 -0.000000 -0.014471 -0.113783 0.196807
 21 1.039343 -0.000001 0.000000 1.325745 0.991426 2.013611
 22 2.457049 -0.024848 0.014094 -0.000072 -0.005736 -0.010113
 23 3.525409 -0.419243 0.945132 1.631625 0.008362 0.158532
 24 1.209883 -0.000000 -0.000000 0.003943 0.285298 -0.018611
 25 0.743917 0.000000 0.000000 -0.001656 0.963273 -0.092843
 26 0.794889 -0.000000 0.000000 -0.000005 0.704556 -0.000608
 27 3.414728 -0.449902 0.223653 1.656016 0.086751 0.789677
 28 1.390921 -0.000000 0.000000 -0.004769 1.284870 -0.018048
 29 0.906346 0.000000 0.000000 0.006062 -0.433839 0.045570
 30 0.776324 -0.000000 -0.000000 0.001079 0.866577 0.033798
 31 3.289557 -0.311001 -0.505976 1.664984 0.015731 0.920761
 32 1.262953 -0.000000 0.000000 0.410302 1.354679 0.453063
 33 0.919429 -0.000000 -0.000000 -0.052499 -0.297525 0.013980
 34 0.803003 -0.000000 -0.000001 -0.163064 1.145489 -1.117549
 35 3.167419 -0.097637 -1.197365 1.820246 -0.117708 1.277628
 36 0.817884 -0.000000 -0.000000 0.142196 1.147469 0.122418
 37 0.708995 -0.000000 0.000000 -0.039911 -0.253101 0.086949
 38 0.794783 -0.000001 -0.000000 -1.042950 1.141227 -1.966856
 39 -0.687845 -10.786184 -13.001513 -1.018374 0.000000 0.000000
 40 0.000000 0.000001 0.000002 -1.998637 -0.124133 0.331369
 41 8.403363 0.000001 -0.000001 -0.000000 2.701179 -0.000000
 42 8.136636 -0.000007 0.000003 0.970524 0.040002 0.115619
 43 1.369793 -0.361443 1.237272 -1.192696 -0.390060 -0.215290
 44 1.320668 0.000001 -0.000001 -0.218662 -0.109509 0.185068
 45 1.066023 -0.000001 0.000000 -0.025949 -0.111735 0.158666
 46 3.289559 0.311000 -0.505976 -1.655749 -0.038571 -1.117383
 47 1.262953 -0.000000 -0.000001 0.275331 1.890033 0.211470
 48 0.919429 0.000002 -0.000000 -0.178916 1.857550 -0.170047
 49 3.167421 0.097637 -1.197364 -1.542174 -0.127050 -0.960505
 50 0.817882 -0.000000 -0.000001 0.244590 1.809881 0.245770
 51 0.708995 0.000002 -0.000000 0.181067 1.354603 0.099989
 52 3.414729 0.449901 0.223653 -1.704884 -0.041925 -1.025114
 53 1.390922 0.000001 -0.000001 0.005510 2.077791 0.018246
 54 0.906347 -0.000000 0.000000 -0.006062 1.435263 -0.045571
 55 2.457049 0.024849 0.014095 0.000073 -0.005736 0.010114
 56 3.525410 0.419242 0.945132 -1.452791 -0.127226 -0.781254
 57 1.209882 -0.000002 -0.000001 -0.003943 1.344267 0.018610
 58 0.743920 0.000000 0.000000 0.001656 1.082738 0.092843
 59 8.136640 0.000000 -0.000002 1.570797 -0.032533 -0.000000
 60 -4.819334 -10.082678 -4.199559 -1.553975 -0.343540 1.681207
 61 0.008386 -0.048311 -0.069476 -0.000000 0.000000 -0.000000
time 6
  0 -5.958835 -10.217499 -0.139997 -1.010440 -0.582334 -0.005184
  1 0.250197 -3.917488 -0.099873 0.000000 0.000000 0.000000
  2 0.337618 4.930949 0.877138 0.000000 0.000000 0.000000
  3 0.249743 5.375675 -0.431248 0.000000 0.000000 0.000000
  4 -0.427326 4.829955 -4.016972 -0.756423 0.033759 0.144281
  5 0.241867 9.046291 0.896506 0.000000 0.000000 0.000000
  6 0.000304 8.159075 -1.557892 0.000000 0.000000 0.000000
  7 0.246663 7.851889 -0.926848 0.000000 0.000000 0.000000
  8 -2.477793 12.401383 4.136672 0.000000 0.000000 0.000000
  9 -0.000000 -0.000000 0.000000 0.000000 0.000000 0.000000
 10 0.000000 -15.653315 -6.600977 0.000000 0.000000 0.000000
 11 0.069774 -13.115701 -9.236458 -1.484549 -0.641779 -0.241467
 12 0.000000 0.000000 0.000000 0.000000 0.000000 0.000000
 13 -9.259155 0.805164 -5.542013 0.000000 -1.547455 0.000000
 14 -0.000000 0.000000 -0.000000 1.299180 0.277594 -2.228582
 15 8.403361 0.000001 -0.000001 -0.000000 1.541908 -0.000000
 16 8.136638 -0.000001 0.000000 -1.570796 -0.032553 0.000000
 17 8.136637 0.000008 0.000006 -1.766647 0.368733 0.130440
 18 1.369795 0.361444 1.237272 1.175074 -0.347333 0.479992
 19 1.320667 -0.000001 -0.000001 0.201328 -0.139079 -0.045485
 20 1.066025 0.000000 -0.000000 -0.014471 -0.113783 0.196807
 21 1.039344 -0.000002 0.000000 1.325745 0.991426 2.013611
 22 2.457049 -0.024848 0.014094 -0.000072 -0.005736 -0.010113
 23 3.525410 -0.419243 0.945132 1.631625 0.008362 0.158532
 24 1.209883 -0.000001 -0.000000 0.003943 0.285298 -0.018611
 25 0.743917 0.000000 0.000000 -0.001656 0.963273 -0.092843
 26 0.794889 0.000000 0.000000 -0.000005 0.704556 -0.000608
 27 3.414728 -0.449902 0.223652 1.656016 0.086751 0.789677
 28 1.390921 -0.000001 0.000000 -0.004769 1.284870 -0.018048
 29 0.906346 0.000000 0.000000 0.006062 -0.433839 0.045570
 30 0.776325 -0.000000 -0.000000 0.001079 0.866577 0.033798
 31 3.289557 -0.311001 -0.505976 1.664984 0.015731 0.920761
 32 1.262953 -0.000000 -0.000000 0.410302 1.354679 0.453063
 33 0.919429 0.000000 0.000000 -0.052499 -0.297525 0.013980
 34 0.803004 -0.000000 -0.000001 -0.163064 1.145489 -1.117549
 35 3.167419 -0.097637 -1.197365 1.820246 -0.117708 1.277629
 36 0.817884 -0.000000 0.000000 0.142196 1.147469 0.122418
 37 0.708995 -0.000000 -0.000000 -0.039911 -0.253101 0.086949
 38 0.794783 -0.000000 -0.000001 -1.042950 1.141227 -1.966856
 39 -0.635140 -14.156770 -15.298914 -1.090047 0.000000 0.000000
 40 0.000000 -0.000000 0.000000 -2.172854 -0.249880 -0.202383
 41 8.403363 0.000000 -0.000002 0.000000 2.374729 0.000000
 42 8.136636 -0.000008 0.000003 1.209623 -0.418438 0.006673
 43 1.369792 -0.361443 1.237272 -1.192696 -0.390060 -0.215290
 44 1.320668 0.000002 -0.000001 -0.218662 -0.109509 0.185068
 45 1.066023 -0.000001 0.000000 -0.025949 -0.111735 0.158666
 46 3.289558 0.311001 -0.505976 -1.655749 -0.038571 -1.117383
 47 1.262953 0.000000 -0.000001 0.275332 1.890033 0.211471
 48 0.919429 0.000002 -0.000000 -0.178916 1.857550 -0.170047
 49 3.167420 0.097637 -1.197364 -1.542174 -0.127050 -0.960505
 50 0.817882 0.000000 -0.000001 0.244589 1.809881 0.245770
 51 0.708994 0.000003 -0.000000 0.181067 1.354604 0.099990
 52 3.414728 0.449902 0.223654 -1.704884 -0.041925 -1.025114
 53 1.390922 0.000002 -0.000001 0.005510 2.077791 0.018246
 54 0.906347 -0.000000 0.000000 -0.006062 1.435263 -0.045570
 55 2.457049 0.024849 0.014095 0.000073 -0.005736 0.010114
 56 3.525410 0.419243 0.945133 -1.452791 -0.127226 -0.781254
 57 1.209882 -0.000002 -0.000001 -0.003943 1.344267 0.018610
 58 0.743920 -0.000000 0.000000 0.001656 1.082738 0.092843
 59 8.136641 0.000001 -0.000001 1.570797 -0.032533 -0.000000
 60 -4.830948 -10.085458 -4.206606 -1.547448 -0.344231 1.676482
 61 0.008386 -0.048311 -0.069475 0.000000 0.000000 -0.000000
time 7
  0 -5.946098 -10.217499 -0.139997 -1.010440 -0.575917 -0.008074
  1 0.250197 -3.917488 -0.099873 0.000000 0.000000 0.000000
  2 0.337618 4.930949 0.877138 0.000000 0.000000 0.000000
  3 0.249743 5.375676 -0.431248 0.000000 0.000000 0.000000
  4 -0.323012 4.389788 -3.046911 -1.027365 -0.086021 0.267459
  5 0.241868 9.046291 0.896506 0.000000 0.000000 0.000000
  6 0.000303 8.159075 -1.557893 0.000000 0.000000 0.000000
  7 0.246663 7.851890 -0.926848 0.000000 0.000000 0.000000
  8 -2.477793 12.401383 4.136672 0.000000 0.000000 0.000000
  9 -0.000000 -0.000000 0.000000 0.000000 0.000000 0.000000
 10 0.000000 -15.653315 -6.600977 0.000000 0.000000 0.000000
 11 -0.297656 -13.460845 -7.700742 -1.881088 -0.659292 0.039408
 12 -0.000000 -0.000000 0.000000 0.000000 0.000000 0.000000
 13 -9.259155 0.805164 -5.542013 0.000000 -1.547455 0.000000
 14 -0.000000 0.000000 -0.000000 1.299893 0.276799 -2.229349
 15 8.403363 0.000000 -0.000001 -0.000000 1.542378 -0.000000
 16 8.136637 -0.000001 0.000001 -1.570796 -0.032553 0.000000
 17 8.136636 0.000008 0.000006 -1.772533 0.367234 0.124395
 18 1.369794 0.361444 1.237272 1.175074 -0.347333 0.479992
 19 1.320668 -0.000000 -0.000000 0.201328 -0.139079 -0.045485
 20 1.066025 0.000001 -0.000000 -0.014471 -0.113783 0.196807
 21 1.039344 -0.000001 0.000000 1.325744 0.991426 2.013611
 22 2.457049 -0.024848 0.014095 -0.000072 -0.005736 -0.010113
 23 3.525410 -0.419244 0.945132 1.631625 0.008362 0.158532
 24 1.209883 -0.000000 0.000000 0.003943 0.285298 -0.018611
 25 0.743917 0.000001 0.000000 -0.001656 0.963273 -0.092843
 26 0.794889 0.000000 0.000000 -0.000005 0.704556 -0.000608
 27 3.414728 -0.449902 0.223652 1.656016 0.086751 0.789677
 28 1.390921 -0.000001 -0.000000 -0.004769 1.284870 -0.018048
 29 0.906346 0.000000 0.000000 0.006062 -0.433839 0.045570
 30 0.776324 0.000000 -0.000000 0.001079 0.866577 0.033798
 31 3.289557 -0.311001 -0.505976 1.664984 0.015731 0.920761
 32 1.262953 -0.000001 -0.000000 0.410302 1.354679 0.453063
 33 0.919429 0.000000 0.000000 -0.052499 -0.297525 0.013980
 34 0.803004 -0.000001 -0.000001 -0.163064 1.145489 -1.117549
 35 3.167419 -0.097638 -1.197365 1.820246 -0.117708 1.277629
 36 0.817884 -0.000000 0.000000 0.142196 1.147469 0.122418
 37 0.708995 -0.000000 0.000000 -0.039911 -0.253101 0.086949
 38 0.794783 -0.000000 -0.000000 -1.042950 1.141227 -1.966856
 39 -0.613038 -15.496527 -16.262341 -1.116211 0.000000 0.000000
 40 0.000000 -0.000000 0.000000 -2.170501 -0.359122 -0.428461
 41 8.403363 0.000001 -0.000001 -0.000000 2.018993 -0.000000
 42 8.136636 -0.000007 0.000003 1.479765 -0.310515 -0.125543
 43 1.369793 -0.361443 1.237273 -1.192696 -0.390060 -0.215290
 44 1.320668 0.000001 -0.000001 -0.218662 -0.109509 0.185068
 45 1.066023 -0.000000 0.000000 -0.025949 -0.111735 0.158666
 46 3.289559 0.311001 -0.505975 -1.655749 -0.038571 -1.117383
 47 1.262953 0.000001 -0.000001 0.275332 1.890033 0.211471
 48 0.919429 0.000002 -0.000000 -0.178916 1.857550 -0.170047
 49 3.167420 0.097637 -1.197364 -1.542174 -0.127050 -0.960505
 50 0.817882 0.000000 -0.000001 0.244589 1.809881 0.245770
 51 0.708995 0.000002 0.000000 0.181067 1.354604 0.099989
 52 3.414728 0.449901 0.223654 -1.704884 -0.041925 -1.025114
 53 1.390922 0.000001 -0.000001 0.005510 2.077791 0.018246
 54 0.906347 -0.000000 0.000001 -0.006062 1.435263 -0.045570
 55 2.457049 0.024849 0.014096 0.000073 -0.005736 0.010114
 56 3.525410 0.419243 0.945133 -1.452791 -0.127226 -0.781254
 57 1.209882 -0.000001 -0.000001 -0.003943 1.344267 0.018610
 58 0.743920 -0.000000 -0.000000 0.001656 1.082738 0.092843
 59 8.136640 -0.000000 -0.000002 1.570797 -0.032533 -0.000000
 60 -4.843951 -10.088507 -4.213756 -1.540671 -0.344933 1.671303
 61 0.008385 -0.048311 -0.069476 0.000000 -0.000000 -0.000000
time 8
  0 -5.934671 -10.217499 -0.139997 -1.010440 -0.569542 -0.011300
  1 0.250197 -3.917488 -0.099874 0.000000 -0.000000 -0.000000
  2 0.337618 4.930949 0.877138 0.000000 -0.000000 -0.000000
  3 0.249743 5.375675 -0.431249 0.000000 -0.000000 -0.000000
  4 -0.204769 4.022012 -1.989980 -0.987031 -0.161729 0.220658
  5 0.241868 9.046291 0.896506 0.000000 -0.000000 -0.000000
  6 0.000303 8.159075 -1.557893 0.000000 0.000000 0.000000
  7 0.246663 7.851890 -0.926848 0.000000 -0.000000 -0.000000
  8 -2.477793 12.401383 4.136673 0.000000 -0.000000 -0.000000
  9 -0.000000 0.000000 -0.000000 0.000000 0.000000 0.000000
 10 0.000000 -15.653315 -6.600977 0.000000 0.000000 0.000000
 11 -0.344829 -12.505496 -6.802827 -1.846551 -0.724092 0.071872
 12 -0.000000 -0.000000 0.000000 0.000000 0.000000 0.000000
 13 -9.259155 0.805164 -5.542013 0.000000 -1.547455 0.000000
 14 -0.000000 0.000000 -0.000000 1.300677 0.275930 -2.230097
 15 8.403362 0.000001 -0.000001 -0.000000 1.542878 -0.000000
 16 8.136637 -0.000001 -0.000002 -1.570796 -0.032553 0.000000
 17 8.136637 0.000008 0.000005 -1.778587 0.365677 0.118477
 18 1.369794 0.361443 1.237272 1.175075 -0.347333 0.479992
 19 1.320667 -0.000001 -0.000000 0.201328 -0.139079 -0.045485
 20 1.066025 0.000000 0.000001 -0.014471 -0.113783 0.196807
 21 1.039343 -0.000001 -0.000001 1.325744 0.991426 2.013611
 22 2.457049 -0.024849 0.014094 -0.000072 -0.005736 -0.010113
 23 3.525409 -0.419243 0.945132 1.631625 0.008362 0.158532
 24 1.209883 -0.000001 -0.000000 0.003943 0.285298 -0.018611
 25 0.743917 0.000000 -0.000000 -0.001656 0.963273 -0.092843
 26 0.794890 0.000000 -0.000000 -0.000005 0.704556 -0.000608
 27 3.414728 -0.449902 0.223652 1.656016 0.086751 0.789677
 28 1.390921 -0.000001 0.000000 -0.004769 1.284870 -0.018048
 29 0.906346 0.000001 0.000000 0.006062 -0.433839 0.045570
 30 0.776325 0.000000 -0.000000 0.001079 0.866577 0.033798
 31 3.289557 -0.311002 -0.505976 1.664984 0.015731 0.920761
 32 1.262952 -0.000000 -0.000000 0.410302 1.354679 0.453063
 33 0.919429 0.000000 -0.000000 -0.052499 -0.297525 0.013980
 34 0.803003 -0.000000 -0.000001 -0.163064 1.145489 -1.117549
 35 3.167419 -0.097637 -1.197365 1.820246 -0.117708 1.277629
 36 0.817883 -0.000000 -0.000000 0.142196 1.147469 0.122418
 37 0.708995 -0.000000 0.000000 -0.039911 -0.253101 0.086949
 38 0.794783 -0.000000 -0.000000 -1.042950 1.141227 -1.966856
 39 -0.613038 -15.496527 -16.262341 -1.116211 0.000000 0.000000
 40 0.000000 -0.000000 0.000000 -2.213471 -0.439257 -0.479249
 41 8.403364 0.000000 -0.000002 0.000000 1.854797 0.000000
 42 8.136636 -0.000008 0.000003 1.406480 -0.159586 -0.017843
 43 1.369793 -0.361443 1.237272 -1.192696 -0.390060 -0.215290
 44 1.320668 0.000001 -0.000000 -0.218662 -0.109509 0.185068
 45 1.066022 -0.000000 -0.000000 -0.025949 -0.111735 0.158666
 46 3.289558 0.311001 -0.505976 -1.655749 -0.038571 -1.117383
 47 1.262953 -0.000000 -0.000001 0.275332 1.890033 0.211471
 48 0.919429 0.000002 -0.000000 -0.178916 1.857550 -0.170047
 49 3.167420 0.097637 -1.197364 -1.542174 -0.127050 -0.960505
 50 0.817882 -0.000000 -0.000001 0.244589 1.809881 0.245770
 51 0.708994 0.000002 0.000000 0.181067 1.354604 0.099989
 52 3.414728 0.449902 0.223654 -1.704884 -0.041925 -1.025114
 53 1.390922 0.000002 -0.000001 0.005510 2.077791 0.018246
 54 0.906347 0.000000 0.000001 -0.006062 1.435263 -0.045570
 55 2.457048 0.024849 0.014095 0.000073 -0.005736 0.010114
 56 3.525409 0.419243 0.945133 -1.452791 -0.127226 -0.781254
 57 1.209882 -0.000002 -0.000001 -0.003943 1.344267 0.018610
 58 0.743920 -0.000000 0.000000 0.001656 1.082738 0.092843
 59 8.136640 -0.000000 -0.000002 1.570797 -0.032533 -0.000000
 60 -4.858104 -10.091769 -4.220692 -1.533936 -0.345617 1.665797
 61 0.008385 -0.048311 -0.069476 0.000000 -0.000000 -0.000000
time 9
  0 -5.925427 -10.217499 -0.139997 -1.010440 -0.563484 -0.014834
  1 0.250197 -3.917488 -0.099873 0.000000 0.000000 -0.000000
  2 0.337618 4.930949 0.877138 0.000000 0.000000 -0.000000
  3 0.249743 5.375675 -0.431249 0.000000 0.000000 -0.000000
  4 -0.088634 3.710608 -1.019920 -0.891873 -0.219635 0.117694
  5 0.241868 9.046291 0.896506 0.000000 0.000000 -0.000000
  6 0.000304 8.159075 -1.557893 0.000000 0.000000 0.000000
  7 0.246663 7.851890 -0.926848 0.000000 0.000000 -0.000000
  8 -2.477793 12.401383 4.136672 0.000000 0.000000 -0.000000
  9 -0.000000 0.000000 0.000000 0.000000 0.000000 0.000000
 10 0.000000 -15.653315 -6.600977 0.000000 0.000000 0.000000
 11 -0.302864 -11.563905 -6.280306 -1.660675 -0.791541 0.003340
 12 0.000000 0.000000 0.000000 0.000000 0.000000 0.000000
 13 -9.259155 0.805164 -5.542013 0.000000 -1.547455 0.000000
 14 -0.000000 0.000000 -0.000000 1.301519 0.275002 -2.230794
 15 8.403362 0.000001 -0.000000 -0.000000 1.543393 -0.000000
 16 8.136638 -0.000002 -0.000001 -1.570796 -0.032553 -0.000000
 17 8.136637 0.000008 0.000005 -1.784616 0.364126 0.112962
 18 1.369794 0.361443 1.237272 1.175075 -0.347333 0.479992
 19 1.320668 -0.000000 -0.000000 0.201328 -0.139079 -0.045485
 20 1.066025 0.000000 -0.000001 -0.014471 -0.113783 0.196807
 21 1.039344 -0.000001 -0.000001 1.325744 0.991426 2.013611
 22 2.457049 -0.024849 0.014095 -0.000072 -0.005736 -0.010113
 23 3.525410 -0.419244 0.945132 1.631625 0.008362 0.158532
 24 1.209883 -0.000000 0.000001 0.003943 0.285298 -0.018611
 25 0.743917 0.000000 0.000000 -0.001656 0.963273 -0.092843
 26 0.794890 -0.000000 -0.000000 -0.000005 0.704556 -0.000608
 27 3.414728 -0.449902 0.223653 1.656016 0.086751 0.789677
 28 1.390921 -0.000000 0.000001 -0.004769 1.284870 -0.018048
 29 0.906347 0.000000 0.000000 0.006062 -0.433839 0.045570
 30 0.776325 -0.000000 -0.000000 0.001079 0.866577 0.033798
 31 3.289557 -0.311002 -0.505976 1.664984 0.015731 0.920761
 32 1.262952 -0.000000 0.000000 0.410301 1.354679 0.453063
 33 0.919429 0.000000 0.000000 -0.052499 -0.297525 0.013980
 34 0.803004 -0.000001 -0.000001 -0.163064 1.145489 -1.117549
 35 3.167419 -0.097637 -1.197365 1.820246 -0.117708 1.277629
 36 0.817884 0.000000 0.000000 0.142196 1.147469 0.122418
 37 0.708995 -0.000000 0.000000 -0.039911 -0.253101 0.086949
 38 0.794783 -0.000000 -0.000001 -1.042950 1.141227 -1.966856
 39 -0.613038 -15.496527 -16.262341 -1.116211 0.000000 0.000000
 40 0.000000 -0.000000 0.000000 -2.256088 -0.511083 -0.496401
 41 8.403364 -0.000001 -0.000000 0.000000 1.729291 0.000000
 42 8.136636 -0.000007 0.000003 1.276516 0.000316 0.144641
 43 1.369793 -0.361443 1.237271 -1.182288 -0.401646 -0.207433
 44 1.320668 0.000002 0.000000 -0.215436 -0.114066 0.162183
 45 1.066022 -0.000000 0.000000 -0.021030 -0.111410 0.114970
 46 3.289559 0.311001 -0.505976 -1.655749 -0.038571 -1.117383
 47 1.262953 0.000000 -0.000001 0.275332 1.890033 0.211471
 48 0.919429 0.000001 -0.000001 -0.178916 1.857550 -0.170047
 49 3.167420 0.097637 -1.197364 -1.542174 -0.127050 -0.960505
 50 0.817882 -0.000000 -0.000001 0.244589 1.809881 0.245770
 51 0.708995 0.000002 -0.000000 0.181067 1.354604 0.099989
 52 3.414728 0.449901 0.223653 -1.704884 -0.041925 -1.025114
 53 1.390922 0.000002 -0.000000 0.005510 2.077791 0.018246
 54 0.906347 -0.000000 0.000000 -0.006062 1.435263 -0.045570
 55 2.457049 0.024849 0.014095 0.000073 -0.005736 0.010114
 56 3.525410 0.419242 0.945132 -1.452791 -0.127226 -0.781254
 57 1.209882 -0.000002 -0.000001 -0.003943 1.344267 0.018610
 58 0.743920 -0.000000 0.000000 0.001656 1.082738 0.092843
 59 8.136640 0.000000 -0.000002 1.570797 -0.032533 -0.000000
 60 -4.873161 -10.095207 -4.227130 -1.527532 -0.346253 1.660092
 61 0.008386 -0.048311 -0.069476 -0.000000 0.000000 -0.000000
time 10
  0 -5.919241 -10.217499 -0.139997 -1.010440 -0.558017 -0.018646
  1 0.250197 -3.917488 -0.099874 0.000000 0.000000 0.000000
  2 0.337617 4.930949 0.877138 0.000000 0.000000 0.000000
  3 0.249742 5.375675 -0.431248 -0.188753 0.000000 0.000000
  4 0.009357 3.439557 -0.310472 -0.780663 -0.256646 0.014730
  5 0.241867 9.046291 0.896507 0.000000 0.000000 0.000000
  6 0.000302 8.159075 -1.557893 0.000000 0.000000 0.000000
  7 0.246663 7.851890 -0.926848 0.000000 0.000000 0.000000
  8 -2.477793 12.401383 4.136673 0.000000 0.000000 0.000000
  9 0.000000 -0.000000 0.000000 0.000000 0.000000 0.000000
 10 0.000000 -15.653315 -6.600977 0.000000 0.000000 0.000000
 11 -0.181065 -10.801718 -6.190638 -1.371987 -0.806351 -0.115826
 12 0.000000 -0.000000 -0.000000 0.000000 0.000000 0.000000
 13 -9.259155 0.805164 -5.542013 0.000000 -1.547455 0.000000
 14 -0.000000 0.000000 -0.000000 1.302410 0.274030 -2.231408
 15 8.403362 0.000001 -0.000001 -0.000000 1.543902 -0.000000
 16 8.136638 -0.000001 -0.000000 -1.570796 -0.032553 0.000000
 17 8.136637 0.000008 0.000005 -1.790430 0.362660 0.108122
 18 1.369795 0.361443 1.237272 1.175074 -0.347333 0.479992
 19 1.320668 -0.000001 -0.000000 0.201328 -0.139079 -0.045485
 20 1.066025 -0.000000 0.000001 -0.014471 -0.113783 0.196807
 21 1.039344 -0.000001 0.000000 1.325744 0.991426 2.013611
 22 2.457049 -0.024849 0.014094 -0.000072 -0.005736 -0.010113
 23 3.525410 -0.419243 0.945132 1.631625 0.008362 0.158532
 24 1.209883 -0.000001 0.000000 0.003943 0.285298 -0.018611
 25 0.743917 -0.000000 0.000001 -0.001656 0.963273 -0.092843
 26 0.794889 -0.000000 -0.000000 -0.000005 0.704556 -0.000608
 27 3.414728 -0.449902 0.223652 1.656016 0.086751 0.789677
 28 1.390921 -0.000000 0.000001 -0.004769 1.284870 -0.018048
 29 0.906346 0.000000 0.000000 0.006062 -0.433839 0.045570
 30 0.776325 0.000000 -0.000000 0.001079 0.866577 0.033798
 31 3.289557 -0.311001 -0.505976 1.664984 0.015731 0.920761
 32 1.262953 -0.000000 -0.000000 0.410302 1.354679 0.453063
 33 0.919430 0.000000 0.000000 -0.052499 -0.297525 0.013980
 34 0.803003 -0.000001 -0.000001 -0.163064 1.145489 -1.117549
 35 3.167419 -0.097637 -1.197365 1.820246 -0.117708 1.277629
 36 0.817883 -0.000000 -0.000000 0.142196 1.147469 0.122418
 37 0.708995 0.000000 -0.000000 -0.039911 -0.253101 0.086949
 38 0.794784 -0.000000 -0.000001 -1.042950 1.141227 -1.966855
 39 -0.613038 -15.496527 -16.262341 -1.116211 0.000000 0.000000
 40 0.000000 -0.000000 0.000000 -2.302969 -0.561497 -0.473056
 41 8.403364 -0.000001 -0.000001 -0.000000 1.667097 -0.000000
 42 8.136636 -0.000007 0.000004 1.154536 0.145353 0.349792
 43 1.369793 -0.361442 1.237272 -1.156267 -0.430611 -0.187792
 44 1.320668 0.000002 -0.000001 -0.207370 -0.125458 0.104972
 45 1.066023 -0.000000 0.000000 -0.008733 -0.110599 0.005732
 46 3.289559 0.311001 -0.505977 -1.655749 -0.038571 -1.117383
 47 1.262953 0.000001 -0.000001 0.275332 1.890033 0.211471
 48 0.919429 0.000002 -0.000000 -0.178916 1.857550 -0.170047
 49 3.167420 0.097637 -1.197365 -1.542174 -0.127050 -0.960505
 50 0.817882 -0.000000 -0.000001 0.244589 1.809881 0.245770
 51 0.708995 0.000002 0.000000 0.181067 1.354603 0.099989
 52 3.414728 0.449902 0.223654 -1.704884 -0.041925 -1.025114
 53 1.390922 0.000001 -0.000001 0.005510 2.077791 0.018246
 54 0.906347 -0.000000 0.000001 -0.006062 1.435263 -0.045570
 55 2.457049 0.024849 0.014095 0.000073 -0.005736 0.010114
 56 3.525410 0.419243 0.945131 -1.452791 -0.127226 -0.781254
 57 1.209882 -0.000001 -0.000001 -0.003943 1.344267 0.018610
 58 0.743920 -0.000000 0.000000 0.001656 1.082738 0.092843
 59 8.136641 0.000000 -0.000002 1.570797 -0.032533 -0.000000
 60 -4.888871 -10.098803 -4.232811 -1.521750 -0.346816 1.654316
 61 0.008386 -0.048311 -0.069476 0.000000 -0.000000 -0.000000
time 11
  0 -5.916985 -10.217499 -0.139997 -1.010440 -0.553417 -0.022707
  1 0.250197 -3.917488 -0.099873 0.000000 -0.000000 0.000000
  2 0.337618 4.930949 0.877138 0.000000 -0.000000 0.000000
  3 0.249743 5.375675 -0.431248 -0.377505 0.000000 0.000000
  4 0.073168 3.192837 -0.035380 -0.692171 -0.269671 -0.032072
  5 0.241868 9.046291 0.896506 0.000000 -0.000000 0.000000
  6 0.000304 8.159075 -1.557892 0.000000 0.000000 0.000000
  7 0.246663 7.851889 -0.926848 0.000000 -0.000000 0.000000
  8 -2.477793 12.401383 4.136672 0.000000 -0.000000 0.000000
  9 -0.000000 0.000000 0.000000 0.000000 0.000000 0.000000
 10 0.000000 -15.653315 -6.600977 0.000000 0.000000 0.000000
 11 -0.199987 -10.332559 -6.271426 -1.137730 -0.769469 -0.193234
 12 -0.000000 -0.000000 -0.000000 0.000000 0.000000 0.000000
 13 -9.259155 0.805164 -5.542013 0.000000 -1.547455 0.000000
 14 -0.000000 0.000000 -0.000000 1.303338 0.273028 -2.231909
 15 8.403363 0.000001 -0.000001 0.000000 1.544385 0.000000
 16 8.136638 -0.000001 -0.000000 -1.570796 -0.032553 0.000000
 17 8.136637 0.000008 0.000006 -1.795845 0.361367 0.104223
 18 1.369795 0.361443 1.237272 1.175074 -0.347333 0.479992
 19 1.320668 -0.000000 -0.000000 0.201328 -0.139079 -0.045485
 20 1.066025 -0.000000 -0.000001 -0.014471 -0.113783 0.196807
 21 1.039343 -0.000002 0.000001 1.325745 0.991426 2.013611
 22 2.457049 -0.024849 0.014095 -0.000072 -0.005736 -0.010113
 23 3.525410 -0.419243 0.945132 1.631625 0.008362 0.158532
 24 1.209883 -0.000001 0.000001 0.003943 0.285298 -0.018611
 25 0.743917 0.000000 0.000001 -0.001656 0.963273 -0.092843
 26 0.794889 -0.000000 0.000000 -0.000005 0.704556 -0.000608
 27 3.414728 -0.449902 0.223652 1.656016 0.086751 0.789677
 28 1.390921 -0.000000 0.000001 -0.004769 1.284870 -0.018048
 29 0.906346 0.000000 0.000000 0.006062 -0.433839 0.045570
 30 0.776324 -0.000000 0.000000 0.001079 0.866577 0.033798
 31 3.289557 -0.311001 -0.505976 1.664984 0.015731 0.920761
 32 1.262953 -0.000001 0.000000 0.410302 1.354679 0.453063
 33 0.919429 -0.000000 0.000000 -0.052499 -0.297525 0.013980
 34 0.803004 -0.000001 -0.000001 -0.163064 1.145489 -1.117549
 35 3.167419 -0.097638 -1.197365 1.820246 -0.117708 1.277629
 36 0.817884 -0.000000 -0.000000 0.142196 1.147469 0.122418
 37 0.708995 -0.000000 0.000000 -0.039911 -0.253101 0.086949
 38 0.794784 -0.000001 -0.000001 -1.042950 1.141227 -1.966856
 39 -0.613038 -15.496527 -16.262341 -1.116211 0.000000 0.000000
 40 0.000000 -0.000000 0.000000 -2.340025 -0.589343 -0.459658
 41 8.403362 0.000001 -0.000001 -0.000000 1.645077 -0.000000
 42 8.136636 -0.000008 0.000004 1.090852 0.229171 0.542053
 43 1.369793 -0.361443 1.237272 -1.122441 -0.468265 -0.162258
 44 1.320668 0.000001 -0.000000 -0.196885 -0.140268 0.030597
 45 1.066023 -0.000000 0.000000 0.007253 -0.109545 -0.136278
 46 3.289558 0.311001 -0.505977 -1.655749 -0.038571 -1.117383
 47 1.262953 -0.000001 -0.000001 0.275332 1.890033 0.211471
 48 0.919428 0.000002 -0.000001 -0.178915 1.857550 -0.170047
 49 3.167420 0.097637 -1.197365 -1.542174 -0.127050 -0.960505
 50 0.817882 0.000000 -0.000001 0.244589 1.809881 0.245770
 51 0.708995 0.000002 0.000000 0.181067 1.354604 0.099989
 52 3.414728 0.449902 0.223653 -1.704884 -0.041925 -1.025114
 53 1.390922 0.000001 -0.000001 0.005510 2.077791 0.018246
 54 0.906347 -0.000000 0.000001 -0.006062 1.435263 -0.045571
 55 2.457048 0.024849 0.014094 0.000073 -0.005736 0.010114
 56 3.525409 0.419243 0.945132 -1.452791 -0.127226 -0.781254
 57 1.209882 -0.000002 -0.000001 -0.003943 1.344267 0.018610
 58 0.743920 0.000000 0.000000 0.001656 1.082738 0.092843
 59 8.136640 -0.000001 -0.000001 1.570797 -0.032533 -0.000001
 60 -4.904974 -10.102561 -4.237496 -1.516883 -0.347281 1.648599
 61 0.008386 -0.048311 -0.069476 0.000000 -0.000000 -0.000000
time 12
  0 -5.916985 -10.217499 -0.139997 -0.986500 -0.549839 -0.030756
  1 0.250197 -3.917488 -0.099873 -0.000000 0.000000 0.000000
  2 0.337618 4.930949 0.877138 -0.000000 0.000000 0.000000
  3 0.249742 5.375675 -0.431248 -0.294960 -0.000000 -0.000000
  4 0.111534 2.956645 -0.036242 -0.624597 -0.264364 -0.031441
  5 0.241867 9.046291 0.896507 -0.000000 0.000000 0.000000
  6 0.000303 8.159075 -1.557893 0.000000 0.000000 0.000000
  7 0.246663 7.851890 -0.926848 -0.000000 0.000000 0.000000
  8 -2.477794 12.401384 4.136673 -0.000000 0.000000 0.000000
  9 -0.000000 -0.000000 -0.000000 0.000000 0.000000 0.000000
 10 0.000000 -15.653315 -6.600977 0.000000 0.000000 0.000000
 11 -0.470650 -9.764477 -6.342563 -0.927012 -0.707720 -0.247757
 12 -0.000000 0.000000 -0.000000 0.000000 0.000000 0.000000
 13 -9.259155 0.805164 -5.542013 0.000000 -1.547455 0.000000
 14 -0.000000 0.000000 -0.000000 1.300127 0.272324 -2.238401
 15 8.403363 0.000002 -0.000001 -0.000001 1.559195 -0.000001
 16 8.136638 -0.000001 -0.000001 -1.570796 -0.032553 0.000000
 17 8.136637 0.000007 0.000004 -1.792021 0.332452 0.107093
 18 1.369795 0.361443 1.237272 1.175074 -0.347333 0.479992
 19 1.320668 -0.000001 0.000000 0.201328 -0.139079 -0.045485
 20 1.066025 0.000000 -0.000000 -0.014471 -0.113783 0.196807
 21 1.039343 -0.000002 0.000001 1.325744 0.991426 2.013611
 22 2.457049 -0.024849 0.014095 -0.000072 -0.005736 -0.010113
 23 3.525410 -0.419244 0.945132 1.631625 0.008362 0.158532
 24 1.209883 -0.000001 0.000001 0.003943 0.285298 -0.018611
 25 0.743917 0.000000 0.000000 -0.001656 0.963273 -0.092843
 26 0.794889 -0.000000 0.000000 -0.000005 0.704556 -0.000608
 27 3.414728 -0.449902 0.223653 1.656016 0.086751 0.789677
 28 1.390921 -0.000001 0.000000 -0.004769 1.284870 -0.018048
 29 0.906345 0.000000 0.000000 0.006062 -0.433838 0.045570
 30 0.776325 -0.000000 -0.000000 0.001079 0.866577 0.033798
 31 3.289557 -0.311002 -0.505976 1.664984 0.015731 0.920761
 32 1.262952 -0.000001 -0.000000 0.410302 1.354679 0.453063
 33 0.919430 -0.000000 0.000000 -0.052499 -0.297525 0.013980
 34 0.803003 -0.000000 -0.000001 -0.163064 1.145489 -1.117549
 35 3.167419 -0.097638 -1.197365 1.820246 -0.117708 1.277628
 36 0.817884 -0.000000 -0.000000 0.142196 1.147469 0.122418
 37 0.708995 0.000000 -0.000000 -0.039911 -0.253101 0.086949
 38 0.794784 -0.000000 -0.000000 -1.042950 1.141227 -1.966856
 39 -0.613038 -15.496527 -16.262341 -1.116211 0.000000 0.000000
 40 0.000000 -0.000000 0.000000 -2.382572 -0.624487 -0.484126
 41 8.403363 0.000001 -0.000002 0.000000 1.611012 0.000000
 42 8.136635 -0.000008 0.000004 1.045183 0.287764 0.764638
 43 1.369793 -0.361443 1.237272 -1.088614 -0.505919 -0.136724
 44 1.320668 0.000001 -0.000000 -0.186400 -0.155078 -0.043778
 45 1.066023 0.000000 0.000000 0.023239 -0.108490 -0.278287
 46 3.289559 0.311001 -0.505977 -1.655749 -0.038571 -1.117383
 47 1.262953 0.000000 -0.000001 0.275332 1.890033 0.211471
 48 0.919429 0.000002 -0.000000 -0.178915 1.857550 -0.170047
 49 3.167420 0.097637 -1.197365 -1.542174 -0.127050 -0.960505
 50 0.817882 -0.000000 -0.000001 0.244589 1.809881 0.245770
 51 0.708995 0.000002 0.000000 0.181067 1.354604 0.099989
 52 3.414728 0.449902 0.223653 -1.704884 -0.041925 -1.025114
 53 1.390922 0.000002 -0.000001 0.005510 2.077791 0.018246
 54 0.906347 0.000000 0.000001 -0.006062 1.435263 -0.045570
 55 2.457048 0.024849 0.014095 0.000073 -0.005736 0.010114
 56 3.525410 0.419243 0.945131 -1.452791 -0.127226 -0.781254
 57 1.209881 -0.000001 -0.000001 -0.003943 1.344267 0.018610
 58 0.743920 -0.000001 0.000000 0.001656 1.082738 0.092843
 59 8.136639 -0.000002 -0.000000 1.570797 -0.032533 -0.000001
 60 -4.918113 -10.014132 -4.237286 -1.515400 -0.367935 1.652578
 61 0.008386 -0.048311 -0.069476 0.000000 -0.000000 -0.000000
time 13
  0 -5.916985 -10.217499 -0.139997 -0.933832 -0.547265 -0.043033
  1 0.250197 -3.917488 -0.099874 0.000000 0.000000 0.000000
  2 0.337618 4.930949 0.877138 0.000000 0.000000 0.000000
  3 0.249743 5.375676 -0.431249 -0.263688 -0.000000 0.000000
  4 0.144184 2.729335 -0.038626 -0.551718 -0.249695 -0.029696
  5 0.241868 9.046292 0.896507 0.000000 0.000000 0.000000
  6 0.000303 8.159075 -1.557892 0.000000 0.000000 0.000000
  7 0.246663 7.851890 -0.926848 0.000000 0.000000 0.000000
  8 -2.477793 12.401385 4.136673 0.000000 0.000000 0.000000
  9 -0.000000 -0.000000 0.000000 0.000000 0.000000 0.000000
 10 0.000000 -15.653315 -6.600977 0.000000 0.000000 0.000000
 11 -0.816903 -8.843431 -6.286702 -0.689348 -0.636952 -0.306734
 12 0.000000 0.000000 0.000000 0.000000 0.000000 0.000000
 13 -9.259155 0.805164 -5.542013 0.000000 -1.547455 0.000000
 14 -0.000000 0.000000 -0.000000 1.291851 0.272052 -2.251113
 15 8.403361 0.000001 -0.000001 -0.000000 1.590607 -0.000000
 16 8.136638 -0.000001 0.000000 -1.570796 -0.032553 -0.000000
 17 8.136637 0.000008 0.000006 -1.777246 0.270021 0.117980
 18 1.369795 0.361444 1.237272 1.175074 -0.347333 0.479992
 19 1.320667 -0.000001 0.000001 0.201328 -0.139079 -0.045485
 20 1.066025 -0.000000 0.000001 -0.014471 -0.113783 0.196807
 21 1.039344 -0.000002 0.000000 1.325744 0.991426 2.013611
 22 2.457049 -0.024848 0.014095 -0.000072 -0.005736 -0.010113
 23 3.525410 -0.419242 0.945131 1.631625 0.008362 0.158532
 24 1.209883 -0.000000 0.000001 0.003943 0.285298 -0.018611
 25 0.743917 0.000000 0.000000 -0.001656 0.963273 -0.092843
 26 0.794889 -0.000000 -0.000000 -0.000005 0.704556 -0.000608
 27 3.414728 -0.449902 0.223653 1.656016 0.086751 0.789677
 28 1.390921 -0.000000 0.000001 -0.004769 1.284870 -0.018048
 29 0.906346 0.000000 0.000000 0.006062 -0.433839 0.045570
 30 0.776325 0.000000 0.000000 0.001079 0.866577 0.033798
 31 3.289557 -0.311000 -0.505976 1.664984 0.015731 0.920761
 32 1.262952 -0.000000 0.000000 0.410302 1.354679 0.453063
 33 0.919429 0.000000 0.000000 -0.052499 -0.297525 0.013980
 34 0.803003 -0.000001 -0.000001 -0.163064 1.145489 -1.117549
 35 3.167419 -0.097637 -1.197365 1.820246 -0.117708 1.277628
 36 0.817885 -0.000001 -0.000000 0.142196 1.147469 0.122418
 37 0.708995 0.000000 0.000000 -0.039911 -0.253101 0.086949
 38 0.794783 -0.000000 -0.000000 -1.042950 1.141227 -1.966856
 39 -0.613038 -15.496527 -16.262341 -1.116211 0.000000 0.000000
 40 0.000000 -0.000000 0.000000 -2.430497 -0.688371 -0.534466
 41 8.403363 0.000001 -0.000002 -0.000001 1.519262 -0.000001
 42 8.136635 -0.000008 0.000005 1.022634 0.393468 1.034789
 43 1.369793 -0.361442 1.237272 -1.062594 -0.534883 -0.117083
 44 1.320668 0.000002 -0.000001 -0.178335 -0.166471 -0.100989
 45 1.066023 0.000001 0.000000 0.035536 -0.107679 -0.387526
 46 3.289558 0.311001 -0.505976 -1.655749 -0.038571 -1.117383
 47 1.262953 0.000001 -0.000001 0.275332 1.890033 0.211471
 48 0.919429 0.000002 -0.000000 -0.178916 1.857550 -0.170047
 49 3.167420 0.097637 -1.197364 -1.542174 -0.127050 -0.960505
 50 0.817882 -0.000000 -0.000001 0.244590 1.809881 0.245770
 51 0.708995 0.000001 -0.000000 0.181067 1.354603 0.099989
 52 3.414728 0.449902 0.223653 -1.704884 -0.041925 -1.025114
 53 1.390922 0.000002 -0.000000 0.005510 2.077791 0.018246
 54 0.906348 -0.000001 0.000001 -0.006062 1.435263 -0.045570
 55 2.457049 0.024849 0.014095 0.000073 -0.005736 0.010114
 56 3.525410 0.419243 0.945132 -1.452791 -0.127226 -0.781254
 57 1.209882 -0.000001 -0.000001 -0.003943 1.344267 0.018610
 58 0.743920 -0.000000 -0.000000 0.001656 1.082738 0.092843
 59 8.136639 -0.000001 0.000001 1.570797 -0.032533 -0.000000
 60 -4.926455 -9.814878 -4.224556 -1.518790 -0.412839 1.669060
 61 0.008386 -0.048311 -0.069476 0.000000 0.000000 -0.000000
time 14
  0 -5.916985 -10.217499 -0.139997 -0.881164 -0.545710 -0.054266
  1 0.250197 -3.917488 -0.099873 0.000000 0.000000 0.000000
  2 0.337617 4.930949 0.877138 0.000000 0.000000 0.000000
  3 0.249742 5.375675 -0.431248 -0.240892 -0.000000 -0.000000
  4 0.171572 2.513130 -0.042227 -0.475664 -0.227534 -0.027061
  5 0.241867 9.046291 0.896506 0.000000 0.000000 0.000000
  6 0.000303 8.159075 -1.557893 0.000000 0.000000 0.000000
  7 0.246662 7.851890 -0.926848 0.000000 0.000000 0.000000
  8 -2.477793 12.401383 4.136672 0.000000 0.000000 0.000000
  9 -0.000000 0.000000 -0.000000 0.000000 0.000000 0.000000
 10 0.000000 -15.653315 -6.600977 0.000000 0.000000 0.000000
 11 -1.125129 -8.054376 -6.108673 -0.519662 -0.569115 -0.337175
 12 -0.000000 0.000000 -0.000000 0.000000 0.000000 0.000000
 13 -9.259155 0.805164 -5.542013 0.000000 -1.547455 0.000000
 14 -0.000000 0.000000 -0.000000 1.283429 0.271987 -2.262140
 15 8.403361 0.000002 -0.000001 0.000000 1.620811 0.000000
 16 8.136638 -0.000001 -0.000000 -1.570796 -0.032553 -0.000000
 17 8.136637 0.000008 0.000006 -1.761641 0.207548 0.129916
 18 1.369794 0.361443 1.237272 1.175075 -0.347333 0.479992
 19 1.320667 -0.000000 0.000001 0.201328 -0.139079 -0.045485
 20 1.066025 -0.000000 0.000000 -0.014471 -0.113783 0.196807
 21 1.039344 -0.000002 0.000000 1.325745 0.991426 2.013611
 22 2.457048 -0.024848 0.014095 -0.000072 -0.005736 -0.010113
 23 3.525410 -0.419243 0.945132 1.631625 0.008362 0.158532
 24 1.209883 -0.000001 0.000000 0.003943 0.285298 -0.018611
 25 0.743917 0.000001 0.000000 -0.001656 0.963273 -0.092843
 26 0.794890 -0.000000 -0.000000 -0.000005 0.704556 -0.000608
 27 3.414728 -0.449902 0.223652 1.656016 0.086751 0.789677
 28 1.390921 -0.000001 0.000000 -0.004769 1.284870 -0.018048
 29 0.906346 0.000000 0.000000 0.006062 -0.433839 0.045570
 30 0.776325 -0.000000 0.000000 0.001079 0.866577 0.033798
 31 3.289557 -0.311001 -0.505976 1.664984 0.015731 0.920761
 32 1.262953 -0.000000 -0.000001 0.410301 1.354679 0.453063
 33 0.919430 0.000000 0.000000 -0.052499 -0.297525 0.013980
 34 0.803004 -0.000000 -0.000001 -0.163064 1.145489 -1.117549
 35 3.167419 -0.097637 -1.197365 1.820246 -0.117708 1.277628
 36 0.817884 -0.000000 -0.000000 0.142196 1.147469 0.122418
 37 0.708995 -0.000000 0.000000 -0.039911 -0.253101 0.086949
 38 0.794784 -0.000001 -0.000000 -1.042950 1.141227 -1.966856
 39 -0.613038 -15.496527 -16.262341 -1.116211 0.000000 0.000000
 40 0.000000 -0.000000 0.000000 -2.450451 -0.749849 -0.600622
 41 8.403363 -0.000000 -0.000002 -0.000000 1.409821 -0.000000
 42 8.136636 -0.000008 0.000004 1.040440 0.462787 1.262003
 43 1.369793 -0.361443 1.237272 -1.052186 -0.546469 -0.109226
 44 1.320668 0.000002 0.000000 -0.175108 -0.171028 -0.123874
 45 1.066023 -0.000001 0.000000 0.040454 -0.107354 -0.431221
 46 3.289559 0.311000 -0.505976 -1.655749 -0.038571 -1.117383
 47 1.262953 0.000000 -0.000001 0.275332 1.890033 0.211471
 48 0.919428 0.000002 -0.000000 -0.178916 1.857550 -0.170047
 49 3.167421 0.097637 -1.197364 -1.542174 -0.127050 -0.960505
 50 0.817882 0.000000 -0.000001 0.244589 1.809881 0.245770
 51 0.708994 0.000002 -0.000000 0.181067 1.354604 0.099989
 52 3.414729 0.449901 0.223653 -1.704884 -0.041925 -1.025114
 53 1.390923 0.000002 -0.000000 0.005510 2.077791 0.018246
 54 0.906347 -0.000000 0.000001 -0.006062 1.435263 -0.045570
 55 2.457049 0.024848 0.014095 0.000073 -0.005736 0.010114
 56 3.525410 0.419243 0.945132 -1.452791 -0.127226 -0.781254
 57 1.209882 -0.000001 -0.000001 -0.003943 1.344267 0.018610
 58 0.743920 -0.000000 0.000000 0.001656 1.082738 0.092843
 59 8.136641 0.000000 -0.000001 1.570797 -0.032533 -0.000000
 60 -4.931974 -9.615539 -4.201312 -1.524819 -0.457529 1.687745
 61 0.008386 -0.048311 -0.069475 0.000000 0.000000 -0.000000
time 15
  0 -5.916985 -10.217499 -0.139997 -0.857224 -0.545189 -0.059182
  1 0.250197 -3.917489 -0.099874 0.000000 -0.000000 -0.000000
  2 0.337618 4.930949 0.877138 0.000000 -0.000000 -0.000000
  3 0.249743 5.375675 -0.431249 -0.199893 -0.000000 -0.000000
  4 0.194152 2.310252 -0.046742 -0.398567 -0.199756 -0.023757
  5 0.241868 9.046291 0.896506 0.000000 -0.000000 -0.000000
  6 0.000304 8.159075 -1.557892 0.000000 0.000000 0.000000
  7 0.246664 7.851890 -0.926848 0.000000 -0.000000 -0.000000
  8 -2.477793 12.401383 4.136672 0.000000 -0.000000 -0.000000
  9 0.000000 0.000000 -0.000000 0.000000 0.000000 0.000000
 10 0.000000 -15.653315 -6.600977 0.000000 0.000000 0.000000
 11 -1.108334 -8.076322 -5.955946 -0.570354 -0.597165 -0.286880
 12 -0.000000 0.000000 0.000000 0.000000 0.000000 0.000000
 13 -9.259155 0.805164 -5.542013 0.000000 -1.547455 0.000000
 14 -0.000000 0.000000 -0.000000 1.279561 0.271943 -2.266732
 15 8.403361 0.000001 -0.000001 0.000000 1.634438 -0.000000
 16 8.136637 -0.000002 -0.000001 -1.570796 -0.032553 -0.000000
 17 8.136636 0.000008 0.000004 -1.754476 0.178945 0.135553
 18 1.369794 0.361443 1.237272 1.175075 -0.347333 0.479992
 19 1.320668 -0.000000 0.000000 0.201328 -0.139079 -0.045485
 20 1.066025 -0.000000 -0.000000 -0.014471 -0.113783 0.196807
 21 1.039344 -0.000001 -0.000001 1.325744 0.991426 2.013611
 22 2.457049 -0.024849 0.014095 -0.000072 -0.005736 -0.010113
 23 3.525410 -0.419243 0.945132 1.631625 0.008362 0.158532
 24 1.209883 -0.000000 0.000001 0.003943 0.285298 -0.018611
 25 0.743917 0.000000 0.000000 -0.001656 0.963273 -0.092843
 26 0.794889 0.000000 0.000000 -0.000005 0.704556 -0.000608
 27 3.414728 -0.449902 0.223653 1.656016 0.086751 0.789677
 28 1.390921 -0.000000 -0.000000 -0.004769 1.284870 -0.018048
 29 0.906346 0.000000 0.000000 0.006062 -0.433839 0.045570
 30 0.776325 -0.000000 -0.000000 0.001079 0.866577 0.033798
 31 3.289557 -0.311001 -0.505976 1.664984 0.015731 0.920761
 32 1.262953 0.000000 0.000000 0.410302 1.354679 0.453063
 33 0.919429 0.000000 0.000000 -0.052499 -0.297525 0.013980
 34 0.803003 -0.000001 -0.000001 -0.163064 1.145489 -1.117549
 35 3.167419 -0.097637 -1.197365 1.820246 -0.117708 1.277629
 36 0.817884 -0.000000 -0.000000 0.142196 1.147469 0.122418
 37 0.708995 0.000000 0.000000 -0.039911 -0.253101 0.086949
 38 0.794784 -0.000001 -0.000000 -1.042950 1.141227 -1.966856
 39 -0.613038 -15.496527 -16.262341 -1.116211 0.000000 0.000000
 40 0.000000 -0.000000 0.000000 -2.434536 -0.753337 -0.611281
 41 8.403362 0.000001 -0.000002 -0.000000 1.389282 -0.000000
 42 8.136635 -0.000008 0.000004 1.097660 0.435723 1.250392
 43 1.369792 -0.361442 1.237273 -1.052186 -0.546469 -0.109226
 44 1.320668 0.000002 -0.000001 -0.175108 -0.171028 -0.123874
 45 1.066023 -0.000000 0.000001 0.040454 -0.107354 -0.431221
 46 3.289559 0.311001 -0.505976 -1.655749 -0.038571 -1.117383
 47 1.262953 0.000001 -0.000001 0.275332 1.890033 0.211471
 48 0.919428 0.000002 -0.000000 -0.178915 1.857550 -0.170047
 49 3.167421 0.097637 -1.197364 -1.542174 -0.127050 -0.960505
 50 0.817882 0.000000 -0.000000 0.244590 1.809881 0.245770
 51 0.708994 0.000002 -0.000000 0.181067 1.354604 0.099989
 52 3.414729 0.449902 0.223653 -1.704884 -0.041925 -1.025114
 53 1.390923 0.000002 -0.000000 0.005510 2.077791 0.018246
 54 0.906347 0.000000 0.000001 -0.006062 1.435263 -0.045570
 55 2.457049 0.024849 0.014095 0.000073 -0.005736 0.010114
 56 3.525410 0.419244 0.945132 -1.452791 -0.127226 -0.781254
 57 1.209881 -0.000001 -0.000001 -0.003943 1.344267 0.018610
 58 0.743920 -0.000000 0.000000 0.001656 1.082738 0.092843
 59 8.136639 -0.000000 0.000000 1.570797 -0.032533 -0.000000
 60 -4.934237 -9.525187 -4.187439 -1.528308 -0.477763 1.696823
 61 0.008386 -0.048311 -0.069476 -0.000000 -0.000000 -0.000000
time 16
  0 -5.920307 -10.217499 -0.139997 -0.862478 -0.547285 -0.057033
  1 0.250197 -3.917489 -0.099873 -0.000000 0.000000 0.000000
  2 0.337618 4.930948 0.877138 -0.000000 0.000000 0.000000
  3 0.249743 5.375675 -0.431249 -0.085199 0.000000 0.000000
  4 0.212376 2.122922 -0.051864 -0.322559 -0.168232 -0.020008
  5 0.241867 9.046291 0.896506 -0.000000 0.000000 0.000000
  6 0.000303 8.159075 -1.557893 0.000000 0.000000 0.000000
  7 0.246663 7.851889 -0.926848 -0.000000 0.000000 0.000000
  8 -2.477793 12.401383 4.136672 -0.000000 0.000000 0.000000
  9 -0.000000 0.000000 0.000000 0.000000 0.000000 0.000000
 10 0.000000 -15.653315 -6.600977 0.000000 0.000000 0.000000
 11 -0.687050 -8.781241 -5.986048 -0.777281 -0.715407 -0.198191
 12 0.000000 0.000000 -0.000000 0.000000 0.000000 0.000000
 13 -9.259155 0.805164 -5.542013 0.000000 -1.547455 0.000000
 14 -0.000000 0.000000 -0.000000 1.280182 0.272198 -2.265519
 15 8.403363 0.000000 -0.000001 0.000000 1.631274 0.000000
 16 8.136638 -0.000001 -0.000000 -1.570796 -0.032553 0.000000
 17 8.136637 0.000008 0.000006 -1.754252 0.185847 0.135801
 18 1.369795 0.361443 1.237273 1.175074 -0.347333 0.479992
 19 1.320668 -0.000001 0.000000 0.201328 -0.139079 -0.045485
 20 1.066025 -0.000000 0.000000 -0.014471 -0.113783 0.196807
 21 1.039344 -0.000001 0.000000 1.325745 0.991426 2.013611
 22 2.457049 -0.024849 0.014095 -0.000072 -0.005736 -0.010113
 23 3.525410 -0.419244 0.945132 1.631625 0.008362 0.158532
 24 1.209883 -0.000001 0.000000 0.003943 0.285298 -0.018611
 25 0.743917 0.000001 0.000001 -0.001656 0.963273 -0.092843
 26 0.794889 -0.000000 0.000000 -0.000005 0.704556 -0.000608
 27 3.414728 -0.449901 0.223653 1.656016 0.086751 0.789677
 28 1.390921 -0.000001 0.000000 -0.004769 1.284870 -0.018048
 29 0.906346 -0.000000 0.000000 0.006062 -0.433839 0.045570
 30 0.776324 -0.000000 0.000000 0.001079 0.866577 0.033798
 31 3.289557 -0.311001 -0.505976 1.664984 0.015731 0.920761
 32 1.262953 -0.000000 0.000001 0.410302 1.354679 0.453063
 33 0.919429 0.000000 -0.000000 -0.052499 -0.297525 0.013980
 34 0.803003 -0.000000 -0.000001 -0.163064 1.145489 -1.117549
 35 3.167419 -0.097637 -1.197365 1.820246 -0.117708 1.277629
 36 0.817884 -0.000000 -0.000000 0.142196 1.147469 0.122418
 37 0.708995 0.000000 -0.000000 -0.039911 -0.253101 0.086949
 38 0.794783 -0.000000 -0.000001 -1.042950 1.141227 -1.966856
 39 -0.613038 -15.496527 -16.262341 -1.116211 0.000000 0.000000
 40 0.000000 -0.000000 0.000000 -2.406713 -0.702073 -0.540081
 41 8.403364 -0.000000 -0.000001 0.000000 1.469199 0.000000
 42 8.136636 -0.000006 0.000003 1.165187 0.402403 1.018430
 43 1.369793 -0.361442 1.237271 -1.052186 -0.546469 -0.109226
 44 1.320668 0.000002 -0.000000 -0.175108 -0.171028 -0.123874
 45 1.066023 -0.000001 0.000000 0.040454 -0.107354 -0.431221
 46 3.289559 0.311001 -0.505977 -1.655749 -0.038571 -1.117383
 47 1.262953 0.000000 -0.000001 0.275331 1.890033 0.211470
 48 0.919429 0.000002 -0.000000 -0.178916 1.857550 -0.170047
 49 3.167421 0.097637 -1.197364 -1.542174 -0.127050 -0.960505
 50 0.817882 0.000001 -0.000001 0.244589 1.809881 0.245770
 51 0.708995 0.000002 -0.000000 0.181067 1.354603 0.099989
 52 3.414729 0.449902 0.223653 -1.704884 -0.041925 -1.025114
 53 1.390923 0.000002 -0.000000 0.005510 2.077791 0.018246
 54 0.906348 -0.000000 0.000001 -0.006062 1.435263 -0.045570
 55 2.457049 0.024849 0.014095 0.000073 -0.005736 0.010114
 56 3.525410 0.419243 0.945131 -1.452791 -0.127226 -0.781254
 57 1.209882 -0.000001 -0.000001 -0.003943 1.344267 0.018610
 58 0.743920 0.000001 0.000000 0.001656 1.082738 0.092843
 59 8.136640 0.000002 -0.000002 1.570797 -0.032533 -0.000000
 60 -4.929746 -9.544398 -4.188775 -1.529701 -0.472965 1.696880
 61 0.008386 -0.048311 -0.069476 -0.000000 -0.000000 -0.000000
time 17
  0 -5.929210 -10.217499 -0.139997 -0.876559 -0.552904 -0.051275
  1 0.250197 -3.917488 -0.099873 0.000000 -0.000000 0.000000
  2 0.337618 4.930949 0.877138 0.000000 -0.000000 0.000000
  3 0.249743 5.375675 -0.431249 0.000000 -0.000000 0.000000
  4 0.226699 1.953361 -0.057292 -0.249770 -0.134835 -0.016036
  5 0.241868 9.046291 0.896506 0.000000 -0.000000 0.000000
  6 0.000303 8.159075 -1.557892 0.000000 0.000000 0.000000
  7 0.246664 7.851889 -0.926848 0.000000 -0.000000 0.000000
  8 -2.477792 12.401383 4.136672 0.000000 -0.000000 0.000000
  9 -0.000000 -0.000000 0.000000 0.000000 0.000000 0.000000
 10 0.000000 -15.653315 -6.600977 0.000000 0.000000 0.000000
 11 -0.089056 -9.391853 -6.179694 -0.865173 -0.771041 -0.168698
 12 -0.000000 0.000000 0.000000 0.000000 0.000000 0.000000
 13 -9.259155 0.805164 -5.542013 0.000000 -1.547455 0.000000
 14 -0.000000 0.000000 -0.000000 1.281837 0.272892 -2.262187
 15 8.403362 0.000001 -0.000001 0.000000 1.622753 0.000000
 16 8.136638 -0.000001 -0.000001 -1.570796 -0.032553 0.000000
 17 8.136636 0.000008 0.000005 -1.753636 0.204274 0.136596
 18 1.369794 0.361444 1.237272 1.175075 -0.347333 0.479992
 19 1.320668 -0.000000 0.000001 0.201328 -0.139079 -0.045485
 20 1.066025 0.000000 0.000000 -0.014471 -0.113783 0.196807
 21 1.039344 -0.000002 -0.000000 1.325745 0.991426 2.013611
 22 2.457048 -0.024848 0.014094 -0.000072 -0.005736 -0.010113
 23 3.525409 -0.419242 0.945132 1.631625 0.008362 0.158532
 24 1.209883 -0.000000 0.000001 0.003943 0.285298 -0.018611
 25 0.743917 0.000000 0.000000 -0.001656 0.963273 -0.092843
 26 0.794889 0.000000 -0.000000 -0.000005 0.704556 -0.000608
 27 3.414727 -0.449901 0.223652 1.656016 0.086751 0.789677
 28 1.390921 -0.000001 0.000000 -0.004769 1.284870 -0.018048
 29 0.906346 0.000000 0.000000 0.006062 -0.433839 0.045570
 30 0.776325 0.000000 0.000000 0.001079 0.866577 0.033798
 31 3.289557 -0.311000 -0.505976 1.664984 0.015731 0.920761
 32 1.262953 -0.000001 -0.000000 0.410302 1.354679 0.453063
 33 0.919430 -0.000000 0.000000 -0.052499 -0.297525 0.013980
 34 0.803003 -0.000000 -0.000001 -0.163064 1.145489 -1.117549
 35 3.167419 -0.097637 -1.197365 1.820246 -0.117708 1.277629
 36 0.817884 -0.000001 -0.000000 0.142196 1.147469 0.122418
 37 0.708995 0.000000 0.000000 -0.039911 -0.253101 0.086949
 38 0.794783 -0.000000 -0.000001 -1.042950 1.141227 -1.966856
 39 -0.613038 -15.496527 -16.262341 -1.116211 0.000000 0.000000
 40 0.000000 -0.000000 0.000000 -2.389041 -0.654112 -0.435906
 41 8.403363 -0.000000 -0.000002 -0.000000 1.553368 -0.000000
 42 8.136635 -0.000008 0.000004 1.175853 0.430076 0.854305
 43 1.369793 -0.361442 1.237272 -1.052186 -0.546469 -0.109226
 44 1.320668 0.000002 -0.000001 -0.175108 -0.171028 -0.123874
 45 1.066023 -0.000000 0.000000 0.040454 -0.107354 -0.431221
 46 3.289559 0.311001 -0.505977 -1.655749 -0.038571 -1.117383
 47 1.262953 0.000000 -0.000001 0.275332 1.890033 0.211471
 48 0.919429 0.000001 -0.000000 -0.178916 1.857550 -0.170047
 49 3.167421 0.097637 -1.197365 -1.542174 -0.127050 -0.960506
 50 0.817882 0.000000 -0.000001 0.244589 1.809881 0.245770
 51 0.708994 0.000001 -0.000000 0.181067 1.354604 0.099989
 52 3.414728 0.449902 0.223653 -1.704884 -0.041925 -1.025114
 53 1.390922 0.000002 -0.000000 0.005510 2.077791 0.018246
 54 0.906347 -0.000001 0.000001 -0.006062 1.435263 -0.045571
 55 2.457049 0.024849 0.014095 0.000073 -0.005736 0.010114
 56 3.525410 0.419243 0.945131 -1.452791 -0.127226 -0.781254
 57 1.209882 -0.000001 -0.000001 -0.003943 1.344267 0.018610
 58 0.743920 -0.000001 -0.000000 0.001656 1.082738 0.092843
 59 8.136639 0.000000 -0.000001 1.570797 -0.032533 -0.000000
 60 -4.917521 -9.595784 -4.191766 -1.533480 -0.460148 1.696976
 61 0.008386 -0.048311 -0.069476 -0.000000 0.000000 -0.000000
time 18
  0 -5.942100 -10.217499 -0.139997 -0.896946 -0.561038 -0.042938
  1 0.250197 -3.917488 -0.099873 0.000000 0.000000 0.000000
  2 0.337618 4.930949 0.877138 0.000000 0.000000 0.000000
  3 0.249742 5.375676 -0.431249 0.000000 0.000000 0.000000
  4 0.237574 1.803791 -0.062719 -0.182332 -0.101439 -0.012064
  5 0.241867 9.046291 0.896506 0.000000 0.000000 0.000000
  6 0.000303 8.159075 -1.557893 0.000000 0.000000 0.000000
  7 0.246663 7.851890 -0.926848 0.000000 0.000000 0.000000
  8 -2.477793 12.401384 4.136672 0.000000 0.000000 0.000000
  9 0.000000 -0.000000 -0.000000 0.000000 0.000000 0.000000
 10 0.000000 -15.653315 -6.600977 0.000000 0.000000 0.000000
 11 0.835666 -9.625100 -6.758840 -0.737054 -0.684080 -0.164813
 12 0.000000 0.000000 -0.000000 0.000000 0.000000 0.000000
 13 -9.259155 0.805164 -5.542013 0.000000 -1.547455 0.000000
 14 -0.000000 0.000000 -0.000000 1.284214 0.273927 -2.257163
 15 8.403362 0.000001 -0.000001 -0.000000 1.610327 -0.000000
 16 8.136638 -0.000001 -0.000000 -1.570796 -0.032553 -0.000000
 17 8.136636 0.000007 0.000005 -1.752697 0.230773 0.138080
 18 1.369794 0.361444 1.237272 1.175074 -0.347333 0.479992
 19 1.320668 -0.000000 -0.000000 0.201328 -0.139079 -0.045485
 20 1.066025 0.000000 -0.000000 -0.014471 -0.113783 0.196807
 21 1.039344 -0.000002 0.000000 1.325745 0.991426 2.013611
 22 2.457049 -0.024848 0.014095 -0.000072 -0.005736 -0.010113
 23 3.525409 -0.419243 0.945132 1.631625 0.008362 0.158532
 24 1.209883 -0.000000 0.000001 0.003943 0.285298 -0.018611
 25 0.743918 0.000000 0.000000 -0.001656 0.963273 -0.092843
 26 0.794889 0.000000 -0.000000 -0.000005 0.704556 -0.000608
 27 3.414728 -0.449902 0.223652 1.656016 0.086751 0.789677
 28 1.390921 -0.000001 -0.000000 -0.004769 1.284870 -0.018048
 29 0.906347 0.000000 0.000000 0.006062 -0.433839 0.045570
 30 0.776325 0.000000 -0.000000 0.001079 0.866577 0.033798
 31 3.289557 -0.311002 -0.505976 1.664984 0.015731 0.920761
 32 1.262953 -0.000001 -0.000000 0.410302 1.354679 0.453063
 33 0.919429 -0.000000 0.000000 -0.052499 -0.297525 0.013980
 34 0.803004 -0.000000 -0.000001 -0.163064 1.145489 -1.117549
 35 3.167419 -0.097638 -1.197365 1.820246 -0.117708 1.277628
 36 0.817883 -0.000000 0.000000 0.142196 1.147469 0.122418
 37 0.708995 0.000000 0.000000 -0.039911 -0.253101 0.086949
 38 0.794783 -0.000000 -0.000001 -1.042950 1.141227 -1.966856
 39 -0.613038 -15.496527 -16.262341 -1.116211 0.000000 0.000000
 40 0.000000 -0.000000 0.000000 -2.408104 -0.620869 -0.244445
 41 8.403363 0.000001 -0.000001 -0.000000 1.643357 -0.000000
 42 8.136636 -0.000007 0.000004 1.153919 0.514283 0.903674
 43 1.369793 -0.361442 1.237271 -1.052186 -0.546469 -0.109226
 44 1.320668 0.000002 -0.000000 -0.175108 -0.171028 -0.123874
 45 1.066023 0.000000 0.000000 0.040454 -0.107354 -0.431221
 46 3.289559 0.311001 -0.505978 -1.655749 -0.038571 -1.117383
 47 1.262953 0.000001 -0.000001 0.275331 1.890033 0.211470
 48 0.919429 0.000001 -0.000000 -0.178916 1.857550 -0.170047
 49 3.167421 0.097637 -1.197365 -1.542174 -0.127050 -0.960505
 50 0.817882 0.000000 -0.000001 0.244589 1.809881 0.245770
 51 0.708994 0.000002 -0.000000 0.181067 1.354604 0.099989
 52 3.414728 0.449901 0.223653 -1.704884 -0.041925 -1.025114
 53 1.390923 0.000003 -0.000000 0.005510 2.077791 0.018246
 54 0.906347 -0.000000 0.000001 -0.006062 1.435263 -0.045570
 55 2.457049 0.024849 0.014094 0.000073 -0.005736 0.010114
 56 3.525410 0.419243 0.945131 -1.452791 -0.127226 -0.781254
 57 1.209882 -0.000001 -0.000001 -0.003943 1.344267 0.018610
 58 0.743920 0.000000 -0.000000 0.001656 1.082738 0.092843
 59 8.136639 0.000000 -0.000000 1.570797 -0.032533 -0.000000
 60 -4.899356 -9.669910 -4.194588 -1.539066 -0.441699 1.696970
 61 0.008386 -0.048311 -0.069476 -0.000000 0.000000 -0.000000
time 19
  0 -5.957382 -10.217499 -0.139997 -0.921116 -0.570681 -0.033054
  1 0.250197 -3.917488 -0.099874 0.000000 -0.000000 0.000000
  2 0.337617 4.930949 0.877138 0.000000 -0.000000 0.000000
  3 0.249742 5.375676 -0.431249 0.000000 -0.000000 0.000000
  4 0.245454 1.676435 -0.067842 -0.122376 -0.069915 -0.008315
  5 0.241867 9.046291 0.896506 0.000000 -0.000000 0.000000
  6 0.000303 8.159075 -1.557892 0.000000 0.000000 0.000000
  7 0.246663 7.851890 -0.926848 0.000000 -0.000000 0.000000
  8 -2.477794 12.401384 4.136672 0.000000 -0.000000 0.000000
  9 -0.000000 0.000000 -0.000000 0.000000 0.000000 0.000000
 10 0.000000 -15.653315 -6.600977 0.000000 0.000000 0.000000
 11 2.240752 -9.594447 -7.866016 -0.514369 -0.511093 -0.113281
 12 0.000000 -0.000000 0.000000 0.000000 0.000000 0.000000
 13 -9.259155 0.805164 -5.542013 0.000000 -1.547455 0.000000
 14 -0.000000 0.000000 -0.000000 1.286946 0.275135 -2.251114
 15 8.403361 0.000001 -0.000001 0.000000 1.595897 0.000000
 16 8.136637 -0.000002 -0.000000 -1.570796 -0.032553 -0.000000
 17 8.136637 0.000008 0.000006 -1.751523 0.261685 0.140345
 18 1.369794 0.361444 1.237272 1.175075 -0.347333 0.479992
 19 1.320667 -0.000001 0.000001 0.201328 -0.139079 -0.045485
 20 1.066025 -0.000000 0.000000 -0.014471 -0.113783 0.196807
 21 1.039344 -0.000001 0.000000 1.325744 0.991426 2.013611
 22 2.457049 -0.024848 0.014094 -0.000072 -0.005736 -0.010113
 23 3.525410 -0.419243 0.945132 1.631625 0.008362 0.158532
 24 1.209883 -0.000000 -0.000000 0.003943 0.285298 -0.018611
 25 0.743917 0.000000 0.000000 -0.001656 0.963273 -0.092843
 26 0.794889 -0.000000 -0.000000 -0.000005 0.704556 -0.000608
 27 3.414728 -0.449902 0.223652 1.656016 0.086751 0.789677
 28 1.390921 -0.000000 0.000000 -0.004769 1.284870 -0.018048
 29 0.906346 0.000000 0.000000 0.006062 -0.433838 0.045570
 30 0.776324 -0.000000 -0.000000 0.001079 0.866577 0.033798
 31 3.289557 -0.311000 -0.505976 1.664984 0.015731 0.920761
 32 1.262952 -0.000000 0.000000 0.410302 1.354679 0.453063
 33 0.919429 0.000000 -0.000000 -0.052499 -0.297525 0.013980
 34 0.803003 -0.000000 -0.000001 -0.163064 1.145489 -1.117549
 35 3.167419 -0.097637 -1.197365 1.820246 -0.117708 1.277628
 36 0.817884 -0.000000 -0.000000 0.142196 1.147469 0.122418
 37 0.708995 -0.000000 -0.000000 -0.039911 -0.253101 0.086949
 38 0.794784 -0.000001 -0.000000 -1.042950 1.141227 -1.966856
 39 -0.613038 -15.496527 -16.262341 -1.116211 0.000000 0.000000
 40 0.000000 -0.000000 0.000000 -2.440093 -0.589217 0.083849
 41 8.403363 0.000001 -0.000000 -0.000000 1.742195 -0.000000
 42 8.136637 -0.000008 0.000003 1.209382 0.676157 1.062260
 43 1.369793 -0.361443 1.237272 -1.062330 -0.511561 -0.125719
 44 1.320668 0.000002 -0.000000 -0.178564 -0.166578 -0.100790
 45 1.066023 -0.000000 0.000000 0.031103 -0.106956 -0.347198
 46 3.289559 0.311001 -0.505977 -1.647396 -0.024620 -1.008693
 47 1.262953 0.000000 -0.000001 0.237254 1.729387 0.181011
 48 0.919428 0.000002 -0.000000 -0.154883 1.691809 -0.150768
 49 3.167420 0.097637 -1.197364 -1.556429 -0.104321 -0.850269
 50 0.817882 -0.000001 -0.000001 0.212515 1.668761 0.218121
 51 0.708995 0.000002 -0.000000 0.166443 1.244975 0.082833
 52 3.414729 0.449901 0.223653 -1.695340 -0.036848 -0.935134
 53 1.390923 0.000002 -0.000001 0.005510 1.898680 0.018246
 54 0.906348 0.000000 0.000001 -0.006062 1.337879 -0.045570
 55 2.457049 0.024849 0.014095 0.000073 -0.005736 0.010114
 56 3.525410 0.419243 0.945132 -1.466388 -0.120956 -0.719404
 57 1.209882 -0.000002 -0.000001 -0.003943 1.229846 0.018610
 58 0.743920 -0.000000 0.000000 0.001656 1.010406 0.092843
 59 8.136640 0.000000 -0.000001 1.570797 -0.032533 -0.000000
 60 -4.877155 -9.757339 -4.195640 -1.545869 -0.419996 1.696736
 61 0.008386 -0.048311 -0.069476 -0.000000 0.000000 -0.000000
time 20
  0 -5.973462 -10.217499 -0.139997 -0.946547 -0.580828 -0.022655
  1 0.250197 -3.917488 -0.099874 0.000000 -0.000000 -0.000000
  2 0.337618 4.930950 0.877138 0.000000 -0.000000 -0.000000
  3 0.249743 5.375676 -0.431249 0.000000 -0.000000 -0.000000
  4 0.250794 1.573513 -0.072356 -0.072033 -0.042136 -0.005011
  5 0.241868 9.046292 0.896506 0.000000 -0.000000 -0.000000
  6 0.000303 8.159075 -1.557893 0.000000 0.000000 0.000000
  7 0.246663 7.851891 -0.926848 0.000000 -0.000000 -0.000000
  8 -2.477793 12.401384 4.136672 0.000000 -0.000000 -0.000000
  9 -0.000000 0.000000 0.000000 0.000000 0.000000 0.000000
 10 0.000000 -15.653315 -6.600977 0.000000 0.000000 0.000000
 11 3.885479 -9.343654 -9.259815 -0.229129 -0.289412 -0.044435
 12 -0.000000 -0.000000 -0.000000 0.000000 0.000000 0.000000
 13 -9.259155 0.805164 -5.542013 0.000000 -1.547455 0.000000
 14 -0.000000 0.000000 -0.000000 1.289834 0.276497 -2.244248
 15 8.403361 0.000000 -0.000001 -0.000000 1.580233 -0.000000
 16 8.136638 -0.000001 -0.000000 -1.570796 -0.032553 0.000000
 17 8.136636 0.000008 0.000005 -1.750131 0.294049 0.143335
 18 1.369795 0.361443 1.237273 1.175074 -0.347333 0.479992
 19 1.320668 -0.000001 -0.000000 0.201328 -0.139079 -0.045485
 20 1.066025 0.000000 0.000000 -0.014471 -0.113783 0.196807
 21 1.039343 -0.000001 0.000000 1.325745 0.991426 2.013611
 22 2.457049 -0.024849 0.014095 -0.000072 -0.005736 -0.010113
 23 3.525410 -0.419243 0.945132 1.631625 0.008362 0.158532
 24 1.209883 -0.000000 0.000000 0.003943 0.285298 -0.018611
 25 0.743917 0.000000 -0.000000 -0.001656 0.963273 -0.092843
 26 0.794890 -0.000000 -0.000000 -0.000005 0.704556 -0.000608
 27 3.414728 -0.449902 0.223653 1.656016 0.086751 0.789677
 28 1.390921 -0.000000 0.000000 -0.004769 1.284870 -0.018048
 29 0.906345 0.000000 0.000000 0.006062 -0.433839 0.045570
 30 0.776324 -0.000000 -0.000000 0.001079 0.866577 0.033798
 31 3.289557 -0.311001 -0.505976 1.664984 0.015731 0.920761
 32 1.262953 -0.000000 -0.000000 0.410302 1.354679 0.453063
 33 0.919429 -0.000000 0.000000 -0.052499 -0.297525 0.013980
 34 0.803004 -0.000001 -0.000001 -0.163064 1.145489 -1.117549
 35 3.167419 -0.097637 -1.197365 1.820246 -0.117708 1.277629
 36 0.817884 -0.000000 -0.000000 0.142196 1.147469 0.122418
 37 0.708995 -0.000000 0.000000 -0.039911 -0.253101 0.086949
 38 0.794784 -0.000001 -0.000000 -1.042950 1.141227 -1.966856
 39 -0.613038 -15.496527 -16.262341 -1.116211 0.000000 0.000000
 40 0.000000 -0.000000 0.000000 -2.424572 -0.562073 0.462343
 41 8.403363 0.000001 -0.000000 0.000000 1.789662 0.000000
 42 8.136637 -0.000007 0.000003 1.472229 0.844183 1.359144
 43 1.369793 -0.361442 1.237272 -1.086522 -0.428318 -0.165047
 44 1.320668 0.000001 -0.000000 -0.186806 -0.155968 -0.045743
 45 1.066023 -0.000000 0.000000 0.008804 -0.106007 -0.146836
 46 3.289559 0.311001 -0.505976 -1.627475 0.008649 -0.749507
 47 1.262953 -0.000000 -0.000001 0.146452 1.346309 0.108377
 48 0.919429 0.000003 0.000000 -0.097576 1.296582 -0.104796
 49 3.167420 0.097637 -1.197364 -1.590420 -0.050121 -0.587397
 50 0.817882 -0.000001 -0.000001 0.136029 1.332243 0.152189
 51 0.708995 0.000002 0.000001 0.131570 0.983552 0.041923
 52 3.414729 0.449902 0.223653 -1.672582 -0.024739 -0.720568
 53 1.390922 0.000002 -0.000000 0.005510 1.471571 0.018246
 54 0.906348 0.000000 0.000000 -0.006062 1.105657 -0.045570
 55 2.457049 0.024849 0.014095 0.000073 -0.005736 0.010114
 56 3.525410 0.419243 0.945132 -1.498812 -0.106004 -0.571916
 57 1.209881 -0.000002 -0.000001 -0.003943 0.956997 0.018610
 58 0.743920 -0.000000 -0.000000 0.001656 0.837923 0.092843
 59 8.136641 -0.000001 -0.000001 1.570797 -0.032533 -0.000000
 60 -4.853088 -9.848743 -4.194088 -1.553240 -0.397364 1.696218
 61 0.008386 -0.048311 -0.069476 -0.000000 -0.000000 -0.000000
time 21
  0 -5.988744 -10.217499 -0.139997 -0.970717 -0.590471 -0.012771
  1 0.250197 -3.917488 -0.099873 0.000000 0.000000 0.000000
  2 0.337617 4.930949 0.877138 0.000000 0.000000 0.000000
  3 0.249742 5.375675 -0.431249 0.000000 0.000000 0.000000
  4 0.254047 1.497245 -0.075957 -0.033436 -0.019976 -0.002376
  5 0.241867 9.046291 0.896506 0.000000 0.000000 0.000000
  6 0.000303 8.159075 -1.557893 0.000000 0.000000 0.000000
  7 0.246663 7.851890 -0.926848 0.000000 0.000000 0.000000
  8 -2.477793 12.401383 4.136672 0.000000 0.000000 0.000000
  9 -0.000000 -0.000000 -0.000000 0.000000 0.000000 0.000000
 10 0.000000 -15.653315 -6.600977 0.000000 0.000000 0.000000
 11 5.554331 -8.981035 -10.704657 0.074451 -0.055231 0.020440
 12 0.000000 -0.000000 0.000000 0.000000 0.000000 0.000000
 13 -9.259155 0.805164 -5.542013 0.000000 -1.547455 0.000000
 14 -0.000000 0.000000 -0.000000 1.292552 0.277828 -2.237419
 15 8.403362 0.000001 -0.000001 0.000001 1.565229 0.000001
 16 8.136638 -0.000001 -0.000002 -1.570796 -0.032553 -0.000000
 17 8.136637 0.000008 0.000005 -1.748657 0.324478 0.146754
 18 1.369795 0.361443 1.237273 1.175075 -0.347333 0.479992
 19 1.320667 -0.000001 -0.000000 0.201328 -0.139079 -0.045485
 20 1.066025 0.000000 -0.000000 -0.014471 -0.113783 0.196807
 21 1.039343 -0.000001 0.000000 1.325744 0.991426 2.013611
 22 2.457049 -0.024848 0.014095 -0.000072 -0.005736 -0.010113
 23 3.525410 -0.419243 0.945132 1.631625 0.008362 0.158532
 24 1.209883 -0.000001 -0.000000 0.003943 0.285298 -0.018611
 25 0.743917 0.000000 0.000000 -0.001656 0.963273 -0.092843
 26 0.794890 0.000000 -0.000000 -0.000005 0.704556 -0.000608
 27 3.414728 -0.449902 0.223653 1.656016 0.086751 0.789677
 28 1.390921 -0.000001 0.000000 -0.004769 1.284870 -0.018048
 29 0.906346 0.000000 0.000000 0.006062 -0.433838 0.045570
 30 0.776325 -0.000000 -0.000000 0.001079 0.866577 0.033798
 31 3.289557 -0.311001 -0.505976 1.664984 0.015731 0.920761
 32 1.262953 -0.000001 0.000000 0.410301 1.354679 0.453063
 33 0.919429 0.000000 -0.000000 -0.052499 -0.297525 0.013980
 34 0.803004 -0.000001 -0.000001 -0.163064 1.145489 -1.117549
 35 3.167419 -0.097637 -1.197365 1.820246 -0.117708 1.277629
 36 0.817884 -0.000000 -0.000000 0.142196 1.147469 0.122418
 37 0.708995 -0.000000 0.000000 -0.039911 -0.253101 0.086949
 38 0.794784 -0.000001 -0.000000 -1.042950 1.141227 -1.966856
 39 -0.613038 -15.496527 -16.262341 -1.116211 0.000000 0.000000
 40 0.000000 -0.000000 0.000000 -2.337246 -0.538750 0.748304
 41 8.403363 -0.000001 -0.000001 0.000000 1.757905 0.000000
 42 8.136637 -0.000007 0.000003 -1.248068 2.302492 -1.353593
 43 1.369794 -0.361443 1.237272 -1.115396 -0.328963 -0.211987
 44 1.320668 0.000002 -0.000001 -0.196642 -0.143305 0.019958
 45 1.066023 -0.000000 0.000000 -0.017811 -0.104873 0.092305
 46 3.289559 0.311001 -0.505977 -1.603699 0.048357 -0.440156
 47 1.262953 0.000000 -0.000001 0.038077 0.889087 0.021685
 48 0.919429 0.000001 0.000000 -0.029176 0.824859 -0.049925
 49 3.167420 0.097638 -1.197364 -1.630991 0.014571 -0.273646
 50 0.817882 0.000001 -0.000001 0.044739 0.930592 0.073496
 51 0.708995 0.000002 -0.000000 0.089948 0.671532 -0.006906
 52 3.414729 0.449902 0.223654 -1.645419 -0.010286 -0.464472
 53 1.390923 0.000002 0.000000 0.005510 0.961796 0.018246
 54 0.906348 -0.000001 0.000000 -0.006062 0.828489 -0.045570
 55 2.457049 0.024849 0.014095 0.000073 -0.005736 0.010114
 56 3.525411 0.419243 0.945132 -1.537511 -0.088158 -0.395882
 57 1.209881 -0.000002 -0.000000 -0.003943 0.631337 0.018610
 58 0.743920 -0.000000 -0.000000 0.001656 0.632056 0.092843
 59 8.136640 -0.000001 -0.000001 1.570797 -0.032533 -0.000000
 60 -4.829614 -9.935006 -4.190120 -1.560452 -0.376055 1.695461
 61 0.008386 -0.048311 -0.069475 -0.000000 0.000000 -0.000000
time 22
  0 -6.001634 -10.217499 -0.139997 -0.991104 -0.598605 -0.004435
  1 0.250197 -3.917488 -0.099874 0.000000 0.000000 0.000000
  2 0.337618 4.930949 0.877138 0.000000 0.000000 0.000000
  3 0.249743 5.375675 -0.431249 0.000000 0.000000 0.000000
  4 0.255666 1.449856 -0.078342 -0.008714 -0.005306 -0.000631
  5 0.241868 9.046290 0.896506 0.000000 0.000000 0.000000
  6 0.000303 8.159074 -1.557893 0.000000 0.000000 0.000000
  7 0.246663 7.851889 -0.926848 0.000000 0.000000 0.000000
  8 -2.477793 12.401382 4.136672 0.000000 0.000000 0.000000
  9 0.000000 -0.000000 -0.000000 0.000000 0.000000 0.000000
 10 0.000000 -15.653315 -6.600977 0.000000 0.000000 0.000000
 11 7.041981 -8.646618 -11.978387 0.344586 0.155131 0.068846
 12 -0.000000 -0.000000 -0.000000 0.000000 0.000000 0.000000
 13 -9.259155 0.805164 -5.542013 0.000000 -1.547455 0.000000
 14 -0.000000 0.000000 -0.000000 1.294827 0.278975 -2.231438
 15 8.403362 0.000001 -0.000001 0.000000 1.552500 0.000000
 16 8.136637 -0.000001 -0.000001 -1.570796 -0.032553 -0.000000
 17 8.136637 0.000008 0.000005 -1.747280 0.349890 0.150079
 18 1.369794 0.361443 1.237272 1.175074 -0.347333 0.479992
 19 1.320668 -0.000000 0.000000 0.201328 -0.139079 -0.045485
 20 1.066025 0.000000 -0.000000 -0.014471 -0.113783 0.196807
 21 1.039344 -0.000001 -0.000000 1.325744 0.991426 2.013611
 22 2.457049 -0.024849 0.014095 -0.000072 -0.005736 -0.010113
 23 3.525410 -0.419243 0.945132 1.631625 0.008362 0.158532
 24 1.209883 -0.000000 -0.000000 0.003943 0.285298 -0.018611
 25 0.743917 0.000000 0.000000 -0.001656 0.963273 -0.092843
 26 0.794889 0.000000 0.000000 -0.000005 0.704556 -0.000608
 27 3.414728 -0.449902 0.223652 1.656016 0.086751 0.789677
 28 1.390921 -0.000000 -0.000000 -0.004769 1.284870 -0.018048
 29 0.906345 0.000000 0.000000 0.006062 -0.433839 0.045570
 30 0.776325 -0.000000 -0.000000 0.001079 0.866577 0.033798
 31 3.289557 -0.311001 -0.505976 1.664984 0.015731 0.920761
 32 1.262953 -0.000001 0.000000 0.410302 1.354679 0.453063
 33 0.919429 -0.000000 0.000000 -0.052499 -0.297525 0.013980
 34 0.803004 -0.000001 -0.000001 -0.163064 1.145489 -1.117549
 35 3.167419 -0.097638 -1.197365 1.820246 -0.117708 1.277629
 36 0.817883 -0.000000 -0.000000 0.142196 1.147469 0.122418
 37 0.708995 0.000000 0.000000 -0.039911 -0.253101 0.086949
 38 0.794783 0.000000 -0.000001 -1.042950 1.141227 -1.966856
 39 -0.613038 -15.496527 -16.262341 -1.116211 0.000000 0.000000
 40 0.000000 -0.000000 0.000000 -2.220254 -0.517995 0.883533
 41 8.403364 -0.000000 -0.000000 -0.000000 1.665581 -0.000000
 42 8.136635 -0.000008 0.000003 -0.986999 2.461439 -1.040805
 43 1.369794 -0.361442 1.237272 -1.139587 -0.245720 -0.251315
 44 1.320668 0.000002 -0.000001 -0.204883 -0.132695 0.075005
 45 1.066023 -0.000000 -0.000000 -0.040111 -0.103924 0.292667
 46 3.289559 0.311002 -0.505976 -1.583778 0.081626 -0.180970
 47 1.262953 0.000000 -0.000001 -0.052724 0.506009 -0.050949
 48 0.919429 0.000001 -0.000001 0.028131 0.429631 -0.003953
 49 3.167421 0.097638 -1.197363 -1.664982 0.068771 -0.010774
 50 0.817881 0.000000 -0.000001 -0.031747 0.594074 0.007564
 51 0.708994 0.000001 0.000000 0.055076 0.410110 -0.047816
 52 3.414729 0.449902 0.223654 -1.622661 0.001823 -0.249906
 53 1.390922 0.000002 -0.000001 0.005510 0.534686 0.018246
 54 0.906347 -0.000000 -0.000000 -0.006062 0.596268 -0.045570
 55 2.457049 0.024850 0.014096 0.000073 -0.005736 0.010114
 56 3.525411 0.419244 0.945133 -1.569935 -0.073206 -0.248393
 57 1.209881 -0.000001 -0.000001 -0.003943 0.358487 0.018610
 58 0.743920 -0.000000 -0.000000 0.001656 0.459573 0.092843
 59 8.136639 -0.000000 -0.000000 1.570797 -0.032533 -0.000000
 60 -4.809412 -10.007270 -4.184906 -1.566693 -0.358238 1.694619
 61 0.008386 -0.048311 -0.069475 0.000000 -0.000000 -0.000000
time 23
  0 -6.010537 -10.217499 -0.139997 -1.005185 -0.604223 0.001324
  1 0.250197 -3.917489 -0.099874 0.000000 0.000000 0.000000
  2 0.337618 4.930949 0.877138 0.000000 0.000000 0.000000
  3 0.249743 5.375676 -0.431249 0.000000 0.000000 0.000000
  4 0.256105 1.433567 -0.079203 0.000000 0.000000 0.000000
  5 0.241867 9.046292 0.896506 0.000000 0.000000 0.000000
  6 0.000303 8.159075 -1.557893 0.000000 0.000000 0.000000
  7 0.246663 7.851890 -0.926848 0.000000 0.000000 0.000000
  8 -2.477793 12.401384 4.136672 0.000000 0.000000 0.000000
  9 -0.000000 -0.000000 -0.000000 0.000000 0.000000 0.000000
 10 0.000000 -15.653315 -6.600977 0.000000 0.000000 0.000000
 11 8.140734 -8.481245 -12.870237 0.530119 0.305585 0.093594
 12 0.000000 -0.000000 0.000000 0.000000 0.000000 0.000000
 13 -9.259155 0.805164 -5.542013 0.000000 -1.547455 0.000000
 14 -0.000000 0.000000 -0.000000 1.296389 0.279778 -2.227194
 15 8.403362 0.000001 -0.000001 0.000000 1.543668 0.000000
 16 8.136638 -0.000001 -0.000001 -1.570796 -0.032553 0.000000
 17 8.136637 0.000008 0.000005 -1.746248 0.367304 0.152615
 18 1.369794 0.361444 1.237272 1.175075 -0.347333 0.479992
 19 1.320667 -0.000001 -0.000001 0.201328 -0.139079 -0.045485
 20 1.066025 0.000000 0.000000 -0.014471 -0.113783 0.196807
 21 1.039343 -0.000001 0.000000 1.325744 0.991426 2.013611
 22 2.457049 -0.024849 0.014095 -0.000072 -0.005736 -0.010113
 23 3.525410 -0.419243 0.945132 1.631625 0.008362 0.158532
 24 1.209883 -0.000000 -0.000000 0.003943 0.285298 -0.018611
 25 0.743917 0.000001 0.000000 -0.001656 0.963273 -0.092843
 26 0.794890 -0.000000 -0.000000 -0.000005 0.704556 -0.000608
 27 3.414728 -0.449902 0.223652 1.656016 0.086751 0.789677
 28 1.390921 -0.000001 0.000000 -0.004769 1.284870 -0.018048
 29 0.906347 0.000000 0.000000 0.006062 -0.433839 0.045570
 30 0.776325 -0.000000 -0.000000 0.001079 0.866577 0.033798
 31 3.289557 -0.311001 -0.505976 1.664984 0.015731 0.920761
 32 1.262953 -0.000001 -0.000000 0.410301 1.354679 0.453063
 33 0.919430 0.000000 0.000000 -0.052499 -0.297525 0.013980
 34 0.803003 -0.000000 -0.000001 -0.163064 1.145489 -1.117549
 35 3.167419 -0.097637 -1.197365 1.820246 -0.117708 1.277629
 36 0.817884 -0.000000 -0.000000 0.142196 1.147469 0.122418
 37 0.708995 -0.000000 0.000000 -0.039911 -0.253101 0.086949
 38 0.794783 -0.000001 -0.000001 -1.042950 1.141227 -1.966856
 39 -0.613038 -15.496527 -16.262341 -1.116211 0.000000 0.000000
 40 0.000000 -0.000000 0.000000 -2.124348 -0.498987 0.915647
 41 8.403364 0.000001 -0.000001 -0.000001 1.566921 -0.000001
 42 8.136635 -0.000007 0.000004 -0.898397 2.609482 -0.878023
 43 1.369794 -0.361442 1.237272 -1.149732 -0.210812 -0.267807
 44 1.320667 0.000002 -0.000000 -0.208339 -0.128245 0.098089
 45 1.066023 -0.000000 -0.000000 -0.049462 -0.103526 0.376690
 46 3.289559 0.311001 -0.505975 -1.575425 0.095578 -0.072279
 47 1.262952 -0.000001 -0.000001 -0.090802 0.345363 -0.081408
 48 0.919429 0.000002 -0.000001 0.052163 0.263891 0.015326
 49 3.167421 0.097638 -1.197363 -1.679237 0.091501 0.099462
 50 0.817882 -0.000001 -0.000001 -0.063821 0.452954 -0.020085
 51 0.708995 0.000002 0.000001 0.040452 0.300481 -0.064972
 52 3.414729 0.449902 0.223655 -1.613118 0.006901 -0.159926
 53 1.390922 0.000002 -0.000000 0.005510 0.355576 0.018246
 54 0.906348 0.000000 0.000000 -0.006062 0.498884 -0.045570
 55 2.457049 0.024849 0.014096 0.000073 -0.005736 0.010114
 56 3.525411 0.419243 0.945133 -1.583532 -0.066936 -0.186543
 57 1.209882 -0.000002 -0.000001 -0.003943 0.244067 0.018610
 58 0.743920 -0.000000 0.000000 0.001656 0.387241 0.092843
 59 8.136639 -0.000001 -0.000001 1.570797 -0.032533 -0.000000
 60 -4.795267 -10.056903 -4.180319 1.570504 -2.795576 -1.447667
 61 0.008386 -0.048311 -0.069476 0.000000 0.000000 -0.000000
time 24
  0 -6.013859 -10.217499 -0.139997 -1.010440 -0.606320 0.003472
  1 0.250197 -3.917488 -0.099873 0.000000 -0.000000 0.000000
  2 0.337618 4.930948 0.877138 0.000000 -0.000000 0.000000
  3 0.249743 5.375675 -0.431248 0.000000 -0.000000 0.000000
  4 0.256105 1.433566 -0.079203 0.000000 -0.000000 0.000000
  5 0.241868 9.046291 0.896507 0.000000 -0.000000 0.000000
  6 0.000303 8.159075 -1.557893 0.000000 0.000000 0.000000
  7 0.246663 7.851890 -0.926848 0.000000 -0.000000 0.000000
  8 -2.477793 12.401383 4.136672 0.000000 -0.000000 0.000000
  9 0.000000 0.000000 0.000000 0.000000 0.000000 0.000000
 10 0.000000 -15.653315 -6.600977 0.000000 0.000000 0.000000
 11 8.577781 -8.459194 -13.201916 0.597000 0.362837 0.099040
 12 0.000000 -0.000000 -0.000000 0.000000 0.000000 0.000000
 13 -9.259155 0.805164 -5.542013 0.000000 -1.547455 0.000000
 14 -0.000000 0.000000 -0.000000 1.296971 0.280080 -2.225587
 15 8.403362 0.000001 -0.000001 0.000000 1.540369 0.000000
 16 8.136638 -0.000001 -0.000001 -1.570796 -0.032553 -0.000000
 17 8.136637 0.000008 0.000006 -1.745846 0.373772 0.153611
 18 1.369795 0.361444 1.237272 1.175075 -0.347333 0.479992
 19 1.320667 -0.000001 0.000000 0.201328 -0.139079 -0.045485
 20 1.066025 -0.000000 -0.000000 -0.014471 -0.113783 0.196807
 21 1.039343 -0.000002 0.000000 1.325744 0.991426 2.013611
 22 2.457049 -0.024848 0.014095 -0.000072 -0.005736 -0.010113
 23 3.525410 -0.419243 0.945132 1.631625 0.008362 0.158532
 24 1.209883 -0.000000 0.000001 0.003943 0.285298 -0.018611
 25 0.743917 0.000000 0.000001 -0.001656 0.963273 -0.092843
 26 0.794889 -0.000000 0.000000 -0.000005 0.704556 -0.000608
 27 3.414728 -0.449902 0.223653 1.656016 0.086751 0.789677
 28 1.390921 -0.000000 0.000000 -0.004769 1.284870 -0.018048
 29 0.906345 0.000000 0.000000 0.006062 -0.433839 0.045570
 30 0.776325 0.000000 -0.000000 0.001079 0.866577 0.033798
 31 3.289557 -0.311001 -0.505976 1.664984 0.015731 0.920761
 32 1.262953 -0.000000 0.000000 0.410302 1.354679 0.453063
 33 0.919429 0.000000 -0.000000 -0.052499 -0.297525 0.013980
 34 0.803004 -0.000001 -0.000001 -0.163064 1.145489 -1.117549
 35 3.167419 -0.097637 -1.197365 1.820246 -0.117708 1.277629
 36 0.817884 0.000000 0.000000 0.142196 1.147469 0.122418
 37 0.708995 -0.000000 0.000000 -0.039911 -0.253101 0.086949
 38 0.794784 -0.000000 -0.000001 -1.042950 1.141227 -1.966856
 39 -0.613038 -15.496527 -16.262341 -1.116211 0.000000 0.000000
 40 0.000000 -0.000000 0.000000 -2.085693 -0.489514 0.914446
 41 8.403362 0.000000 -0.000001 -0.000000 1.522926 -0.000000
 42 8.136636 -0.000007 0.000003 -0.881035 2.665683 -0.824622
 43 1.369793 -0.361443 1.237272 -1.149732 -0.210812 -0.267807
 44 1.320668 0.000002 -0.000001 -0.208339 -0.128245 0.098089
 45 1.066023 -0.000000 0.000000 -0.049462 -0.103526 0.376690
 46 3.289559 0.311001 -0.505976 -1.575425 0.095578 -0.072279
 47 1.262953 0.000000 -0.000001 -0.090802 0.345363 -0.081408
 48 0.919429 0.000002 -0.000000 0.052163 0.263891 0.015326
 49 3.167420 0.097637 -1.197364 -1.679237 0.091501 0.099462
 50 0.817883 -0.000000 -0.000001 -0.063821 0.452954 -0.020085
 51 0.708995 0.000002 0.000001 0.040452 0.300481 -0.064972
 52 3.414728 0.449901 0.223654 -1.613118 0.006901 -0.159926
 53 1.390922 0.000002 -0.000001 0.005510 0.355576 0.018246
 54 0.906347 0.000000 -0.000000 -0.006062 0.498884 -0.045570
 55 2.457049 0.024849 0.014095 0.000073 -0.005736 0.010114
 56 3.525410 0.419242 0.945132 -1.583532 -0.066936 -0.186543
 57 1.209881 -0.000002 -0.000000 -0.003943 0.244067 0.018610
 58 0.743919 0.000000 -0.000001 0.001656 0.387241 0.092843
 59 8.136640 -0.000001 -0.000002 1.570797 -0.032533 -0.000000
 60 -4.789951 -10.075361 -4.178403 1.568846 -2.800117 -1.447949
 61 0.008385 -0.048311 -0.069476 0.000000 0.000000 -0.000000
end
