version 1
nodes
  0 "Base"  -1
  1 "Pump"   0
  2 "Bolt"   0
  3 "Cover"   0
  4 "Shell"   0
  5 "Stock"   0
  6 "Stock_flip"   5
  7 "Trigger"   0
  8 "Holder"   0
  9 "Pin"   8
 10 "Hand_Mesh"  -1
 11 "Left_Hand_C"  -1
 12 "IK Chain02"  11
 13 "Dummy01"  -1
 14 "Right_U_Arm"  13
 15 "Right_L_Arm"  14
 16 "Right_L_Arm_End"  15
 17 "Right_Hand"  15
 18 "Bone22"  17
 19 "Bone23"  18
 20 "Bone24"  19
 21 "Bone25"  20
 22 "Right_Hand_End"  17
 23 "Bone06"  17
 24 "Bone07"  23
 25 "Bone08"  24
 26 "Bone09"  25
 27 "Bone10"  17
 28 "Bone11"  27
 29 "Bone12"  28
 30 "Bone13"  29
 31 "Bone14"  17
 32 "Bone15"  31
 33 "Bone16"  32
 34 "Bone17"  33
 35 "Bone18"  17
 36 "Bone19"  35
 37 "Bone20"  36
 38 "Bone21"  37
 39 "Dummy02"  -1
 40 "Left_U_Arm"  39
 41 "Left_L_Arm"  40
 42 "Left_Hand"  41
 43 "Left_thumb_1"  42
 44 "Left_thumb_2"  43
 45 "Left_thumb_3"  44
 46 "Left_ring_1"  42
 47 "Left_ring_2"  46
 48 "Left_ring_3"  47
 49 "Left_pingky_1"  42
 50 "Left_pingky_2"  49
 51 "Left_pingky_3"  50
 52 "Left_middle_1"  42
 53 "Left_middle_2"  52
 54 "Left_middle_3"  53
 55 "Left_Hand_End"  42
 56 "Left_point_1"  42
 57 "Left_point_2"  56
 58 "Left_point_3"  57
 59 "Left_L_Arm_End"  41
 60 "Right_Hand_C"  -1
 61 "IK Chain01"  60
end
skeleton
time 0
  0 2.454050 -12.299569 -3.123764 0.000000 0.000000 0.000000
  1 0.250197 -3.917489 -0.099874 -0.000000 -0.000000 0.000000
  2 0.337618 4.930949 0.877138 -0.000000 -0.000000 0.000000
  3 0.249743 5.375675 -0.431248 -0.000000 -0.000000 0.000000
  4 -2.477793 12.401383 4.136672 -0.000000 -0.000000 0.000000
  5 0.241868 9.046291 0.896506 -0.000000 -0.000000 0.000000
  6 0.000303 8.159075 -1.557893 0.000000 0.000000 0.000000
  7 0.246663 7.851890 -0.926848 -0.000000 -0.000000 0.000000
  8 -2.477793 12.401383 4.136672 -0.000000 -0.000000 0.000000
  9 -0.000000 0.000000 -0.000000 0.000000 0.000000 0.000000
 10 0.000000 -15.653315 -6.600977 0.000000 0.000000 0.000000
 11 4.086855 -0.035025 -5.496159 -0.059584 -0.011580 -0.217905
 12 -0.000000 -0.000000 -0.000000 0.000000 0.000000 0.000000
 13 -2.636130 0.805164 -5.542013 0.000000 -1.226559 0.000000
 14 -0.000000 0.000000 0.000000 1.442513 0.215523 -1.990652
 15 8.403362 -0.000000 -0.000001 0.000000 1.076959 0.000000
 16 8.136638 -0.000001 -0.000001 -1.570796 -0.032553 0.000000
 17 8.136637 0.000008 0.000004 -1.264078 -0.277936 -0.279646
 18 1.369795 0.361443 1.237272 1.175074 -0.347333 0.479992
 19 1.320667 -0.000000 0.000000 0.201328 -0.139079 -0.045485
 20 1.066024 0.000000 -0.000000 -0.014471 -0.113783 0.196807
 21 1.039343 -0.000001 -0.000000 1.325744 0.991426 2.013611
 22 2.457049 -0.024848 0.014095 -0.000072 -0.005736 -0.010113
 23 3.525410 -0.419242 0.945132 1.648473 0.052800 0.007770
 24 1.209884 0.000000 -0.000000 0.003943 0.285298 -0.018611
 25 0.743918 0.000001 0.000000 -0.001656 1.148181 -0.092843
 26 0.794889 -0.000000 0.000000 -0.000005 0.704556 -0.000608
 27 3.414728 -0.449901 0.223653 1.693617 0.046763 0.558369
 28 1.390921 -0.000001 -0.000000 -0.004769 1.284870 -0.018048
 29 0.906346 0.000000 0.000000 0.006062 -0.433839 0.045570
 30 0.776325 0.000000 0.000000 0.001079 0.866577 0.033798
 31 3.289557 -0.311000 -0.505976 1.762164 0.112217 0.757107
 32 1.262953 0.000000 -0.000000 0.410302 1.354679 0.453063
 33 0.919429 0.000000 0.000001 -0.052499 -0.297525 0.013980
 34 0.803004 -0.000001 -0.000001 -0.163064 1.145489 -1.117549
 35 3.167419 -0.097637 -1.197365 1.832995 -0.038354 1.129403
 36 0.817884 -0.000000 -0.000001 0.142196 1.147469 0.122418
 37 0.708995 0.000000 0.000000 -0.039911 -0.253101 0.086949
 38 0.794783 -0.000001 -0.000000 -1.042950 1.141227 -1.966856
 39 5.566999 5.667288 -6.998626 0.000000 0.000000 0.000000
 40 0.000000 0.000000 0.000000 -1.799891 -0.100234 -0.659321
 41 8.403363 0.000001 -0.000001 0.000000 2.389426 0.000000
 42 8.136636 -0.000008 0.000003 1.087826 -1.173507 0.528806
 43 1.369793 -0.361443 1.237272 -1.127491 0.097656 -0.579344
 44 1.320668 0.000002 -0.000001 -0.218662 -0.109509 0.185068
 45 1.066023 0.000000 0.000000 -0.025949 -0.111735 0.158666
 46 3.289559 0.311001 -0.505976 -1.569928 0.064069 -0.677339
 47 1.262953 0.000000 -0.000001 -0.592079 1.417311 -0.637209
 48 0.919429 0.000002 -0.000000 0.132824 1.180916 0.124669
 49 3.167420 0.097637 -1.197364 -1.577201 0.079890 -0.593938
 50 0.817882 0.000000 -0.000001 -0.164298 1.212571 -0.146163
 51 0.708995 0.000002 -0.000000 0.062061 0.898421 -0.028374
 52 3.414728 0.449902 0.223653 -1.580784 0.013019 -0.654459
 53 1.390922 0.000002 -0.000001 0.005510 1.543565 0.018246
 54 0.906348 0.000000 0.000001 -0.006062 0.824979 -0.045570
 55 2.457049 0.024849 0.014095 0.000073 -0.005736 0.010114
 56 3.525410 0.419243 0.945132 -1.571888 -0.021860 -0.078400
 57 1.209882 -0.000002 -0.000001 -0.003943 0.519687 0.018610
 58 0.743920 0.000000 -0.000000 0.001656 0.537959 0.092843
 59 8.136639 0.000001 -0.000002 1.570797 -0.032533 -0.000000
 60 1.158924 -12.848692 -5.141571 -0.534647 -1.336689 1.131709
 61 0.008386 -0.048311 -0.069476 -0.000000 -0.000000 -0.000000
time 1
  0 2.328068 -12.268593 -3.134648 -0.000378 -0.006525 -0.014465
  1 0.250197 -3.917488 -0.099873 -0.000000 -0.000000 0.000000
  2 0.337618 4.930949 0.877138 -0.000000 -0.000000 0.000000
  3 0.249743 5.375675 -0.431248 -0.000000 -0.000000 0.000000
  4 -2.477793 12.401383 4.136672 -0.000000 -0.000000 0.000000
  5 0.241867 9.046291 0.896506 -0.000000 -0.000000 0.000000
  6 0.000303 8.159075 -1.557892 0.000000 0.000000 0.000000
  7 0.246663 7.851890 -0.926848 -0.000000 -0.000000 0.000000
  8 -2.477793 12.401383 4.136672 -0.000000 -0.000000 0.000000
  9 -0.000000 0.000000 0.000000 0.000000 0.000000 0.000000
 10 0.000000 -15.653315 -6.600977 0.000000 0.000000 0.000000
 11 4.153563 -0.030071 -5.500975 -0.058542 -0.018033 -0.232386
 12 0.000000 0.000000 0.000000 0.000000 0.000000 0.000000
 13 -2.710510 0.805164 -5.542013 0.000000 -1.230163 0.000000
 14 0.000000 0.000000 0.000000 1.440312 0.212529 -2.011124
 15 8.403363 -0.000000 -0.000001 0.000000 1.105096 0.000000
 16 8.136639 -0.000000 0.000002 -1.570796 -0.032553 -0.000000
 17 8.136638 0.000008 0.000006 -1.266807 -0.291053 -0.267830
 18 1.369795 0.361444 1.237272 1.175075 -0.347333 0.479992
 19 1.320667 -0.000000 0.000000 0.201328 -0.139079 -0.045485
 20 1.066024 -0.000000 -0.000001 -0.014471 -0.113783 0.196807
 21 1.039343 -0.000001 -0.000000 1.325744 0.991426 2.013611
 22 2.457049 -0.024848 0.014094 -0.000073 -0.005736 -0.010113
 23 3.525410 -0.419242 0.945132 1.647228 0.052785 0.009581
 24 1.209883 -0.000000 -0.000000 0.003943 0.256843 -0.018611
 25 0.743918 -0.000000 -0.000000 -0.001656 1.093225 -0.092843
 26 0.794890 0.000000 0.000001 -0.000005 0.704556 -0.000608
 27 3.414728 -0.449901 0.223652 1.691231 0.049982 0.531262
 28 1.390922 -0.000000 0.000001 -0.004769 1.210908 -0.018048
 29 0.906346 0.000000 -0.000000 0.006062 -0.403596 0.045570
 30 0.776325 -0.000001 -0.000001 0.001079 0.866577 0.033798
 31 3.289557 -0.311000 -0.505976 1.753755 0.117716 0.721323
 32 1.262952 -0.000000 0.000000 0.392324 1.276772 0.430562
 33 0.919429 0.000000 0.000000 -0.052382 -0.276203 0.012883
 34 0.803004 -0.000001 -0.000001 -0.163064 1.145489 -1.117549
 35 3.167419 -0.097637 -1.197366 1.822459 -0.025154 1.073307
 36 0.817884 -0.000000 0.000000 0.137636 1.096847 0.115997
 37 0.708996 -0.000001 0.000000 -0.039911 -0.253101 0.086949
 38 0.794783 -0.000000 -0.000001 -1.042950 1.141227 -1.966856
 39 5.566999 5.667288 -6.998626 0.000000 0.000000 0.000000
 40 0.000000 0.000000 0.000000 -1.800087 -0.100021 -0.647448
 41 8.403364 0.000001 -0.000001 -0.000000 2.391927 0.000000
 42 8.136637 -0.000008 0.000003 1.115804 -1.151457 0.503535
 43 1.369793 -0.361443 1.237272 -1.127491 0.097656 -0.579344
 44 1.320668 0.000002 -0.000001 -0.218662 -0.109509 0.185068
 45 1.066023 -0.000000 0.000000 -0.025949 -0.111735 0.158666
 46 3.289559 0.311001 -0.505977 -1.569928 0.064069 -0.677339
 47 1.262953 0.000000 -0.000001 -0.592079 1.417311 -0.637209
 48 0.919429 0.000002 -0.000000 0.132824 1.180916 0.124669
 49 3.167420 0.097637 -1.197364 -1.577201 0.079890 -0.593938
 50 0.817882 0.000000 -0.000001 -0.164298 1.212571 -0.146163
 51 0.708995 0.000002 -0.000000 0.062061 0.898421 -0.028374
 52 3.414729 0.449902 0.223654 -1.580784 0.013019 -0.654458
 53 1.390922 0.000002 -0.000001 0.005510 1.543565 0.018246
 54 0.906347 0.000000 0.000001 -0.006062 0.824979 -0.045570
 55 2.457049 0.024849 0.014095 0.000073 -0.005736 0.010114
 56 3.525410 0.419243 0.945132 -1.571888 -0.021860 -0.078400
 57 1.209882 -0.000002 -0.000001 -0.003943 0.519688 0.018610
 58 0.743920 0.000000 -0.000000 0.001656 0.537959 0.092843
 59 8.136640 0.000001 -0.000002 1.570797 -0.032533 -0.000000
 60 1.001720 -12.747169 -5.209797 -0.561064 -1.339042 1.142947
 61 0.008386 -0.048312 -0.069476 -0.000000 0.000000 -0.000000
time 2
  0 1.987249 -12.184793 -3.162717 -0.001963 -0.024494 -0.051769
  1 0.250197 -3.917489 -0.099874 -0.000000 -0.000000 0.000000
  2 0.337618 4.930949 0.877138 -0.000000 -0.000000 0.000000
  3 0.249743 5.375675 -0.431248 -0.000000 -0.000000 0.000000
  4 -2.477793 12.401384 4.136672 -0.000000 -0.000000 0.000000
  5 0.241868 9.046291 0.896506 -0.000000 -0.000000 0.000000
  6 0.000303 8.159075 -1.557893 0.000000 0.000000 0.000000
  7 0.246663 7.851890 -0.926848 -0.000000 -0.000000 0.000000
  8 -2.477793 12.401384 4.136672 -0.000000 -0.000000 0.000000
  9 -0.000000 0.000000 -0.000000 0.000000 0.000000 0.000000
 10 0.000000 -15.653315 -6.600977 0.000000 0.000000 0.000000
 11 4.310389 -0.028857 -5.518477 -0.056204 -0.035919 -0.269778
 12 0.000000 -0.000000 0.000000 0.000000 0.000000 0.000000
 13 -2.920713 0.805164 -5.542013 0.000000 -1.240348 0.000000
 14 0.000000 0.000000 -0.000000 1.434380 0.205740 -2.063750
 15 8.403362 -0.000000 -0.000001 -0.000000 1.176579 -0.000000
 16 8.136636 -0.000001 -0.000001 -1.570796 -0.032553 0.000000
 17 8.136637 0.000008 0.000005 -1.276698 -0.322946 -0.235330
 18 1.369795 0.361444 1.237272 1.175074 -0.347333 0.479992
 19 1.320667 -0.000000 -0.000000 0.201328 -0.139079 -0.045485
 20 1.066026 0.000000 0.000001 -0.014471 -0.113783 0.196807
 21 1.039343 -0.000001 -0.000001 1.325745 0.991426 2.013611
 22 2.457049 -0.024848 0.014095 -0.000072 -0.005736 -0.010113
 23 3.525409 -0.419242 0.945131 1.644018 0.052728 0.014556
 24 1.209882 -0.000000 0.000000 0.003943 0.183456 -0.018611
 25 0.743917 0.000000 -0.000000 -0.001656 0.951496 -0.092843
 26 0.794890 0.000001 0.000000 -0.000005 0.704556 -0.000608
 27 3.414728 -0.449901 0.223652 1.685078 0.058282 0.461352
 28 1.390921 -0.000000 -0.000000 -0.004769 1.020164 -0.018048
 29 0.906346 0.000001 0.000000 0.006062 -0.325603 0.045570
 30 0.776325 -0.000000 -0.000000 0.001079 0.866577 0.033798
 31 3.289557 -0.311001 -0.505976 1.732069 0.131896 0.629038
 32 1.262952 -0.000001 -0.000001 0.345960 1.075853 0.372532
 33 0.919429 -0.000001 0.000000 -0.052079 -0.221213 0.010054
 34 0.803003 -0.000001 -0.000001 -0.163064 1.145489 -1.117549
 35 3.167418 -0.097637 -1.197366 1.795287 0.008889 0.928637
 36 0.817884 -0.000000 -0.000000 0.125876 0.966295 0.099438
 37 0.708995 0.000000 0.000001 -0.039911 -0.253101 0.086949
 38 0.794783 -0.000000 -0.000001 -1.042950 1.141227 -1.966856
 39 5.566999 5.667288 -6.998626 0.000000 0.000000 0.000000
 40 0.000000 0.000000 0.000000 -1.799122 -0.098959 -0.619136
 41 8.403363 0.000000 -0.000000 0.000000 2.397468 0.000000
 42 8.136636 -0.000008 0.000003 1.181978 -1.095603 0.445718
 43 1.369793 -0.361442 1.237272 -1.127491 0.097656 -0.579344
 44 1.320668 0.000002 -0.000001 -0.218662 -0.109509 0.185068
 45 1.066023 0.000000 0.000000 -0.025949 -0.111735 0.158666
 46 3.289558 0.311001 -0.505976 -1.569928 0.064069 -0.677339
 47 1.262953 -0.000000 -0.000001 -0.592079 1.417310 -0.637208
 48 0.919429 0.000002 -0.000000 0.132824 1.180916 0.124669
 49 3.167420 0.097637 -1.197364 -1.577201 0.079890 -0.593938
 50 0.817882 -0.000000 -0.000001 -0.164298 1.212571 -0.146163
 51 0.708995 0.000002 -0.000000 0.062061 0.898421 -0.028374
 52 3.414728 0.449902 0.223654 -1.580784 0.013019 -0.654459
 53 1.390922 0.000002 -0.000001 0.005510 1.543565 0.018246
 54 0.906348 0.000000 0.000001 -0.006062 0.824979 -0.045570
 55 2.457048 0.024849 0.014095 0.000073 -0.005736 0.010114
 56 3.525410 0.419243 0.945132 -1.571888 -0.021860 -0.078400
 57 1.209882 -0.000002 -0.000001 -0.003943 0.519687 0.018610
 58 0.743920 -0.000000 -0.000000 0.001656 0.537959 0.092843
 59 8.136639 0.000000 -0.000002 1.570797 -0.032533 -0.000000
 60 0.594762 -12.470440 -5.389119 -0.637202 -1.344175 1.179767
 61 0.008386 -0.048312 -0.069476 0.000000 -0.000000 -0.000000
time 3
  0 1.487285 -12.061863 -3.201097 -0.005431 -0.051493 -0.102777
  1 0.250197 -3.917488 -0.099874 -0.000000 -0.000000 0.000000
  2 0.337618 4.930949 0.877138 -0.000000 -0.000000 0.000000
  3 0.249743 5.375676 -0.431249 -0.000000 -0.000000 0.000000
  4 -2.477793 12.401384 4.136672 -0.000000 -0.000000 0.000000
  5 0.241868 9.046292 0.896506 -0.000000 -0.000000 0.000000
  6 0.000303 8.159075 -1.557893 0.000000 0.000000 0.000000
  7 0.246663 7.851890 -0.926848 -0.000000 -0.000000 0.000000
  8 -2.477793 12.401384 4.136672 -0.000000 -0.000000 0.000000
  9 0.000000 0.000000 0.000000 0.000000 0.000000 0.000000
 10 0.000000 -15.653315 -6.600977 0.000000 0.000000 0.000000
 11 4.491147 -0.055211 -5.552796 -0.053741 -0.063028 -0.321039
 12 -0.000000 0.000000 -0.000000 0.000000 0.000000 0.000000
 13 -3.247337 0.805164 -5.542013 0.000000 -1.256173 0.000000
 14 -0.000000 0.000000 -0.000000 1.425363 0.198630 -2.135531
 15 8.403362 -0.000000 -0.000001 -0.000000 1.271842 -0.000000
 16 8.136638 -0.000001 0.000001 -1.570796 -0.032553 0.000000
 17 8.136636 0.000007 0.000005 -1.297274 -0.361538 -0.185906
 18 1.369794 0.361443 1.237272 1.175075 -0.347333 0.479992
 19 1.320667 -0.000001 -0.000000 0.201328 -0.139079 -0.045485
 20 1.066025 0.000000 -0.000000 -0.014471 -0.113783 0.196807
 21 1.039343 -0.000001 -0.000000 1.325744 0.991426 2.013611
 22 2.457048 -0.024848 0.014094 -0.000072 -0.005736 -0.010113
 23 3.525409 -0.419243 0.945131 1.639629 0.052607 0.022002
 24 1.209883 -0.000001 -0.000000 0.003943 0.083112 -0.018611
 25 0.743918 -0.000000 -0.000000 -0.001656 0.757703 -0.092843
 26 0.794889 -0.000000 -0.000000 -0.000005 0.704556 -0.000608
 27 3.414727 -0.449902 0.223652 1.676664 0.069632 0.365762
 28 1.390921 -0.000001 0.000001 -0.004769 0.759350 -0.018048
 29 0.906346 0.000001 0.000001 0.006062 -0.218960 0.045570
 30 0.776325 -0.000000 -0.000000 0.001079 0.866577 0.033798
 31 3.289557 -0.311001 -0.505977 1.702416 0.151285 0.502851
 32 1.262953 -0.000001 -0.000001 0.282565 0.801127 0.293185
 33 0.919429 -0.000000 0.000000 -0.051666 -0.146023 0.006185
 34 0.803004 -0.000001 -0.000001 -0.163064 1.145489 -1.117549
 35 3.167419 -0.097637 -1.197366 1.758134 0.055438 0.730824
 36 0.817884 -0.000000 0.000000 0.109797 0.787785 0.076796
 37 0.708995 0.000001 0.000000 -0.039911 -0.253101 0.086949
 38 0.794783 -0.000000 -0.000000 -1.042950 1.141227 -1.966856
 39 5.566999 5.667288 -6.998626 0.000000 0.000000 0.000000
 40 0.000000 0.000000 0.000000 -1.794487 -0.096721 -0.587276
 41 8.403363 0.000001 -0.000002 -0.000000 2.399859 0.000000
 42 8.136636 -0.000007 0.000003 1.264559 -1.020231 0.378012
 43 1.369793 -0.361442 1.237273 -1.127491 0.097656 -0.579344
 44 1.320668 0.000002 -0.000001 -0.218662 -0.109509 0.185068
 45 1.066023 0.000000 0.000000 -0.025949 -0.111735 0.158666
 46 3.289559 0.311002 -0.505976 -1.569928 0.064069 -0.677339
 47 1.262953 0.000000 -0.000001 -0.592079 1.417311 -0.637209
 48 0.919429 0.000002 -0.000000 0.132824 1.180916 0.124669
 49 3.167421 0.097638 -1.197364 -1.577201 0.079890 -0.593938
 50 0.817882 0.000000 -0.000001 -0.164298 1.212571 -0.146163
 51 0.708995 0.000002 -0.000000 0.062061 0.898421 -0.028374
 52 3.414729 0.449902 0.223654 -1.580784 0.013019 -0.654459
 53 1.390922 0.000002 -0.000000 0.005510 1.543565 0.018246
 54 0.906347 -0.000000 0.000000 -0.006062 0.824979 -0.045570
 55 2.457049 0.024849 0.014095 0.000073 -0.005736 0.010114
 56 3.525410 0.419244 0.945132 -1.571888 -0.021860 -0.078400
 57 1.209882 -0.000002 -0.000000 -0.003943 0.519687 0.018610
 58 0.743920 0.000000 0.000000 0.001656 0.537959 0.092843
 59 8.136640 0.000000 -0.000002 1.570797 -0.032533 -0.000000
 60 0.040532 -12.062658 -5.642717 -0.758100 -1.348324 1.246498
 61 0.008386 -0.048312 -0.069476 -0.000000 -0.000000 -0.000000
time 4
  0 0.883869 -11.913496 -3.242915 -0.011459 -0.085112 -0.158353
  1 0.250197 -3.917489 -0.099874 -0.000000 -0.000000 0.000000
  2 0.337618 4.930949 0.877138 -0.000000 -0.000000 0.000000
  3 0.249742 5.375675 -0.431249 -0.000000 -0.000000 0.000000
  4 -2.477793 12.401384 4.136672 -0.000000 -0.000000 0.000000
  5 0.241867 9.046291 0.896506 -0.000000 -0.000000 0.000000
  6 0.000303 8.159076 -1.557893 0.000000 0.000000 0.000000
  7 0.246663 7.851890 -0.926848 -0.000000 -0.000000 0.000000
  8 -2.477793 12.401384 4.136672 -0.000000 -0.000000 0.000000
  9 -0.000000 0.000000 -0.000000 0.000000 0.000000 0.000000
 10 0.000000 -15.653315 -6.600977 0.000000 0.000000 0.000000
 11 4.630946 -0.120271 -5.607787 -0.052319 -0.097151 -0.377140
 12 0.000000 -0.000000 -0.000000 0.000000 0.000000 0.000000
 13 -3.670978 0.805164 -5.542013 0.000000 -1.276699 0.000000
 14 0.000000 0.000000 0.000000 1.413263 0.194507 -2.213796
 15 8.403362 -0.000001 -0.000000 0.000000 1.371428 0.000000
 16 8.136638 -0.000000 -0.000001 -1.570796 -0.032553 0.000000
 17 8.136637 0.000008 0.000004 -1.330733 -0.394384 -0.123841
 18 1.369794 0.361444 1.237272 1.175074 -0.347333 0.479992
 19 1.320668 -0.000001 0.000000 0.201328 -0.139079 -0.045485
 20 1.066025 0.000000 -0.000001 -0.014471 -0.113783 0.196807
 21 1.039343 -0.000002 -0.000000 1.325744 0.991426 2.013611
 22 2.457049 -0.024848 0.014094 -0.000072 -0.005736 -0.010113
 23 3.525410 -0.419242 0.945132 1.634847 0.052402 0.031230
 24 1.209884 -0.000000 0.000001 0.003943 -0.026218 -0.018611
 25 0.743918 0.000001 -0.000000 -0.001656 0.546556 -0.092843
 26 0.794890 0.000000 0.000000 -0.000005 0.704556 -0.000608
 27 3.414727 -0.449901 0.223652 1.667497 0.081998 0.261611
 28 1.390922 -0.000001 -0.000000 -0.004769 0.475180 -0.018048
 29 0.906346 0.000001 0.000001 0.006062 -0.102766 0.045570
 30 0.776324 -0.000001 -0.000000 0.001079 0.866577 0.033798
 31 3.289557 -0.311000 -0.505976 1.670108 0.172410 0.365365
 32 1.262953 -0.000000 -0.000001 0.213493 0.501799 0.206733
 33 0.919429 0.000001 0.000001 -0.051216 -0.064099 0.001970
 34 0.803004 -0.000000 -0.000000 -0.163064 1.145489 -1.117549
 35 3.167419 -0.097637 -1.197366 1.717653 0.106156 0.515295
 36 0.817884 -0.000000 -0.000000 0.092277 0.593289 0.052126
 37 0.708995 0.000001 0.000000 -0.039911 -0.253101 0.086949
 38 0.794784 -0.000000 -0.000001 -1.042950 1.141227 -1.966856
 39 5.566999 5.667288 -6.998626 0.000000 0.000000 0.000000
 40 0.000000 0.000000 0.000000 -1.784685 -0.092945 -0.564153
 41 8.403363 0.000001 -0.000000 0.000000 2.396491 0.000000
 42 8.136636 -0.000008 0.000003 1.350507 -0.942740 0.314563
 43 1.369793 -0.361442 1.237272 -1.127491 0.097656 -0.579344
 44 1.320668 0.000002 -0.000001 -0.218662 -0.109509 0.185068
 45 1.066023 -0.000000 -0.000000 -0.025949 -0.111735 0.158666
 46 3.289558 0.311001 -0.505976 -1.569928 0.064069 -0.677339
 47 1.262953 -0.000000 -0.000001 -0.592079 1.417311 -0.637209
 48 0.919429 0.000002 -0.000000 0.132824 1.180916 0.124669
 49 3.167420 0.097637 -1.197364 -1.577201 0.079890 -0.593938
 50 0.817882 0.000000 -0.000001 -0.164298 1.212571 -0.146163
 51 0.708995 0.000002 0.000000 0.062061 0.898421 -0.028374
 52 3.414728 0.449902 0.223653 -1.580784 0.013019 -0.654459
 53 1.390922 0.000002 -0.000001 0.005510 1.543565 0.018247
 54 0.906347 0.000000 0.000001 -0.006062 0.824979 -0.045570
 55 2.457048 0.024849 0.014095 0.000073 -0.005736 0.010114
 56 3.525410 0.419243 0.945132 -1.571888 -0.021860 -0.078400
 57 1.209882 -0.000002 -0.000000 -0.003943 0.519687 0.018610
 58 0.743920 0.000000 0.000000 0.001656 0.537959 0.092843
 59 8.136639 0.000000 -0.000002 1.570797 -0.032533 -0.000000
 60 -0.565274 -11.576035 -5.933074 -0.912602 -1.347275 1.341203
 61 0.008385 -0.048311 -0.069476 -0.000000 -0.000000 -0.000000
time 5
  0 0.232692 -11.753386 -3.281295 -0.020721 -0.122939 -0.209360
  1 0.250197 -3.917489 -0.099874 0.000000 0.000000 -0.000000
  2 0.337618 4.930948 0.877138 0.000000 0.000000 -0.000000
  3 0.249743 5.375675 -0.431248 0.000000 0.000000 -0.000000
  4 -2.477793 12.401383 4.136672 0.000000 0.000000 -0.000000
  5 0.241867 9.046291 0.896506 0.000000 0.000000 -0.000000
  6 0.000303 8.159075 -1.557893 0.000000 0.000000 0.000000
  7 0.246663 7.851889 -0.926848 0.000000 0.000000 -0.000000
  8 -2.477793 12.401383 4.136672 0.000000 0.000000 -0.000000
  9 -0.000000 0.000000 0.000000 0.000000 0.000000 0.000000
 10 0.000000 -15.653315 -6.600977 0.000000 0.000000 0.000000
 11 4.671010 -0.211027 -5.687249 -0.053091 -0.136076 -0.429020
 12 0.000000 -0.000000 0.000000 0.000000 0.000000 0.000000
 13 -4.172232 0.805164 -5.542013 0.000000 -1.300986 0.000000
 14 -0.000000 0.000000 -0.000000 1.397185 0.195573 -2.289420
 15 8.403360 -0.000000 -0.000001 0.000000 1.463164 0.000000
 16 8.136637 -0.000001 0.000001 -1.570796 -0.032553 0.000000
 17 8.136637 0.000008 0.000006 -1.375000 -0.413567 -0.056009
 18 1.369794 0.361443 1.237272 1.175074 -0.347333 0.479992
 19 1.320668 -0.000001 0.000001 0.201328 -0.139079 -0.045485
 20 1.066024 0.000000 0.000000 -0.014471 -0.113783 0.196807
 21 1.039343 -0.000001 0.000000 1.325744 0.991426 2.013611
 22 2.457049 -0.024849 0.014095 -0.000072 -0.005736 -0.010113
 23 3.525409 -0.419243 0.945132 1.630458 0.052093 0.041549
 24 1.209883 -0.000001 0.000000 0.003943 -0.126563 -0.018611
 25 0.743918 0.000000 -0.000000 -0.001656 0.352764 -0.092843
 26 0.794889 -0.000001 -0.000000 -0.000005 0.704556 -0.000608
 27 3.414728 -0.449902 0.223653 1.659084 0.093347 0.166021
 28 1.390921 -0.000001 0.000000 -0.004769 0.214366 -0.018048
 29 0.906346 0.000000 0.000001 0.006062 0.003877 0.045570
 30 0.776324 -0.000000 -0.000000 0.001079 0.866577 0.033798
 31 3.289557 -0.311001 -0.505976 1.640455 0.191799 0.239179
 32 1.262953 -0.000000 0.000000 0.150098 0.227073 0.127386
 33 0.919429 -0.000000 0.000001 -0.050802 0.011091 -0.001898
 34 0.803004 -0.000000 -0.000001 -0.163064 1.145489 -1.117549
 35 3.167419 -0.097637 -1.197365 1.680500 0.152705 0.317482
 36 0.817884 -0.000000 -0.000000 0.076198 0.414779 0.029484
 37 0.708995 0.000000 0.000000 -0.039911 -0.253101 0.086949
 38 0.794783 -0.000000 -0.000000 -1.042950 1.141227 -1.966856
 39 5.566999 5.667288 -6.998626 0.000000 0.000000 0.000000
 40 0.000000 0.000000 0.000000 -1.769733 -0.087422 -0.559958
 41 8.403363 0.000001 -0.000002 0.000000 2.388219 0.000000
 42 8.136636 -0.000008 0.000003 1.434660 -0.882298 0.261126
 43 1.369793 -0.361442 1.237272 -1.127491 0.097656 -0.579344
 44 1.320668 0.000002 -0.000001 -0.218662 -0.109509 0.185068
 45 1.066023 -0.000000 0.000000 -0.025949 -0.111735 0.158666
 46 3.289558 0.311001 -0.505976 -1.569928 0.064069 -0.677339
 47 1.262953 0.000000 -0.000001 -0.592079 1.417311 -0.637209
 48 0.919429 0.000002 -0.000000 0.132824 1.180916 0.124669
 49 3.167420 0.097638 -1.197364 -1.577201 0.079890 -0.593938
 50 0.817882 -0.000000 -0.000001 -0.164298 1.212571 -0.146163
 51 0.708995 0.000002 -0.000000 0.062061 0.898421 -0.028374
 52 3.414728 0.449902 0.223654 -1.580784 0.013019 -0.654459
 53 1.390922 0.000002 -0.000001 0.005510 1.543565 0.018246
 54 0.906347 0.000000 0.000001 -0.006062 0.824979 -0.045570
 55 2.457048 0.024849 0.014095 0.000073 -0.005736 0.010114
 56 3.525409 0.419243 0.945132 -1.571888 -0.021860 -0.078400
 57 1.209881 -0.000002 -0.000000 -0.003943 0.519687 0.018610
 58 0.743920 0.000000 -0.000000 0.001656 0.537959 0.092843
 59 8.136638 0.000000 -0.000002 1.570797 -0.032533 -0.000000
 60 -1.146507 -11.069297 -6.220097 -1.079506 -1.337668 1.451825
 61 0.008386 -0.048311 -0.069476 0.000000 -0.000000 -0.000000
time 6
  0 -0.410552 -11.595227 -3.309364 -0.033895 -0.162561 -0.246665
  1 0.250197 -3.917488 -0.099874 0.000000 0.000000 -0.000000
  2 0.337618 4.930949 0.877138 0.000000 0.000000 -0.000000
  3 0.249742 5.375676 -0.431249 0.000000 0.000000 -0.000000
  4 -2.477793 12.401383 4.136672 0.000000 0.000000 -0.000000
  5 0.241867 9.046291 0.896506 0.000000 0.000000 -0.000000
  6 0.000303 8.159075 -1.557893 0.000000 0.000000 0.000000
  7 0.246663 7.851890 -0.926848 0.000000 0.000000 -0.000000
  8 -2.477793 12.401383 4.136672 0.000000 0.000000 -0.000000
  9 -0.000000 0.000000 0.000000 0.000000 0.000000 0.000000
 10 0.000000 -15.653315 -6.600977 0.000000 0.000000 0.000000
 11 4.562608 -0.290249 -5.795021 -0.057209 -0.177590 -0.467555
 12 -0.000000 0.000000 0.000000 0.000000 0.000000 0.000000
 13 -4.731697 0.805164 -5.542013 0.000000 -1.328093 0.000000
 14 -0.000001 0.000000 -0.000000 1.376537 0.203032 -2.354257
 15 8.403361 -0.000001 -0.000000 0.000000 1.537703 0.000000
 16 8.136638 -0.000000 0.000000 -1.570796 -0.032553 0.000000
 17 8.136637 0.000008 0.000005 -1.423780 -0.415178 0.007651
 18 1.369795 0.361443 1.237272 1.175075 -0.347333 0.479992
 19 1.320667 -0.000000 -0.000000 0.201328 -0.139079 -0.045485
 20 1.066025 0.000000 0.000000 -0.014471 -0.113783 0.196807
 21 1.039343 -0.000001 -0.000001 1.325745 0.991426 2.013611
 22 2.457049 -0.024849 0.014094 -0.000072 -0.005736 -0.010113
 23 3.525409 -0.419243 0.945131 1.627248 0.051658 0.052266
 24 1.209884 -0.000001 0.000000 0.003943 -0.199949 -0.018611
 25 0.743918 0.000001 0.000000 -0.001656 0.211035 -0.092843
 26 0.794890 0.000000 0.000000 -0.000005 0.704556 -0.000608
 27 3.414728 -0.449902 0.223652 1.652931 0.101648 0.096111
 28 1.390921 -0.000001 0.000000 -0.004769 0.023622 -0.018048
 29 0.906347 0.000000 0.000001 0.006062 0.081870 0.045570
 30 0.776324 -0.000000 -0.000001 0.001079 0.866577 0.033798
 31 3.289557 -0.311001 -0.505976 1.618768 0.205979 0.146893
 32 1.262952 -0.000000 -0.000000 0.103734 0.026154 0.069356
 33 0.919430 0.000000 0.000001 -0.050500 0.066081 -0.004728
 34 0.803004 -0.000000 -0.000001 -0.163064 1.145489 -1.117549
 35 3.167419 -0.097637 -1.197365 1.653328 0.186748 0.172812
 36 0.817884 0.000000 -0.000000 0.064438 0.284227 0.012925
 37 0.708995 0.000000 0.000000 -0.039911 -0.253101 0.086949
 38 0.794783 -0.000001 -0.000000 -1.042950 1.141227 -1.966856
 39 5.566999 5.667288 -6.998626 0.000000 0.000000 0.000000
 40 0.000000 0.000000 0.000000 -1.750611 -0.080032 -0.581364
 41 8.403363 0.000001 -0.000001 -0.000000 2.378854 0.000000
 42 8.136637 -0.000008 0.000003 1.515848 -0.857927 0.218171
 43 1.369793 -0.361443 1.237272 -1.127491 0.097656 -0.579344
 44 1.320668 0.000002 -0.000001 -0.218662 -0.109509 0.185068
 45 1.066023 0.000000 -0.000000 -0.025949 -0.111735 0.158666
 46 3.289558 0.311001 -0.505976 -1.569928 0.064069 -0.677339
 47 1.262953 0.000000 -0.000001 -0.592079 1.417311 -0.637209
 48 0.919429 0.000002 -0.000000 0.132824 1.180916 0.124669
 49 3.167420 0.097637 -1.197364 -1.577201 0.079890 -0.593938
 50 0.817882 -0.000000 -0.000001 -0.164298 1.212571 -0.146164
 51 0.708995 0.000002 0.000000 0.062061 0.898421 -0.028374
 52 3.414728 0.449902 0.223654 -1.580784 0.013019 -0.654459
 53 1.390922 0.000002 -0.000001 0.005511 1.543565 0.018247
 54 0.906348 -0.000000 0.000001 -0.006062 0.824979 -0.045570
 55 2.457049 0.024849 0.014095 0.000073 -0.005736 0.010114
 56 3.525409 0.419243 0.945132 -1.571888 -0.021860 -0.078400
 57 1.209882 -0.000002 -0.000001 -0.003943 0.519687 0.018610
 58 0.743920 0.000000 -0.000000 0.001656 0.537959 0.092843
 59 8.136640 0.000000 -0.000002 1.570797 -0.032533 -0.000000
 60 -1.651551 -10.599247 -6.460441 -1.233354 -1.318272 1.562006
 61 0.008386 -0.048312 -0.069476 0.000000 0.000000 -0.000000
time 7
  0 -0.990173 -11.452711 -3.320248 -0.051656 -0.201568 -0.261129
  1 0.250197 -3.917489 -0.099873 0.000000 0.000000 0.000000
  2 0.337618 4.930949 0.877138 0.000000 0.000000 0.000000
  3 0.249742 5.375676 -0.431248 0.000000 0.000000 0.000000
  4 -2.477793 12.401384 4.136673 0.000000 0.000000 0.000000
  5 0.241867 9.046292 0.896506 0.000000 0.000000 0.000000
  6 0.000303 8.159075 -1.557893 0.000000 0.000000 0.000000
  7 0.246663 7.851890 -0.926848 0.000000 0.000000 0.000000
  8 -2.477793 12.401384 4.136673 0.000000 0.000000 0.000000
  9 0.000000 0.000000 0.000000 0.000000 0.000000 0.000000
 10 0.000000 -15.653315 -6.600977 0.000000 0.000000 0.000000
 11 4.266590 -0.306294 -5.935051 -0.065845 -0.219482 -0.483533
 12 -0.000000 -0.000000 -0.000000 0.000000 0.000000 0.000000
 13 -5.329968 0.805164 -5.542013 0.000000 -1.357080 0.000000
 14 0.000000 0.000000 0.000000 1.351381 0.217213 -2.401561
 15 8.403362 -0.000001 -0.000001 -0.000000 1.589808 -0.000000
 16 8.136637 -0.000001 0.000000 -1.570796 -0.032553 0.000000
 17 8.136636 0.000008 0.000006 -1.468068 -0.401144 0.055608
 18 1.369795 0.361443 1.237272 1.175075 -0.347333 0.479992
 19 1.320668 -0.000000 -0.000000 0.201328 -0.139079 -0.045485
 20 1.066025 0.000000 -0.000001 -0.014471 -0.113783 0.196807
 21 1.039343 -0.000001 0.000000 1.325745 0.991426 2.013611
 22 2.457049 -0.024849 0.014095 -0.000072 -0.005736 -0.010113
 23 3.525409 -0.419243 0.945132 1.626003 0.051078 0.062693
 24 1.209883 -0.000000 -0.000000 0.003943 -0.228405 -0.018611
 25 0.743917 0.000001 0.000000 -0.001656 0.156079 -0.092843
 26 0.794890 0.000000 -0.000000 -0.000005 0.704556 -0.000608
 27 3.414728 -0.449902 0.223652 1.650545 0.104866 0.069004
 28 1.390921 -0.000001 -0.000000 -0.004769 -0.050340 -0.018048
 29 0.906346 0.000001 0.000000 0.006062 0.112113 0.045570
 30 0.776326 -0.000000 -0.000000 0.001079 0.866577 0.033798
 31 3.289557 -0.311001 -0.505976 1.610359 0.211477 0.111109
 32 1.262953 0.000000 -0.000000 0.085756 -0.051753 0.046855
 33 0.919429 0.000000 0.000001 -0.050383 0.087403 -0.005825
 34 0.803003 -0.000000 -0.000001 -0.163064 1.145489 -1.117549
 35 3.167419 -0.097638 -1.197365 1.642792 0.199949 0.116716
 36 0.817884 -0.000000 -0.000001 0.059878 0.233605 0.006504
 37 0.708995 0.000000 0.000000 -0.039911 -0.253101 0.086949
 38 0.794784 -0.000000 -0.000001 -1.042950 1.141227 -1.966856
 39 5.566999 5.667288 -6.998626 0.000000 0.000000 0.000000
 40 0.000000 0.000000 0.000000 -1.728040 -0.070604 -0.632987
 41 8.403363 0.000001 -0.000001 -0.000000 2.372885 -0.000000
 42 8.136637 -0.000008 0.000003 1.595464 -0.887595 0.182418
 43 1.369793 -0.361442 1.237272 -1.127491 0.097656 -0.579344
 44 1.320668 0.000001 -0.000001 -0.218662 -0.109509 0.185068
 45 1.066023 -0.000000 -0.000000 -0.025949 -0.111735 0.158666
 46 3.289558 0.311001 -0.505976 -1.569928 0.064069 -0.677339
 47 1.262953 0.000000 -0.000001 -0.592079 1.417311 -0.637209
 48 0.919429 0.000002 -0.000000 0.132824 1.180916 0.124669
 49 3.167420 0.097637 -1.197364 -1.577201 0.079890 -0.593938
 50 0.817882 -0.000000 -0.000001 -0.164298 1.212571 -0.146163
 51 0.708995 0.000002 -0.000000 0.062061 0.898421 -0.028374
 52 3.414728 0.449902 0.223653 -1.580784 0.013019 -0.654459
 53 1.390922 0.000002 -0.000001 0.005510 1.543565 0.018246
 54 0.906347 0.000000 0.000001 -0.006062 0.824979 -0.045570
 55 2.457049 0.024849 0.014095 0.000073 -0.005736 0.010114
 56 3.525410 0.419243 0.945132 -1.571888 -0.021860 -0.078400
 57 1.209882 -0.000002 -0.000000 -0.003943 0.519687 0.018610
 58 0.743920 0.000000 -0.000000 0.001656 0.537959 0.092843
 59 8.136640 0.000001 -0.000002 1.570797 -0.032533 -0.000000
 60 -2.049705 -10.210827 -6.607860 -1.355777 -1.290155 1.662444
 61 0.008387 -0.048311 -0.069476 -0.000000 -0.000000 -0.000000
time 8
  0 -1.580621 -11.307533 -3.211186 -0.100560 -0.245390 -0.252055
  1 0.250197 -3.917488 -0.099874 0.000000 -0.000000 0.000000
  2 0.337618 4.930949 0.877138 0.000000 -0.000000 0.000000
  3 0.249743 5.375676 -0.431249 0.000000 -0.000000 0.000000
  4 -2.477793 12.401384 4.136672 0.000000 -0.000000 0.000000
  5 0.241868 9.046291 0.896506 0.000000 -0.000000 0.000000
  6 0.000303 8.159075 -1.557893 0.000000 0.000000 0.000000
  7 0.246663 7.851890 -0.926848 0.000000 -0.000000 0.000000
  8 -2.477793 12.401384 4.136672 0.000000 -0.000000 0.000000
  9 0.000000 0.000000 -0.000000 0.000000 0.000000 0.000000
 10 0.000000 -15.653315 -6.600977 0.000000 0.000000 0.000000
 11 3.782053 -0.333789 -6.298581 -0.103794 -0.272772 -0.476051
 12 -0.000000 0.000000 0.000000 0.000000 0.000000 0.000000
 13 -5.947642 0.805164 -5.542013 0.000000 -1.387008 0.000000
 14 -0.000000 0.000000 0.000000 1.325214 0.232987 -2.426611
 15 8.403362 -0.000001 -0.000000 0.000000 1.629237 0.000000
 16 8.136638 -0.000001 -0.000000 -1.570796 -0.032553 -0.000000
 17 8.136637 0.000008 0.000005 -1.511507 -0.364312 0.088025
 18 1.369795 0.361443 1.237272 1.175075 -0.347333 0.479992
 19 1.320668 -0.000001 0.000000 0.201328 -0.139079 -0.045485
 20 1.066025 0.000000 -0.000000 -0.014471 -0.113783 0.196807
 21 1.039344 -0.000001 -0.000000 1.325744 0.991426 2.013611
 22 2.457049 -0.024848 0.014095 -0.000072 -0.005736 -0.010113
 23 3.525410 -0.419243 0.945132 1.626245 0.048737 0.074506
 24 1.209882 -0.000001 -0.000000 0.003943 -0.206332 -0.018611
 25 0.743917 0.000000 -0.000001 -0.001656 0.190763 -0.092843
 26 0.794890 0.000000 -0.000000 -0.000005 0.704556 -0.000608
 27 3.414728 -0.449901 0.223653 1.650780 0.104088 0.099970
 28 1.390921 -0.000000 0.000001 -0.004769 0.007032 -0.018048
 29 0.906346 0.000001 0.000000 0.006062 0.088654 0.045570
 30 0.776325 0.000000 0.000000 0.001079 0.866577 0.033798
 31 3.289557 -0.311001 -0.505976 1.612707 0.203066 0.145899
 32 1.262953 -0.000000 -0.000000 0.099702 0.008680 0.064309
 33 0.919430 0.000000 0.000000 -0.050474 0.070863 -0.004974
 34 0.803003 -0.000000 -0.000000 -0.163064 1.145489 -1.117549
 35 3.167419 -0.097637 -1.197365 1.650417 0.186299 0.166598
 36 0.817884 0.000000 -0.000000 0.063415 0.272873 0.011485
 37 0.708995 0.000000 0.000001 -0.039911 -0.253101 0.086949
 38 0.794784 -0.000000 -0.000000 -1.042950 1.141227 -1.966856
 39 5.566999 5.667288 -6.998626 0.000000 0.000000 0.000000
 40 0.000000 0.000000 0.000000 -1.672090 -0.046322 -0.716590
 41 8.403363 0.000001 -0.000001 0.000000 2.360188 0.000000
 42 8.136636 -0.000008 0.000002 1.783072 -0.960242 0.045654
 43 1.369793 -0.361443 1.237272 -1.127491 0.097656 -0.579344
 44 1.320668 0.000002 -0.000001 -0.218662 -0.109509 0.185068
 45 1.066023 -0.000000 0.000000 -0.025949 -0.111735 0.158666
 46 3.289559 0.311001 -0.505976 -1.569928 0.064069 -0.677339
 47 1.262953 -0.000000 -0.000001 -0.592079 1.417311 -0.637209
 48 0.919429 0.000002 -0.000000 0.132824 1.180916 0.124669
 49 3.167420 0.097637 -1.197364 -1.577201 0.079890 -0.593938
 50 0.817882 0.000000 -0.000001 -0.164298 1.212571 -0.146164
 51 0.708995 0.000002 -0.000000 0.062061 0.898421 -0.028374
 52 3.414728 0.449902 0.223653 -1.580784 0.013019 -0.654459
 53 1.390922 0.000002 -0.000001 0.005510 1.543565 0.018246
 54 0.906348 -0.000000 0.000001 -0.006062 0.824979 -0.045570
 55 2.457049 0.024849 0.014095 0.000073 -0.005736 0.010114
 56 3.525410 0.419243 0.945132 -1.571888 -0.021860 -0.078400
 57 1.209882 -0.000002 -0.000000 -0.003943 0.519687 0.018610
 58 0.743920 0.000000 0.000000 0.001656 0.537959 0.092843
 59 8.136639 0.000001 -0.000002 1.570797 -0.032533 -0.000000
 60 -2.396746 -9.880902 -6.557942 -1.430372 -1.229508 1.731729
 61 0.008386 -0.048312 -0.069475 0.000000 0.000000 -0.000000
time 9
  0 -2.264483 -11.139386 -2.918900 -0.197192 -0.298496 -0.227737
  1 0.250197 -3.917487 -0.099873 0.000000 0.000000 -0.000000
  2 0.337618 4.930950 0.877138 0.000000 0.000000 -0.000000
  3 0.249743 5.375676 -0.431248 0.000000 0.000000 -0.000000
  4 -2.477793 12.401384 4.136672 0.000000 0.000000 -0.000000
  5 0.241868 9.046292 0.896506 0.000000 0.000000 -0.000000
  6 0.000303 8.159076 -1.557892 0.000000 0.000000 0.000000
  7 0.246663 7.851891 -0.926848 0.000000 0.000000 -0.000000
  8 -2.477793 12.401384 4.136672 0.000000 0.000000 -0.000000
  9 -0.000000 -0.000000 0.000000 0.000000 0.000000 0.000000
 10 0.000000 -15.653315 -6.600977 0.000000 0.000000 0.000000
 11 3.518591 -0.215074 -6.933138 -0.114570 -0.326123 -0.373289
 12 -0.000000 -0.000000 0.000000 0.000000 0.000000 0.000000
 13 -6.565317 0.805164 -5.542013 0.000000 -1.416935 0.000000
 14 0.000000 0.000000 -0.000000 1.300699 0.246195 -2.434211
 15 8.403362 -0.000000 -0.000001 0.000000 1.666218 0.000000
 16 8.136638 0.000000 0.000001 -1.570796 -0.032553 0.000000
 17 8.136636 0.000008 0.000006 -1.561404 -0.297320 0.112443
 18 1.369794 0.361443 1.237272 1.175075 -0.347333 0.479992
 19 1.320668 -0.000000 0.000001 0.201328 -0.139079 -0.045485
 20 1.066025 0.000000 -0.000001 -0.014471 -0.113783 0.196807
 21 1.039344 -0.000001 0.000000 1.325744 0.991426 2.013611
 22 2.457049 -0.024849 0.014094 -0.000072 -0.005736 -0.010113
 23 3.525410 -0.419244 0.945132 1.626881 0.043661 0.088975
 24 1.209883 -0.000001 0.000001 0.003943 -0.148139 -0.018611
 25 0.743917 0.000000 0.000000 -0.001656 0.282203 -0.092843
 26 0.794889 -0.000000 0.000000 -0.000005 0.704556 -0.000608
 27 3.414728 -0.449903 0.223652 1.651400 0.102036 0.181609
 28 1.390922 -0.000000 0.000001 -0.004769 0.158287 -0.018048
 29 0.906346 0.000000 -0.000000 0.006062 0.026808 0.045570
 30 0.776325 0.000000 0.000000 0.001079 0.866577 0.033798
 31 3.289557 -0.311001 -0.505976 1.618895 0.180892 0.237617
 32 1.262952 -0.000001 -0.000000 0.136467 0.168002 0.110325
 33 0.919429 0.000000 0.000001 -0.050713 0.027258 -0.002730
 34 0.803004 -0.000000 -0.000000 -0.163064 1.145489 -1.117549
 35 3.167419 -0.097638 -1.197366 1.670519 0.150315 0.298108
 36 0.817884 0.000000 0.000001 0.072740 0.376396 0.024616
 37 0.708995 -0.000000 0.000000 -0.039911 -0.253101 0.086949
 38 0.794784 -0.000000 -0.000000 -1.042950 1.141227 -1.966856
 39 5.566999 5.667288 -6.998626 0.000000 0.000000 0.000000
 40 0.000000 0.000000 0.000000 -1.580373 -0.004338 -0.760687
 41 8.403362 0.000001 -0.000001 -0.000000 2.369703 -0.000000
 42 8.136637 -0.000007 0.000003 2.054741 -1.100415 -0.171097
 43 1.369793 -0.361442 1.237272 -1.113969 -0.023304 -0.651652
 44 1.320668 0.000002 -0.000000 -0.218662 -0.109509 0.185068
 45 1.066023 -0.000000 0.000000 -0.025949 -0.111735 0.158666
 46 3.289559 0.311001 -0.505976 -1.534010 0.081455 -0.528760
 47 1.262953 0.000000 -0.000001 -0.460974 1.011168 -0.481785
 48 0.919429 0.000002 -0.000001 0.112208 0.961333 0.097324
 49 3.167420 0.097638 -1.197364 -1.573973 0.084941 -0.446916
 50 0.817882 0.000000 -0.000001 -0.136594 0.910055 -0.106909
 51 0.708995 0.000001 -0.000000 0.056064 0.697300 -0.039732
 52 3.414728 0.449902 0.223654 -1.528555 0.014351 -0.463306
 53 1.390922 0.000002 -0.000001 0.005510 1.205109 0.018246
 54 0.906347 0.000000 0.000000 -0.006062 0.563639 -0.045570
 55 2.457049 0.024849 0.014095 0.000073 -0.005736 0.010114
 56 3.525410 0.419244 0.945132 -1.594655 -0.035315 -0.053161
 57 1.209882 -0.000002 -0.000000 -0.003943 0.389801 0.018610
 58 0.743920 0.000000 -0.000000 0.001656 0.430029 0.092843
 59 8.136640 0.000001 -0.000002 1.570797 -0.032533 -0.000000
 60 -2.759189 -9.574642 -6.321409 -1.459473 -1.122933 1.756968
 61 0.008386 -0.048311 -0.069476 -0.000000 0.000000 -0.000000
time 10
  0 -2.998269 -10.958965 -2.495739 -0.327270 -0.357030 -0.192529
  1 0.250197 -3.917488 -0.099873 0.000000 -0.000000 -0.000000
  2 0.337618 4.930949 0.877138 0.000000 -0.000000 -0.000000
  3 0.249743 5.375675 -0.431249 0.000000 -0.000000 -0.000000
  4 -2.477793 12.401384 4.136672 0.000000 -0.000000 -0.000000
  5 0.241868 9.046291 0.896506 0.000000 -0.000000 -0.000000
  6 0.000303 8.159075 -1.557893 0.000000 0.000000 0.000000
  7 0.246663 7.851890 -0.926848 0.000000 -0.000000 -0.000000
  8 -2.477793 12.401384 4.136672 0.000000 -0.000000 -0.000000
  9 -0.000000 -0.000000 0.000000 0.000000 0.000000 0.000000
 10 0.000000 -15.653315 -6.600977 0.000000 0.000000 0.000000
 11 3.791361 0.171302 -7.754005 -0.050450 -0.318546 -0.138241
 12 -0.000000 -0.000000 0.000000 0.000000 0.000000 0.000000
 13 -7.163589 0.805164 -5.542013 0.000000 -1.445922 0.000000
 14 -0.000000 0.000000 -0.000000 1.278499 0.258337 -2.429440
 15 8.403362 -0.000000 0.000000 0.000000 1.693795 0.000000
 16 8.136638 -0.000000 -0.000000 -1.570796 -0.032553 -0.000000
 17 8.136637 0.000008 0.000005 -1.613590 -0.203594 0.129543
 18 1.369794 0.361444 1.237272 1.175075 -0.347333 0.479992
 19 1.320668 -0.000000 0.000000 0.201328 -0.139079 -0.045485
 20 1.066025 0.000000 -0.000001 -0.014471 -0.113783 0.196807
 21 1.039343 -0.000002 -0.000000 1.325745 0.991426 2.013611
 22 2.457048 -0.024848 0.014094 -0.000072 -0.005736 -0.010113
 23 3.525410 -0.419242 0.945132 1.627782 0.036789 0.104796
 24 1.209883 -0.000001 0.000000 0.003943 -0.065866 -0.018611
 25 0.743917 0.000000 0.000000 -0.001656 0.411480 -0.092843
 26 0.794889 0.000000 0.000000 -0.000005 0.704556 -0.000608
 27 3.414727 -0.449901 0.223652 1.652276 0.099135 0.297029
 28 1.390921 -0.000000 -0.000000 -0.004769 0.372129 -0.018048
 29 0.906346 0.000000 -0.000000 0.006062 -0.060630 0.045570
 30 0.776325 0.000000 0.000000 0.001079 0.866577 0.033798
 31 3.289557 -0.311000 -0.505976 1.627643 0.149542 0.367288
 32 1.262953 -0.000000 0.000000 0.188444 0.393251 0.175382
 33 0.919429 0.000001 0.000000 -0.051052 -0.034391 0.000442
 34 0.803004 -0.000000 -0.000000 -0.163064 1.145489 -1.117549
 35 3.167419 -0.097637 -1.197365 1.698940 0.099440 0.484036
 36 0.817884 -0.000000 0.000000 0.085924 0.522757 0.043180
 37 0.708995 0.000000 -0.000000 -0.039911 -0.253101 0.086949
 38 0.794784 -0.000000 -0.000001 -1.042950 1.141227 -1.966856
 39 5.566999 5.667288 -6.998626 0.000000 0.000000 0.000000
 40 0.000000 0.000000 0.000000 -1.451035 0.050811 -0.711866
 41 8.403363 0.000001 -0.000001 0.000000 2.422505 0.000000
 42 8.136636 -0.000007 0.000002 2.532125 -1.317260 -0.671616
 43 1.369793 -0.361443 1.237273 -1.088856 -0.247945 -0.785939
 44 1.320668 0.000002 -0.000001 -0.218662 -0.109509 0.185068
 45 1.066023 0.000000 0.000000 -0.025949 -0.111735 0.158666
 46 3.289559 0.311001 -0.505976 -1.467305 0.113745 -0.252828
 47 1.262953 0.000000 -0.000001 -0.217494 0.256905 -0.193141
 48 0.919429 0.000001 -0.000000 0.073920 0.553536 0.046540
 49 3.167420 0.097638 -1.197364 -1.567976 0.094319 -0.173876
 50 0.817882 -0.000000 -0.000001 -0.085142 0.348239 -0.034008
 51 0.708994 0.000002 -0.000000 0.044928 0.323790 -0.060826
 52 3.414729 0.449902 0.223654 -1.431560 0.016824 -0.108308
 53 1.390922 0.000001 -0.000000 0.005510 0.576549 0.018246
 54 0.906347 -0.000000 0.000000 -0.006062 0.078293 -0.045570
 55 2.457049 0.024849 0.014096 0.000073 -0.005736 0.010114
 56 3.525410 0.419243 0.945133 -1.636935 -0.060301 -0.006288
 57 1.209882 -0.000002 -0.000000 -0.003943 0.148582 0.018610
 58 0.743920 -0.000000 0.000000 0.001656 0.229586 0.092843
 59 8.136639 0.000001 -0.000002 1.570797 -0.032533 -0.000000
 60 -3.123377 -9.319789 -6.004404 -1.471829 -0.986740 1.761001
 61 0.008386 -0.048311 -0.069476 -0.000000 0.000000 -0.000000
time 11
  0 -3.738486 -10.776962 -1.994053 -0.476516 -0.417137 -0.150788
  1 0.250197 -3.917488 -0.099873 -0.000000 0.000000 -0.000000
  2 0.337618 4.930949 0.877138 -0.000000 0.000000 -0.000000
  3 0.249743 5.375675 -0.431249 -0.000000 0.000000 -0.000000
  4 -2.477793 12.401383 4.136672 -0.000000 0.000000 -0.000000
  5 0.241868 9.046291 0.896506 -0.000000 0.000000 -0.000000
  6 0.000303 8.159074 -1.557893 0.000000 0.000000 0.000000
  7 0.246663 7.851889 -0.926849 -0.000000 0.000000 -0.000000
  8 -2.477793 12.401383 4.136672 -0.000000 0.000000 -0.000000
  9 -0.000000 0.000000 0.000000 0.000000 0.000000 0.000000
 10 0.000000 -15.653315 -6.600977 0.000000 0.000000 0.000000
 11 4.555304 0.567909 -8.732964 0.085605 -0.197814 0.137038
 12 -0.000000 0.000000 -0.000000 0.000000 0.000000 0.000000
 13 -7.723053 0.805164 -5.542013 0.000000 -1.473029 0.000000
 14 0.000000 0.000000 -0.000000 1.261374 0.269541 -2.414110
 15 8.403362 -0.000000 -0.000001 0.000000 1.704875 0.000000
 16 8.136638 -0.000001 0.000001 -1.570796 -0.032553 0.000000
 17 8.136637 0.000008 0.000006 -1.663095 -0.088794 0.139925
 18 1.369794 0.361443 1.237272 1.175075 -0.347333 0.479992
 19 1.320667 -0.000000 -0.000000 0.201328 -0.139079 -0.045485
 20 1.066025 0.000000 -0.000000 -0.014471 -0.113783 0.196807
 21 1.039344 -0.000001 0.000000 1.325745 0.991426 2.013611
 22 2.457049 -0.024849 0.014094 -0.000072 -0.005736 -0.010113
 23 3.525410 -0.419243 0.945132 1.628814 0.029060 0.120664
 24 1.209883 -0.000001 -0.000000 0.003943 0.028447 -0.018611
 25 0.743918 0.000000 0.000000 -0.001656 0.559676 -0.092843
 26 0.794890 0.000000 0.000000 -0.000005 0.704556 -0.000608
 27 3.414728 -0.449902 0.223652 1.653280 0.095809 0.429341
 28 1.390921 -0.000001 -0.000000 -0.004769 0.617265 -0.018048
 29 0.906346 0.000000 0.000000 0.006062 -0.160863 0.045570
 30 0.776325 -0.000000 0.000000 0.001079 0.866577 0.033798
 31 3.289557 -0.311001 -0.505976 1.637672 0.113604 0.515935
 32 1.262953 -0.000000 0.000000 0.248029 0.651463 0.249959
 33 0.919429 0.000000 0.000001 -0.051441 -0.105061 0.004078
 34 0.803004 -0.000000 -0.000000 -0.163064 1.145489 -1.117549
 35 3.167419 -0.097638 -1.197365 1.731519 0.041120 0.697172
 36 0.817884 -0.000000 -0.000000 0.101037 0.690537 0.064461
 37 0.708995 0.000000 0.000000 -0.039911 -0.253101 0.086949
 38 0.794784 -0.000001 -0.000001 -1.042950 1.141227 -1.966856
 39 5.566999 5.667288 -6.998626 0.000000 0.000000 0.000000
 40 0.000000 0.000000 0.000000 -1.270745 0.118641 -0.561238
 41 8.403363 0.000001 -0.000001 -0.000000 2.466781 -0.000000
 42 8.136636 -0.000008 0.000003 0.184341 -1.779939 1.485690
 43 1.369793 -0.361443 1.237272 -1.075334 -0.368906 -0.858247
 44 1.320668 0.000002 -0.000000 -0.218662 -0.109509 0.185068
 45 1.066023 -0.000000 0.000000 -0.025948 -0.111735 0.158666
 46 3.289559 0.311001 -0.505977 -1.431386 0.131131 -0.104249
 47 1.262953 -0.000001 -0.000001 -0.086389 -0.149237 -0.037718
 48 0.919429 0.000002 -0.000000 0.053304 0.333953 0.019195
 49 3.167421 0.097637 -1.197364 -1.564747 0.099370 -0.026855
 50 0.817882 -0.000000 -0.000001 -0.057438 0.045723 0.005247
 51 0.708995 0.000001 -0.000000 0.038932 0.122669 -0.072185
 52 3.414729 0.449902 0.223653 -1.379331 0.018156 0.082844
 53 1.390922 0.000002 0.000000 0.005510 0.238093 0.018246
 54 0.906347 -0.000000 0.000001 -0.006062 -0.183047 -0.045570
 55 2.457049 0.024849 0.014095 0.000073 -0.005736 0.010114
 56 3.525410 0.419243 0.945132 -1.659702 -0.073756 0.018951
 57 1.209882 -0.000002 -0.000000 -0.003943 0.018695 0.018610
 58 0.743920 -0.000000 -0.000000 0.001656 0.121655 0.092843
 59 8.136639 0.000000 -0.000002 1.570797 -0.032533 -0.000000
 60 -3.474829 -9.170794 -5.669713 -1.484140 -0.836264 1.756047
 61 0.008385 -0.048311 -0.069476 -0.000000 -0.000000 -0.000000
time 12
  0 -4.441644 -10.604072 -1.466192 -0.630648 -0.474961 -0.106869
  1 0.250197 -3.917488 -0.099874 -0.000000 -0.000000 0.000000
  2 0.337618 4.930949 0.877138 -0.000000 -0.000000 0.000000
  3 0.249743 5.375676 -0.431248 -0.000000 -0.000000 0.000000
  4 -2.477793 12.401384 4.136673 -0.000000 -0.000000 0.000000
  5 0.241868 9.046291 0.896507 -0.000000 -0.000000 0.000000
  6 0.000303 8.159075 -1.557893 0.000000 0.000000 0.000000
  7 0.246663 7.851890 -0.926848 -0.000000 -0.000000 0.000000
  8 -2.477793 12.401384 4.136673 -0.000000 -0.000000 0.000000
  9 0.000000 0.000000 -0.000000 0.000000 0.000000 0.000000
 10 0.000000 -15.653315 -6.600977 0.000000 0.000000 0.000000
 11 5.729249 0.766512 -9.759208 0.307212 0.033455 0.361349
 12 -0.000000 -0.000000 -0.000000 0.000000 0.000000 0.000000
 13 -8.224308 0.805164 -5.542013 0.000000 -1.497316 0.000000
 14 0.000000 0.000000 0.000000 1.254488 0.278376 -2.385283
 15 8.403360 -0.000000 -0.000001 0.000000 1.691808 0.000000
 16 8.136638 -0.000000 0.000001 -1.570796 -0.032553 0.000000
 17 8.136638 0.000008 0.000006 -1.703454 0.038421 0.144303
 18 1.369795 0.361443 1.237272 1.175074 -0.347333 0.479992
 19 1.320667 -0.000001 0.000000 0.201328 -0.139079 -0.045485
 20 1.066025 0.000000 -0.000000 -0.014471 -0.113783 0.196807
 21 1.039344 -0.000001 0.000001 1.325744 0.991426 2.013611
 22 2.457049 -0.024848 0.014094 -0.000072 -0.005736 -0.010113
 23 3.525410 -0.419243 0.945132 1.629846 0.021414 0.135275
 24 1.209883 -0.000001 0.000000 0.003943 0.122760 -0.018611
 25 0.743917 0.000000 -0.000000 -0.001656 0.707872 -0.092843
 26 0.794890 -0.000000 -0.000000 -0.000005 0.704556 -0.000608
 27 3.414727 -0.449902 0.223652 1.654285 0.092483 0.561652
 28 1.390921 -0.000001 0.000000 -0.004769 0.862401 -0.018048
 29 0.906346 0.000000 0.000000 0.006062 -0.261096 0.045570
 30 0.776325 -0.000000 -0.000001 0.001079 0.866577 0.033798
 31 3.289557 -0.311001 -0.505976 1.647701 0.077666 0.664582
 32 1.262953 -0.000000 0.000000 0.307613 0.909675 0.324536
 33 0.919429 0.000000 0.000000 -0.051829 -0.175732 0.007714
 34 0.803004 -0.000001 -0.000001 -0.163064 1.145489 -1.117549
 35 3.167419 -0.097637 -1.197365 1.764099 -0.017200 0.910308
 36 0.817884 -0.000000 -0.000000 0.116150 0.858317 0.085742
 37 0.708995 -0.000000 0.000000 -0.039911 -0.253101 0.086949
 38 0.794784 -0.000000 -0.000000 -1.042950 1.141227 -1.966856
 39 5.566999 5.667288 -6.998626 0.000000 0.000000 0.000000
 40 0.000000 0.000000 0.000000 -1.090995 0.188372 -0.312342
 41 8.403363 0.000001 -0.000001 -0.000000 2.447405 0.000000
 42 8.136636 -0.000008 0.000003 2.726549 -1.380729 -1.342459
 43 1.369794 -0.361442 1.237272 -1.075334 -0.368906 -0.858247
 44 1.320668 0.000002 -0.000001 -0.218662 -0.109509 0.185068
 45 1.066023 -0.000001 0.000000 -0.025949 -0.111735 0.158666
 46 3.289559 0.311001 -0.505976 -1.431386 0.131131 -0.104249
 47 1.262953 0.000001 -0.000001 -0.086389 -0.149237 -0.037718
 48 0.919429 0.000002 -0.000001 0.053304 0.333953 0.019195
 49 3.167420 0.097638 -1.197364 -1.564747 0.099370 -0.026855
 50 0.817882 -0.000001 -0.000001 -0.057438 0.045723 0.005247
 51 0.708995 0.000002 -0.000000 0.038932 0.122669 -0.072185
 52 3.414729 0.449902 0.223654 -1.379331 0.018156 0.082844
 53 1.390922 0.000002 -0.000000 0.005510 0.238093 0.018246
 54 0.906347 0.000000 0.000001 -0.006062 -0.183047 -0.045570
 55 2.457049 0.024849 0.014095 0.000073 -0.005736 0.010114
 56 3.525410 0.419243 0.945132 -1.659702 -0.073756 0.018951
 57 1.209882 -0.000001 -0.000000 -0.003943 0.018695 0.018610
 58 0.743920 0.000000 -0.000000 0.001656 0.121655 0.092843
 59 8.136639 -0.000000 -0.000002 1.570797 -0.032533 -0.000000
 60 -3.813901 -9.193247 -5.329589 -1.501684 -0.686255 1.745474
 61 0.008386 -0.048311 -0.069476 -0.000000 0.000000 -0.000000
time 13
  0 -5.064251 -10.450986 -0.964507 -0.775387 -0.526647 -0.065128
  1 0.250197 -3.917489 -0.099874 0.000000 0.000000 0.000000
  2 0.337617 4.930949 0.877138 0.000000 0.000000 0.000000
  3 0.249742 5.375675 -0.431249 0.000000 0.000000 0.000000
  4 -2.477794 12.401383 4.136672 0.000000 0.000000 0.000000
  5 0.241867 9.046291 0.896506 0.000000 0.000000 0.000000
  6 0.000303 8.159075 -1.557893 0.000000 0.000000 0.000000
  7 0.246663 7.851890 -0.926848 0.000000 0.000000 0.000000
  8 -2.477794 12.401383 4.136672 0.000000 0.000000 0.000000
  9 -0.000000 0.000000 0.000000 0.000000 0.000000 0.000000
 10 0.000000 -15.653315 -6.600977 0.000000 0.000000 0.000000
 11 7.153809 0.677338 -10.668036 0.583952 0.319461 0.502878
 12 -0.000000 -0.000000 0.000000 0.000000 0.000000 0.000000
 13 -8.647948 0.805164 -5.542013 0.000000 -1.517843 0.000000
 14 0.000000 0.000000 -0.000000 1.263840 0.281648 -2.337939
 15 8.403362 -0.000000 -0.000000 -0.000000 1.649008 -0.000000
 16 8.136637 -0.000001 -0.000001 -1.570796 -0.032553 0.000000
 17 8.136637 0.000008 0.000005 -1.726925 0.166530 0.144021
 18 1.369795 0.361444 1.237273 1.175075 -0.347333 0.479992
 19 1.320668 -0.000000 -0.000001 0.201328 -0.139079 -0.045485
 20 1.066025 0.000000 -0.000000 -0.014471 -0.113783 0.196807
 21 1.039344 -0.000001 -0.000000 1.325745 0.991426 2.013611
 22 2.457049 -0.024848 0.014095 -0.000072 -0.005736 -0.010113
 23 3.525410 -0.419242 0.945132 1.630747 0.014789 0.147327
 24 1.209883 -0.000001 -0.000000 0.003943 0.205032 -0.018611
 25 0.743917 0.000000 -0.000000 -0.001656 0.837149 -0.092843
 26 0.794890 -0.000000 -0.000000 -0.000005 0.704556 -0.000608
 27 3.414728 -0.449901 0.223652 1.655161 0.089582 0.677072
 28 1.390922 -0.000000 -0.000000 -0.004769 1.076243 -0.018048
 29 0.906345 0.000001 0.000000 0.006062 -0.348534 0.045570
 30 0.776325 -0.000000 -0.000000 0.001079 0.866577 0.033798
 31 3.289557 -0.311000 -0.505976 1.656449 0.046317 0.794253
 32 1.262952 -0.000000 0.000000 0.359591 1.134924 0.389593
 33 0.919429 0.000000 0.000000 -0.052168 -0.237380 0.010886
 34 0.803003 -0.000000 -0.000001 -0.163064 1.145489 -1.117549
 35 3.167419 -0.097637 -1.197365 1.792519 -0.068074 1.096236
 36 0.817884 0.000000 -0.000000 0.129334 1.004678 0.104307
 37 0.708995 -0.000000 0.000000 -0.039911 -0.253101 0.086949
 38 0.794784 -0.000000 -0.000000 -1.042950 1.141227 -1.966856
 39 5.566999 5.667288 -6.998626 0.000000 0.000000 0.000000
 40 0.000000 0.000000 0.000000 -1.004784 0.244553 -0.056203
 41 8.403363 0.000001 -0.000002 -0.000000 2.347384 -0.000000
 42 8.136636 -0.000007 0.000003 1.364930 -1.151571 -0.178130
 43 1.369793 -0.361442 1.237273 -1.075334 -0.368906 -0.858247
 44 1.320668 0.000001 -0.000001 -0.218662 -0.109509 0.185068
 45 1.066023 -0.000001 -0.000000 -0.025949 -0.111735 0.158666
 46 3.289558 0.311002 -0.505976 -1.431386 0.131131 -0.104249
 47 1.262952 0.000000 -0.000001 -0.086389 -0.149237 -0.037718
 48 0.919428 0.000002 -0.000000 0.053304 0.333953 0.019195
 49 3.167419 0.097638 -1.197363 -1.564747 0.099370 -0.026855
 50 0.817881 -0.000000 -0.000001 -0.057438 0.045723 0.005247
 51 0.708995 0.000002 0.000000 0.038932 0.122669 -0.072185
 52 3.414728 0.449903 0.223654 -1.379331 0.018156 0.082844
 53 1.390922 0.000002 -0.000000 0.005510 0.238093 0.018246
 54 0.906348 -0.000000 0.000001 -0.006062 -0.183047 -0.045570
 55 2.457048 0.024850 0.014096 0.000073 -0.005736 0.010114
 56 3.525409 0.419244 0.945132 -1.659702 -0.073756 0.018951
 57 1.209882 -0.000002 -0.000000 -0.003943 0.018695 0.018610
 58 0.743920 0.000000 -0.000000 0.001656 0.121655 0.092843
 59 8.136639 0.000001 -0.000002 1.570797 -0.032533 -0.000000
 60 -4.168954 -9.437640 -4.964313 -1.523926 -0.550421 1.730528
 61 0.008386 -0.048311 -0.069475 -0.000000 -0.000000 -0.000000
time 14
  0 -5.562817 -10.328400 -0.541346 -0.896452 -0.568339 -0.029920
  1 0.250197 -3.917488 -0.099874 -0.000000 0.000000 0.000000
  2 0.337617 4.930949 0.877138 -0.000000 0.000000 0.000000
  3 0.249742 5.375675 -0.431248 -0.000000 0.000000 0.000000
  4 -2.477793 12.401383 4.136672 -0.000000 0.000000 0.000000
  5 0.241867 9.046291 0.896506 -0.000000 0.000000 0.000000
  6 0.000303 8.159075 -1.557893 0.000000 0.000000 0.000000
  7 0.246662 7.851890 -0.926848 -0.000000 0.000000 0.000000
  8 -2.477793 12.401383 4.136672 -0.000000 0.000000 0.000000
  9 -0.000000 -0.000000 -0.000000 0.000000 0.000000 0.000000
 10 0.000000 -15.653315 -6.600977 0.000000 0.000000 0.000000
 11 8.573639 0.364217 -11.326912 0.852698 0.592109 0.574067
 12 -0.000000 -0.000000 0.000000 0.000000 0.000000 0.000000
 13 -8.974572 0.805164 -5.542013 0.000000 -1.533667 0.000000
 14 -0.000000 0.000000 0.000000 1.280843 0.280775 -2.283127
 15 8.403362 0.000001 -0.000000 -0.000000 1.595187 -0.000000
 16 8.136638 0.000000 0.000000 -1.570796 -0.032553 0.000000
 17 8.136637 0.000008 0.000005 -1.737448 0.275244 0.145668
 18 1.369795 0.361443 1.237272 1.175075 -0.347333 0.479992
 19 1.320668 -0.000000 -0.000000 0.201328 -0.139079 -0.045485
 20 1.066025 0.000000 -0.000000 -0.014471 -0.113783 0.196807
 21 1.039344 -0.000001 -0.000000 1.325745 0.991426 2.013611
 22 2.457049 -0.024848 0.014094 -0.000072 -0.005736 -0.010113
 23 3.525410 -0.419243 0.945132 1.631384 0.010126 0.155514
 24 1.209883 -0.000000 0.000000 0.003943 0.263225 -0.018611
 25 0.743917 0.000001 0.000000 -0.001656 0.928589 -0.092843
 26 0.794890 -0.000000 -0.000000 -0.000005 0.704556 -0.000608
 27 3.414728 -0.449902 0.223652 1.655781 0.087530 0.758711
 28 1.390921 -0.000001 -0.000000 -0.004769 1.227498 -0.018048
 29 0.906346 0.000001 0.000000 0.006062 -0.410380 0.045570
 30 0.776324 -0.000000 -0.000000 0.001079 0.866577 0.033798
 31 3.289557 -0.311000 -0.505976 1.662637 0.024142 0.885971
 32 1.262953 -0.000000 0.000001 0.396356 1.294247 0.435609
 33 0.919430 -0.000000 0.000000 -0.052408 -0.280986 0.013129
 34 0.803003 -0.000000 -0.000001 -0.163064 1.145489 -1.117549
 35 3.167419 -0.097637 -1.197365 1.812621 -0.104059 1.227745
 36 0.817884 -0.000000 -0.000000 0.138659 1.108202 0.117438
 37 0.708995 0.000000 -0.000000 -0.039911 -0.253101 0.086949
 38 0.794784 -0.000000 -0.000001 -1.042950 1.141227 -1.966856
 39 5.566999 5.667288 -6.998626 0.000000 0.000000 0.000000
 40 0.000000 0.000000 0.000000 -1.013726 0.281581 0.096154
 41 8.403363 0.000000 -0.000002 0.000000 2.203984 0.000000
 42 8.136636 -0.000008 0.000003 0.977480 -0.691523 0.126252
 43 1.369794 -0.361443 1.237272 -1.075334 -0.368906 -0.858247
 44 1.320668 0.000002 -0.000000 -0.218662 -0.109509 0.185068
 45 1.066023 0.000000 -0.000001 -0.025949 -0.111735 0.158666
 46 3.289558 0.311000 -0.505976 -1.431386 0.131131 -0.104249
 47 1.262953 -0.000000 -0.000001 -0.086389 -0.149237 -0.037718
 48 0.919429 0.000002 -0.000001 0.053304 0.333953 0.019195
 49 3.167420 0.097637 -1.197364 -1.564747 0.099370 -0.026855
 50 0.817882 -0.000000 -0.000000 -0.057438 0.045723 0.005247
 51 0.708994 0.000002 -0.000000 0.038932 0.122669 -0.072185
 52 3.414729 0.449902 0.223654 -1.379331 0.018156 0.082844
 53 1.390922 0.000002 -0.000000 0.005510 0.238093 0.018246
 54 0.906347 -0.000000 -0.000000 -0.006062 -0.183047 -0.045570
 55 2.457049 0.024849 0.014096 0.000073 -0.005736 0.010114
 56 3.525410 0.419243 0.945133 -1.659702 -0.073756 0.018951
 57 1.209882 -0.000002 0.000000 -0.003943 0.018695 0.018610
 58 0.743920 0.000000 -0.000000 0.001656 0.121655 0.092843
 59 8.136639 -0.000000 -0.000002 1.570797 -0.032533 -0.000001
 60 -4.497823 -9.766199 -4.588147 -1.547103 -0.440869 1.713685
 61 0.008386 -0.048311 -0.069476 -0.000000 0.000000 -0.000000
time 15
  0 -5.893850 -10.247006 -0.249060 -0.979563 -0.596182 -0.005602
  1 0.250197 -3.917489 -0.099874 0.000000 -0.000000 -0.000000
  2 0.337618 4.930950 0.877138 0.000000 -0.000000 -0.000000
  3 0.249742 5.375676 -0.431249 0.000000 -0.000000 -0.000000
  4 -2.477793 12.401385 4.136672 0.000000 -0.000000 -0.000000
  5 0.241867 9.046292 0.896506 0.000000 -0.000000 -0.000000
  6 0.000303 8.159075 -1.557893 0.000000 0.000000 0.000000
  7 0.246663 7.851891 -0.926848 0.000000 -0.000000 -0.000000
  8 -2.477793 12.401385 4.136672 0.000000 -0.000000 -0.000000
  9 -0.000000 -0.000000 0.000000 0.000000 0.000000 0.000000
 10 0.000000 -15.653315 -6.600977 0.000000 0.000000 0.000000
 11 9.665187 0.015757 -11.698960 1.049848 0.791691 0.599377
 12 -0.000000 -0.000000 -0.000000 0.000000 0.000000 0.000000
 13 -9.184775 0.805164 -5.542013 0.000000 -1.543851 0.000000
 14 -0.000000 0.000000 0.000000 1.292565 0.280289 -2.241714
 15 8.403361 -0.000001 -0.000001 0.000000 1.555597 0.000000
 16 8.136637 -0.000001 -0.000000 -1.570796 -0.032553 -0.000000
 17 8.136636 0.000007 0.000005 -1.743767 0.347452 0.150870
 18 1.369794 0.361443 1.237272 1.175075 -0.347333 0.479992
 19 1.320668 -0.000000 0.000000 0.201328 -0.139079 -0.045485
 20 1.066025 0.000000 -0.000000 -0.014471 -0.113783 0.196807
 21 1.039343 -0.000001 -0.000000 1.325744 0.991426 2.013611
 22 2.457048 -0.024848 0.014095 -0.000072 -0.005736 -0.010113
 23 3.525409 -0.419243 0.945132 1.631625 0.008362 0.158532
 24 1.209883 -0.000000 0.000001 0.003943 0.285298 -0.018611
 25 0.743917 0.000000 0.000000 -0.001656 0.963273 -0.092843
 26 0.794889 0.000000 -0.000000 -0.000005 0.704556 -0.000608
 27 3.414727 -0.449901 0.223652 1.656016 0.086751 0.789677
 28 1.390921 -0.000000 0.000001 -0.004769 1.284870 -0.018048
 29 0.906346 0.000000 0.000000 0.006062 -0.433838 0.045570
 30 0.776325 -0.000000 -0.000000 0.001079 0.866577 0.033798
 31 3.289557 -0.311001 -0.505976 1.664984 0.015731 0.920761
 32 1.262953 -0.000000 -0.000000 0.410301 1.354679 0.453063
 33 0.919429 0.000000 0.000000 -0.052499 -0.297525 0.013980
 34 0.803003 -0.000001 -0.000001 -0.163064 1.145489 -1.117549
 35 3.167419 -0.097637 -1.197365 1.820246 -0.117708 1.277629
 36 0.817884 -0.000000 -0.000000 0.142196 1.147469 0.122418
 37 0.708995 0.000000 0.000000 -0.039911 -0.253101 0.086949
 38 0.794784 -0.000000 -0.000000 -1.042950 1.141227 -1.966856
 39 5.566999 5.667288 -6.998626 0.000000 0.000000 0.000000
 40 0.000000 0.000000 0.000000 -1.052623 0.301643 0.147033
 41 8.403362 0.000001 -0.000001 0.000000 2.074397 -0.000000
 42 8.136636 -0.000007 0.000003 0.852693 -0.307623 0.226523
 43 1.369793 -0.361443 1.237273 -1.075334 -0.368906 -0.858247
 44 1.320668 0.000002 -0.000001 -0.218662 -0.109509 0.185068
 45 1.066023 0.000000 0.000000 -0.025949 -0.111735 0.158666
 46 3.289559 0.311001 -0.505976 -1.431386 0.131131 -0.104249
 47 1.262953 -0.000000 -0.000001 -0.086389 -0.149237 -0.037718
 48 0.919429 0.000002 -0.000000 0.053304 0.333953 0.019195
 49 3.167420 0.097637 -1.197364 -1.564747 0.099370 -0.026855
 50 0.817882 0.000000 -0.000001 -0.057438 0.045723 0.005247
 51 0.708995 0.000002 0.000000 0.038932 0.122669 -0.072185
 52 3.414728 0.449901 0.223654 -1.379331 0.018156 0.082844
 53 1.390922 0.000002 -0.000001 0.005510 0.238093 0.018246
 54 0.906348 0.000000 0.000001 -0.006062 -0.183047 -0.045570
 55 2.457049 0.024849 0.014095 0.000073 -0.005736 0.010114
 56 3.525410 0.419242 0.945132 -1.659702 -0.073756 0.018951
 57 1.209881 -0.000002 -0.000000 -0.003943 0.018695 0.018610
 58 0.743920 -0.000000 0.000000 0.001656 0.121655 0.092843
 59 8.136638 0.000000 -0.000001 1.570797 -0.032533 -0.000000
 60 -4.712474 -9.991808 -4.294563 -1.565459 -0.368015 1.699506
 61 0.008386 -0.048311 -0.069476 -0.000000 -0.000000 -0.000000
time 16
  0 -6.013859 -10.217499 -0.139997 -1.010440 -0.606320 0.003472
  1 0.250197 -3.917488 -0.099873 0.000000 -0.000000 0.000000
  2 0.337618 4.930949 0.877138 0.000000 -0.000000 0.000000
  3 0.249743 5.375675 -0.431248 0.000000 -0.000000 0.000000
  4 -2.477793 12.401383 4.136672 0.000000 -0.000000 0.000000
  5 0.241868 9.046291 0.896506 0.000000 -0.000000 0.000000
  6 0.000304 8.159075 -1.557892 0.000000 0.000000 0.000000
  7 0.246663 7.851890 -0.926848 0.000000 -0.000000 0.000000
  8 -2.477793 12.401383 4.136672 0.000000 -0.000000 0.000000
  9 0.000000 -0.000000 -0.000000 0.000000 0.000000 0.000000
 10 0.000000 -15.653315 -6.600977 0.000000 0.000000 0.000000
 11 10.095774 -0.141058 -11.818030 1.124893 0.868219 0.603711
 12 -0.000000 0.000000 -0.000000 0.000000 0.000000 0.000000
 13 -9.259155 0.805164 -5.542013 0.000000 -1.547455 0.000000
 14 -0.000000 0.000000 -0.000000 1.296971 0.280080 -2.225587
 15 8.403363 -0.000000 -0.000001 -0.000000 1.540369 -0.000000
 16 8.136638 -0.000001 -0.000000 -1.570796 -0.032553 0.000000
 17 8.136637 0.000008 0.000006 -1.745846 0.373772 0.153611
 18 1.369795 0.361443 1.237272 1.175074 -0.347333 0.479992
 19 1.320667 -0.000001 0.000000 0.201328 -0.139079 -0.045485
 20 1.066025 -0.000000 -0.000000 -0.014471 -0.113783 0.196807
 21 1.039344 -0.000002 -0.000000 1.325745 0.991426 2.013611
 22 2.457049 -0.024848 0.014094 -0.000072 -0.005736 -0.010113
 23 3.525410 -0.419244 0.945132 1.631625 0.008362 0.158532
 24 1.209883 -0.000000 0.000000 0.003943 0.285298 -0.018611
 25 0.743917 0.000000 0.000001 -0.001656 0.963273 -0.092843
 26 0.794889 0.000000 0.000000 -0.000005 0.704556 -0.000608
 27 3.414728 -0.449902 0.223652 1.656016 0.086751 0.789677
 28 1.390922 -0.000000 0.000000 -0.004769 1.284870 -0.018048
 29 0.906346 0.000000 0.000000 0.006062 -0.433839 0.045570
 30 0.776324 0.000000 -0.000000 0.001079 0.866577 0.033798
 31 3.289557 -0.311001 -0.505976 1.664984 0.015731 0.920761
 32 1.262952 -0.000000 0.000000 0.410302 1.354679 0.453063
 33 0.919429 -0.000000 -0.000000 -0.052499 -0.297525 0.013980
 34 0.803004 -0.000001 -0.000001 -0.163064 1.145489 -1.117549
 35 3.167419 -0.097637 -1.197365 1.820246 -0.117708 1.277629
 36 0.817884 -0.000000 0.000000 0.142196 1.147469 0.122418
 37 0.708995 -0.000000 0.000000 -0.039911 -0.253101 0.086949
 38 0.794783 -0.000001 -0.000001 -1.042950 1.141227 -1.966856
 39 5.566999 5.667288 -6.998626 0.000000 0.000000 0.000000
 40 0.000000 0.000000 0.000000 -1.071852 0.307957 0.154620
 41 8.403363 0.000001 -0.000001 0.000000 2.019577 0.000000
 42 8.136637 -0.000007 0.000002 0.822179 -0.154483 0.254495
 43 1.369793 -0.361442 1.237272 -1.075334 -0.368906 -0.858247
 44 1.320668 0.000002 -0.000001 -0.218662 -0.109509 0.185068
 45 1.066023 0.000000 -0.000000 -0.025949 -0.111735 0.158666
 46 3.289559 0.311001 -0.505977 -1.431386 0.131131 -0.104249
 47 1.262953 0.000000 -0.000001 -0.086389 -0.149237 -0.037718
 48 0.919429 0.000002 -0.000000 0.053304 0.333953 0.019195
 49 3.167420 0.097637 -1.197364 -1.564747 0.099370 -0.026855
 50 0.817882 -0.000000 -0.000001 -0.057438 0.045723 0.005247
 51 0.708995 0.000002 0.000000 0.038932 0.122669 -0.072185
 52 3.414728 0.449902 0.223653 -1.379331 0.018156 0.082844
 53 1.390922 0.000002 -0.000001 0.005510 0.238093 0.018246
 54 0.906347 -0.000000 -0.000000 -0.006062 -0.183047 -0.045570
 55 2.457049 0.024850 0.014095 0.000073 -0.005736 0.010114
 56 3.525409 0.419243 0.945132 -1.659702 -0.073756 0.018951
 57 1.209882 -0.000002 -0.000001 -0.003943 0.018695 0.018610
 58 0.743920 -0.000000 0.000000 0.001656 0.121655 0.092843
 59 8.136639 0.000000 -0.000003 1.570797 -0.032533 -0.000000
 60 -4.789951 -10.075361 -4.178403 1.568845 -2.800117 -1.447949
 61 0.008386 -0.048311 -0.069476 0.000000 0.000000 -0.000000
end
